<svg width="28" height="31" viewBox="0 0 28 31" fill="none" xmlns="http://www.w3.org/2000/svg">
<path d="M12.6649 0.351665L1.33383 6.78866C0.507631 7.25754 0 8.12396 0 9.06174V21.9357C0 22.8735 0.507631 23.7399 1.33383 24.2088L12.6649 30.6458C13.4911 31.1147 14.5063 31.1147 15.3325 30.6458L26.6636 24.2088C27.4898 23.7399 27.9974 22.8735 27.9974 21.9357V9.06174C27.9974 8.12396 27.4898 7.25754 26.6636 6.78866L15.3351 0.351665C14.5089 -0.117222 13.4911 -0.117222 12.6649 0.351665Z" fill="#FAFBFB"/>
<path d="M26.1534 22.4046V8.59539L13.9987 1.68951L1.84406 8.59539V22.4046L13.9987 29.3079L26.1534 22.4046Z" fill="#2C2C2C" stroke="#48BA86" stroke-width="0.4963" stroke-miterlimit="10"/>
<path d="M14.0142 5.62918L5.3327 10.5601V10.6035L14.0142 15.4962V5.62918Z" fill="#D3EBE0"/>
<path d="M14.0143 15.4962V25.3632L14.022 25.3657L22.7087 20.4297V20.394L14.0143 15.4962Z" fill="#5EBF94"/>
<path d="M14.0142 15.4962L5.3327 10.6035V20.4246L14.0142 15.4962Z" fill="#48BA86"/>
<path d="M5.3327 20.4246V20.4297L14.0142 25.3632V15.4962L5.3327 20.4246Z" fill="#ADDBC8"/>
<path d="M22.7139 10.5576L14.0143 15.5013V5.62408L22.7139 10.5576Z" fill="#86CCAC"/>
</svg>
