<svg width="114" height="31" viewBox="0 0 114 31" fill="none" xmlns="http://www.w3.org/2000/svg">
<path d="M12.6649 0.351665L1.33383 6.78866C0.507631 7.25754 0 8.12396 0 9.06174V21.9357C0 22.8735 0.507631 23.7399 1.33383 24.2088L12.6649 30.6458C13.4911 31.1147 14.5063 31.1147 15.3325 30.6458L26.6636 24.2088C27.4898 23.7399 27.9974 22.8735 27.9974 21.9357V9.06174C27.9974 8.12396 27.4898 7.25754 26.6636 6.78866L15.3351 0.351665C14.5089 -0.117222 13.4911 -0.117222 12.6649 0.351665Z" fill="#FAFBFB"/>
<path d="M26.1533 22.4046V8.59539L13.9987 1.68951L1.84404 8.59539V22.4046L13.9987 29.3079L26.1533 22.4046Z" fill="#2C2C2C" stroke="#48BA86" stroke-width="0.4963" stroke-miterlimit="10"/>
<path d="M14.0142 5.62918L5.33272 10.5601V10.6035L14.0142 15.4962V5.62918Z" fill="#D3EBE0"/>
<path d="M14.0143 15.4962V25.3632L14.022 25.3657L22.7087 20.4297V20.394L14.0143 15.4962Z" fill="#5EBF94"/>
<path d="M14.0142 15.4962L5.33272 10.6035V20.4246L14.0142 15.4962Z" fill="#48BA86"/>
<path d="M5.33272 20.4246V20.4297L14.0142 25.3632V15.4962L5.33272 20.4246Z" fill="#ADDBC8"/>
<path d="M22.7139 10.5576L14.0143 15.5013V5.62408L22.7139 10.5576Z" fill="#86CCAC"/>
<path d="M40.62 19.144C39.772 19.144 39.044 18.964 38.436 18.604C37.828 18.236 37.36 17.728 37.032 17.08C36.704 16.424 36.54 15.668 36.54 14.812C36.54 13.956 36.704 13.2 37.032 12.544C37.36 11.888 37.828 11.376 38.436 11.008C39.044 10.64 39.772 10.456 40.62 10.456C41.628 10.456 42.452 10.708 43.092 11.212C43.74 11.708 44.144 12.408 44.304 13.312H42.612C42.508 12.856 42.284 12.5 41.94 12.244C41.604 11.98 41.156 11.848 40.596 11.848C39.82 11.848 39.212 12.112 38.772 12.64C38.332 13.168 38.112 13.892 38.112 14.812C38.112 15.732 38.332 16.456 38.772 16.984C39.212 17.504 39.82 17.764 40.596 17.764C41.156 17.764 41.604 17.644 41.94 17.404C42.284 17.156 42.508 16.816 42.612 16.384H44.304C44.144 17.248 43.74 17.924 43.092 18.412C42.452 18.9 41.628 19.144 40.62 19.144ZM48.4837 19.144C47.9077 19.144 47.3877 19.012 46.9237 18.748C46.4677 18.484 46.1037 18.12 45.8317 17.656C45.5677 17.184 45.4357 16.64 45.4357 16.024C45.4357 15.408 45.5717 14.868 45.8437 14.404C46.1157 13.932 46.4797 13.564 46.9357 13.3C47.3997 13.036 47.9197 12.904 48.4957 12.904C49.0637 12.904 49.5757 13.036 50.0317 13.3C50.4957 13.564 50.8597 13.932 51.1237 14.404C51.3957 14.868 51.5317 15.408 51.5317 16.024C51.5317 16.64 51.3957 17.184 51.1237 17.656C50.8597 18.12 50.4957 18.484 50.0317 18.748C49.5677 19.012 49.0517 19.144 48.4837 19.144ZM48.4837 17.812C48.8837 17.812 49.2317 17.664 49.5277 17.368C49.8237 17.064 49.9717 16.616 49.9717 16.024C49.9717 15.432 49.8237 14.988 49.5277 14.692C49.2317 14.388 48.8877 14.236 48.4957 14.236C48.0877 14.236 47.7357 14.388 47.4397 14.692C47.1517 14.988 47.0077 15.432 47.0077 16.024C47.0077 16.616 47.1517 17.064 47.4397 17.368C47.7357 17.664 48.0837 17.812 48.4837 17.812ZM55.641 19.144C55.081 19.144 54.581 19.008 54.141 18.736C53.701 18.464 53.353 18.092 53.097 17.62C52.841 17.148 52.713 16.612 52.713 16.012C52.713 15.412 52.841 14.88 53.097 14.416C53.353 13.944 53.701 13.576 54.141 13.312C54.581 13.04 55.081 12.904 55.641 12.904C56.089 12.904 56.481 12.988 56.817 13.156C57.153 13.324 57.425 13.56 57.633 13.864V10.36H59.169V19H57.801L57.633 18.148C57.441 18.412 57.185 18.644 56.865 18.844C56.553 19.044 56.145 19.144 55.641 19.144ZM55.965 17.8C56.461 17.8 56.865 17.636 57.177 17.308C57.497 16.972 57.657 16.544 57.657 16.024C57.657 15.504 57.497 15.08 57.177 14.752C56.865 14.416 56.461 14.248 55.965 14.248C55.477 14.248 55.073 14.412 54.753 14.74C54.433 15.068 54.273 15.492 54.273 16.012C54.273 16.532 54.433 16.96 54.753 17.296C55.073 17.632 55.477 17.8 55.965 17.8ZM63.6251 19.144C63.0251 19.144 62.4931 19.016 62.0291 18.76C61.5651 18.504 61.2011 18.144 60.9371 17.68C60.6731 17.216 60.5411 16.68 60.5411 16.072C60.5411 15.456 60.6691 14.908 60.9251 14.428C61.1891 13.948 61.5491 13.576 62.0051 13.312C62.4691 13.04 63.0131 12.904 63.6371 12.904C64.2211 12.904 64.7371 13.032 65.1851 13.288C65.6331 13.544 65.9811 13.896 66.2291 14.344C66.4851 14.784 66.6131 15.276 66.6131 15.82C66.6131 15.908 66.6091 16 66.6011 16.096C66.6011 16.192 66.5971 16.292 66.5891 16.396H62.0651C62.0971 16.86 62.2571 17.224 62.5451 17.488C62.8411 17.752 63.1971 17.884 63.6131 17.884C63.9251 17.884 64.1851 17.816 64.3931 17.68C64.6091 17.536 64.7691 17.352 64.8731 17.128H66.4331C66.3211 17.504 66.1331 17.848 65.8691 18.16C65.6131 18.464 65.2931 18.704 64.9091 18.88C64.5331 19.056 64.1051 19.144 63.6251 19.144ZM63.6371 14.152C63.2611 14.152 62.9291 14.26 62.6411 14.476C62.3531 14.684 62.1691 15.004 62.0891 15.436H65.0531C65.0291 15.044 64.8851 14.732 64.6211 14.5C64.3571 14.268 64.0291 14.152 63.6371 14.152ZM67.737 19V17.884C68.249 17.46 68.745 17.04 69.225 16.624C69.713 16.208 70.145 15.796 70.521 15.388C70.905 14.98 71.209 14.584 71.433 14.2C71.665 13.808 71.781 13.428 71.781 13.06C71.781 12.716 71.685 12.412 71.493 12.148C71.309 11.884 71.001 11.752 70.569 11.752C70.129 11.752 69.797 11.896 69.573 12.184C69.349 12.472 69.237 12.82 69.237 13.228H67.749C67.765 12.612 67.901 12.1 68.157 11.692C68.413 11.276 68.753 10.968 69.177 10.768C69.601 10.56 70.077 10.456 70.605 10.456C71.461 10.456 72.125 10.692 72.597 11.164C73.077 11.628 73.317 12.232 73.317 12.976C73.317 13.44 73.209 13.892 72.993 14.332C72.785 14.772 72.509 15.196 72.165 15.604C71.821 16.012 71.449 16.396 71.049 16.756C70.649 17.108 70.261 17.436 69.885 17.74H73.521V19H67.737ZM78.5419 19.144C77.6939 19.144 76.9659 18.964 76.3579 18.604C75.7499 18.236 75.2819 17.728 74.9539 17.08C74.6259 16.424 74.4619 15.668 74.4619 14.812C74.4619 13.956 74.6259 13.2 74.9539 12.544C75.2819 11.888 75.7499 11.376 76.3579 11.008C76.9659 10.64 77.6939 10.456 78.5419 10.456C79.5499 10.456 80.3739 10.708 81.0139 11.212C81.6619 11.708 82.0659 12.408 82.2259 13.312H80.5339C80.4299 12.856 80.2059 12.5 79.8619 12.244C79.5259 11.98 79.0779 11.848 78.5179 11.848C77.7419 11.848 77.1339 12.112 76.6939 12.64C76.2539 13.168 76.0339 13.892 76.0339 14.812C76.0339 15.732 76.2539 16.456 76.6939 16.984C77.1339 17.504 77.7419 17.764 78.5179 17.764C79.0779 17.764 79.5259 17.644 79.8619 17.404C80.2059 17.156 80.4299 16.816 80.5339 16.384H82.2259C82.0659 17.248 81.6619 17.924 81.0139 18.412C80.3739 18.9 79.5499 19.144 78.5419 19.144ZM83.5495 19V13.048H84.9175L85.0615 14.164C85.2775 13.78 85.5695 13.476 85.9375 13.252C86.3135 13.02 86.7535 12.904 87.2575 12.904V14.524H86.8255C86.4895 14.524 86.1895 14.576 85.9255 14.68C85.6615 14.784 85.4535 14.964 85.3015 15.22C85.1575 15.476 85.0855 15.832 85.0855 16.288V19H83.5495ZM91.0939 19.144C90.4939 19.144 89.9619 19.016 89.4979 18.76C89.0339 18.504 88.6699 18.144 88.4059 17.68C88.1419 17.216 88.0099 16.68 88.0099 16.072C88.0099 15.456 88.1379 14.908 88.3939 14.428C88.6579 13.948 89.0179 13.576 89.4739 13.312C89.9379 13.04 90.4819 12.904 91.1059 12.904C91.6899 12.904 92.2059 13.032 92.6539 13.288C93.1019 13.544 93.4499 13.896 93.6979 14.344C93.9539 14.784 94.0819 15.276 94.0819 15.82C94.0819 15.908 94.0779 16 94.0699 16.096C94.0699 16.192 94.0659 16.292 94.0579 16.396H89.5339C89.5659 16.86 89.7259 17.224 90.0139 17.488C90.3099 17.752 90.6659 17.884 91.0819 17.884C91.3939 17.884 91.6539 17.816 91.8619 17.68C92.0779 17.536 92.2379 17.352 92.3419 17.128H93.9019C93.7899 17.504 93.6019 17.848 93.3379 18.16C93.0819 18.464 92.7619 18.704 92.3779 18.88C92.0019 19.056 91.5739 19.144 91.0939 19.144ZM91.1059 14.152C90.7299 14.152 90.3979 14.26 90.1099 14.476C89.8219 14.684 89.6379 15.004 89.5579 15.436H92.5219C92.4979 15.044 92.3539 14.732 92.0899 14.5C91.8259 14.268 91.4979 14.152 91.1059 14.152ZM97.4258 19.144C96.9138 19.144 96.4938 19.064 96.1658 18.904C95.8378 18.736 95.5938 18.516 95.4338 18.244C95.2738 17.972 95.1938 17.672 95.1938 17.344C95.1938 16.792 95.4098 16.344 95.8418 16C96.2738 15.656 96.9218 15.484 97.7858 15.484H99.2978V15.34C99.2978 14.932 99.1818 14.632 98.9498 14.44C98.7178 14.248 98.4298 14.152 98.0858 14.152C97.7738 14.152 97.5018 14.228 97.2698 14.38C97.0378 14.524 96.8938 14.74 96.8378 15.028H95.3378C95.3778 14.596 95.5218 14.22 95.7698 13.9C96.0258 13.58 96.3538 13.336 96.7538 13.168C97.1538 12.992 97.6018 12.904 98.0978 12.904C98.9458 12.904 99.6138 13.116 100.102 13.54C100.59 13.964 100.834 14.564 100.834 15.34V19H99.5258L99.3818 18.04C99.2058 18.36 98.9578 18.624 98.6378 18.832C98.3258 19.04 97.9218 19.144 97.4258 19.144ZM97.7738 17.944C98.2138 17.944 98.5538 17.8 98.7938 17.512C99.0418 17.224 99.1978 16.868 99.2618 16.444H97.9538C97.5458 16.444 97.2538 16.52 97.0778 16.672C96.9018 16.816 96.8138 16.996 96.8138 17.212C96.8138 17.444 96.9018 17.624 97.0778 17.752C97.2538 17.88 97.4858 17.944 97.7738 17.944ZM104.87 19C104.246 19 103.746 18.848 103.37 18.544C102.994 18.24 102.806 17.7 102.806 16.924V14.332H101.786V13.048H102.806L102.986 11.452H104.342V13.048H105.95V14.332H104.342V16.936C104.342 17.224 104.402 17.424 104.521 17.536C104.65 17.64 104.866 17.692 105.17 17.692H105.914V19H104.87ZM110.008 19.144C109.408 19.144 108.876 19.016 108.412 18.76C107.948 18.504 107.584 18.144 107.32 17.68C107.056 17.216 106.924 16.68 106.924 16.072C106.924 15.456 107.052 14.908 107.308 14.428C107.572 13.948 107.932 13.576 108.388 13.312C108.852 13.04 109.396 12.904 110.02 12.904C110.604 12.904 111.12 13.032 111.568 13.288C112.016 13.544 112.364 13.896 112.612 14.344C112.868 14.784 112.996 15.276 112.996 15.82C112.996 15.908 112.992 16 112.984 16.096C112.984 16.192 112.98 16.292 112.972 16.396H108.448C108.48 16.86 108.64 17.224 108.928 17.488C109.224 17.752 109.58 17.884 109.996 17.884C110.308 17.884 110.568 17.816 110.776 17.68C110.992 17.536 111.152 17.352 111.256 17.128H112.816C112.704 17.504 112.516 17.848 112.252 18.16C111.996 18.464 111.676 18.704 111.292 18.88C110.916 19.056 110.488 19.144 110.008 19.144ZM110.02 14.152C109.644 14.152 109.312 14.26 109.024 14.476C108.736 14.684 108.552 15.004 108.472 15.436H111.436C111.412 15.044 111.268 14.732 111.004 14.5C110.74 14.268 110.412 14.152 110.02 14.152Z" fill="white"/>
</svg>
