<svg width="179" height="53" viewBox="0 0 179 53" fill="none" xmlns="http://www.w3.org/2000/svg">
<path d="M172.632 53H6.2703C2.81361 53 0 50.1804 0 46.7288V6.26195C0 2.809 2.81361 0 6.2703 0H172.632C176.087 0 179 2.809 179 6.26195V46.7288C179 50.1804 176.087 53 172.632 53Z" fill="#A6A6A6"/>
<path d="M177.717 46.7296C177.717 49.5333 175.444 51.8043 172.633 51.8043H6.27041C3.46077 51.8043 1.18018 49.5333 1.18018 46.7296V6.26009C1.18018 3.45771 3.46077 1.17871 6.27041 1.17871H172.632C175.444 1.17871 177.715 3.45771 177.715 6.26009L177.717 46.7296Z" fill="black"/>
<path d="M39.9634 25.1146C39.925 20.8441 43.4626 18.7665 43.6243 18.6698C41.6208 15.7508 38.5155 15.352 37.4243 15.3202C34.8162 15.0459 32.2863 16.8797 30.9577 16.8797C29.6026 16.8797 27.5567 15.3467 25.3517 15.3917C22.5142 15.4355 19.8597 17.0771 18.4039 19.6264C15.3993 24.8244 17.6401 32.463 20.5187 36.6646C21.9587 38.7223 23.6413 41.0199 25.8436 40.9391C27.9983 40.8503 28.8031 39.5664 31.4033 39.5664C33.9795 39.5664 34.7353 40.9391 36.9814 40.8874C39.2938 40.8503 40.7497 38.8204 42.1393 36.7441C43.8033 34.3856 44.4716 32.0629 44.4981 31.9437C44.4437 31.9251 40.0072 30.2331 39.9634 25.1146Z" fill="white"/>
<path d="M35.7205 12.5564C36.8793 11.1081 37.6722 9.13785 37.4521 7.13843C35.7748 7.21263 33.6772 8.2978 32.4693 9.71423C31.4006 10.9624 30.4459 13.0082 30.6926 14.9321C32.5767 15.0725 34.5112 13.9821 35.7205 12.5564Z" fill="white"/>
<path d="M71.1453 40.6438H68.1341L66.4847 35.4644H60.7514L59.1802 40.6438H56.2485L61.9288 23.0107H65.4372L71.1453 40.6438ZM65.9875 33.2914L64.4958 28.687C64.338 28.2167 64.0423 27.109 63.6061 25.3653H63.5531C63.3794 26.1152 63.0996 27.2229 62.7151 28.687L61.2499 33.2914H65.9875V33.2914Z" fill="white"/>
<path d="M85.7529 34.13C85.7529 36.2924 85.1681 38.0016 83.9987 39.2564C82.9512 40.3734 81.6505 40.9312 80.0978 40.9312C78.4218 40.9312 77.2179 40.3297 76.4847 39.1266H76.4316V45.8244H73.6047V32.1147C73.6047 30.7552 73.5689 29.36 73.5 27.929H75.9861L76.1439 29.9443H76.1969C77.1397 28.4259 78.5703 27.668 80.4903 27.668C81.9912 27.668 83.2442 28.2602 84.2466 29.4461C85.2517 30.6333 85.7529 32.1942 85.7529 34.13ZM82.873 34.2333C82.873 32.9958 82.5945 31.9755 82.035 31.1726C81.4237 30.3352 80.603 29.9165 79.5741 29.9165C78.8766 29.9165 78.2428 30.1497 77.6767 30.6095C77.1092 31.0732 76.7379 31.6787 76.5642 32.4287C76.4767 32.7785 76.4329 33.0647 76.4329 33.2899V35.4099C76.4329 36.3348 76.7167 37.1152 77.2842 37.7525C77.8517 38.3899 78.5889 38.7079 79.4958 38.7079C80.5606 38.7079 81.3893 38.2971 81.9819 37.4783C82.576 36.6581 82.873 35.5769 82.873 34.2333Z" fill="white"/>
<path d="M100.387 34.13C100.387 36.2924 99.8026 38.0016 98.6318 39.2564C97.5856 40.3734 96.2849 40.9312 94.7322 40.9312C93.0563 40.9312 91.8523 40.3297 91.1204 39.1266H91.0674V45.8244H88.2405V32.1147C88.2405 30.7552 88.2047 29.36 88.1357 27.929H90.6219L90.7796 29.9443H90.8327C91.7741 28.4259 93.2048 27.668 95.126 27.668C96.6257 27.668 97.8787 28.2602 98.8837 29.4461C99.8848 30.6333 100.387 32.1942 100.387 34.13ZM97.5074 34.2333C97.5074 32.9958 97.2276 31.9755 96.6681 31.1726C96.0568 30.3352 95.2387 29.9165 94.2085 29.9165C93.5097 29.9165 92.8773 30.1497 92.3098 30.6095C91.7423 31.0732 91.3723 31.6787 91.1986 32.4287C91.1124 32.7785 91.0674 33.0647 91.0674 33.2899V35.4099C91.0674 36.3348 91.3511 37.1152 91.916 37.7525C92.4835 38.3885 93.2207 38.7079 94.1303 38.7079C95.195 38.7079 96.0237 38.2971 96.6164 37.4783C97.2104 36.6581 97.5074 35.5769 97.5074 34.2333Z" fill="white"/>
<path d="M116.75 35.6988C116.75 37.1987 116.229 38.419 115.182 39.3611C114.033 40.3906 112.432 40.9047 110.376 40.9047C108.477 40.9047 106.955 40.539 105.803 39.8063L106.458 37.4518C107.699 38.2017 109.061 38.578 110.544 38.578C111.609 38.578 112.438 38.3369 113.033 37.8572C113.626 37.3776 113.921 36.7336 113.921 35.9307C113.921 35.2152 113.677 34.6123 113.188 34.1234C112.702 33.6344 111.889 33.18 110.754 32.7599C107.664 31.6085 106.121 29.9218 106.121 27.7037C106.121 26.2542 106.662 25.0656 107.745 24.1408C108.825 23.2146 110.264 22.7522 112.065 22.7522C113.671 22.7522 115.005 23.0318 116.069 23.5896L115.363 25.8924C114.368 25.3518 113.244 25.0815 111.986 25.0815C110.991 25.0815 110.214 25.3267 109.657 25.8143C109.187 26.2502 108.95 26.7815 108.95 27.4109C108.95 28.1078 109.22 28.6842 109.761 29.1374C110.231 29.5561 111.087 30.0092 112.328 30.4982C113.846 31.109 114.961 31.8232 115.678 32.642C116.393 33.4582 116.75 34.4798 116.75 35.6988Z" fill="white"/>
<path d="M126.095 30.0491H122.979V36.2222C122.979 37.7924 123.528 38.5768 124.629 38.5768C125.134 38.5768 125.553 38.533 125.885 38.4456L125.963 40.5908C125.406 40.7988 124.673 40.9035 123.764 40.9035C122.648 40.9035 121.776 40.5629 121.146 39.8832C120.519 39.2022 120.203 38.06 120.203 36.4554V30.0464H118.347V27.9264H120.203V25.5984L122.979 24.761V27.9264H126.095V30.0491Z" fill="white"/>
<path d="M140.154 34.1816C140.154 36.1359 139.595 37.7405 138.478 38.9953C137.308 40.2872 135.754 40.9311 133.816 40.9311C131.949 40.9311 130.463 40.3123 129.355 39.0748C128.246 37.8372 127.692 36.2751 127.692 34.3922C127.692 32.422 128.262 30.8081 129.406 29.5533C130.548 28.2972 132.089 27.6692 134.026 27.6692C135.893 27.6692 137.395 28.288 138.529 29.5268C139.613 30.7286 140.154 32.2802 140.154 34.1816ZM137.221 34.273C137.221 33.1004 136.971 32.0947 136.463 31.256C135.87 30.241 135.023 29.7349 133.925 29.7349C132.789 29.7349 131.926 30.2423 131.333 31.256C130.825 32.096 130.574 33.1176 130.574 34.326C130.574 35.4986 130.825 36.5043 131.333 37.3417C131.944 38.3566 132.798 38.8628 133.9 38.8628C134.979 38.8628 135.826 38.346 136.438 37.3152C136.959 36.4606 137.221 35.4443 137.221 34.273Z" fill="white"/>
<path d="M149.343 30.4134C149.063 30.3617 148.765 30.3352 148.452 30.3352C147.457 30.3352 146.688 30.7102 146.147 31.4614C145.677 32.1239 145.441 32.9613 145.441 33.9723V40.6437H142.615L142.642 31.9331C142.642 30.4677 142.606 29.1334 142.536 27.9303H144.998L145.101 30.363H145.18C145.478 29.5269 145.949 28.8538 146.593 28.349C147.223 27.8945 147.903 27.668 148.636 27.668C148.897 27.668 149.133 27.6865 149.343 27.7196V30.4134Z" fill="white"/>
<path d="M161.986 33.6847C161.986 34.1909 161.953 34.6175 161.882 34.966H153.402C153.435 36.2221 153.845 37.1827 154.632 37.8452C155.347 38.4375 156.271 38.7343 157.406 38.7343C158.662 38.7343 159.807 38.5342 160.837 38.1327L161.28 40.0937C160.076 40.6184 158.655 40.8795 157.015 40.8795C155.042 40.8795 153.493 40.2991 152.366 39.1397C151.242 37.9804 150.678 36.4235 150.678 34.4704C150.678 32.5532 151.202 30.9565 152.251 29.6832C153.349 28.3238 154.832 27.644 156.699 27.644C158.533 27.644 159.921 28.3238 160.864 29.6832C161.61 30.7631 161.986 32.0987 161.986 33.6847ZM159.29 32.952C159.309 32.1146 159.124 31.3911 158.741 30.7803C158.252 29.9946 157.5 29.6024 156.488 29.6024C155.564 29.6024 154.812 29.9853 154.238 30.7538C153.768 31.3646 153.488 32.0974 153.402 32.9507H159.29V32.952Z" fill="white"/>
<path d="M65.0528 12.1629C65.0528 13.7224 64.5847 14.8964 63.6499 15.6847C62.7841 16.4122 61.5537 16.7765 59.9599 16.7765C59.1696 16.7765 58.4934 16.7421 57.9272 16.6732V8.15212C58.6658 8.03287 59.4613 7.97192 60.3205 7.97192C61.8387 7.97192 62.983 8.30185 63.7547 8.9617C64.6192 9.70767 65.0528 10.7743 65.0528 12.1629ZM63.5876 12.2013C63.5876 11.1903 63.3198 10.4152 62.7841 9.87462C62.2484 9.33535 61.4661 9.06505 60.4359 9.06505C59.9983 9.06505 59.6258 9.0942 59.3168 9.15515V15.6331C59.4879 15.6596 59.8008 15.6715 60.2556 15.6715C61.319 15.6715 62.1397 15.376 62.7178 14.7851C63.2959 14.1941 63.5876 13.3329 63.5876 12.2013Z" fill="white"/>
<path d="M72.8215 13.525C72.8215 14.4856 72.547 15.2726 71.9981 15.8901C71.4227 16.5248 70.6603 16.8414 69.7082 16.8414C68.7907 16.8414 68.0601 16.538 67.5152 15.9285C66.9715 15.3203 66.6997 14.5532 66.6997 13.6283C66.6997 12.6611 66.9795 11.8674 67.5417 11.2513C68.1039 10.6351 68.8596 10.3264 69.8117 10.3264C70.7292 10.3264 71.4664 10.6298 72.0246 11.238C72.555 11.829 72.8215 12.5922 72.8215 13.525ZM71.3802 13.57C71.3802 12.9936 71.2556 12.4994 71.0076 12.0873C70.7159 11.5891 70.3009 11.34 69.7613 11.34C69.2031 11.34 68.7788 11.5891 68.4871 12.0873C68.2378 12.4994 68.1145 13.0016 68.1145 13.5952C68.1145 14.1716 68.2391 14.6658 68.4871 15.0779C68.788 15.5761 69.207 15.8252 69.748 15.8252C70.2784 15.8252 70.6947 15.5721 70.9944 15.0646C71.2516 14.6446 71.3802 14.1464 71.3802 13.57Z" fill="white"/>
<path d="M83.2377 10.4536L81.282 16.6997H80.0091L79.1989 13.9874C78.9934 13.3103 78.8264 12.6372 78.6964 11.9694H78.6712C78.5506 12.6558 78.3835 13.3275 78.1687 13.9874L77.3082 16.6997H76.0207L74.1816 10.4536H75.6097L76.3164 13.4229C76.4874 14.1252 76.628 14.7943 76.7407 15.4277H76.7659C76.8693 14.9056 77.0403 14.2405 77.2816 13.4362L78.1687 10.4549H79.301L80.151 13.3726C80.3565 14.0841 80.5235 14.7691 80.6521 15.429H80.6906C80.7847 14.7864 80.9266 14.1013 81.1149 13.3726L81.8733 10.4549H83.2377V10.4536Z" fill="white"/>
<path d="M90.4416 16.6997H89.052V13.1222C89.052 12.0198 88.633 11.4686 87.7924 11.4686C87.38 11.4686 87.0472 11.6197 86.7887 11.9231C86.5328 12.2265 86.4028 12.5843 86.4028 12.9937V16.6984H85.0133V12.2385C85.0133 11.6899 84.996 11.095 84.9629 10.451H86.1841L86.249 11.4276H86.2875C86.4492 11.1241 86.6906 10.8737 87.0075 10.6736C87.384 10.4404 87.8057 10.3225 88.2671 10.3225C88.8505 10.3225 89.3358 10.5107 89.7216 10.8883C90.2016 11.3507 90.4416 12.041 90.4416 12.9579V16.6997V16.6997Z" fill="white"/>
<path d="M94.2737 16.6997H92.8853V7.58765H94.2737V16.6997Z" fill="white"/>
<path d="M102.454 13.525C102.454 14.4856 102.18 15.2726 101.631 15.8901C101.055 16.5248 100.292 16.8414 99.341 16.8414C98.4222 16.8414 97.6916 16.538 97.148 15.9285C96.6043 15.3203 96.3325 14.5532 96.3325 13.6283C96.3325 12.6611 96.6123 11.8674 97.1745 11.2513C97.7367 10.6351 98.4924 10.3264 99.4431 10.3264C100.362 10.3264 101.098 10.6298 101.657 11.238C102.188 11.829 102.454 12.5922 102.454 13.525ZM101.012 13.57C101.012 12.9936 100.887 12.4994 100.639 12.0873C100.349 11.5891 99.9324 11.34 99.3941 11.34C98.8345 11.34 98.4102 11.5891 98.1199 12.0873C97.8706 12.4994 97.7473 13.0016 97.7473 13.5952C97.7473 14.1716 97.8719 14.6658 98.1199 15.0779C98.4208 15.5761 98.8398 15.8252 99.3808 15.8252C99.9112 15.8252 100.326 15.5721 100.626 15.0646C100.884 14.6446 101.012 14.1464 101.012 13.57Z" fill="white"/>
<path d="M109.18 16.6997H107.932L107.829 15.9802H107.79C107.363 16.5539 106.755 16.8414 105.964 16.8414C105.374 16.8414 104.897 16.652 104.538 16.2757C104.211 15.9338 104.048 15.5085 104.048 15.0037C104.048 14.2405 104.367 13.6588 105.007 13.256C105.646 12.8532 106.545 12.6558 107.703 12.665V12.5484C107.703 11.7256 107.27 11.3149 106.405 11.3149C105.788 11.3149 105.244 11.4699 104.775 11.7773L104.493 10.8657C105.073 10.5066 105.791 10.3264 106.637 10.3264C108.27 10.3264 109.09 11.1877 109.09 12.9102V15.2104C109.09 15.8344 109.12 16.3313 109.18 16.6997ZM107.737 14.5532V13.5899C106.204 13.5634 105.438 13.9834 105.438 14.8486C105.438 15.1746 105.525 15.4184 105.704 15.5814C105.883 15.7443 106.111 15.8252 106.383 15.8252C106.688 15.8252 106.973 15.7284 107.233 15.5363C107.494 15.3429 107.655 15.0977 107.715 14.797C107.729 14.7294 107.737 14.6472 107.737 14.5532Z" fill="white"/>
<path d="M117.076 16.6997H115.842L115.777 15.6966H115.739C115.345 16.4598 114.674 16.8414 113.732 16.8414C112.978 16.8414 112.351 16.546 111.854 15.955C111.357 15.3641 111.109 14.5969 111.109 13.6548C111.109 12.6438 111.378 11.825 111.919 11.1996C112.443 10.6166 113.085 10.3251 113.848 10.3251C114.688 10.3251 115.275 10.6073 115.609 11.1731H115.636V7.58765H117.026V15.0169C117.026 15.6251 117.042 16.1856 117.076 16.6997ZM115.636 14.0656V13.0241C115.636 12.8439 115.622 12.6982 115.597 12.5869C115.519 12.253 115.351 11.9721 115.095 11.7455C114.836 11.5189 114.524 11.405 114.165 11.405C113.647 11.405 113.241 11.6103 112.943 12.0224C112.647 12.4345 112.497 12.9605 112.497 13.6031C112.497 14.2206 112.639 14.7214 112.924 15.107C113.225 15.5178 113.631 15.7231 114.139 15.7231C114.595 15.7231 114.959 15.5522 115.236 15.209C115.504 14.8924 115.636 14.5108 115.636 14.0656Z" fill="white"/>
<path d="M128.96 13.525C128.96 14.4856 128.685 15.2726 128.136 15.8901C127.561 16.5248 126.8 16.8414 125.846 16.8414C124.93 16.8414 124.2 16.538 123.653 15.9285C123.11 15.3203 122.838 14.5532 122.838 13.6283C122.838 12.6611 123.118 11.8674 123.68 11.2513C124.242 10.6351 124.998 10.3264 125.951 10.3264C126.867 10.3264 127.606 10.6298 128.163 11.238C128.693 11.829 128.96 12.5922 128.96 13.525ZM127.52 13.57C127.52 12.9936 127.395 12.4994 127.147 12.0873C126.854 11.5891 126.44 11.34 125.899 11.34C125.343 11.34 124.918 11.5891 124.625 12.0873C124.376 12.4994 124.253 13.0016 124.253 13.5952C124.253 14.1716 124.377 14.6658 124.625 15.0779C124.926 15.5761 125.345 15.8252 125.886 15.8252C126.417 15.8252 126.834 15.5721 127.134 15.0646C127.39 14.6446 127.52 14.1464 127.52 13.57Z" fill="white"/>
<path d="M136.431 16.6997H135.043V13.1222C135.043 12.0198 134.624 11.4686 133.782 11.4686C133.37 11.4686 133.037 11.6197 132.78 11.9231C132.523 12.2265 132.394 12.5843 132.394 12.9937V16.6984H131.003V12.2385C131.003 11.6899 130.987 11.095 130.954 10.451H132.174L132.239 11.4276H132.277C132.44 11.1241 132.682 10.8737 132.997 10.6736C133.375 10.4404 133.796 10.3225 134.258 10.3225C134.84 10.3225 135.326 10.5107 135.712 10.8883C136.193 11.3507 136.431 12.041 136.431 12.9579V16.6997V16.6997Z" fill="white"/>
<path d="M145.783 11.4929H144.253V14.5271C144.253 15.2983 144.525 15.6839 145.063 15.6839C145.312 15.6839 145.519 15.6627 145.682 15.6189L145.718 16.6723C145.443 16.7757 145.083 16.8273 144.639 16.8273C144.09 16.8273 143.663 16.6604 143.354 16.3265C143.043 15.9926 142.89 15.4308 142.89 14.6424V11.4929H141.976V10.4528H142.89V9.30797L144.251 8.89722V10.4514H145.781V11.4929H145.783Z" fill="white"/>
<path d="M153.139 16.6997H151.748V13.1487C151.748 12.029 151.329 11.4686 150.49 11.4686C149.846 11.4686 149.405 11.7932 149.164 12.4424C149.123 12.5789 149.099 12.7459 149.099 12.942V16.6983H147.711V7.58765H149.099V11.352H149.126C149.563 10.6669 150.19 10.3251 151.003 10.3251C151.579 10.3251 152.055 10.5132 152.433 10.8909C152.903 11.3612 153.139 12.0608 153.139 12.9857V16.6997V16.6997Z" fill="white"/>
<path d="M160.728 13.2811C160.728 13.5302 160.709 13.7396 160.676 13.9105H156.509C156.527 14.528 156.726 14.9983 157.112 15.3243C157.465 15.6158 157.92 15.7615 158.476 15.7615C159.093 15.7615 159.655 15.6635 160.162 15.4661L160.379 16.4307C159.786 16.6877 159.089 16.8162 158.282 16.8162C157.314 16.8162 156.551 16.5314 156 15.9616C155.445 15.3919 155.171 14.6273 155.171 13.668C155.171 12.726 155.427 11.9416 155.943 11.3162C156.481 10.6484 157.209 10.3145 158.128 10.3145C159.027 10.3145 159.71 10.6484 160.171 11.3162C160.544 11.8462 160.728 12.502 160.728 13.2811ZM159.402 12.9221C159.413 12.51 159.321 12.1549 159.133 11.8554C158.891 11.4699 158.524 11.2764 158.027 11.2764C157.573 11.2764 157.204 11.4646 156.921 11.8422C156.69 12.143 156.554 12.502 156.509 12.9221H159.402Z" fill="white"/>
</svg>
