<svg width="336" height="81" viewBox="0 0 336 81" fill="none" xmlns="http://www.w3.org/2000/svg">
<path fill-rule="evenodd" clip-rule="evenodd" d="M304.925 0C291.216 0 283.47 2.64681 279.023 8.84976C274.377 15.3288 273.444 25.5563 273.444 39.9607C273.444 68.2357 277.818 80.056 304.925 80.056C308.181 80.056 319.31 79.9941 325.807 79.2011C328.335 78.782 329.467 76.8462 329.467 75.1138V71.991C329.467 69.56 327.631 67.7271 325.194 67.7271H304.925C289.63 67.7271 286.872 64.1216 286.48 43.6256V36.991C286.61 16.0164 289.368 12.3289 304.925 12.3289C319.27 12.3289 322.021 15.6015 322.498 34.0673H299.704V46.5325H329.684C335.589 46.5325 335.589 42.4034 335.589 41.0465V37.0671C335.161 8.31353 328.282 0 304.925 0Z" fill="#272727"/>
<path fill-rule="evenodd" clip-rule="evenodd" d="M265.449 1.09921L265.123 1.01305C262.331 0.425799 254.701 0 250.918 0C237.531 0 230.456 5.60482 230.456 16.2088V75.2485C230.456 77.6794 232.157 79.3768 234.593 79.3768H239.355C241.792 79.3768 243.493 77.6794 243.493 75.2485V17.293C243.493 14.6763 244.155 12.3289 252.143 12.3289L263.971 12.3181C265.129 12.4569 266.234 12.1365 267.085 11.4163C268.014 10.6324 268.524 9.48971 268.524 8.2006V5.21415C268.524 3.2533 267.403 1.75339 265.449 1.09921Z" fill="#272727"/>
<path fill-rule="evenodd" clip-rule="evenodd" d="M208.277 0.950867H203.515C201.079 0.950867 199.377 2.64821 199.377 5.07836V67.7277H179.573C167.322 67.7277 162.352 66.9489 162.352 47.4249V5.07836C162.352 2.64821 160.65 0.950867 158.215 0.950867H153.588C151.151 0.950867 149.315 2.72517 149.315 5.07836V47.4249C149.315 75.1729 159.379 80.0558 180.524 80.0558C188.132 80.0558 198.55 80.0558 208.486 78.6571L208.714 78.6111C211.169 77.9979 212.414 76.5925 212.414 74.4351V5.07836C212.414 2.64821 210.712 0.950867 208.277 0.950867Z" fill="#272727"/>
<path fill-rule="evenodd" clip-rule="evenodd" d="M134.627 2.88991V2.88907C134.016 1.58993 132.705 0.814453 131.121 0.814453H125C123.222 0.814453 121.893 1.53053 121.192 2.81964L112.121 16.0746L120.063 26.9363L133.929 7.04584C135.45 5.19709 134.924 3.52317 134.627 2.88991Z" fill="#74BB11"/>
<path fill-rule="evenodd" clip-rule="evenodd" d="M86.8004 2.66972L86.792 2.65717C85.4093 0.81427 83.5689 0.81427 82.9635 0.81427H76.9769C75.4434 0.81427 74.1873 1.51864 73.5308 2.74584C72.8559 4.00232 72.9984 5.51312 73.9325 6.91181L96.1115 37.658L70.6079 73.2302C69.7167 74.5678 69.5917 76.0552 70.265 77.3108C70.9249 78.538 72.1817 79.2407 73.7128 79.2407H79.8336C81.4074 79.2407 82.7908 78.4243 83.4834 77.1368L112.03 37.7994L86.8004 2.66972Z" fill="#009CD9"/>
<path fill-rule="evenodd" clip-rule="evenodd" d="M137.671 73.5408L119.878 49.1205L112.051 59.9111L126.123 78.6922L126.489 78.852C127.096 79.1138 127.676 79.2402 128.264 79.2402H134.249C135.694 79.2402 136.922 78.5977 137.617 77.4759C138.329 76.3265 138.349 74.8927 137.671 73.5408Z" fill="#EB2084"/>
<path fill-rule="evenodd" clip-rule="evenodd" d="M47.0688 45.9881V66.7268C41.0084 67.6562 31.7719 67.8628 28.6243 67.8628C14.6974 67.8628 13.1723 64.0574 13.1723 55.9764C13.1723 48.4149 16.0021 45.9881 24.8152 45.9881H47.0688ZM27.9443 0.000183105C23.6413 0.000183105 17.7729 0.111443 10.4724 0.990647L10.1421 1.06259C8.01487 1.66824 6.93744 3.06527 6.93744 5.21434V8.20079C6.93744 10.7464 8.52298 12.3291 11.0753 12.3291H27.9443C41.5282 12.3291 47.0688 16.0082 47.0688 25.0303V33.7964H24.8152C7.42208 33.7964 0 40.4293 0 55.9764C0 73.3045 7.682 80.0562 27.4001 80.0562C35.3865 80.0562 50.0889 79.4355 55.523 77.7783C60.1052 76.5068 60.1052 73.0067 60.1052 71.8565V24.2172C60.1052 7.92138 49.585 0.000183105 27.9443 0.000183105Z" fill="#272727"/>
</svg>
