<svg id="a223fd33-143e-452c-87d8-b2e47c4ae5f5" data-name="Layer 1" xmlns="http://www.w3.org/2000/svg" viewBox="0 0 3982.12 1847.52"><defs><style>.a1249e69-d6c8-4664-994f-3d99f6cc4153,.b20bf4df-80b0-49e8-961c-588d814b7234{fill:#fff;}.a1249e69-d6c8-4664-994f-3d99f6cc4153{stroke:#fff;stroke-miterlimit:10;stroke-width:25px;}</style></defs><title>Dare2Compete-Black</title><path class="a1249e69-d6c8-4664-994f-3d99f6cc4153" d="M590.8,1573.23c-64.61,63-150.46,94.5-235.38,94.5-217.84,0-331.38-148.5-332.3-318.6-1.85-168.3,110.76-325.8,332.3-325.8,84.92,0,170.77,31.5,235.38,94.5l-34.15,28.8c-55.39-54-128.31-80.1-201.23-80.1-188.31,0-285.23,129.6-284.3,280.8,1.84,147.6,97.84,275.4,284.3,275.4,72.92,0,146.77-27,202.15-80.1Z" transform="translate(-10.59 -10.9)"/><path class="a1249e69-d6c8-4664-994f-3d99f6cc4153" d="M669.25,1439.13c0-141.3,103.38-231.3,231.69-231.3s231.69,90,231.69,231.3-103.39,227.7-231.69,227.7S669.25,1580.43,669.25,1439.13Zm419.07,0c0-115.2-84-189.9-187.38-189.9s-187.38,74.7-187.38,189.9,84,184.5,187.38,184.5S1088.32,1554.33,1088.32,1439.13Z" transform="translate(-10.59 -10.9)"/><path class="a1249e69-d6c8-4664-994f-3d99f6cc4153" d="M1913.54,1660.53v-266.4c0-85.5-59.08-145.8-145.85-145.8s-146.76,63-146.76,148.5v263.7H1575.7v-263.7c0-85.5-60-147.6-146.77-147.6s-145.84,62.1-145.84,147.6v263.7h-45.24v-444.6h42.47l.92,73.8c31.38-58.5,89.54-82.8,148.61-82.8,69.23,0,142.15,30.6,168.92,109.8,27.7-72.9,98.77-109.8,168.92-109.8,111.7,0,191.08,76.5,191.08,187.2v266.4Z" transform="translate(-10.59 -10.9)"/><path class="a1249e69-d6c8-4664-994f-3d99f6cc4153" d="M2077.84,1845.92v-630h44.31v105.3c36-67.5,108.92-111.6,197.54-111.6,123.69,4.5,221.53,85.5,221.53,228.6,0,149.4-103.38,230.4-231.69,230.4-77.54,0-149.54-36.9-188.3-110.7v288ZM2496,1438.23c0-125.1-83.08-186.3-186.46-186.3-106.15,0-184.61,78.3-184.61,187.2s80.31,187.2,184.61,187.2C2412.91,1626.33,2496,1563.33,2496,1438.23Z" transform="translate(-10.59 -10.9)"/><path class="a1249e69-d6c8-4664-994f-3d99f6cc4153" d="M2627.06,1438.23c0-133.2,103.38-229.5,231.69-229.5s242.77,76.5,225.23,250.2H2673.22c9.23,104.4,91.38,164.7,185.53,164.7,60,0,130.15-23.4,164.31-67.5l32.3,25.2c-44.3,56.7-123.69,85.5-196.61,85.5C2730.44,1666.83,2627.06,1579.53,2627.06,1438.23Zm416.3-18c-.92-109.8-74.76-171-184.61-171-94.15,0-175.38,62.1-185.53,171Z" transform="translate(-10.59 -10.9)"/><path class="a1249e69-d6c8-4664-994f-3d99f6cc4153" d="M3287.05,1081.83v134.1h155.08v36.9H3287.05v270.9c0,60.3,12.93,102.6,84,102.6,22.16,0,47.08-7.2,70.15-18l15.7,36c-28.62,13.5-57.23,22.5-85.85,22.5-96.92,0-128.3-55.8-128.3-143.1v-270.9h-96.93v-36.9h96.93v-129.6Z" transform="translate(-10.59 -10.9)"/><path class="a1249e69-d6c8-4664-994f-3d99f6cc4153" d="M3521.51,1438.23c0-133.2,103.38-229.5,231.69-229.5s242.76,76.5,225.23,250.2H3567.66c9.23,104.4,91.39,164.7,185.54,164.7,60,0,130.15-23.4,164.3-67.5l32.31,25.2c-44.31,56.7-123.69,85.5-196.61,85.5C3624.89,1666.83,3521.51,1579.53,3521.51,1438.23Zm416.3-18c-.92-109.8-74.77-171-184.61-171-94.15,0-175.38,62.1-185.54,171Z" transform="translate(-10.59 -10.9)"/><path class="b20bf4df-80b0-49e8-961c-588d814b7234" d="M837.57,468.23c0,225.75-142.89,450.21-463.07,450.21H10.66v-903H374.5C696,15.44,837.57,241.19,837.57,468.23ZM374.5,754.61c205.07,0,289.75-143.19,289.75-286.38,0-144.48-84.68-291.54-289.75-291.54H184V754.61Z" transform="translate(-10.59 -10.9)"/><path class="b20bf4df-80b0-49e8-961c-588d814b7234" d="M1626.09,282.47v636H1473.94L1466,825.56c-37,76.11-141.57,112.23-214.33,112.23-191.85,0-333.41-116.1-333.41-338,0-218,148.18-332.82,337.38-332.82C1343,267,1429,305.69,1466,370.19l5.29-87.72ZM1079.67,599.81c0,121.26,86,193.5,193.16,193.5,127,0,190.52-96.75,190.52-193.5,0-95.46-63.5-192.21-190.52-192.21C1165.67,407.6,1079.67,478.55,1079.67,599.81Z" transform="translate(-10.59 -10.9)"/><path class="b20bf4df-80b0-49e8-961c-588d814b7234" d="M1923.77,356c50.28-78.69,117.75-90.3,183.91-90.3,67.47,0,132.3,25.8,168,60.63l-72.77,136.74c-33.08-27.09-63.51-41.28-116.43-41.28-84.68,0-162.74,43.86-162.74,161.25v335.4H1762.36v-636h149.5Z" transform="translate(-10.59 -10.9)"/><path class="b20bf4df-80b0-49e8-961c-588d814b7234" d="M2668.64,792c59.54,0,137.6-21.93,174.65-59.34L2946.49,832c-68.8,69.66-181.26,103.2-280.49,103.2-224.92,0-358.55-135.45-358.55-339.27,0-193.5,135-332.82,346.64-332.82,201.1,0,332.09,110.94,332.09,334.11,0,18.06,0,38.7-2.65,59.34H2474.15C2484.74,735.26,2554.86,792,2668.64,792Zm-9.26-389.58c-87.32,0-158.77,41.28-182.58,123.84h351.93C2818.15,443.72,2752,402.44,2659.38,402.44Z" transform="translate(-10.59 -10.9)"/><path class="b20bf4df-80b0-49e8-961c-588d814b7234" d="M3939.13,10.9H3221.19c-28.32,0-51.28,22.39-51.28,50v865c0,27.62,23,50,51.28,50h717.94c28.33,0,51.28-22.38,51.28-50V60.9C3990.41,33.29,3967.46,10.9,3939.13,10.9Zm-10.05,907.9H3231.24V698c0-193.2,179.69-250.8,349.54-250.8,65.23,0,184.61-10.8,184.61-108,0-91.2-84.92-134.4-195.69-134.4-84.92,0-172.31,42-173.54,117.6H3234.93C3236.16,144.8,3408.47,68,3567.24,68c172.3,0,359.38,68.4,359.38,267.6,0,213.6-164.92,254.4-345.84,254.4-71.39,0-187.08,18-187.08,109.2v72h535.38Z" transform="translate(-10.59 -10.9)"/></svg>