<svg width="160" height="48" viewBox="0 0 160 48" fill="none" xmlns="http://www.w3.org/2000/svg">
<rect width="160" height="48" rx="8" fill="#2D664C"/>
<path d="M23.9314 22.6887C23.28 22.6887 22.7657 23.2512 22.7657 23.9375C22.7657 24.6237 23.2914 25.1862 23.9314 25.1862C24.5828 25.1862 25.0971 24.6237 25.0971 23.9375C25.1086 23.2512 24.5828 22.6887 23.9314 22.6887ZM28.1028 22.6887C27.4514 22.6887 26.9371 23.2512 26.9371 23.9375C26.9371 24.6237 27.4628 25.1862 28.1028 25.1862C28.7543 25.1862 29.2686 24.6237 29.2686 23.9375C29.2686 23.2512 28.7543 22.6887 28.1028 22.6887Z" fill="white"/>
<path d="M33.6571 13.25H18.3429C17.0514 13.25 16 14.285 16 15.5675V30.7775C16 32.06 17.0514 33.095 18.3429 33.095H31.3029L30.6971 31.0137L32.16 32.3525L33.5429 33.6125L36 35.75V15.5675C36 14.285 34.9486 13.25 33.6571 13.25ZM29.2457 27.9425C29.2457 27.9425 28.8343 27.4587 28.4914 27.0312C29.9886 26.615 30.56 25.6925 30.56 25.6925C30.0914 25.9963 29.6457 26.21 29.2457 26.3562C28.6743 26.5925 28.1257 26.75 27.5886 26.84C26.4914 27.0425 25.4857 26.9862 24.6286 26.8287C23.9771 26.705 23.4171 26.525 22.9486 26.345C22.6857 26.2437 22.4 26.12 22.1143 25.9625C22.08 25.94 22.0457 25.9287 22.0114 25.9062C21.9886 25.895 21.9771 25.8837 21.9657 25.8725C21.76 25.76 21.6457 25.6812 21.6457 25.6812C21.6457 25.6812 22.1943 26.5812 23.6457 27.0087C23.3029 27.4362 22.88 27.9425 22.88 27.9425C20.3543 27.8638 19.3943 26.2325 19.3943 26.2325C19.3943 22.61 21.04 19.6737 21.04 19.6737C22.6857 18.4587 24.2514 18.4925 24.2514 18.4925L24.3657 18.6275C22.3086 19.2125 21.36 20.1012 21.36 20.1012C21.36 20.1012 21.6114 19.9662 22.0343 19.775C23.2571 19.2462 24.2286 19.1 24.6286 19.0662C24.6971 19.055 24.7543 19.0437 24.8229 19.0437C25.52 18.9537 26.3086 18.9313 27.1314 19.0213C28.2171 19.145 29.3829 19.46 30.5714 20.1012C30.5714 20.1012 29.6686 19.2575 27.7257 18.6725L27.8857 18.4925C27.8857 18.4925 29.4514 18.4587 31.0971 19.6737C31.0971 19.6737 32.7429 22.61 32.7429 26.2325C32.7429 26.2325 31.7714 27.8638 29.2457 27.9425V27.9425Z" fill="white"/>
<path d="M48.1241 28.144C47.3401 28.144 46.7161 27.924 46.2521 27.484C45.7961 27.044 45.5681 26.424 45.5681 25.624H46.8401C46.8401 26.024 46.9361 26.356 47.1281 26.62C47.3281 26.884 47.6521 27.016 48.1001 27.016C48.5401 27.016 48.8521 26.892 49.0361 26.644C49.2201 26.388 49.3121 26.064 49.3121 25.672V19.6H50.5841V25.672C50.5841 26.464 50.3641 27.076 49.9241 27.508C49.4841 27.932 48.8841 28.144 48.1241 28.144ZM55.0196 28.144C54.4516 28.144 53.9396 28.016 53.4836 27.76C53.0356 27.496 52.6796 27.132 52.4156 26.668C52.1516 26.196 52.0196 25.648 52.0196 25.024C52.0196 24.4 52.1516 23.856 52.4156 23.392C52.6876 22.92 53.0516 22.556 53.5076 22.3C53.9636 22.036 54.4716 21.904 55.0316 21.904C55.5996 21.904 56.1076 22.036 56.5556 22.3C57.0116 22.556 57.3716 22.92 57.6356 23.392C57.9076 23.856 58.0436 24.4 58.0436 25.024C58.0436 25.648 57.9076 26.196 57.6356 26.668C57.3716 27.132 57.0116 27.496 56.5556 27.76C56.0996 28.016 55.5876 28.144 55.0196 28.144ZM55.0196 27.052C55.3236 27.052 55.6036 26.976 55.8596 26.824C56.1236 26.672 56.3356 26.448 56.4956 26.152C56.6556 25.848 56.7356 25.472 56.7356 25.024C56.7356 24.576 56.6556 24.204 56.4956 23.908C56.3436 23.604 56.1356 23.376 55.8716 23.224C55.6156 23.072 55.3356 22.996 55.0316 22.996C54.7276 22.996 54.4436 23.072 54.1796 23.224C53.9236 23.376 53.7156 23.604 53.5556 23.908C53.3956 24.204 53.3156 24.576 53.3156 25.024C53.3156 25.472 53.3956 25.848 53.5556 26.152C53.7156 26.448 53.9236 26.672 54.1796 26.824C54.4356 26.976 54.7156 27.052 55.0196 27.052ZM60.1392 20.92C59.8992 20.92 59.6992 20.848 59.5392 20.704C59.3872 20.552 59.3112 20.364 59.3112 20.14C59.3112 19.916 59.3872 19.732 59.5392 19.588C59.6992 19.436 59.8992 19.36 60.1392 19.36C60.3792 19.36 60.5752 19.436 60.7272 19.588C60.8872 19.732 60.9672 19.916 60.9672 20.14C60.9672 20.364 60.8872 20.552 60.7272 20.704C60.5752 20.848 60.3792 20.92 60.1392 20.92ZM59.5032 28V22.048H60.7752V28H59.5032ZM62.4544 28V22.048H63.5824L63.6784 23.092C63.8624 22.724 64.1304 22.436 64.4824 22.228C64.8424 22.012 65.2544 21.904 65.7184 21.904C66.4384 21.904 67.0024 22.128 67.4104 22.576C67.8264 23.024 68.0344 23.692 68.0344 24.58V28H66.7744V24.712C66.7744 23.56 66.3024 22.984 65.3584 22.984C64.8864 22.984 64.4944 23.152 64.1824 23.488C63.8784 23.824 63.7264 24.304 63.7264 24.928V28H62.4544ZM76.48 28.144C75.648 28.144 74.92 27.96 74.296 27.592C73.672 27.224 73.184 26.716 72.832 26.068C72.48 25.412 72.304 24.656 72.304 23.8C72.304 22.944 72.48 22.192 72.832 21.544C73.184 20.888 73.672 20.376 74.296 20.008C74.92 19.64 75.648 19.456 76.48 19.456C77.312 19.456 78.04 19.64 78.664 20.008C79.288 20.376 79.772 20.888 80.116 21.544C80.468 22.192 80.644 22.944 80.644 23.8C80.644 24.656 80.468 25.412 80.116 26.068C79.772 26.716 79.288 27.224 78.664 27.592C78.04 27.96 77.312 28.144 76.48 28.144ZM76.48 27.004C77.056 27.004 77.556 26.876 77.98 26.62C78.412 26.364 78.748 25.996 78.988 25.516C79.228 25.036 79.348 24.464 79.348 23.8C79.348 23.136 79.228 22.564 78.988 22.084C78.748 21.604 78.412 21.236 77.98 20.98C77.556 20.724 77.056 20.596 76.48 20.596C75.904 20.596 75.4 20.724 74.968 20.98C74.536 21.236 74.2 21.604 73.96 22.084C73.728 22.564 73.612 23.136 73.612 23.8C73.612 24.464 73.728 25.036 73.96 25.516C74.2 25.996 74.536 26.364 74.968 26.62C75.4 26.876 75.904 27.004 76.48 27.004ZM84.209 28.144C83.489 28.144 82.921 27.92 82.505 27.472C82.097 27.024 81.893 26.356 81.893 25.468V22.048H83.165V25.336C83.165 26.488 83.637 27.064 84.581 27.064C85.053 27.064 85.441 26.896 85.745 26.56C86.049 26.224 86.201 25.744 86.201 25.12V22.048H87.473V28H86.345L86.249 26.956C86.065 27.324 85.793 27.616 85.433 27.832C85.081 28.04 84.673 28.144 84.209 28.144ZM89.0911 28V22.048H90.2311L90.3391 23.176C90.5471 22.784 90.8351 22.476 91.2031 22.252C91.5791 22.02 92.0311 21.904 92.5591 21.904V23.236H92.2111C91.8591 23.236 91.5431 23.296 91.2631 23.416C90.9911 23.528 90.7711 23.724 90.6031 24.004C90.4431 24.276 90.3631 24.656 90.3631 25.144V28H89.0911ZM96.7211 28V19.6H99.4451C100.429 19.6 101.237 19.772 101.869 20.116C102.509 20.46 102.981 20.948 103.285 21.58C103.597 22.204 103.753 22.948 103.753 23.812C103.753 24.668 103.597 25.412 103.285 26.044C102.981 26.668 102.509 27.152 101.869 27.496C101.237 27.832 100.429 28 99.4451 28H96.7211ZM97.9931 26.92H99.3971C100.157 26.92 100.757 26.796 101.197 26.548C101.645 26.3 101.965 25.944 102.157 25.48C102.357 25.016 102.457 24.46 102.457 23.812C102.457 23.164 102.357 22.604 102.157 22.132C101.965 21.66 101.645 21.3 101.197 21.052C100.757 20.796 100.157 20.668 99.3971 20.668H97.9931V26.92ZM105.831 20.92C105.591 20.92 105.391 20.848 105.231 20.704C105.079 20.552 105.003 20.364 105.003 20.14C105.003 19.916 105.079 19.732 105.231 19.588C105.391 19.436 105.591 19.36 105.831 19.36C106.071 19.36 106.267 19.436 106.419 19.588C106.579 19.732 106.659 19.916 106.659 20.14C106.659 20.364 106.579 20.552 106.419 20.704C106.267 20.848 106.071 20.92 105.831 20.92ZM105.195 28V22.048H106.467V28H105.195ZM110.522 28.144C109.77 28.144 109.15 27.96 108.662 27.592C108.174 27.224 107.894 26.736 107.822 26.128H109.106C109.17 26.4 109.322 26.636 109.562 26.836C109.802 27.028 110.118 27.124 110.51 27.124C110.894 27.124 111.174 27.044 111.35 26.884C111.526 26.724 111.614 26.54 111.614 26.332C111.614 26.028 111.49 25.824 111.242 25.72C111.002 25.608 110.666 25.508 110.234 25.42C109.898 25.348 109.562 25.252 109.226 25.132C108.898 25.012 108.622 24.844 108.398 24.628C108.182 24.404 108.074 24.104 108.074 23.728C108.074 23.208 108.274 22.776 108.674 22.432C109.074 22.08 109.634 21.904 110.354 21.904C111.018 21.904 111.554 22.064 111.962 22.384C112.378 22.704 112.622 23.156 112.694 23.74H111.47C111.43 23.484 111.31 23.284 111.11 23.14C110.918 22.996 110.658 22.924 110.33 22.924C110.01 22.924 109.762 22.992 109.586 23.128C109.41 23.256 109.322 23.424 109.322 23.632C109.322 23.84 109.442 24.004 109.682 24.124C109.93 24.244 110.254 24.352 110.654 24.448C111.054 24.536 111.422 24.64 111.758 24.76C112.102 24.872 112.378 25.04 112.586 25.264C112.794 25.488 112.898 25.816 112.898 26.248C112.906 26.792 112.694 27.244 112.262 27.604C111.838 27.964 111.258 28.144 110.522 28.144ZM117.106 28.144C116.522 28.144 115.998 28.012 115.534 27.748C115.078 27.484 114.718 27.12 114.454 26.656C114.198 26.184 114.07 25.64 114.07 25.024C114.07 24.408 114.198 23.868 114.454 23.404C114.718 22.932 115.078 22.564 115.534 22.3C115.998 22.036 116.522 21.904 117.106 21.904C117.842 21.904 118.458 22.096 118.954 22.48C119.458 22.864 119.782 23.384 119.926 24.04H118.594C118.514 23.712 118.338 23.456 118.066 23.272C117.794 23.088 117.474 22.996 117.106 22.996C116.794 22.996 116.506 23.076 116.242 23.236C115.978 23.388 115.766 23.616 115.606 23.92C115.446 24.216 115.366 24.584 115.366 25.024C115.366 25.464 115.446 25.836 115.606 26.14C115.766 26.436 115.978 26.664 116.242 26.824C116.506 26.984 116.794 27.064 117.106 27.064C117.474 27.064 117.794 26.972 118.066 26.788C118.338 26.604 118.514 26.344 118.594 26.008H119.926C119.79 26.648 119.47 27.164 118.966 27.556C118.462 27.948 117.842 28.144 117.106 28.144ZM124.09 28.144C123.522 28.144 123.01 28.016 122.554 27.76C122.106 27.496 121.75 27.132 121.486 26.668C121.222 26.196 121.09 25.648 121.09 25.024C121.09 24.4 121.222 23.856 121.486 23.392C121.758 22.92 122.122 22.556 122.578 22.3C123.034 22.036 123.542 21.904 124.102 21.904C124.67 21.904 125.178 22.036 125.626 22.3C126.082 22.556 126.442 22.92 126.706 23.392C126.978 23.856 127.114 24.4 127.114 25.024C127.114 25.648 126.978 26.196 126.706 26.668C126.442 27.132 126.082 27.496 125.626 27.76C125.17 28.016 124.658 28.144 124.09 28.144ZM124.09 27.052C124.394 27.052 124.674 26.976 124.93 26.824C125.194 26.672 125.406 26.448 125.566 26.152C125.726 25.848 125.806 25.472 125.806 25.024C125.806 24.576 125.726 24.204 125.566 23.908C125.414 23.604 125.206 23.376 124.942 23.224C124.686 23.072 124.406 22.996 124.102 22.996C123.798 22.996 123.514 23.072 123.25 23.224C122.994 23.376 122.786 23.604 122.626 23.908C122.466 24.204 122.386 24.576 122.386 25.024C122.386 25.472 122.466 25.848 122.626 26.152C122.786 26.448 122.994 26.672 123.25 26.824C123.506 26.976 123.786 27.052 124.09 27.052ZM128.49 28V22.048H129.63L129.738 23.176C129.946 22.784 130.234 22.476 130.602 22.252C130.978 22.02 131.43 21.904 131.958 21.904V23.236H131.61C131.258 23.236 130.942 23.296 130.662 23.416C130.39 23.528 130.17 23.724 130.002 24.004C129.842 24.276 129.762 24.656 129.762 25.144V28H128.49ZM135.596 28.144C135.02 28.144 134.512 28.008 134.072 27.736C133.632 27.464 133.288 27.092 133.04 26.62C132.792 26.148 132.668 25.612 132.668 25.012C132.668 24.412 132.792 23.88 133.04 23.416C133.288 22.944 133.632 22.576 134.072 22.312C134.52 22.04 135.032 21.904 135.608 21.904C136.08 21.904 136.492 21.996 136.844 22.18C137.204 22.364 137.484 22.624 137.684 22.96V19.36H138.956V28H137.816L137.684 27.076C137.492 27.356 137.228 27.604 136.892 27.82C136.556 28.036 136.124 28.144 135.596 28.144ZM135.824 27.04C136.368 27.04 136.812 26.852 137.156 26.476C137.508 26.1 137.684 25.616 137.684 25.024C137.684 24.424 137.508 23.94 137.156 23.572C136.812 23.196 136.368 23.008 135.824 23.008C135.28 23.008 134.832 23.196 134.48 23.572C134.128 23.94 133.952 24.424 133.952 25.024C133.952 25.416 134.032 25.764 134.192 26.068C134.352 26.372 134.572 26.612 134.852 26.788C135.14 26.956 135.464 27.04 135.824 27.04Z" fill="white"/>
</svg>
