<svg width="107" height="28" viewBox="0 0 107 28" fill="none" xmlns="http://www.w3.org/2000/svg">
<path d="M10.2543 0.852234C15.4549 0.852234 19.6715 12.0312 19.6715 17.2329C19.6715 19.7307 18.6792 22.1261 16.9131 23.8923C15.1469 25.6585 12.7514 26.6507 10.2537 26.6507C7.75595 26.6507 5.36051 25.6585 3.59433 23.8923C1.82816 22.1261 0.835938 19.7307 0.835938 17.2329C0.835938 12.0312 5.05024 0.852234 10.2543 0.852234V0.852234Z" fill="#FCFBFA"/>
<path d="M22.1948 9.87427L18.3528 11.2294C18.3528 11.2294 18.9473 13.037 18.9531 13.0507C18.9588 13.0645 22.7802 12.5582 22.7802 12.5582L22.1948 9.87427ZM-1.68777 9.87427L2.15425 11.2294C2.15425 11.2294 1.55974 13.037 1.55401 13.0507C1.54828 13.0645 -2.27197 12.557 -2.27197 12.557L-1.68777 9.87427Z" fill="#252526"/>
<path d="M6.2999 9.55348C6.58947 9.54678 6.87167 9.6452 7.09427 9.83052C7.31687 10.0158 7.4648 10.2755 7.51069 10.5615C7.63255 11.216 7.7129 11.8775 7.75125 12.5421C7.75484 12.7282 7.73794 12.9141 7.70085 13.0965C7.65274 12.6177 7.5863 12.1618 7.51184 11.7654C7.46595 11.4795 7.31802 11.2198 7.09541 11.0344C6.87281 10.8491 6.59061 10.7507 6.30104 10.7574C4.85703 10.7716 3.41553 10.8811 1.98593 11.085C2.1211 10.6646 2.26658 10.2431 2.42237 9.82497C3.70833 9.65743 5.00314 9.56677 6.2999 9.55348V9.55348ZM19.653 16.8148C16.2612 16.6396 13.3642 15.5548 12.7101 15.1665C12.2004 14.9225 11.5497 14.4058 11.363 13.1137C11.2359 14.5364 11.5074 15.8343 12.8396 16.4746C12.9381 16.5342 15.4971 17.8 19.6267 18.0176C19.6484 17.7587 19.6599 17.4976 19.6599 17.2329C19.6622 17.0966 19.6588 16.9569 19.653 16.8148ZM0.863337 16.8148C4.25517 16.6396 7.15215 15.5548 7.80623 15.1665C8.31598 14.9225 8.96663 14.4058 9.15335 13.1137C9.27821 14.5376 9.01016 15.8343 7.67336 16.4746C7.57484 16.5342 5.01579 17.8 0.886247 18.0176C0.864482 17.7587 0.853027 17.4976 0.853027 17.2329C0.854173 17.0966 0.857609 16.9569 0.863337 16.8148V16.8148ZM14.197 9.55348C13.9074 9.54678 13.6252 9.6452 13.4026 9.83052C13.18 10.0158 13.0321 10.2755 12.9862 10.5615C12.8643 11.216 12.784 11.8775 12.7456 12.5421C12.742 12.7282 12.759 12.9141 12.796 13.0965C12.8442 12.6177 12.9106 12.1618 12.9851 11.7654C13.0309 11.4795 13.1789 11.2198 13.4015 11.0344C13.6241 10.8491 13.9063 10.7507 14.1959 10.7574C15.6399 10.7716 17.0814 10.8811 18.511 11.085C18.3758 10.6646 18.2303 10.2431 18.0745 9.82497C16.7886 9.65743 15.4938 9.56677 14.197 9.55348V9.55348Z" fill="#E0E0E0"/>
<path d="M2.0157 8.534C2.94012 6.29111 4.05011 4.35062 5.22311 2.92103C6.82108 0.982842 8.51299 0 10.2507 0C11.9884 0 13.6838 0.987424 15.2806 2.92447C16.4582 4.35177 17.5716 6.29225 18.488 8.53744L18.5327 8.65199L18.4182 8.63595C18.0917 8.59242 17.8259 8.56149 17.5018 8.5214H17.4617L17.4456 8.48474C16.4055 6.05628 14.63 2.88438 12.3355 1.55903C11.7072 1.17652 10.9885 0.967791 10.253 0.954204C9.51752 0.967791 8.79883 1.17652 8.17049 1.55903C5.87948 2.88323 4.10739 6.04368 3.05925 8.48474L3.04321 8.5214H3.00312C2.67665 8.55577 2.4109 8.58784 2.08672 8.63595L1.97217 8.65199L2.0157 8.534ZM19.7618 15.6418C19.5064 15.635 19.2487 15.6247 18.9955 15.6098H18.9165L18.9061 15.5307C18.677 13.7449 18.1639 11.6544 17.4514 9.64514L17.3998 9.49852L17.5545 9.51913C17.8454 9.55808 18.1272 9.60161 18.4021 9.64743L18.4583 9.6566L18.4766 9.71043C19.1639 11.7162 19.6507 13.7861 19.8592 15.5388L19.8718 15.6533L19.7618 15.6418Z" fill="#56555C"/>
<path d="M18.9211 11.1171C18.7836 10.6463 18.6347 10.1755 18.4755 9.70698L18.4571 9.65314L18.401 9.64397C18.1307 9.59815 17.8454 9.55462 17.5533 9.51568L17.3987 9.49506L17.4502 9.64168C17.6083 10.0873 17.7561 10.5363 17.8935 10.9865C18.3884 11.0426 18.669 11.0816 18.9211 11.1171V11.1171Z" fill="#252526"/>
<path d="M0.713227 15.4941C0.921709 13.7415 1.41313 11.6716 2.09585 9.66578L2.11418 9.61194L2.17031 9.60277C2.44065 9.55695 2.72588 9.51342 3.01798 9.47448L3.17262 9.45386L3.12108 9.60048C2.40972 11.6097 1.8931 13.6991 1.66629 15.4861L1.65598 15.5651H1.57694C1.32264 15.58 1.0649 15.5903 0.810595 15.5972H0.696045L0.713227 15.4941Z" fill="#56555C"/>
<path d="M2.17045 9.60277L2.11432 9.61194L2.09599 9.66578C1.93677 10.1343 1.78785 10.6074 1.65039 11.0782C2.12807 11.0175 2.26667 11.0243 2.66645 10.982C2.80735 10.5238 2.95856 10.0575 3.12465 9.60048L3.1762 9.45386L3.02156 9.47448C2.72602 9.51457 2.44079 9.55695 2.17045 9.60277V9.60277Z" fill="#252526"/>
<path d="M10.2543 27.4967C8.19245 27.4972 6.17821 26.8771 4.47369 25.717C2.76917 24.557 1.4533 22.9107 0.697341 20.9925C0.178731 19.6622 -0.0603 18.2393 -0.00485273 16.8126V16.7484H0.0592956C0.393783 16.7404 0.622883 16.7312 0.861148 16.7186H0.935606V16.7931C0.873777 18.0967 1.08566 19.3989 1.55761 20.6156C2.12542 22.0759 3.05204 23.3696 4.2519 24.3771C5.45176 25.3847 6.88616 26.0737 8.42263 26.3804C9.9591 26.6871 11.5481 26.6018 13.0429 26.1322C14.5376 25.6626 15.8899 24.8239 16.9749 23.6936C17.828 22.8089 18.4959 21.7629 18.9395 20.6168C19.4115 19.4 19.6234 18.0979 19.5615 16.7942V16.7198H19.636C19.9693 16.737 20.1984 16.7438 20.4378 16.7496H20.502V16.8137C20.5569 18.2393 20.3179 19.661 19.7998 20.9902C19.0457 22.9095 17.7307 24.5571 16.0263 25.7179C14.3219 26.8788 12.3073 27.499 10.2451 27.4978L10.2543 27.4967Z" fill="#56555C"/>
<path d="M0.966465 18.0176C0.933084 17.6084 0.924669 17.1976 0.941264 16.7873V16.7129H0.866806C0.62625 16.7255 0.39715 16.7347 0.0649536 16.7427H0.000805199V16.8068C-0.0133168 17.2182 -0.00413789 17.6301 0.0282975 18.0405H0.0592261C0.368512 18.0405 0.670925 18.0268 0.958446 18.013L0.966465 18.0176ZM20.5076 16.7484H20.4435C20.2006 16.7484 19.9715 16.7358 19.6416 16.7186H19.5672V16.7931C19.5837 17.1995 19.5756 17.6065 19.5431 18.0119L20.4824 18.052C20.5149 17.6416 20.524 17.2297 20.5099 16.8183L20.5076 16.7484Z" fill="#252526"/>
<path d="M21.0368 16.9099C19.0746 16.9252 17.1188 16.6821 15.22 16.1871C14.4026 15.9754 13.6059 15.6905 12.8396 15.336L12.8213 15.328C11.2176 14.5617 11.1592 13.0267 11.3081 11.6257C11.3459 11.2718 11.2164 10.8044 10.843 10.557C10.669 10.4408 10.4645 10.3789 10.2554 10.3789C10.0462 10.3789 9.84169 10.4408 9.66771 10.557C9.29428 10.8044 9.16484 11.2718 9.20264 11.6246C9.35155 13.0267 9.28855 14.564 7.68943 15.3303L7.6711 15.3395C6.90574 15.6925 6.11025 15.9762 5.29418 16.1871C3.39606 16.6819 1.4411 16.925 -0.520396 16.9099H-0.528414C-0.922267 16.9102 -1.305 16.7793 -1.61615 16.5379C-1.92731 16.2964 -2.14916 15.9582 -2.24667 15.5766C-2.54679 14.4024 -2.9523 12.6521 -2.99927 10.9946C-3.00895 10.6729 -2.92274 10.3556 -2.7516 10.0831C-2.58046 9.81061 -2.33212 9.59515 -2.03819 9.46417C0.170343 8.48133 4.63895 8.1205 6.54507 8.14684C6.87426 8.14461 7.20055 8.20832 7.50471 8.33424C7.80887 8.46015 8.08474 8.64571 8.31602 8.87997C8.92603 8.59413 9.58979 8.44107 10.2634 8.43093C10.937 8.44111 11.6007 8.59416 12.2107 8.87997C12.4417 8.64529 12.7175 8.45946 13.0217 8.33351C13.326 8.20757 13.6524 8.14409 13.9817 8.14684C15.1272 8.13081 20.0471 8.34272 22.5649 9.46532C22.86 9.59613 23.1093 9.81192 23.2811 10.0851C23.4529 10.3583 23.5394 10.6766 23.5295 10.9991C23.4825 12.6555 23.0712 14.4024 22.7769 15.5812C22.6793 15.9628 22.4575 16.301 22.1463 16.5424C21.8352 16.7839 21.4525 16.9148 21.0586 16.9145L21.0368 16.9099ZM14.2142 9.62225C13.9405 9.61594 13.6738 9.70884 13.4633 9.8838C13.2528 10.0588 13.1126 10.304 13.0687 10.5742C12.9473 11.2256 12.867 11.8841 12.8282 12.5456C12.819 13.3016 13.0905 13.8194 13.63 14.084C15.6495 14.9844 17.9967 15.43 20.8054 15.4437C20.9102 15.4431 21.0119 15.408 21.0948 15.3438C21.1776 15.2796 21.2369 15.1899 21.2636 15.0886C21.5305 14.045 21.8902 12.494 21.9315 11.0679C21.9337 11.0011 21.9159 10.9352 21.8804 10.8787C21.8449 10.8221 21.7933 10.7775 21.7322 10.7506C19.81 9.89374 15.7034 9.59934 14.2142 9.62225ZM-1.2203 10.7529C-1.28082 10.7798 -1.33196 10.8242 -1.36724 10.8803C-1.40252 10.9363 -1.42035 11.0016 -1.41847 11.0679C-1.37723 12.4906 -1.01754 14.0462 -0.750642 15.0886C-0.724292 15.1901 -0.665025 15.2801 -0.582115 15.3443C-0.499206 15.4086 -0.397333 15.4435 -0.29244 15.4437C2.51863 15.43 4.86233 14.9855 6.88872 14.0828C7.4294 13.8194 7.69974 13.3005 7.69057 12.5421C7.65381 11.8819 7.57538 11.2246 7.45575 10.5742C7.41185 10.304 7.27171 10.0588 7.06117 9.8838C6.85063 9.70884 6.58391 9.61594 6.31024 9.62225C5.4305 9.6085 0.949286 9.78606 -1.2203 10.7529ZM36.6031 15.7644C36.4996 16.1323 36.3363 16.4806 36.1197 16.7954C35.9004 17.1175 35.6295 17.4011 35.3178 17.635C34.9809 17.8848 34.6056 18.0782 34.2067 18.2078C33.7546 18.3535 33.2819 18.425 32.8069 18.4197C32.245 18.4225 31.6874 18.3219 31.1619 18.123C30.6484 17.9295 30.1804 17.632 29.7873 17.249C29.3808 16.8488 29.0604 16.3697 28.8457 15.8412C28.6069 15.2426 28.49 14.6023 28.5021 13.958C28.4948 13.3359 28.6116 12.7187 28.8457 12.1424C29.0542 11.6263 29.3625 11.1564 29.753 10.7597C30.124 10.3801 30.5657 10.0766 31.0531 9.86624C31.5415 9.65885 32.0667 9.5521 32.5973 9.55238C33.8955 9.55238 34.9077 9.93688 35.634 10.7059C36.3602 11.4749 36.7222 12.5322 36.7199 13.8778C36.7199 14.0366 36.7142 14.1867 36.7027 14.328C36.6913 14.4693 36.6856 14.5514 36.6856 14.5743H30.7175C30.7264 14.8371 30.7929 15.0948 30.9122 15.3291C31.0272 15.5561 31.1824 15.7603 31.3704 15.9317C31.5613 16.1041 31.7828 16.2393 32.0234 16.3303C32.2793 16.4282 32.5513 16.4771 32.8252 16.4747C33.3598 16.4747 33.7752 16.3559 34.0715 16.1184C34.3712 15.8806 34.5976 15.5629 34.7245 15.202L36.6031 15.7644ZM34.4999 13.0336C34.4882 12.8274 34.4453 12.6243 34.3728 12.431C34.2979 12.2328 34.1806 12.0534 34.0291 11.9052C33.8646 11.7443 33.67 11.6174 33.4564 11.5318C33.1944 11.4302 32.9149 11.3811 32.6339 11.3875C32.366 11.3822 32.1001 11.4342 31.8538 11.5398C31.6408 11.6342 31.4467 11.7666 31.2811 11.9304C31.128 12.0815 31.0044 12.2598 30.9168 12.4562C30.8349 12.637 30.786 12.831 30.7725 13.029L34.4999 13.0336ZM39.7589 18.068C39.826 18.5096 40.0487 18.9126 40.3867 19.2044C40.7258 19.4984 41.1668 19.6454 41.7097 19.6454C42.4222 19.6454 42.9706 19.4617 43.3547 19.0944C43.7388 18.7271 43.9297 18.1364 43.9274 17.3223V16.7118C43.715 17.0222 43.4294 17.2756 43.0958 17.4495C42.714 17.6702 42.2176 17.7805 41.6066 17.7805C41.0765 17.7857 40.551 17.6819 40.0625 17.4758C39.5988 17.2804 39.18 16.9919 38.8322 16.6281C38.4814 16.2573 38.2049 15.8225 38.0178 15.3475C37.6248 14.3213 37.6216 13.1868 38.0086 12.1584C38.1936 11.6801 38.4655 11.24 38.8105 10.8605C39.1524 10.4855 39.5681 10.1852 40.0316 9.9785C40.5281 9.7588 41.066 9.64862 41.6089 9.65547C42.2756 9.65547 42.8014 9.77422 43.1863 10.0117C43.5188 10.195 43.7958 10.4644 43.9881 10.7918V9.80782H46.1646V17.2536C46.1669 17.8143 46.0838 18.372 45.9183 18.9077C45.7602 19.435 45.4861 19.9202 45.116 20.3278C44.746 20.7353 44.2893 21.0548 43.7797 21.2629C43.1449 21.521 42.4635 21.645 41.7785 21.6271C41.2452 21.6339 40.7147 21.5506 40.2091 21.3808C39.765 21.2303 39.3492 21.0065 38.9789 20.7187C38.638 20.4527 38.3504 20.1247 38.1312 19.7519C37.9221 19.4003 37.7839 19.0112 37.7245 18.6064L39.7589 18.068ZM41.9984 15.8458C42.2616 15.8553 42.5238 15.8092 42.768 15.7105C43.0121 15.6118 43.2327 15.4627 43.4154 15.273C43.7827 14.8912 43.9664 14.3765 43.9664 13.7289C43.9664 13.0813 43.7755 12.5696 43.3936 12.1939C43.2126 12.0093 42.9961 11.8634 42.757 11.765C42.518 11.6665 42.2615 11.6176 42.003 11.6212C41.7331 11.6187 41.4653 11.6677 41.2137 11.7655C40.9739 11.8596 40.7571 12.0042 40.578 12.1893C40.3931 12.382 40.249 12.6099 40.1541 12.8594C40.0496 13.1356 39.9979 13.429 40.0018 13.7243C40.0018 14.3803 40.1885 14.8977 40.5619 15.2765C40.7495 15.4649 40.9738 15.6127 41.2209 15.7106C41.468 15.8086 41.7327 15.8546 41.9984 15.8458ZM49.246 18.068C49.3139 18.5083 49.5364 18.91 49.8737 19.201C50.2128 19.495 50.6538 19.642 51.1968 19.642C51.9093 19.642 52.4576 19.4583 52.8417 19.091C53.2259 18.7237 53.4168 18.133 53.4145 17.3189V16.7083C53.2039 17.0189 52.9203 17.273 52.5886 17.4483C52.2068 17.669 51.7104 17.7794 51.0994 17.7794C50.5693 17.7845 50.0437 17.6808 49.5553 17.4747C49.0915 17.2792 48.6728 16.9907 48.325 16.627C47.9742 16.2561 47.6977 15.8214 47.5106 15.3463C47.1176 14.3202 47.1144 13.1856 47.5014 12.1573C47.6864 11.6789 47.9583 11.2389 48.3033 10.8594C48.6452 10.4844 49.0609 10.1841 49.5244 9.97736C50.0201 9.75798 50.5573 9.64781 51.0994 9.65433C51.7661 9.65433 52.2919 9.77308 52.6768 10.0106C53.0093 10.1938 53.2863 10.4633 53.4786 10.7907V9.80782H55.6551V17.2536C55.6574 17.8143 55.5743 18.372 55.4088 18.9077C55.2503 19.4355 54.9754 19.921 54.6045 20.3286C54.2336 20.7361 53.7761 21.0554 53.2656 21.2629C52.6308 21.521 51.9494 21.645 51.2644 21.6271C50.7311 21.6339 50.2006 21.5506 49.695 21.3808C49.2512 21.2317 48.8354 21.0094 48.4648 20.7233C48.1239 20.4573 47.8363 20.1293 47.6171 19.7565C47.408 19.4049 47.2699 19.0158 47.2104 18.611L49.246 18.068ZM51.4855 15.8458C51.7486 15.8553 52.0109 15.8092 52.255 15.7105C52.4992 15.6118 52.7198 15.4627 52.9025 15.273C53.2698 14.8912 53.4534 14.3765 53.4534 13.7289C53.4534 13.0813 53.2625 12.5696 52.8807 12.1939C52.6997 12.0093 52.4831 11.8634 52.2441 11.765C52.0051 11.6665 51.7485 11.6176 51.49 11.6212C51.2202 11.6187 50.9523 11.6677 50.7008 11.7655C50.461 11.8596 50.2442 12.0042 50.065 12.1893C49.8802 12.382 49.736 12.6099 49.6412 12.8594C49.5366 13.1356 49.485 13.429 49.4889 13.7243C49.4889 14.3803 49.6756 14.8977 50.049 15.2765C50.2364 15.4648 50.4605 15.6125 50.7074 15.7104C50.9544 15.8084 51.2188 15.8544 51.4843 15.8458H51.4855ZM59.0034 18.1528H56.9839V5.87073H59.0034V10.502C59.2736 10.1745 59.6311 9.93025 60.0344 9.79751C60.4271 9.66062 60.8396 9.58903 61.2555 9.5856C61.7298 9.57446 62.2011 9.66427 62.6381 9.84906C63.0082 10.0101 63.3382 10.2506 63.6049 10.5535C63.8678 10.8598 64.063 11.2182 64.1776 11.6051C64.3037 12.0234 64.3666 12.4581 64.3644 12.895V18.154H62.11V13.2856C62.1251 12.8602 61.9964 12.4421 61.7446 12.0988C61.5017 11.7819 61.1088 11.6234 60.5659 11.6234C60.0909 11.6234 59.7178 11.7789 59.4467 12.0897C59.1694 12.4137 59.0127 12.8237 59.0034 13.2501V18.1528ZM73.4035 15.7644C73.3001 16.1323 73.1367 16.4806 72.9201 16.7954C72.7008 17.1175 72.4299 17.4011 72.1183 17.635C71.7813 17.8848 71.4061 18.0782 71.0071 18.2078C70.555 18.3535 70.0823 18.425 69.6073 18.4197C69.0455 18.4225 68.4879 18.3219 67.9624 18.123C67.4489 17.9295 66.9809 17.632 66.5878 17.249C66.1803 16.845 65.8602 16.3615 65.6473 15.8286C65.4085 15.23 65.2916 14.5897 65.3037 13.9454C65.2963 13.3233 65.4132 12.7061 65.6473 12.1298C65.8558 11.6137 66.1641 11.1438 66.5546 10.7471C66.9311 10.37 67.3778 10.0703 67.8696 9.8651C68.358 9.6577 68.8832 9.55095 69.4137 9.55123C70.712 9.55123 71.7242 9.93574 72.4505 10.7048C73.1767 11.4738 73.5387 12.5311 73.5364 13.8767C73.5364 14.0355 73.5307 14.1856 73.5192 14.3268C73.5078 14.4681 73.502 14.5502 73.502 14.5731H67.5168C67.5257 14.836 67.5922 15.0936 67.7115 15.328C67.8265 15.555 67.9817 15.7591 68.1697 15.9305C68.3606 16.103 68.582 16.2382 68.8227 16.3292C69.0786 16.427 69.3506 16.476 69.6245 16.4735C70.1591 16.4735 70.5745 16.3548 70.8708 16.1173C71.1705 15.8795 71.3969 15.5618 71.5238 15.2009L73.4035 15.7644ZM71.3004 13.0336C71.2887 12.8274 71.2458 12.6243 71.1732 12.431C71.0984 12.2328 70.9811 12.0534 70.8296 11.9052C70.6651 11.7443 70.4704 11.6174 70.2568 11.5318C69.9948 11.4302 69.7153 11.3811 69.4344 11.3875C69.1665 11.3822 68.9005 11.4342 68.6543 11.5398C68.4412 11.6342 68.2472 11.7666 68.0815 11.9304C67.9284 12.0815 67.8049 12.2598 67.7173 12.4562C67.6353 12.637 67.5864 12.831 67.5729 13.029L71.3004 13.0336ZM74.4093 15.879C74.4007 15.5528 74.4613 15.2285 74.5871 14.9274C74.7129 14.6263 74.9009 14.3553 75.139 14.1321C75.3684 13.9153 75.636 13.7428 75.9282 13.6235C76.2418 13.4952 76.5694 13.4041 76.9042 13.352L78.9569 13.0462C79.1944 13.0126 79.3582 12.9419 79.4483 12.8342C79.5387 12.7279 79.5872 12.5923 79.5847 12.4528C79.5854 12.3084 79.5551 12.1656 79.4958 12.034C79.4365 11.9023 79.3496 11.785 79.241 11.6899C79.0119 11.4753 78.6583 11.368 78.1803 11.368C77.6824 11.368 77.3005 11.5035 77.0348 11.7747C76.7777 12.0283 76.6187 12.3647 76.5857 12.7243L74.5823 12.3004C74.6209 11.9562 74.7243 11.6223 74.887 11.3165C75.0618 10.9817 75.2976 10.6826 75.5823 10.4344C75.903 10.1588 76.2709 9.94341 76.6682 9.79866C77.1455 9.62678 77.6501 9.54332 78.1574 9.55238C78.7284 9.53872 79.2973 9.62796 79.8367 9.81584C80.258 9.96466 80.6427 10.2017 80.965 10.5112C81.2499 10.7941 81.4649 11.1397 81.5927 11.5204C81.7232 11.9083 81.789 12.315 81.7875 12.7243V16.8298C81.7875 17.0589 81.7989 17.299 81.8218 17.5503C81.8447 17.8015 81.8673 18.0024 81.8894 18.1528H79.8206C79.7924 17.9986 79.7725 17.843 79.7611 17.6866C79.7443 17.4888 79.7359 17.3109 79.7359 17.1528C79.4949 17.5054 79.1793 17.8007 78.8114 18.0176C78.4098 18.2658 77.8981 18.3903 77.2765 18.3911C76.868 18.397 76.4622 18.325 76.0806 18.1792C75.7458 18.0509 75.438 17.8609 75.1733 17.619C74.9284 17.3948 74.7333 17.1216 74.6006 16.8172C74.4728 16.521 74.4076 16.2016 74.4093 15.879ZM77.7507 16.7106C77.983 16.7115 78.2143 16.6803 78.438 16.6178C78.6554 16.5574 78.8558 16.4472 79.0234 16.296C79.2014 16.1309 79.3404 15.9282 79.43 15.7026C79.5409 15.4074 79.5927 15.0933 79.5824 14.7782V14.4047L77.6992 14.6934C77.4292 14.7286 77.1741 14.8372 76.9615 15.0073C76.7637 15.1715 76.6648 15.4174 76.6648 15.745C76.6652 15.995 76.7625 16.2352 76.9363 16.4151C77.118 16.6121 77.3895 16.7106 77.7507 16.7106ZM91.3284 16.643C91.3284 16.9256 91.3341 17.2055 91.3456 17.4827C91.357 17.7599 91.3738 17.9833 91.396 18.1528H89.2447C89.2152 18.0188 89.1953 17.883 89.1851 17.7462C89.1683 17.5652 89.1599 17.3785 89.1599 17.186C88.9426 17.5379 88.6348 17.8251 88.2687 18.0176C87.8233 18.2561 87.3236 18.3745 86.8185 18.3613C86.2526 18.3681 85.6917 18.2553 85.1724 18.0302C84.6861 17.8178 84.2498 17.5056 83.8918 17.1138C83.526 16.7079 83.241 16.2359 83.0521 15.7232C82.6482 14.6028 82.6453 13.3769 83.0441 12.2546C83.226 11.7446 83.5031 11.2739 83.8608 10.8674C84.3417 10.356 84.9482 9.97959 85.6199 9.77559C86.2916 9.57159 87.005 9.54716 87.6891 9.70473C87.9274 9.76214 88.1581 9.8475 88.3764 9.95903C88.5473 10.0457 88.7044 10.1573 88.8426 10.2901C88.9481 10.39 89.037 10.506 89.1061 10.6337V5.87073H91.3284V16.643ZM85.0178 13.9626C85.0178 14.7094 85.2129 15.2917 85.6031 15.7095C85.7934 15.9078 86.0219 16.0657 86.2747 16.1735C86.5276 16.2813 86.7997 16.3369 87.0745 16.3369C87.3494 16.3369 87.6215 16.2813 87.8743 16.1735C88.1272 16.0657 88.3556 15.9078 88.5459 15.7095C88.9415 15.291 89.1393 14.7029 89.1393 13.9454C89.1393 13.1878 88.9415 12.6151 88.5459 12.2271C88.3533 12.0354 88.1247 11.8835 87.8734 11.7801C87.622 11.6767 87.3527 11.6239 87.0809 11.6247C86.8091 11.6254 86.5401 11.6797 86.2893 11.7845C86.0385 11.8892 85.8108 12.0424 85.6192 12.2351C85.2183 12.6407 85.0178 13.2165 85.0178 13.9626ZM92.483 17.2765C92.4809 17.163 92.5018 17.0502 92.5443 16.9449C92.5868 16.8396 92.6501 16.7439 92.7305 16.6637C92.8084 16.5817 92.9025 16.5169 93.0068 16.4733C93.1111 16.4297 93.2234 16.4083 93.3364 16.4105C93.5661 16.4105 93.7864 16.5017 93.9488 16.6642C94.1112 16.8266 94.2024 17.0468 94.2024 17.2765C94.2046 17.3896 94.1832 17.5018 94.1396 17.6061C94.0961 17.7105 94.0312 17.8046 93.9493 17.8825C93.869 17.9628 93.7734 18.0261 93.6681 18.0687C93.5628 18.1112 93.45 18.132 93.3364 18.1299C93.2241 18.131 93.1126 18.1096 93.0086 18.0671C92.9046 18.0246 92.8101 17.9618 92.7306 17.8823C92.6511 17.8029 92.5883 17.7084 92.5458 17.6044C92.5033 17.5003 92.482 17.3889 92.483 17.2765ZM95.3159 8.17777C95.3159 7.85118 95.4456 7.53796 95.6765 7.30703C95.9075 7.07609 96.2207 6.94635 96.5473 6.94635C96.8739 6.94635 97.1871 7.07609 97.418 7.30703C97.649 7.53796 97.7787 7.85118 97.7787 8.17777C97.7787 8.50436 97.649 8.81758 97.418 9.04851C97.1871 9.27945 96.8739 9.40919 96.5473 9.40919C96.2207 9.40919 95.9075 9.27945 95.6765 9.04851C95.4456 8.81758 95.3159 8.50436 95.3159 8.17777ZM95.5117 18.1437V10.266H97.5828V18.1425L95.5117 18.1437ZM98.6665 14.1962C98.6665 11.9625 100.232 10.0724 102.825 10.0724C105.417 10.0724 107 11.9614 107 14.1962C107 16.4311 105.434 18.3384 102.826 18.3384C100.217 18.3384 98.6665 16.43 98.6665 14.1962ZM104.852 14.1962C104.852 12.9728 104.135 11.9133 102.83 11.9133C101.526 11.9133 100.814 12.9728 100.814 14.1962C100.814 15.4196 101.531 16.4953 102.82 16.4953C104.109 16.4953 104.848 15.4357 104.848 14.1962H104.852Z" fill="#DDDDDD"/>
</svg>
