<svg width="111" height="30" viewBox="0 0 111 30" fill="none" xmlns="http://www.w3.org/2000/svg">
<path d="M14.2543 1.10333C19.4549 1.10333 23.6715 12.2823 23.6715 17.484C23.6715 19.9818 22.6792 22.3772 20.9131 24.1434C19.1469 25.9096 16.7514 26.9018 14.2537 26.9018C11.756 26.9018 9.36051 25.9096 7.59433 24.1434C5.82816 22.3772 4.83594 19.9818 4.83594 17.484C4.83594 12.2823 9.05024 1.10333 14.2543 1.10333Z" fill="#56555C"/>
<path d="M26.1948 10.1254L22.3528 11.4805C22.3528 11.4805 22.9473 13.2881 22.9531 13.3018C22.9588 13.3156 26.7802 12.8093 26.7802 12.8093L26.1948 10.1254ZM2.31223 10.1254L6.15425 11.4805C6.15425 11.4805 5.55974 13.2881 5.55401 13.3018C5.54828 13.3156 1.72803 12.8081 1.72803 12.8081L2.31223 10.1254Z" fill="white"/>
<path d="M10.2999 9.80458C10.5895 9.79788 10.8717 9.89629 11.0943 10.0816C11.3169 10.2669 11.4648 10.5266 11.5107 10.8126C11.6326 11.4671 11.7129 12.1286 11.7512 12.7932C11.7548 12.9793 11.7379 13.1652 11.7008 13.3476C11.6527 12.8688 11.5863 12.4129 11.5118 12.0165C11.4659 11.7306 11.318 11.4709 11.0954 11.2855C10.8728 11.1002 10.5906 11.0018 10.301 11.0085C8.85703 11.0227 7.41553 11.1322 5.98593 11.3361C6.1211 10.9157 6.26658 10.4942 6.42237 10.0761C7.70833 9.90853 9.00314 9.81787 10.2999 9.80458ZM23.653 17.0659C20.2612 16.8907 17.3642 15.8059 16.7101 15.4175C16.2004 15.1736 15.5497 14.6569 15.363 13.3648C15.2359 14.7875 15.5074 16.0854 16.8396 16.7257C16.9381 16.7853 19.4971 18.0511 23.6267 18.2687C23.6484 18.0098 23.6599 17.7486 23.6599 17.484C23.6622 17.3477 23.6588 17.208 23.653 17.0659ZM4.86334 17.0659C8.25517 16.8907 11.1522 15.8059 11.8062 15.4175C12.316 15.1736 12.9666 14.6569 13.1533 13.3648C13.2782 14.7887 13.0102 16.0854 11.6734 16.7257C11.5748 16.7853 9.01579 18.0511 4.88625 18.2687C4.86448 18.0098 4.85303 17.7486 4.85303 17.484C4.85417 17.3477 4.85761 17.208 4.86334 17.0659ZM18.197 9.80458C17.9074 9.79788 17.6252 9.89629 17.4026 10.0816C17.18 10.2669 17.0321 10.5266 16.9862 10.8126C16.8643 11.4671 16.784 12.1286 16.7456 12.7932C16.742 12.9793 16.759 13.1652 16.796 13.3476C16.8442 12.8688 16.9106 12.4129 16.9851 12.0165C17.0309 11.7306 17.1789 11.4709 17.4015 11.2855C17.6241 11.1002 17.9063 11.0018 18.1959 11.0085C19.6399 11.0227 21.0814 11.1322 22.511 11.3361C22.3758 10.9157 22.2303 10.4942 22.0745 10.0761C20.7886 9.90853 19.4938 9.81787 18.197 9.80458Z" fill="#E0E0E0"/>
<path d="M6.0157 8.7851C6.94012 6.5422 8.05011 4.60172 9.22311 3.17213C10.8211 1.23394 12.513 0.251099 14.2507 0.251099C15.9884 0.251099 17.6838 1.23852 19.2806 3.17557C20.4582 4.60287 21.5716 6.54335 22.488 8.78854L22.5327 8.90309L22.4182 8.88705C22.0917 8.84352 21.8259 8.81259 21.5018 8.7725H21.4617L21.4456 8.73584C20.4055 6.30738 18.63 3.13548 16.3355 1.81013C15.7072 1.42762 14.9885 1.21889 14.253 1.2053C13.5175 1.21889 12.7988 1.42762 12.1705 1.81013C9.87948 3.13433 8.10739 6.29478 7.05925 8.73584L7.04321 8.7725H7.00312C6.67665 8.80686 6.4109 8.83894 6.08672 8.88705L5.97217 8.90309L6.0157 8.7851ZM23.7618 15.8929C23.5064 15.8861 23.2487 15.8758 22.9955 15.8609H22.9165L22.9061 15.7818C22.677 13.996 22.1639 11.9055 21.4514 9.89624L21.3998 9.74961L21.5545 9.77023C21.8454 9.80918 22.1272 9.85271 22.4021 9.89853L22.4583 9.90769L22.4766 9.96153C23.1639 11.9673 23.6507 14.0372 23.8592 15.7899L23.8718 15.9044L23.7618 15.8929Z" fill="white"/>
<path d="M22.9211 11.3682C22.7836 10.8974 22.6347 10.4266 22.4755 9.95807L22.4571 9.90423L22.401 9.89507C22.1307 9.84925 21.8454 9.80572 21.5533 9.76677L21.3987 9.74615L21.4502 9.89278C21.6083 10.3384 21.7561 10.7874 21.8935 11.2376C22.3884 11.2937 22.669 11.3327 22.9211 11.3682Z" fill="white"/>
<path d="M4.71323 15.7452C4.92171 13.9926 5.41313 11.9227 6.09585 9.91687L6.11418 9.86304L6.17031 9.85387C6.44065 9.80805 6.72588 9.76452 7.01798 9.72557L7.17262 9.70496L7.12108 9.85158C6.40972 11.8608 5.8931 13.9502 5.66629 15.7372L5.65598 15.8162H5.57694C5.32264 15.8311 5.0649 15.8414 4.8106 15.8483H4.69604L4.71323 15.7452Z" fill="white"/>
<path d="M6.17045 9.85387L6.11432 9.86304L6.09599 9.91687C5.93677 10.3854 5.78785 10.8585 5.65039 11.3293C6.12807 11.2686 6.26667 11.2754 6.66645 11.2331C6.80735 10.7749 6.95856 10.3086 7.12465 9.85158L7.1762 9.70496L7.02156 9.72557C6.72602 9.76567 6.44079 9.80805 6.17045 9.85387Z" fill="white"/>
<path d="M14.2543 27.7478C12.1925 27.7483 10.1782 27.1282 8.47369 25.9681C6.76917 24.8081 5.4533 23.1618 4.69734 21.2436C4.17873 19.9133 3.9397 18.4904 3.99515 17.0637V16.9995H4.0593C4.39378 16.9915 4.62288 16.9823 4.86115 16.9697H4.93561V17.0442C4.87378 18.3478 5.08566 19.65 5.55761 20.8667C6.12542 22.327 7.05204 23.6207 8.2519 24.6282C9.45176 25.6358 10.8862 26.3248 12.4226 26.6315C13.9591 26.9382 15.5481 26.8529 17.0429 26.3833C18.5376 25.9137 19.8899 25.075 20.9749 23.9447C21.828 23.06 22.4959 22.014 22.9395 20.8679C23.4115 19.6511 23.6234 18.349 23.5615 17.0453V16.9709H23.636C23.9693 16.9881 24.1984 16.9949 24.4378 17.0007H24.502V17.0648C24.5569 18.4904 24.3179 19.9121 23.7998 21.2413C23.0457 23.1606 21.7307 24.8082 20.0263 25.969C18.3219 27.1299 16.3073 27.7501 14.2451 27.7489L14.2543 27.7478Z" fill="white"/>
<path d="M4.96646 18.2687C4.93308 17.8595 4.92467 17.4487 4.94126 17.0384V16.964H4.86681C4.62625 16.9766 4.39715 16.9858 4.06495 16.9938H4.00081V17.0579C3.98668 17.4693 3.99586 17.8812 4.0283 18.2916H4.05923C4.36851 18.2916 4.67092 18.2779 4.95845 18.2641L4.96646 18.2687ZM24.5076 16.9995H24.4435C24.2006 16.9995 23.9715 16.9869 23.6416 16.9697H23.5672V17.0442C23.5837 17.4506 23.5756 17.8576 23.5431 18.263L24.4824 18.3031C24.5149 17.8927 24.524 17.4808 24.5099 17.0694L24.5076 16.9995Z" fill="white"/>
<path d="M25.0368 17.161C23.0746 17.1763 21.1188 16.9332 19.22 16.4382C18.4026 16.2265 17.6059 15.9416 16.8396 15.5871L16.8213 15.5791C15.2176 14.8128 15.1592 13.2778 15.3081 11.8768C15.3459 11.5229 15.2164 11.0555 14.843 10.8081C14.669 10.6919 14.4645 10.63 14.2554 10.63C14.0462 10.63 13.8417 10.6919 13.6677 10.8081C13.2943 11.0555 13.1648 11.5229 13.2026 11.8757C13.3516 13.2778 13.2886 14.8151 11.6894 15.5814L11.6711 15.5906C10.9057 15.9436 10.1102 16.2273 9.29418 16.4382C7.39606 16.933 5.4411 17.1761 3.4796 17.161H3.47159C3.07773 17.1613 2.695 17.0304 2.38385 16.789C2.07269 16.5475 1.85084 16.2093 1.75333 15.8277C1.45321 14.6535 1.0477 12.9032 1.00073 11.2457C0.991052 10.924 1.07726 10.6067 1.2484 10.3342C1.41954 10.0617 1.66788 9.84625 1.96181 9.71527C4.17034 8.73243 8.63895 8.37159 10.5451 8.39794C10.8743 8.3957 11.2006 8.45942 11.5047 8.58534C11.8089 8.71125 12.0847 8.89681 12.316 9.13106C12.926 8.84523 13.5898 8.69217 14.2634 8.68203C14.937 8.69221 15.6007 8.84526 16.2107 9.13106C16.4417 8.89639 16.7175 8.71055 17.0217 8.58461C17.326 8.45867 17.6524 8.39519 17.9817 8.39794C19.1272 8.3819 24.0471 8.59382 26.5649 9.71642C26.86 9.84723 27.1093 10.063 27.2811 10.3362C27.4529 10.6094 27.5394 10.9277 27.5295 11.2502C27.4825 12.9066 27.0712 14.6535 26.7769 15.8323C26.6793 16.2139 26.4575 16.5521 26.1463 16.7935C25.8352 17.035 25.4525 17.1659 25.0586 17.1656L25.0368 17.161ZM18.2142 9.87335C17.9405 9.86704 17.6738 9.95994 17.4633 10.1349C17.2528 10.3099 17.1126 10.5551 17.0687 10.8253C16.9473 11.4767 16.867 12.1352 16.8282 12.7967C16.819 13.5527 17.0905 14.0705 17.63 14.3351C19.6495 15.2355 21.9967 15.6811 24.8054 15.6948C24.9102 15.6942 25.0119 15.6591 25.0948 15.5949C25.1776 15.5307 25.2369 15.441 25.2636 15.3397C25.5305 14.2961 25.8902 12.7451 25.9315 11.319C25.9337 11.2522 25.9159 11.1863 25.8804 11.1298C25.8449 11.0732 25.7933 11.0286 25.7322 11.0017C23.81 10.1448 19.7034 9.85044 18.2142 9.87335ZM2.7797 11.004C2.71918 11.0309 2.66804 11.0753 2.63276 11.1314C2.59748 11.1874 2.57965 11.2527 2.58153 11.319C2.62277 12.7417 2.98246 14.2973 3.24936 15.3397C3.27571 15.4412 3.33498 15.5312 3.41788 15.5954C3.50079 15.6597 3.60267 15.6946 3.70756 15.6948C6.51863 15.6811 8.86233 15.2366 10.8887 14.3339C11.4294 14.0705 11.6997 13.5516 11.6906 12.7932C11.6538 12.133 11.5754 11.4757 11.4557 10.8253C11.4119 10.5551 11.2717 10.3099 11.0612 10.1349C10.8506 9.95994 10.5839 9.86704 10.3102 9.87335C9.4305 9.8596 4.94929 10.0372 2.7797 11.004ZM40.6031 16.0155C40.4996 16.3834 40.3363 16.7317 40.1197 17.0465C39.9004 17.3686 39.6295 17.6522 39.3178 17.8861C38.9809 18.1359 38.6056 18.3293 38.2067 18.4589C37.7546 18.6046 37.2819 18.6761 36.8069 18.6708C36.245 18.6736 35.6874 18.573 35.1619 18.3741C34.6484 18.1806 34.1804 17.8831 33.7873 17.5001C33.3808 17.0999 33.0604 16.6208 32.8457 16.0923C32.6069 15.4937 32.49 14.8534 32.5021 14.2091C32.4948 13.587 32.6116 12.9698 32.8457 12.3935C33.0542 11.8774 33.3625 11.4075 33.753 11.0108C34.124 10.6312 34.5657 10.3277 35.0531 10.1173C35.5415 9.90995 36.0667 9.8032 36.5973 9.80347C37.8955 9.80347 38.9077 10.188 39.634 10.957C40.3602 11.726 40.7222 12.7833 40.7199 14.1289C40.7199 14.2877 40.7142 14.4378 40.7027 14.5791C40.6913 14.7204 40.6856 14.8025 40.6856 14.8254H34.7175C34.7264 15.0882 34.7929 15.3459 34.9122 15.5802C35.0272 15.8072 35.1824 16.0114 35.3704 16.1828C35.5613 16.3552 35.7828 16.4904 36.0234 16.5814C36.2793 16.6793 36.5513 16.7282 36.8252 16.7258C37.3598 16.7258 37.7752 16.607 38.0715 16.3695C38.3712 16.1317 38.5976 15.814 38.7245 15.4531L40.6031 16.0155ZM38.4999 13.2847C38.4882 13.0785 38.4454 12.8754 38.3728 12.6821C38.2979 12.4839 38.1806 12.3045 38.0291 12.1563C37.8646 11.9954 37.67 11.8685 37.4564 11.7829C37.1944 11.6813 36.9149 11.6322 36.6339 11.6386C36.366 11.6333 36.1001 11.6853 35.8538 11.7909C35.6408 11.8853 35.4467 12.0177 35.2811 12.1815C35.128 12.3326 35.0044 12.5109 34.9168 12.7073C34.8349 12.8881 34.786 13.0821 34.7725 13.2801L38.4999 13.2847ZM43.7589 18.3191C43.826 18.7607 44.0487 19.1637 44.3867 19.4555C44.7258 19.7495 45.1668 19.8965 45.7097 19.8965C46.4222 19.8965 46.9706 19.7128 47.3547 19.3455C47.7388 18.9782 47.9297 18.3875 47.9274 17.5734V16.9629C47.715 17.2733 47.4294 17.5267 47.0958 17.7006C46.714 17.9213 46.2176 18.0316 45.6066 18.0316C45.0765 18.0368 44.551 17.933 44.0625 17.7269C43.5988 17.5315 43.18 17.243 42.8322 16.8792C42.4814 16.5083 42.2049 16.0736 42.0178 15.5986C41.6248 14.5724 41.6216 13.4379 42.0086 12.4095C42.1936 11.9312 42.4655 11.4911 42.8105 11.1116C43.1524 10.7366 43.5681 10.4363 44.0316 10.2296C44.5281 10.0099 45.066 9.89972 45.6089 9.90657C46.2756 9.90657 46.8014 10.0253 47.1863 10.2628C47.5188 10.4461 47.7958 10.7155 47.9881 11.0429V10.0589H50.1646V17.5047C50.1669 18.0654 50.0838 18.6231 49.9183 19.1588C49.7602 19.6861 49.4861 20.1713 49.116 20.5789C48.746 20.9864 48.2893 21.3059 47.7797 21.514C47.1449 21.7721 46.4635 21.8961 45.7785 21.8782C45.2452 21.885 44.7147 21.8017 44.2091 21.6319C43.765 21.4814 43.3492 21.2576 42.9789 20.9698C42.638 20.7038 42.3504 20.3758 42.1312 20.003C41.9221 19.6514 41.7839 19.2623 41.7245 18.8575L43.7589 18.3191ZM45.9984 16.0969C46.2616 16.1064 46.5238 16.0603 46.768 15.9616C47.0121 15.8629 47.2327 15.7138 47.4154 15.5241C47.7827 15.1423 47.9664 14.6276 47.9664 13.98C47.9664 13.3324 47.7755 12.8207 47.3936 12.445C47.2126 12.2604 46.9961 12.1145 46.757 12.016C46.518 11.9176 46.2615 11.8687 46.003 11.8723C45.7331 11.8698 45.4653 11.9188 45.2137 12.0166C44.9739 12.1107 44.7571 12.2553 44.578 12.4404C44.3931 12.6331 44.249 12.861 44.1541 13.1105C44.0496 13.3867 43.9979 13.6801 44.0018 13.9754C44.0018 14.6314 44.1885 15.1488 44.5619 15.5276C44.7495 15.716 44.9738 15.8638 45.2209 15.9617C45.468 16.0597 45.7327 16.1057 45.9984 16.0969ZM53.246 18.3191C53.3139 18.7594 53.5364 19.1611 53.8737 19.4521C54.2128 19.7461 54.6538 19.8931 55.1968 19.8931C55.9093 19.8931 56.4576 19.7094 56.8417 19.3421C57.2259 18.9748 57.4168 18.3841 57.4145 17.57V16.9594C57.2039 17.27 56.9203 17.5241 56.5886 17.6994C56.2067 17.9201 55.7104 18.0305 55.0994 18.0305C54.5693 18.0356 54.0437 17.9319 53.5553 17.7258C53.0915 17.5303 52.6728 17.2418 52.325 16.8781C51.9742 16.5072 51.6977 16.0725 51.5106 15.5974C51.1176 14.5713 51.1144 13.4367 51.5014 12.4083C51.6864 11.93 51.9583 11.49 52.3033 11.1105C52.6452 10.7355 53.0609 10.4352 53.5244 10.2285C54.0201 10.0091 54.5573 9.89891 55.0994 9.90542C55.7661 9.90542 56.2919 10.0242 56.6768 10.2617C57.0093 10.4449 57.2863 10.7144 57.4786 11.0418V10.0589H59.6551V17.5047C59.6574 18.0654 59.5743 18.6231 59.4088 19.1588C59.2503 19.6866 58.9754 20.1721 58.6045 20.5797C58.2336 20.9872 57.7761 21.3065 57.2656 21.514C56.6308 21.7721 55.9494 21.8961 55.2644 21.8782C54.7311 21.885 54.2006 21.8017 53.695 21.6319C53.2512 21.4828 52.8354 21.2605 52.4648 20.9744C52.1239 20.7084 51.8363 20.3803 51.6171 20.0076C51.408 19.656 51.2699 19.2669 51.2104 18.8621L53.246 18.3191ZM55.4855 16.0969C55.7486 16.1064 56.0109 16.0603 56.255 15.9616C56.4992 15.8629 56.7198 15.7138 56.9025 15.5241C57.2698 15.1423 57.4534 14.6276 57.4534 13.98C57.4534 13.3324 57.2625 12.8207 56.8807 12.445C56.6997 12.2604 56.4831 12.1145 56.2441 12.016C56.0051 11.9176 55.7485 11.8687 55.49 11.8723C55.2202 11.8698 54.9523 11.9188 54.7008 12.0166C54.461 12.1107 54.2442 12.2553 54.065 12.4404C53.8802 12.6331 53.736 12.861 53.6412 13.1105C53.5366 13.3867 53.485 13.6801 53.4889 13.9754C53.4889 14.6314 53.6756 15.1488 54.049 15.5276C54.2364 15.7159 54.4605 15.8636 54.7074 15.9615C54.9544 16.0595 55.2188 16.1055 55.4843 16.0969H55.4855ZM63.0034 18.4039H60.9839V6.12183H63.0034V10.7531C63.2736 10.4256 63.6311 10.1813 64.0344 10.0486C64.4271 9.91172 64.8396 9.84013 65.2555 9.83669C65.7298 9.82556 66.2011 9.91537 66.6381 10.1002C67.0082 10.2612 67.3382 10.5017 67.6049 10.8046C67.8678 11.1109 68.063 11.4692 68.1776 11.8562C68.3037 12.2745 68.3666 12.7092 68.3644 13.1461V18.4051H66.11V13.5367C66.1252 13.1112 65.9964 12.6931 65.7446 12.3499C65.5017 12.033 65.1088 11.8745 64.5659 11.8745C64.0909 11.8745 63.7178 12.03 63.4467 12.3408C63.1694 12.6648 63.0127 13.0748 63.0034 13.5012V18.4039ZM77.4035 16.0155C77.3001 16.3834 77.1367 16.7317 76.9201 17.0465C76.7008 17.3686 76.4299 17.6522 76.1183 17.8861C75.7813 18.1359 75.4061 18.3293 75.0071 18.4589C74.555 18.6046 74.0823 18.6761 73.6073 18.6708C73.0455 18.6736 72.4879 18.573 71.9624 18.3741C71.4489 18.1806 70.9809 17.8831 70.5878 17.5001C70.1803 17.0961 69.8602 16.6126 69.6473 16.0797C69.4085 15.4811 69.2916 14.8408 69.3037 14.1965C69.2963 13.5744 69.4132 12.9572 69.6473 12.3809C69.8558 11.8648 70.1641 11.3949 70.5546 10.9982C70.9311 10.6211 71.3778 10.3214 71.8696 10.1162C72.358 9.9088 72.8832 9.80205 73.4137 9.80233C74.712 9.80233 75.7242 10.1868 76.4505 10.9559C77.1767 11.7249 77.5387 12.7822 77.5364 14.1278C77.5364 14.2866 77.5307 14.4367 77.5192 14.5779C77.5078 14.7192 77.502 14.8013 77.502 14.8242H71.5168C71.5257 15.0871 71.5922 15.3447 71.7115 15.5791C71.8265 15.8061 71.9817 16.0102 72.1697 16.1816C72.3606 16.3541 72.582 16.4893 72.8227 16.5803C73.0786 16.6781 73.3505 16.7271 73.6245 16.7246C74.1591 16.7246 74.5745 16.6059 74.8708 16.3684C75.1705 16.1306 75.3969 15.8129 75.5238 15.452L77.4035 16.0155ZM75.3004 13.2847C75.2887 13.0785 75.2458 12.8754 75.1732 12.6821C75.0984 12.4839 74.9811 12.3045 74.8296 12.1563C74.6651 11.9954 74.4704 11.8685 74.2568 11.7829C73.9948 11.6813 73.7153 11.6322 73.4344 11.6386C73.1665 11.6333 72.9005 11.6853 72.6543 11.7909C72.4412 11.8853 72.2472 12.0177 72.0815 12.1815C71.9284 12.3326 71.8049 12.5109 71.7173 12.7073C71.6353 12.8881 71.5864 13.0821 71.5729 13.2801L75.3004 13.2847ZM78.4093 16.1301C78.4007 15.8039 78.4613 15.4796 78.5871 15.1785C78.7129 14.8774 78.9009 14.6064 79.139 14.3832C79.3684 14.1664 79.636 13.9939 79.9282 13.8746C80.2418 13.7463 80.5694 13.6552 80.9042 13.6031L82.9569 13.2973C83.1944 13.2637 83.3582 13.193 83.4483 13.0853C83.5387 12.979 83.5872 12.8434 83.5847 12.7039C83.5854 12.5595 83.5551 12.4167 83.4958 12.285C83.4365 12.1534 83.3496 12.0361 83.241 11.941C83.0119 11.7264 82.6583 11.6191 82.1803 11.6191C81.6824 11.6191 81.3005 11.7546 81.0348 12.0258C80.7777 12.2794 80.6187 12.6158 80.5857 12.9754L78.5823 12.5515C78.6209 12.2073 78.7243 11.8734 78.887 11.5675C79.0618 11.2328 79.2976 10.9337 79.5823 10.6855C79.903 10.4099 80.2709 10.1945 80.6682 10.0498C81.1455 9.87788 81.6501 9.79442 82.1574 9.80347C82.7284 9.78982 83.2973 9.87906 83.8367 10.0669C84.258 10.2158 84.6427 10.4528 84.965 10.7623C85.2499 11.0452 85.4649 11.3908 85.5927 11.7714C85.7232 12.1594 85.789 12.5661 85.7875 12.9754V17.0809C85.7875 17.31 85.7989 17.5501 85.8218 17.8014C85.8447 18.0526 85.8673 18.2535 85.8894 18.4039H83.8206C83.7924 18.2497 83.7725 18.0941 83.7611 17.9377C83.7443 17.7399 83.7359 17.562 83.7359 17.4039C83.4949 17.7565 83.1793 18.0518 82.8114 18.2687C82.4098 18.5169 81.8981 18.6414 81.2765 18.6422C80.868 18.6481 80.4622 18.5761 80.0806 18.4303C79.7458 18.302 79.438 18.112 79.1733 17.8701C78.9284 17.6459 78.7333 17.3727 78.6006 17.0683C78.4728 16.7721 78.4076 16.4527 78.4093 16.1301ZM81.7507 16.9617C81.983 16.9626 82.2143 16.9314 82.438 16.8689C82.6554 16.8085 82.8558 16.6983 83.0234 16.5471C83.2014 16.382 83.3403 16.1793 83.43 15.9537C83.5409 15.6585 83.5927 15.3444 83.5824 15.0293V14.6558L81.6992 14.9445C81.4292 14.9797 81.174 15.0883 80.9615 15.2584C80.7637 15.4226 80.6648 15.6685 80.6648 15.9961C80.6652 16.2461 80.7625 16.4863 80.9363 16.6662C81.118 16.8632 81.3895 16.9617 81.7507 16.9617ZM95.3284 16.8941C95.3284 17.1767 95.3341 17.4566 95.3456 17.7338C95.357 18.011 95.3738 18.2344 95.396 18.4039H93.2447C93.2152 18.2699 93.1953 18.1341 93.1851 17.9973C93.1683 17.8163 93.1599 17.6296 93.1599 17.4371C92.9426 17.789 92.6348 18.0762 92.2687 18.2687C91.8233 18.5072 91.3236 18.6256 90.8185 18.6124C90.2526 18.6192 89.6917 18.5064 89.1724 18.2813C88.6861 18.0689 88.2498 17.7567 87.8918 17.3649C87.526 16.959 87.241 16.487 87.0521 15.9743C86.6482 14.8539 86.6453 13.628 87.0441 12.5057C87.226 11.9957 87.5032 11.525 87.8608 11.1185C88.3417 10.6071 88.9482 10.2307 89.6199 10.0267C90.2916 9.82269 91.005 9.79826 91.6891 9.95583C91.9274 10.0132 92.1581 10.0986 92.3764 10.2101C92.5473 10.2968 92.7044 10.4084 92.8426 10.5412C92.9481 10.6411 93.037 10.7571 93.1061 10.8848V6.12183H95.3284V16.8941ZM89.0178 14.2137C89.0178 14.9605 89.2129 15.5428 89.6031 15.9606C89.7934 16.1589 90.0219 16.3168 90.2747 16.4246C90.5276 16.5324 90.7997 16.588 91.0745 16.588C91.3494 16.588 91.6215 16.5324 91.8743 16.4246C92.1272 16.3168 92.3556 16.1589 92.5459 15.9606C92.9415 15.5421 93.1393 14.954 93.1393 14.1965C93.1393 13.4389 92.9415 12.8662 92.5459 12.4782C92.3533 12.2865 92.1247 12.1346 91.8734 12.0312C91.622 11.9278 91.3527 11.875 91.0809 11.8758C90.8091 11.8765 90.5401 11.9308 90.2893 12.0356C90.0385 12.1403 89.8108 12.2935 89.6192 12.4862C89.2183 12.8918 89.0178 13.4676 89.0178 14.2137ZM96.483 17.5276C96.4809 17.4141 96.5018 17.3013 96.5443 17.196C96.5868 17.0907 96.6501 16.995 96.7305 16.9148C96.8084 16.8328 96.9025 16.768 97.0068 16.7244C97.1111 16.6808 97.2234 16.6594 97.3364 16.6616C97.5661 16.6616 97.7864 16.7528 97.9488 16.9152C98.1112 17.0777 98.2024 17.2979 98.2024 17.5276C98.2046 17.6406 98.1832 17.7529 98.1396 17.8572C98.0961 17.9616 98.0312 18.0557 97.9493 18.1336C97.869 18.2139 97.7734 18.2772 97.6681 18.3198C97.5628 18.3623 97.45 18.3831 97.3364 18.381C97.2241 18.3821 97.1126 18.3607 97.0086 18.3182C96.9046 18.2757 96.8101 18.2129 96.7306 18.1334C96.6511 18.054 96.5883 17.9595 96.5458 17.8554C96.5033 17.7514 96.482 17.64 96.483 17.5276ZM99.3159 8.42887C99.3159 8.10228 99.4456 7.78906 99.6765 7.55813C99.9075 7.32719 100.221 7.19745 100.547 7.19745C100.874 7.19745 101.187 7.32719 101.418 7.55813C101.649 7.78906 101.779 8.10228 101.779 8.42887C101.779 8.75546 101.649 9.06868 101.418 9.29961C101.187 9.53055 100.874 9.66029 100.547 9.66029C100.221 9.66029 99.9075 9.53055 99.6765 9.29961C99.4456 9.06868 99.3159 8.75546 99.3159 8.42887ZM99.5117 18.3948V10.5171H101.583V18.3936L99.5117 18.3948ZM102.666 14.4473C102.666 12.2136 104.232 10.3235 106.825 10.3235C109.417 10.3235 111 12.2125 111 14.4473C111 16.6822 109.434 18.5895 106.826 18.5895C104.217 18.5895 102.666 16.6811 102.666 14.4473ZM108.852 14.4473C108.852 13.2239 108.135 12.1644 106.83 12.1644C105.526 12.1644 104.814 13.2239 104.814 14.4473C104.814 15.6707 105.531 16.7464 106.82 16.7464C108.109 16.7464 108.848 15.6868 108.848 14.4473H108.852Z" fill="white"/>
<path d="M14.0476 29.9859C8.20156 29.9938 3.38047 25.2282 3.08944 19.1568V19.1347C2.0223 18.995 1.14648 18.1896 0.882529 17.1053C0.576226 15.8576 0.161317 13.9941 0.112105 12.2029C0.0801792 11.1668 0.654803 10.2138 1.56556 9.79235C2.45986 9.375 3.73514 9.03353 5.34301 8.775C6.24241 6.61324 7.30386 4.73382 8.42641 3.31765C10.1751 1.11618 12.0664 0 14.0476 0C16.0288 0 17.9184 1.11618 19.6646 3.31853C20.782 4.73471 21.8477 6.61147 22.7454 8.76882C24.3423 9.01941 25.6159 9.36265 26.5348 9.78794C27.445 10.2077 28.02 11.1591 27.9891 12.1941C27.9399 13.995 27.5258 15.8594 27.2195 17.1044C26.956 18.1908 26.0783 18.9977 25.0092 19.1365V19.1568C24.71 25.2274 19.8878 29.9887 14.0425 29.985L14.0468 29.9859H14.0476Z" fill="white"/>
<path d="M14.0407 1.89703C19.1172 1.89703 23.2332 13.2441 23.2332 18.5241C23.2332 23.8041 19.1181 28.0844 14.0399 28.0844C8.96341 28.0844 4.84741 23.805 4.84741 18.5241C4.84826 13.2441 8.96426 1.89703 14.0407 1.89703Z" fill="#FCFBFA"/>
<path d="M25.6974 11.055L21.9471 12.4306C21.9471 12.4306 22.5274 14.2659 22.5325 14.2791C22.5384 14.2932 26.2692 13.7788 26.2692 13.7788L25.6974 11.055ZM2.38439 11.055L6.13469 12.4306C6.13469 12.4306 5.55518 14.2659 5.54924 14.2791C5.54415 14.2932 1.81421 13.7788 1.81421 13.7788L2.38524 11.055H2.38439Z" fill="#252526"/>
<path d="M10.1819 10.7294C10.7666 10.7152 11.2714 11.1524 11.3638 11.7529C11.4826 12.4165 11.5615 13.0879 11.5988 13.7629C11.6024 13.9519 11.5859 14.1407 11.5496 14.3259C11.5063 13.8728 11.4445 13.4218 11.3647 12.9741C11.2723 12.3735 10.7674 11.9363 10.1827 11.9506C8.77424 11.9656 7.36575 12.0768 5.97084 12.2841C6.10321 11.8571 6.2449 11.4282 6.39678 11.0047C7.65209 10.8347 8.91603 10.7428 10.1819 10.7294ZM23.2163 18.0997C19.9055 17.9223 17.0775 16.8203 16.4394 16.4268C15.9414 16.1797 15.3067 15.6547 15.1243 14.3426C15.0021 15.7879 15.2643 17.1044 16.5693 17.7547C16.6651 17.8147 19.1631 19.1003 23.1942 19.3209C23.2268 18.9147 23.2342 18.5068 23.2163 18.0997ZM4.87545 18.0997C8.18624 17.9223 11.0142 16.8203 11.6523 16.4268C12.1504 16.1797 12.785 15.6547 12.9674 14.3426C13.0896 15.7879 12.8274 17.1044 11.5225 17.7547C11.4266 17.8147 8.92866 19.1003 4.89751 19.3209C4.86496 18.9147 4.85759 18.5068 4.87545 18.0997ZM17.8904 10.7294C17.3057 10.7152 16.8008 11.1524 16.7084 11.7529C16.5896 12.4165 16.5116 13.0879 16.4742 13.7629C16.4702 13.9519 16.4868 14.1407 16.5234 14.3259C16.5701 13.8397 16.6346 13.3765 16.7076 12.9741C16.8006 12.3739 17.3051 11.9371 17.8895 11.9506C19.2988 11.9656 20.7065 12.0768 22.1014 12.2841C21.9688 11.8543 21.8267 11.4278 21.6754 11.0047C20.4204 10.8348 19.1568 10.7428 17.8912 10.7294H17.8904Z" fill="#E0E0E0"/>
<path d="M5.99971 9.69526C6.9025 7.41879 7.98517 5.4485 9.13062 3.99791C10.691 2.03026 12.3421 1.0332 14.0383 1.0332C15.7352 1.0332 17.3864 2.03026 18.9459 3.99614C20.0956 5.44497 21.1825 7.41526 22.0768 9.69438L22.1209 9.81085L22.0089 9.79409C21.6899 9.74997 21.4311 9.7182 21.1146 9.67762H21.0747L21.0595 9.64056C20.0438 7.17526 18.3104 3.95556 16.0712 2.61085C15.4579 2.22247 14.7563 2.01054 14.0383 1.99673C13.3205 2.01069 12.6193 2.22262 12.0061 2.61085C9.77208 3.95379 8.04371 7.1585 7.01959 9.63703L7.00432 9.67408H6.96529C6.64626 9.70938 6.38662 9.74203 6.07014 9.79056L5.95898 9.80732L5.99971 9.69526ZM23.3215 16.9094C23.0721 16.9023 22.8209 16.8917 22.5732 16.8767H22.4968L22.4866 16.7964C22.2626 14.9841 21.762 12.8611 21.0663 10.822L21.0213 10.6694L21.1723 10.6906C21.4566 10.7303 21.7315 10.7744 21.9996 10.8211L22.0547 10.83L22.0726 10.8847C22.7429 12.9211 23.218 15.022 23.4217 16.8009L23.4344 16.9173L23.3215 16.9085V16.9094Z" fill="#56555C"/>
<path d="M22.5018 12.3177C22.3668 11.8374 22.2216 11.3602 22.0666 10.8865L22.0496 10.8318L21.9945 10.8221C21.7306 10.7753 21.4514 10.7312 21.1672 10.6915L21.0212 10.6694L21.0721 10.8194C21.2257 11.2712 21.37 11.7265 21.5049 12.1836C21.9817 12.2409 22.2515 12.2806 22.5018 12.3177Z" fill="#252526"/>
<path d="M4.72791 16.7603C4.93154 14.9815 5.41094 12.8806 6.077 10.8441L6.09482 10.7894L6.14997 10.7788C6.41385 10.7329 6.693 10.6879 6.97724 10.6491L7.12827 10.6279L7.07736 10.777C6.3833 12.8162 5.8793 14.9373 5.65785 16.7506L5.64766 16.8318H5.5713C5.32269 16.8468 5.0707 16.8573 4.82294 16.8635H4.71094L4.72791 16.7603Z" fill="#56555C"/>
<path d="M6.14997 10.7788L6.09482 10.7876L6.07785 10.8432C5.92279 11.3178 5.77767 11.7959 5.64258 12.277C6.10924 12.2153 6.24415 12.2223 6.63446 12.1791C6.77191 11.7141 6.91955 11.2403 7.08161 10.7762L7.13252 10.6279L6.98064 10.6491C6.70318 10.6883 6.42626 10.7315 6.14997 10.7788Z" fill="#252526"/>
<path d="M14.0409 28.943C9.92324 28.9433 6.22423 26.3249 4.71436 22.3412C4.20699 20.9913 3.97246 19.5471 4.02539 18.0988V18.0335H4.08817C4.41484 18.0247 4.63799 18.0159 4.87048 18.0035H4.94345V18.0785C4.76346 22.0193 6.95283 25.6628 10.4377 27.222C13.9226 28.7812 17.972 27.9291 20.5997 25.0835C21.4324 24.1854 22.0843 23.1235 22.5173 21.96C22.9788 20.7247 23.185 19.403 23.1248 18.0803V18.0044H23.1978C23.5227 18.0221 23.7467 18.0291 23.9801 18.0344H24.0428V18.0997C24.1005 19.546 23.8715 20.9891 23.37 22.3394C21.8635 26.3265 18.1628 28.9474 14.0434 28.9447H14.0409V28.943Z" fill="#56555C"/>
<path d="M4.97476 19.3218C4.94252 18.9071 4.93404 18.4897 4.95016 18.0733V17.9974H4.87719C4.64301 18.0106 4.41901 18.0194 4.09488 18.0283H4.0321V18.0927C4.01852 18.5109 4.02701 18.9291 4.05925 19.3456H4.08894C4.39101 19.3456 4.68628 19.3315 4.96713 19.3174L4.97476 19.3218ZM24.0504 18.0327H23.9876C23.7509 18.0327 23.5269 18.0194 23.2053 18.0027H23.1323V18.0777C23.1493 18.4906 23.1408 18.9036 23.1094 19.3147L24.0258 19.3562C24.058 18.9388 24.0665 18.5215 24.0529 18.1033L24.0504 18.0327Z" fill="#252526"/>
<path d="M24.5672 18.2453C22.6507 18.2528 20.7416 17.9976 18.8892 17.4865C18.0916 17.2686 17.3152 16.9747 16.5694 16.6121L16.5516 16.598C14.9861 15.8197 14.9284 14.2597 15.0744 12.8374C15.1108 12.4783 14.9844 12.0027 14.6204 11.7503C14.2731 11.5094 13.8206 11.5094 13.4733 11.7503C13.1084 12.0009 12.982 12.4756 13.0185 12.8338C13.1644 14.2571 13.1033 15.8171 11.5421 16.5953L11.5243 16.6041C10.7781 16.9714 10.0013 17.2676 9.2037 17.4891C7.35126 18.0003 5.44215 18.2554 3.52564 18.248H3.51715C2.72193 18.2379 2.03306 17.6719 1.8397 16.8697C1.54273 15.6759 1.14648 13.8874 1.10067 12.2091C1.08008 11.5374 1.4523 10.9195 2.04248 10.6456C4.19764 9.6512 8.56054 9.27709 10.4213 9.30267C11.0704 9.29738 11.694 9.56562 12.1505 10.0456C12.7458 9.75542 13.3937 9.59994 14.0511 9.58944C14.7084 9.59933 15.3562 9.75421 15.9517 10.0439C16.4045 9.567 17.0229 9.29985 17.6673 9.30267C18.7856 9.28503 23.5932 9.5012 26.0529 10.6394C26.6423 10.9109 27.0147 11.5267 26.9947 12.1968C26.9489 13.8777 26.5476 15.6759 26.2599 16.8671C26.0666 17.6693 25.3777 18.2353 24.5825 18.2453H24.5672ZM17.9015 10.8036C17.3495 10.7908 16.8728 11.203 16.7841 11.7697C16.6653 12.4315 16.5872 13.0994 16.549 13.7709C16.5405 14.5386 16.8053 15.0636 17.3313 15.3327C19.3032 16.2468 21.5941 16.6986 24.3356 16.7127C24.5457 16.7115 24.729 16.564 24.7827 16.3527C25.0432 15.2939 25.3945 13.7188 25.4352 12.2709C25.4395 12.1322 25.3623 12.0047 25.2401 11.9488C23.37 11.0744 19.3626 10.7753 17.9015 10.7991V10.8036ZM2.84091 11.9462C2.71903 12.0023 2.64213 12.1297 2.64661 12.2683C2.68733 13.7127 3.03861 15.2921 3.29909 16.35C3.3517 16.5618 3.53582 16.71 3.74624 16.7109C6.49024 16.6968 8.77776 16.245 10.7556 15.3291C11.2833 15.0618 11.5472 14.535 11.5387 13.7647C11.5007 13.0941 11.4219 12.4265 11.3028 11.7662C11.2141 11.1991 10.7369 10.7868 10.1845 10.8C9.33351 10.7859 4.95958 10.965 2.84176 11.9471L2.84091 11.9462Z" fill="#252526"/>
</svg>
