<svg width="110" height="28" viewBox="0 0 110 28" fill="none" xmlns="http://www.w3.org/2000/svg">
<path d="M13.2543 1.10333C18.4549 1.10333 22.6715 12.2823 22.6715 17.484C22.6715 19.9818 21.6792 22.3772 19.9131 24.1434C18.1469 25.9096 15.7514 26.9018 13.2537 26.9018C10.756 26.9018 8.36051 25.9096 6.59433 24.1434C4.82816 22.3772 3.83594 19.9818 3.83594 17.484C3.83594 12.2823 8.05024 1.10333 13.2543 1.10333Z" fill="#56555C"/>
<path d="M25.1948 10.1254L21.3528 11.4805C21.3528 11.4805 21.9473 13.2881 21.9531 13.3018C21.9588 13.3156 25.7802 12.8093 25.7802 12.8093L25.1948 10.1254ZM1.31223 10.1254L5.15425 11.4805C5.15425 11.4805 4.55974 13.2881 4.55401 13.3018C4.54828 13.3156 0.728027 12.8081 0.728027 12.8081L1.31223 10.1254Z" fill="white"/>
<path d="M9.2999 9.80458C9.58947 9.79788 9.87167 9.89629 10.0943 10.0816C10.3169 10.2669 10.4648 10.5266 10.5107 10.8126C10.6326 11.4671 10.7129 12.1286 10.7512 12.7932C10.7548 12.9793 10.7379 13.1652 10.7008 13.3476C10.6527 12.8688 10.5863 12.4129 10.5118 12.0165C10.4659 11.7306 10.318 11.4709 10.0954 11.2855C9.87281 11.1002 9.59061 11.0018 9.30104 11.0085C7.85703 11.0227 6.41553 11.1322 4.98593 11.3361C5.1211 10.9157 5.26658 10.4942 5.42237 10.0761C6.70833 9.90853 8.00314 9.81787 9.2999 9.80458ZM22.653 17.0659C19.2612 16.8907 16.3642 15.8059 15.7101 15.4175C15.2004 15.1736 14.5497 14.6569 14.363 13.3648C14.2359 14.7875 14.5074 16.0854 15.8396 16.7257C15.9381 16.7853 18.4971 18.0511 22.6267 18.2687C22.6484 18.0098 22.6599 17.7486 22.6599 17.484C22.6622 17.3477 22.6588 17.208 22.653 17.0659ZM3.86334 17.0659C7.25517 16.8907 10.1522 15.8059 10.8062 15.4175C11.316 15.1736 11.9666 14.6569 12.1533 13.3648C12.2782 14.7887 12.0102 16.0854 10.6734 16.7257C10.5748 16.7853 8.01579 18.0511 3.88625 18.2687C3.86448 18.0098 3.85303 17.7486 3.85303 17.484C3.85417 17.3477 3.85761 17.208 3.86334 17.0659ZM17.197 9.80458C16.9074 9.79788 16.6252 9.89629 16.4026 10.0816C16.18 10.2669 16.0321 10.5266 15.9862 10.8126C15.8643 11.4671 15.784 12.1286 15.7456 12.7932C15.742 12.9793 15.759 13.1652 15.796 13.3476C15.8442 12.8688 15.9106 12.4129 15.9851 12.0165C16.0309 11.7306 16.1789 11.4709 16.4015 11.2855C16.6241 11.1002 16.9063 11.0018 17.1959 11.0085C18.6399 11.0227 20.0814 11.1322 21.511 11.3361C21.3758 10.9157 21.2303 10.4942 21.0745 10.0761C19.7886 9.90853 18.4938 9.81787 17.197 9.80458Z" fill="#E0E0E0"/>
<path d="M5.0157 8.7851C5.94012 6.5422 7.05011 4.60172 8.22311 3.17213C9.82108 1.23394 11.513 0.251099 13.2507 0.251099C14.9884 0.251099 16.6838 1.23852 18.2806 3.17557C19.4582 4.60287 20.5716 6.54335 21.488 8.78854L21.5327 8.90309L21.4182 8.88705C21.0917 8.84352 20.8259 8.81259 20.5018 8.7725H20.4617L20.4456 8.73584C19.4055 6.30738 17.63 3.13548 15.3355 1.81013C14.7072 1.42762 13.9885 1.21889 13.253 1.2053C12.5175 1.21889 11.7988 1.42762 11.1705 1.81013C8.87948 3.13433 7.10739 6.29478 6.05925 8.73584L6.04321 8.7725H6.00312C5.67665 8.80686 5.4109 8.83894 5.08672 8.88705L4.97217 8.90309L5.0157 8.7851ZM22.7618 15.8929C22.5064 15.8861 22.2487 15.8758 21.9955 15.8609H21.9165L21.9061 15.7818C21.677 13.996 21.1639 11.9055 20.4514 9.89624L20.3998 9.74961L20.5545 9.77023C20.8454 9.80918 21.1272 9.85271 21.4021 9.89853L21.4583 9.90769L21.4766 9.96153C22.1639 11.9673 22.6507 14.0372 22.8592 15.7899L22.8718 15.9044L22.7618 15.8929Z" fill="white"/>
<path d="M21.9211 11.3682C21.7836 10.8974 21.6347 10.4266 21.4755 9.95807L21.4571 9.90423L21.401 9.89507C21.1307 9.84925 20.8454 9.80572 20.5533 9.76677L20.3987 9.74615L20.4502 9.89278C20.6083 10.3384 20.7561 10.7874 20.8935 11.2376C21.3884 11.2937 21.669 11.3327 21.9211 11.3682Z" fill="white"/>
<path d="M3.71323 15.7452C3.92171 13.9926 4.41313 11.9227 5.09585 9.91687L5.11418 9.86304L5.17031 9.85387C5.44065 9.80805 5.72588 9.76452 6.01798 9.72557L6.17262 9.70496L6.12108 9.85158C5.40972 11.8608 4.8931 13.9502 4.66629 15.7372L4.65598 15.8162H4.57694C4.32264 15.8311 4.0649 15.8414 3.8106 15.8483H3.69604L3.71323 15.7452Z" fill="white"/>
<path d="M5.17045 9.85387L5.11432 9.86304L5.09599 9.91687C4.93677 10.3854 4.78785 10.8585 4.65039 11.3293C5.12807 11.2686 5.26667 11.2754 5.66645 11.2331C5.80735 10.7749 5.95856 10.3086 6.12465 9.85158L6.1762 9.70496L6.02156 9.72557C5.72602 9.76567 5.44079 9.80805 5.17045 9.85387Z" fill="white"/>
<path d="M13.2543 27.7478C11.1925 27.7483 9.17821 27.1282 7.47369 25.9681C5.76917 24.8081 4.4533 23.1618 3.69734 21.2436C3.17873 19.9133 2.9397 18.4904 2.99515 17.0637V16.9995H3.0593C3.39378 16.9915 3.62288 16.9823 3.86115 16.9697H3.93561V17.0442C3.87378 18.3478 4.08566 19.65 4.55761 20.8667C5.12542 22.327 6.05204 23.6207 7.2519 24.6282C8.45176 25.6358 9.88616 26.3248 11.4226 26.6315C12.9591 26.9382 14.5481 26.8529 16.0429 26.3833C17.5376 25.9137 18.8899 25.075 19.9749 23.9447C20.828 23.06 21.4959 22.014 21.9395 20.8679C22.4115 19.6511 22.6234 18.349 22.5615 17.0453V16.9709H22.636C22.9693 16.9881 23.1984 16.9949 23.4378 17.0007H23.502V17.0648C23.5569 18.4904 23.3179 19.9121 22.7998 21.2413C22.0457 23.1606 20.7307 24.8082 19.0263 25.969C17.3219 27.1299 15.3073 27.7501 13.2451 27.7489L13.2543 27.7478Z" fill="white"/>
<path d="M3.96646 18.2687C3.93308 17.8595 3.92467 17.4487 3.94126 17.0384V16.964H3.86681C3.62625 16.9766 3.39715 16.9858 3.06495 16.9938H3.00081V17.0579C2.98668 17.4693 2.99586 17.8812 3.0283 18.2916H3.05923C3.36851 18.2916 3.67092 18.2779 3.95845 18.2641L3.96646 18.2687ZM23.5076 16.9995H23.4435C23.2006 16.9995 22.9715 16.9869 22.6416 16.9697H22.5672V17.0442C22.5837 17.4506 22.5756 17.8576 22.5431 18.263L23.4824 18.3031C23.5149 17.8927 23.524 17.4808 23.5099 17.0694L23.5076 16.9995Z" fill="white"/>
<path d="M24.0368 17.161C22.0746 17.1763 20.1188 16.9332 18.22 16.4382C17.4026 16.2265 16.6059 15.9416 15.8396 15.5871L15.8213 15.5791C14.2176 14.8128 14.1592 13.2778 14.3081 11.8768C14.3459 11.5229 14.2164 11.0555 13.843 10.8081C13.669 10.6919 13.4645 10.63 13.2554 10.63C13.0462 10.63 12.8417 10.6919 12.6677 10.8081C12.2943 11.0555 12.1648 11.5229 12.2026 11.8757C12.3516 13.2778 12.2886 14.8151 10.6894 15.5814L10.6711 15.5906C9.90574 15.9436 9.11025 16.2273 8.29418 16.4382C6.39606 16.933 4.4411 17.1761 2.4796 17.161H2.47159C2.07773 17.1613 1.695 17.0304 1.38385 16.789C1.07269 16.5475 0.850839 16.2093 0.75333 15.8277C0.453209 14.6535 0.0477003 12.9032 0.000734689 11.2457C-0.00894807 10.924 0.0772639 10.6067 0.248404 10.3342C0.419543 10.0617 0.667876 9.84625 0.961812 9.71527C3.17034 8.73243 7.63895 8.37159 9.54507 8.39794C9.87426 8.3957 10.2006 8.45942 10.5047 8.58534C10.8089 8.71125 11.0847 8.89681 11.316 9.13106C11.926 8.84523 12.5898 8.69217 13.2634 8.68203C13.937 8.69221 14.6007 8.84526 15.2107 9.13106C15.4417 8.89639 15.7175 8.71055 16.0217 8.58461C16.326 8.45867 16.6524 8.39519 16.9817 8.39794C18.1272 8.3819 23.0471 8.59382 25.5649 9.71642C25.86 9.84723 26.1093 10.063 26.2811 10.3362C26.4529 10.6094 26.5394 10.9277 26.5295 11.2502C26.4825 12.9066 26.0712 14.6535 25.7769 15.8323C25.6793 16.2139 25.4575 16.5521 25.1463 16.7935C24.8352 17.035 24.4525 17.1659 24.0586 17.1656L24.0368 17.161ZM17.2142 9.87335C16.9405 9.86704 16.6738 9.95994 16.4633 10.1349C16.2528 10.3099 16.1126 10.5551 16.0687 10.8253C15.9473 11.4767 15.867 12.1352 15.8282 12.7967C15.819 13.5527 16.0905 14.0705 16.63 14.3351C18.6495 15.2355 20.9967 15.6811 23.8054 15.6948C23.9102 15.6942 24.0119 15.6591 24.0948 15.5949C24.1776 15.5307 24.2369 15.441 24.2636 15.3397C24.5305 14.2961 24.8902 12.7451 24.9315 11.319C24.9337 11.2522 24.9159 11.1863 24.8804 11.1298C24.8449 11.0732 24.7933 11.0286 24.7322 11.0017C22.81 10.1448 18.7034 9.85044 17.2142 9.87335ZM1.7797 11.004C1.71918 11.0309 1.66804 11.0753 1.63276 11.1314C1.59748 11.1874 1.57965 11.2527 1.58153 11.319C1.62277 12.7417 1.98246 14.2973 2.24936 15.3397C2.27571 15.4412 2.33498 15.5312 2.41788 15.5954C2.50079 15.6597 2.60267 15.6946 2.70756 15.6948C5.51863 15.6811 7.86233 15.2366 9.88872 14.3339C10.4294 14.0705 10.6997 13.5516 10.6906 12.7932C10.6538 12.133 10.5754 11.4757 10.4557 10.8253C10.4119 10.5551 10.2717 10.3099 10.0612 10.1349C9.85063 9.95994 9.58391 9.86704 9.31024 9.87335C8.4305 9.8596 3.94929 10.0372 1.7797 11.004ZM39.6031 16.0155C39.4996 16.3834 39.3363 16.7317 39.1197 17.0465C38.9004 17.3686 38.6295 17.6522 38.3178 17.8861C37.9809 18.1359 37.6056 18.3293 37.2067 18.4589C36.7546 18.6046 36.2819 18.6761 35.8069 18.6708C35.245 18.6736 34.6874 18.573 34.1619 18.3741C33.6484 18.1806 33.1804 17.8831 32.7873 17.5001C32.3808 17.0999 32.0604 16.6208 31.8457 16.0923C31.6069 15.4937 31.49 14.8534 31.5021 14.2091C31.4948 13.587 31.6116 12.9698 31.8457 12.3935C32.0542 11.8774 32.3625 11.4075 32.753 11.0108C33.124 10.6312 33.5657 10.3277 34.0531 10.1173C34.5415 9.90995 35.0667 9.8032 35.5973 9.80347C36.8955 9.80347 37.9077 10.188 38.634 10.957C39.3602 11.726 39.7222 12.7833 39.7199 14.1289C39.7199 14.2877 39.7142 14.4378 39.7027 14.5791C39.6913 14.7204 39.6856 14.8025 39.6856 14.8254H33.7175C33.7264 15.0882 33.7929 15.3459 33.9122 15.5802C34.0272 15.8072 34.1824 16.0114 34.3704 16.1828C34.5613 16.3552 34.7828 16.4904 35.0234 16.5814C35.2793 16.6793 35.5513 16.7282 35.8252 16.7258C36.3598 16.7258 36.7752 16.607 37.0715 16.3695C37.3712 16.1317 37.5976 15.814 37.7245 15.4531L39.6031 16.0155ZM37.4999 13.2847C37.4882 13.0785 37.4454 12.8754 37.3728 12.6821C37.2979 12.4839 37.1806 12.3045 37.0291 12.1563C36.8646 11.9954 36.67 11.8685 36.4564 11.7829C36.1944 11.6813 35.9149 11.6322 35.6339 11.6386C35.366 11.6333 35.1001 11.6853 34.8538 11.7909C34.6408 11.8853 34.4467 12.0177 34.2811 12.1815C34.128 12.3326 34.0044 12.5109 33.9168 12.7073C33.8349 12.8881 33.786 13.0821 33.7725 13.2801L37.4999 13.2847ZM42.7589 18.3191C42.826 18.7607 43.0487 19.1637 43.3867 19.4555C43.7258 19.7495 44.1668 19.8965 44.7097 19.8965C45.4222 19.8965 45.9706 19.7128 46.3547 19.3455C46.7388 18.9782 46.9297 18.3875 46.9274 17.5734V16.9629C46.715 17.2733 46.4294 17.5267 46.0958 17.7006C45.714 17.9213 45.2176 18.0316 44.6066 18.0316C44.0765 18.0368 43.551 17.933 43.0625 17.7269C42.5988 17.5315 42.18 17.243 41.8322 16.8792C41.4814 16.5083 41.2049 16.0736 41.0178 15.5986C40.6248 14.5724 40.6216 13.4379 41.0086 12.4095C41.1936 11.9312 41.4655 11.4911 41.8105 11.1116C42.1524 10.7366 42.5681 10.4363 43.0316 10.2296C43.5281 10.0099 44.066 9.89972 44.6089 9.90657C45.2756 9.90657 45.8014 10.0253 46.1863 10.2628C46.5188 10.4461 46.7958 10.7155 46.9881 11.0429V10.0589H49.1646V17.5047C49.1669 18.0654 49.0838 18.6231 48.9183 19.1588C48.7602 19.6861 48.4861 20.1713 48.116 20.5789C47.746 20.9864 47.2893 21.3059 46.7797 21.514C46.1449 21.7721 45.4635 21.8961 44.7785 21.8782C44.2452 21.885 43.7147 21.8017 43.2091 21.6319C42.765 21.4814 42.3492 21.2576 41.9789 20.9698C41.638 20.7038 41.3504 20.3758 41.1312 20.003C40.9221 19.6514 40.7839 19.2623 40.7245 18.8575L42.7589 18.3191ZM44.9984 16.0969C45.2616 16.1064 45.5238 16.0603 45.768 15.9616C46.0121 15.8629 46.2327 15.7138 46.4154 15.5241C46.7827 15.1423 46.9664 14.6276 46.9664 13.98C46.9664 13.3324 46.7755 12.8207 46.3936 12.445C46.2126 12.2604 45.9961 12.1145 45.757 12.016C45.518 11.9176 45.2615 11.8687 45.003 11.8723C44.7331 11.8698 44.4653 11.9188 44.2137 12.0166C43.9739 12.1107 43.7571 12.2553 43.578 12.4404C43.3931 12.6331 43.249 12.861 43.1541 13.1105C43.0496 13.3867 42.9979 13.6801 43.0018 13.9754C43.0018 14.6314 43.1885 15.1488 43.5619 15.5276C43.7495 15.716 43.9738 15.8638 44.2209 15.9617C44.468 16.0597 44.7327 16.1057 44.9984 16.0969ZM52.246 18.3191C52.3139 18.7594 52.5364 19.1611 52.8737 19.4521C53.2128 19.7461 53.6538 19.8931 54.1968 19.8931C54.9093 19.8931 55.4576 19.7094 55.8417 19.3421C56.2259 18.9748 56.4168 18.3841 56.4145 17.57V16.9594C56.2039 17.27 55.9203 17.5241 55.5886 17.6994C55.2067 17.9201 54.7104 18.0305 54.0994 18.0305C53.5693 18.0356 53.0437 17.9319 52.5553 17.7258C52.0915 17.5303 51.6728 17.2418 51.325 16.8781C50.9742 16.5072 50.6977 16.0725 50.5106 15.5974C50.1176 14.5713 50.1144 13.4367 50.5014 12.4083C50.6864 11.93 50.9583 11.49 51.3033 11.1105C51.6452 10.7355 52.0609 10.4352 52.5244 10.2285C53.0201 10.0091 53.5573 9.89891 54.0994 9.90542C54.7661 9.90542 55.2919 10.0242 55.6768 10.2617C56.0093 10.4449 56.2863 10.7144 56.4786 11.0418V10.0589H58.6551V17.5047C58.6574 18.0654 58.5743 18.6231 58.4088 19.1588C58.2503 19.6866 57.9754 20.1721 57.6045 20.5797C57.2336 20.9872 56.7761 21.3065 56.2656 21.514C55.6308 21.7721 54.9494 21.8961 54.2644 21.8782C53.7311 21.885 53.2006 21.8017 52.695 21.6319C52.2512 21.4828 51.8354 21.2605 51.4648 20.9744C51.1239 20.7084 50.8363 20.3803 50.6171 20.0076C50.408 19.656 50.2699 19.2669 50.2104 18.8621L52.246 18.3191ZM54.4855 16.0969C54.7486 16.1064 55.0109 16.0603 55.255 15.9616C55.4992 15.8629 55.7198 15.7138 55.9025 15.5241C56.2698 15.1423 56.4534 14.6276 56.4534 13.98C56.4534 13.3324 56.2625 12.8207 55.8807 12.445C55.6997 12.2604 55.4831 12.1145 55.2441 12.016C55.0051 11.9176 54.7485 11.8687 54.49 11.8723C54.2202 11.8698 53.9523 11.9188 53.7008 12.0166C53.461 12.1107 53.2442 12.2553 53.065 12.4404C52.8802 12.6331 52.736 12.861 52.6412 13.1105C52.5366 13.3867 52.485 13.6801 52.4889 13.9754C52.4889 14.6314 52.6756 15.1488 53.049 15.5276C53.2364 15.7159 53.4605 15.8636 53.7074 15.9615C53.9544 16.0595 54.2188 16.1055 54.4843 16.0969H54.4855ZM62.0034 18.4039H59.9839V6.12183H62.0034V10.7531C62.2736 10.4256 62.6311 10.1813 63.0344 10.0486C63.4271 9.91172 63.8396 9.84013 64.2555 9.83669C64.7298 9.82556 65.2011 9.91537 65.6381 10.1002C66.0082 10.2612 66.3382 10.5017 66.6049 10.8046C66.8678 11.1109 67.063 11.4692 67.1776 11.8562C67.3037 12.2745 67.3666 12.7092 67.3644 13.1461V18.4051H65.11V13.5367C65.1252 13.1112 64.9964 12.6931 64.7446 12.3499C64.5017 12.033 64.1088 11.8745 63.5659 11.8745C63.0909 11.8745 62.7178 12.03 62.4467 12.3408C62.1694 12.6648 62.0127 13.0748 62.0034 13.5012V18.4039ZM76.4035 16.0155C76.3001 16.3834 76.1367 16.7317 75.9201 17.0465C75.7008 17.3686 75.4299 17.6522 75.1183 17.8861C74.7813 18.1359 74.4061 18.3293 74.0071 18.4589C73.555 18.6046 73.0823 18.6761 72.6073 18.6708C72.0455 18.6736 71.4879 18.573 70.9624 18.3741C70.4489 18.1806 69.9809 17.8831 69.5878 17.5001C69.1803 17.0961 68.8602 16.6126 68.6473 16.0797C68.4085 15.4811 68.2916 14.8408 68.3037 14.1965C68.2963 13.5744 68.4132 12.9572 68.6473 12.3809C68.8558 11.8648 69.1641 11.3949 69.5546 10.9982C69.9311 10.6211 70.3778 10.3214 70.8696 10.1162C71.358 9.9088 71.8832 9.80205 72.4137 9.80233C73.712 9.80233 74.7242 10.1868 75.4505 10.9559C76.1767 11.7249 76.5387 12.7822 76.5364 14.1278C76.5364 14.2866 76.5307 14.4367 76.5192 14.5779C76.5078 14.7192 76.502 14.8013 76.502 14.8242H70.5168C70.5257 15.0871 70.5922 15.3447 70.7115 15.5791C70.8265 15.8061 70.9817 16.0102 71.1697 16.1816C71.3606 16.3541 71.582 16.4893 71.8227 16.5803C72.0786 16.6781 72.3505 16.7271 72.6245 16.7246C73.1591 16.7246 73.5745 16.6059 73.8708 16.3684C74.1705 16.1306 74.3969 15.8129 74.5238 15.452L76.4035 16.0155ZM74.3004 13.2847C74.2887 13.0785 74.2458 12.8754 74.1732 12.6821C74.0984 12.4839 73.9811 12.3045 73.8296 12.1563C73.6651 11.9954 73.4704 11.8685 73.2568 11.7829C72.9948 11.6813 72.7153 11.6322 72.4344 11.6386C72.1665 11.6333 71.9005 11.6853 71.6543 11.7909C71.4412 11.8853 71.2472 12.0177 71.0815 12.1815C70.9284 12.3326 70.8049 12.5109 70.7173 12.7073C70.6353 12.8881 70.5864 13.0821 70.5729 13.2801L74.3004 13.2847ZM77.4093 16.1301C77.4007 15.8039 77.4613 15.4796 77.5871 15.1785C77.7129 14.8774 77.9009 14.6064 78.139 14.3832C78.3684 14.1664 78.636 13.9939 78.9282 13.8746C79.2418 13.7463 79.5694 13.6552 79.9042 13.6031L81.9569 13.2973C82.1944 13.2637 82.3582 13.193 82.4483 13.0853C82.5387 12.979 82.5872 12.8434 82.5847 12.7039C82.5854 12.5595 82.5551 12.4167 82.4958 12.285C82.4365 12.1534 82.3496 12.0361 82.241 11.941C82.0119 11.7264 81.6583 11.6191 81.1803 11.6191C80.6824 11.6191 80.3005 11.7546 80.0348 12.0258C79.7777 12.2794 79.6187 12.6158 79.5857 12.9754L77.5823 12.5515C77.6209 12.2073 77.7243 11.8734 77.887 11.5675C78.0618 11.2328 78.2976 10.9337 78.5823 10.6855C78.903 10.4099 79.2709 10.1945 79.6682 10.0498C80.1455 9.87788 80.6501 9.79442 81.1574 9.80347C81.7284 9.78982 82.2973 9.87906 82.8367 10.0669C83.258 10.2158 83.6427 10.4528 83.965 10.7623C84.2499 11.0452 84.4649 11.3908 84.5927 11.7714C84.7232 12.1594 84.789 12.5661 84.7875 12.9754V17.0809C84.7875 17.31 84.7989 17.5501 84.8218 17.8014C84.8447 18.0526 84.8673 18.2535 84.8894 18.4039H82.8206C82.7924 18.2497 82.7725 18.0941 82.7611 17.9377C82.7443 17.7399 82.7359 17.562 82.7359 17.4039C82.4949 17.7565 82.1793 18.0518 81.8114 18.2687C81.4098 18.5169 80.8981 18.6414 80.2765 18.6422C79.868 18.6481 79.4622 18.5761 79.0806 18.4303C78.7458 18.302 78.438 18.112 78.1733 17.8701C77.9284 17.6459 77.7333 17.3727 77.6006 17.0683C77.4728 16.7721 77.4076 16.4527 77.4093 16.1301ZM80.7507 16.9617C80.983 16.9626 81.2143 16.9314 81.438 16.8689C81.6554 16.8085 81.8558 16.6983 82.0234 16.5471C82.2014 16.382 82.3403 16.1793 82.43 15.9537C82.5409 15.6585 82.5927 15.3444 82.5824 15.0293V14.6558L80.6992 14.9445C80.4292 14.9797 80.174 15.0883 79.9615 15.2584C79.7637 15.4226 79.6648 15.6685 79.6648 15.9961C79.6652 16.2461 79.7625 16.4863 79.9363 16.6662C80.118 16.8632 80.3895 16.9617 80.7507 16.9617ZM94.3284 16.8941C94.3284 17.1767 94.3341 17.4566 94.3456 17.7338C94.357 18.011 94.3738 18.2344 94.396 18.4039H92.2447C92.2152 18.2699 92.1953 18.1341 92.1851 17.9973C92.1683 17.8163 92.1599 17.6296 92.1599 17.4371C91.9426 17.789 91.6348 18.0762 91.2687 18.2687C90.8233 18.5072 90.3236 18.6256 89.8185 18.6124C89.2526 18.6192 88.6917 18.5064 88.1724 18.2813C87.6861 18.0689 87.2498 17.7567 86.8918 17.3649C86.526 16.959 86.241 16.487 86.0521 15.9743C85.6482 14.8539 85.6453 13.628 86.0441 12.5057C86.226 11.9957 86.5032 11.525 86.8608 11.1185C87.3417 10.6071 87.9482 10.2307 88.6199 10.0267C89.2916 9.82269 90.005 9.79826 90.6891 9.95583C90.9274 10.0132 91.1581 10.0986 91.3764 10.2101C91.5473 10.2968 91.7044 10.4084 91.8426 10.5412C91.9481 10.6411 92.037 10.7571 92.1061 10.8848V6.12183H94.3284V16.8941ZM88.0178 14.2137C88.0178 14.9605 88.2129 15.5428 88.6031 15.9606C88.7934 16.1589 89.0219 16.3168 89.2747 16.4246C89.5276 16.5324 89.7997 16.588 90.0745 16.588C90.3494 16.588 90.6215 16.5324 90.8743 16.4246C91.1272 16.3168 91.3556 16.1589 91.5459 15.9606C91.9415 15.5421 92.1393 14.954 92.1393 14.1965C92.1393 13.4389 91.9415 12.8662 91.5459 12.4782C91.3533 12.2865 91.1247 12.1346 90.8734 12.0312C90.622 11.9278 90.3527 11.875 90.0809 11.8758C89.8091 11.8765 89.5401 11.9308 89.2893 12.0356C89.0385 12.1403 88.8108 12.2935 88.6192 12.4862C88.2183 12.8918 88.0178 13.4676 88.0178 14.2137ZM95.483 17.5276C95.4809 17.4141 95.5018 17.3013 95.5443 17.196C95.5868 17.0907 95.6501 16.995 95.7305 16.9148C95.8084 16.8328 95.9025 16.768 96.0068 16.7244C96.1111 16.6808 96.2234 16.6594 96.3364 16.6616C96.5661 16.6616 96.7864 16.7528 96.9488 16.9152C97.1112 17.0777 97.2024 17.2979 97.2024 17.5276C97.2046 17.6406 97.1832 17.7529 97.1396 17.8572C97.0961 17.9616 97.0312 18.0557 96.9493 18.1336C96.869 18.2139 96.7734 18.2772 96.6681 18.3198C96.5628 18.3623 96.45 18.3831 96.3364 18.381C96.2241 18.3821 96.1126 18.3607 96.0086 18.3182C95.9046 18.2757 95.8101 18.2129 95.7306 18.1334C95.6511 18.054 95.5883 17.9595 95.5458 17.8554C95.5033 17.7514 95.482 17.64 95.483 17.5276ZM98.3159 8.42887C98.3159 8.10228 98.4456 7.78906 98.6765 7.55813C98.9075 7.32719 99.2207 7.19745 99.5473 7.19745C99.8739 7.19745 100.187 7.32719 100.418 7.55813C100.649 7.78906 100.779 8.10228 100.779 8.42887C100.779 8.75546 100.649 9.06868 100.418 9.29961C100.187 9.53055 99.8739 9.66029 99.5473 9.66029C99.2207 9.66029 98.9075 9.53055 98.6765 9.29961C98.4456 9.06868 98.3159 8.75546 98.3159 8.42887ZM98.5117 18.3948V10.5171H100.583V18.3936L98.5117 18.3948ZM101.666 14.4473C101.666 12.2136 103.232 10.3235 105.825 10.3235C108.417 10.3235 110 12.2125 110 14.4473C110 16.6822 108.434 18.5895 105.826 18.5895C103.217 18.5895 101.666 16.6811 101.666 14.4473ZM107.852 14.4473C107.852 13.2239 107.135 12.1644 105.83 12.1644C104.526 12.1644 103.814 13.2239 103.814 14.4473C103.814 15.6707 104.531 16.7464 105.82 16.7464C107.109 16.7464 107.848 15.6868 107.848 14.4473H107.852Z" fill="white"/>
</svg>
