<svg width="374" height="160" viewBox="0 0 374 160" fill="none" xmlns="http://www.w3.org/2000/svg">
<path d="M213.5 90C211.5 90 209.9 91.6 209.9 93.6C209.9 95.6 211.5 97.2 213.5 97.2C215.5 97.2 217.1 95.6 217.1 93.6C217.1 91.6 215.5 90 213.5 90Z" fill="#FFD100"/>
<path d="M281.9 90C279.9 90 278.3 91.6 278.3 93.6C278.3 95.6 279.9 97.2 281.9 97.2C283.9 97.2 285.5 95.6 285.5 93.6C285.6 91.6 283.9 90 281.9 90Z" fill="#FFD100"/>
<path d="M44.9 126.3C51.196 126.3 56.3 121.196 56.3 114.9C56.3 108.604 51.196 103.5 44.9 103.5C38.604 103.5 33.5 108.604 33.5 114.9C33.5 121.196 38.604 126.3 44.9 126.3Z" fill="#FFD100"/>
<path d="M310.6 72.2V42C310.6 34.2 312.6 28.2 316.6 24.2C320.6 20.1 326.1 18.1 333.2 18.1C340.3 18.1 345.8 20.1 349.8 24.1C353.8 28.1 355.7 33.9 355.7 41.5V72.1H343.8V59.8H322.3V72.2H310.6ZM322.4 41.6V49.3H343.9V42C343.9 37.8 342.9 34.5 341 32.1C339.1 29.7 336.5 28.6 333.1 28.6C329.7 28.6 327.1 29.7 325.2 32C323.4 34.2 322.4 37.4 322.4 41.6Z" fill="#FFD100"/>
<path d="M105.8 18.2999C105.7 18.2999 105.6 18.2999 105.6 18.2999C90.7 18.2999 78.6 30.3999 78.6 45.2999C78.6 50.7999 80.2 55.9999 83.3 60.5999H75.5V72.2999H105.6H105.7H105.8C120.7 72.2999 132.8 60.1999 132.8 45.2999C132.8 30.3999 120.7 18.2999 105.8 18.2999ZM106.3 60.5999H105.4C97.2 60.3999 90.6 53.5999 90.6 45.2999C90.6 36.8999 97.4 30.0999 105.8 29.9999C114.2 30.0999 121 36.8999 121 45.2999C121 53.3999 114.7 59.9999 106.8 60.4999C106.6 60.4999 106.4 60.5999 106.3 60.5999Z" fill="white"/>
<path d="M105.7 56.5999C111.996 56.5999 117.1 51.496 117.1 45.1999C117.1 38.9039 111.996 33.7999 105.7 33.7999C99.404 33.7999 94.3 38.9039 94.3 45.1999C94.3 51.496 99.404 56.5999 105.7 56.5999Z" fill="#FFD100"/>
<path d="M44.9 56.5999C51.196 56.5999 56.3 51.496 56.3 45.1999C56.3 38.9039 51.196 33.7999 44.9 33.7999C38.604 33.7999 33.5 38.9039 33.5 45.1999C33.5 51.496 38.604 56.5999 44.9 56.5999Z" fill="#FFD100"/>
<path d="M151.4 89.8C152.4 90.7 152.9 92 152.9 93.6C152.9 95.2 152.4 96.5 151.5 97.4C150.5 98.3 149.1 98.8 147.1 98.8H143.7V88.4H147.3C149 88.4 150.4 88.9 151.4 89.8ZM151.1 93.6C151.1 91.2 149.7 90 147 90H145.3V97.1H147.2C148.5 97.1 149.4 96.8 150.1 96.2C150.8 95.6 151.1 94.8 151.1 93.6Z" fill="white"/>
<path d="M163.9 91.8C163.9 93.5 163.2 94.6 161.7 95L164.4 98.8H162.2L159.7 95.3H157.4V98.8H155.7V88.4H159.5C161.1 88.4 162.2 88.7 162.9 89.2C163.6 89.7 163.9 90.6 163.9 91.8ZM161.5 93.2C161.9 92.9 162 92.4 162 91.7C162 91 161.8 90.6 161.5 90.3C161.1 90 160.5 89.9 159.5 89.9H157.3V93.6H159.5C160.5 93.6 161.2 93.6 161.5 93.2Z" fill="white"/>
<path d="M174.3 88.4V90H168.8V92.7H173.8V94.3H168.8V97.1H174.5V98.7H167.1V88.4H174.3Z" fill="white"/>
<path d="M180.2 96.4L179.2 98.8H177.3L181.9 88.5H183.8L188.4 98.8H186.5L185.5 96.4H180.2ZM184.6 94.8L182.7 90.5L180.8 94.8H184.6Z" fill="white"/>
<path d="M192.7 98.8H191V88.4H193.7L196.8 94.9L199.9 88.4H202.6V98.7H200.9V90.6L197.3 97.8H196.3L192.7 90.6V98.8Z" fill="white"/>
<path d="M226.1 98.8H224.4V88.4H227.1L230.2 94.9L233.3 88.4H236V98.7H234.3V90.6L230.7 97.8H229.7L226.1 90.6V98.8Z" fill="white"/>
<path d="M241.6 96.4L240.6 98.8H238.7L243.3 88.5H245.2L249.8 98.8H247.9L246.9 96.4H241.6ZM246 94.8L244.1 90.5L242.2 94.8H246Z" fill="white"/>
<path d="M252.3 88.4H254V93.4L258.7 88.4H260.9L256.7 92.9L260.9 98.7H258.8L255.4 94.2L253.9 95.8V98.7H252.2L252.3 88.4Z" fill="white"/>
<path d="M270.9 88.4V90H265.4V92.7H270.4V94.3H265.4V97.1H271.1V98.7H263.7V88.4H270.9Z" fill="white"/>
<path d="M301.1 91.7999C301.1 93.4999 300.4 94.5999 298.9 94.9999L301.6 98.7999H299.4L296.9 95.2999H294.6V98.7999H292.9V88.3999H296.7C298.3 88.3999 299.4 88.6999 300.1 89.1999C300.7 89.7999 301.1 90.5999 301.1 91.7999ZM298.7 93.1999C299.1 92.8999 299.2 92.3999 299.2 91.6999C299.2 90.9999 299 90.5999 298.7 90.2999C298.3 89.9999 297.7 89.8999 296.7 89.8999H294.5V93.5999H296.7C297.7 93.5999 298.4 93.5999 298.7 93.1999Z" fill="white"/>
<path d="M312 88.3999V89.9999H306.5V92.6999H311.5V94.2999H306.5V97.0999H312.2V98.6999H304.8V88.3999H312Z" fill="white"/>
<path d="M322.4 89.1999C323.1 89.7999 323.5 90.6999 323.5 91.9999C323.5 93.2999 323.1 94.1999 322.4 94.7999C321.7 95.3999 320.5 95.6999 319 95.6999H317.2V98.6999H315.5V88.3999H319.1C320.5 88.3999 321.7 88.5999 322.4 89.1999ZM321.2 93.5999C321.6 93.1999 321.7 92.6999 321.7 91.9999C321.7 91.2999 321.5 90.7999 321 90.4999C320.6 90.1999 319.9 90.0999 318.9 90.0999H317.1V94.1999H319.1C320.2 94.0999 320.8 93.8999 321.2 93.5999Z" fill="white"/>
<path d="M334 88.3999V89.9999H328.5V92.6999H333.5V94.2999H328.5V97.0999H334.2V98.6999H326.8V88.3999H334Z" fill="white"/>
<path d="M338.9 96.3999L337.9 98.7999H336L340.6 88.4999H342.5L347.1 98.7999H345.2L344.2 96.3999H338.9ZM343.4 94.7999L341.5 90.4999L339.6 94.7999H343.4Z" fill="white"/>
<path d="M352.7 89.8999V98.5999H351V89.8999H347.9V88.2999H355.9V89.8999H352.7Z" fill="white"/>
<path d="M128.3 99.2999H104.1H75.6V93.4999V87.7999H104.1H128.3L132.7 93.4999L128.3 99.2999Z" fill="white"/>
<path d="M166.6 72.2H143.5V19.5H164C167.6 19.5 170.6 19.9 173.2 20.8C175.8 21.7 177.7 22.8 179 24.3C181.4 27 182.5 30.1 182.5 33.5C182.5 37.6 181.2 40.7 178.5 42.7C177.6 43.4 177 43.8 176.6 44C176.2 44.2 175.6 44.5 174.7 44.9C178 45.6 180.6 47.1 182.5 49.3C184.4 51.5 185.4 54.3 185.4 57.6C185.4 61.3 184.1 64.5 181.6 67.3C178.9 70.6 173.8 72.2 166.6 72.2ZM155.3 40.8H160.9C164.2 40.8 166.6 40.4 168.2 39.7C169.8 39 170.6 37.5 170.6 35.1C170.6 32.8 169.9 31.2 168.4 30.5C166.9 29.7 164.5 29.4 161 29.4H155.3V40.8ZM155.3 62.2H163.4C166.8 62.2 169.3 61.8 171 61C172.7 60.2 173.5 58.5 173.5 56.1C173.5 53.7 172.6 52.1 170.8 51.3C169 50.5 166.2 50.1 162.2 50.1H155.3V62.2Z" fill="#FFD100"/>
<path d="M204.8 62.1V72.2H193V62.1V29.6V19.5H204.8V29.6V62.1Z" fill="#FFD100"/>
<path d="M213.5 72.2V19.5H225.3V61.7H247.8V72.2H213.5Z" fill="#FFD100"/>
<path d="M295.8 26.4C300.8 31 303.3 37.4 303.3 45.6C303.3 53.8 300.9 60.3 296 65C291.1 69.8 283.6 72.2 273.6 72.2H255.6V19.5H274.2C283.5 19.5 290.8 21.8 295.8 26.4ZM287.2 57.7C290.1 55 291.5 51 291.5 45.9C291.5 40.7 290.1 36.7 287.2 34C284.3 31.2 279.9 29.8 273.9 29.8H267.3V61.8H274.8C280.1 61.8 284.3 60.4 287.2 57.7Z" fill="#FFD100"/>
<path d="M44.9 18.5C30 18.5 17.9 30.6 17.9 45.5C17.9 60.4 30 72.5 44.9 72.5H56.5V60.8H44.9C36.5 60.8 29.6 53.9 29.6 45.5C29.6 37.1 36.5 30.2 44.9 30.2C53.3 30.2 60.2 37.1 60.2 45.5V60.6V102V114.7C60.2 123.1 53.3 130 44.9 130C36.5 130 29.6 123.1 29.6 114.7C29.6 106.3 36.5 99.4 44.9 99.4H56.5V87.7H44.9C30 87.7 17.9 99.8 17.9 114.7C17.9 129.6 30 141.7 44.9 141.7C59.8 141.7 71.9 129.6 71.9 114.7V45.5C71.9 30.6 59.8 18.5 44.9 18.5Z" fill="white"/>
<path d="M358.1 15.7C358.8 16.4 359.1 17.1 359.1 18.1C359.1 19 358.8 19.8 358.1 20.5C357.4 21.2 356.7 21.5 355.7 21.5C354.8 21.5 354 21.2 353.3 20.5C352.7 19.8 352.3 19.1 352.3 18.1C352.3 17.2 352.6 16.4 353.3 15.7C354 15 354.7 14.7 355.7 14.7C356.7 14.7 357.4 15.1 358.1 15.7ZM357.8 20.2C358.4 19.6 358.7 18.9 358.7 18.1C358.7 17.3 358.4 16.6 357.9 16C357.3 15.4 356.6 15.1 355.8 15.1C355 15.1 354.3 15.4 353.7 16C353.1 16.6 352.9 17.3 352.9 18.1C352.9 18.9 353.2 19.6 353.7 20.2C354.3 20.8 354.9 21.1 355.8 21.1C356.5 21 357.2 20.8 357.8 20.2ZM357.3 17.5C357.3 18.1 357 18.5 356.5 18.6L357.5 19.9H356.7L355.8 18.7H355V19.9H354.4V16.3H355.8C356.3 16.3 356.7 16.4 357 16.6C357.2 16.7 357.3 17 357.3 17.5ZM356.5 18C356.6 17.9 356.7 17.7 356.7 17.5C356.7 17.3 356.6 17.1 356.5 17C356.4 16.9 356.1 16.9 355.8 16.9H355V18.2H355.7C356.2 18.1 356.4 18.1 356.5 18Z" fill="#2D2D2D"/>
</svg>
