<svg width="692" height="134" viewBox="0 0 692 134" fill="none" xmlns="http://www.w3.org/2000/svg">
<path d="M99.748 131.04V16.24H78.264V64.62H21.8479V16.24H0.199951V131.04H21.8479V84.628H78.264V131.04H99.748ZM214.548 130.876H238.164L186.664 16.076H163.052L111.556 130.876H135.008L144.848 109.228H204.872L214.548 130.876ZM196.18 89.056H153.54L174.86 40.184L196.18 89.056ZM330.824 101.52C323.28 109.064 311.964 113.164 301.96 113.164C273.588 113.164 262.6 93.32 262.436 74.296C262.272 55.108 274.244 34.444 301.96 34.444C312.257 34.2948 322.205 38.1796 329.676 45.268L344.108 31.328C338.593 25.7592 332.028 21.3404 324.793 18.3274C317.558 15.3145 309.797 13.7675 301.96 13.776C260.468 13.776 240.952 44.276 241.116 74.292C241.28 104.14 259.316 133.492 301.96 133.492C318.524 133.492 333.776 128.08 345.584 116.436L330.824 101.52ZM453.332 16.076H426.432L382.812 64.62V16.076H361.164V130.876H382.812V80.036L430.864 130.876H457.6V129.564L402.328 71.676L453.328 16.736L453.332 16.076Z" fill="white"/>
<path d="M669.476 87.376L613.224 16.2H595.676V131H617.324V53.592L677.676 131.164V131H691.124V16.036H669.476V87.376Z" fill="white"/>
<path d="M515.636 133.5C506.638 133.634 497.708 131.93 489.391 128.493C482.344 125.495 476.056 120.957 470.991 115.214C461.711 104.68 456.599 90.1489 456.599 74.2959C456.59 68.1226 457.411 61.9767 459.037 56.0215C460.64 50.1033 463.116 44.4563 466.384 39.2686C469.675 34.0467 473.834 29.4275 478.684 25.6094C483.858 21.5786 489.727 18.5284 495.999 16.6094V38.377C482.192 46.432 477.604 62.383 477.915 74.626C478.406 93.496 488.573 113.66 515.636 113.66C542.824 113.66 552.862 93.412 553.191 74.46C553.454 59.002 547.027 45.6784 536 38.8174V16.8506C542.163 18.8344 547.917 21.9145 552.987 25.9414C557.753 29.7613 561.84 34.359 565.074 39.541C568.278 44.6773 570.697 50.2635 572.251 56.1143C573.825 61.9897 574.585 68.0527 574.512 74.1348C574.337 89.9048 569.212 104.4 560.081 114.951C555.073 120.744 548.829 125.34 541.81 128.401C533.534 131.9 524.62 133.636 515.636 133.5Z" fill="white"/>
<path d="M523 0H507C505.343 0 504 1.34315 504 3V51C504 52.6569 505.343 54 507 54H523C524.657 54 526 52.6569 526 51V3C526 1.34315 524.657 0 523 0Z" fill="#E58AB2"/>
</svg>
