<svg width="601" height="54" viewBox="0 0 601 54" fill="none" xmlns="http://www.w3.org/2000/svg">
<path d="M98.87 41.2698V8.33984H103.38V41.2698H98.87Z" fill="white"/>
<path d="M118.39 8.01001H119.56L140.56 31.34V8.34003H145.08V41.6H143.72L122.86 18.36V41.27H118.39V8.01001Z" fill="white"/>
<path d="M181.33 12.8499H171.59V41.2698H166.99V12.8499H157.2V8.33984H181.29L181.33 12.8499Z" fill="white"/>
<path d="M198.12 12.8499V22.5399H209.6V27.0598H198.12V36.7598H213.88V41.2798H193.65V8.33984H213.88V12.8499H198.12Z" fill="white"/>
<path d="M252.69 41.2698H247.14L237.49 27.7598H231.38V41.2598H226.91V8.33984H239.99C242.551 8.36843 244.999 9.39853 246.81 11.2096C248.621 13.0207 249.651 15.4688 249.68 18.0298C249.614 20.1142 248.917 22.1293 247.681 23.8093C246.446 25.4893 244.73 26.7552 242.76 27.4398L252.69 41.2698ZM238.69 23.2698C243.11 23.2698 245.18 20.9598 245.18 18.0498C245.18 15.1398 243.11 12.8698 238.69 12.8698H231.4V23.2698H238.69Z" fill="white"/>
<path d="M276.3 41.5999C271.3 30.4499 266.47 19.4898 261.48 8.33984H266.38L276.91 31.9099L287.36 8.33984H292.3L277.62 41.5999H276.3Z" fill="white"/>
<path d="M303.63 41.2698V8.33984H308.15V41.2698H303.63Z" fill="white"/>
<path d="M327.9 12.8499V22.5399H339.38V27.0598H327.9V36.7598H343.66V41.2798H323.43V8.33984H343.66V12.8499H327.9Z" fill="white"/>
<path d="M398.23 8.23999L387.74 41.6H385.91L375.56 17.93L365.16 41.6H363.37L352.93 8.34003H357.54L364.78 31.25L374.99 8.01001H376.22L386.38 31.25L393.58 8.25L398.23 8.23999Z" fill="white"/>
<path d="M451.81 41.2698H446.26L436.61 27.7598H430.5V41.2598H425.99V8.33984H439.07C441.631 8.36843 444.079 9.39853 445.89 11.2096C447.701 13.0207 448.731 15.4688 448.76 18.0298C448.694 20.1142 447.997 22.1293 446.761 23.8093C445.526 25.4893 443.81 26.7552 441.84 27.4398L451.81 41.2698ZM437.81 23.2698C442.23 23.2698 444.3 20.9598 444.3 18.0498C444.3 15.1398 442.23 12.8698 437.81 12.8698H430.52V23.2698H437.81Z" fill="white"/>
<path d="M468.74 12.8499V22.5399H480.22V27.0598H468.74V36.7598H484.5V41.2798H464.27V8.33984H484.5V12.8499H468.74Z" fill="white"/>
<path d="M509.9 8.01001C514.9 19.16 519.73 30.12 524.72 41.27H519.78L516.86 34.77H501.71C500.82 36.77 499.71 39.2 498.8 41.27H493.91L508.54 8.01001H509.9ZM514.84 30.26L509.24 17.7L503.69 30.26H514.84Z" fill="white"/>
<path d="M535.91 41.2698V8.33984H546.91C556.65 8.33984 562.91 15.1099 562.91 24.8499C562.91 34.0699 556.7 41.2698 546.91 41.2698H535.91ZM540.38 36.7498H546.92C553.46 36.7498 558.31 31.5299 558.31 24.8499C558.31 18.1699 553.51 12.8499 546.92 12.8499H540.38V36.7498Z" fill="white"/>
<path d="M600.99 8.33984L588.99 25.0399V41.2698H584.47V25.0399C580.47 19.5799 576.47 13.8398 572.47 8.33984H578.07L586.77 20.4298L595.47 8.33984H600.99Z" fill="white"/>
<path d="M19.85 53.3299H8.41998C6.18859 53.3299 4.04847 52.4441 2.4697 50.8672C0.890927 49.2904 0.00265011 47.1513 0 44.9199V24.7599C0 23.0015 0.698498 21.3151 1.94186 20.0718C3.18523 18.8284 4.87162 18.1299 6.63 18.1299C8.38839 18.1299 10.0747 18.8284 11.3181 20.0718C12.5615 21.3151 13.26 23.0015 13.26 24.7599V40.0499H19.85C21.6084 40.0499 23.2948 40.7484 24.5381 41.9918C25.7815 43.2351 26.48 44.9215 26.48 46.6799C26.48 48.4383 25.7815 50.1246 24.5381 51.368C23.2948 52.6113 21.6084 53.3099 19.85 53.3099V53.3299Z" fill="white"/>
<path d="M59.18 53.3299H47.75C45.9916 53.3299 44.3052 52.6314 43.0619 51.388C41.8185 50.1446 41.12 48.4583 41.12 46.6999C41.12 44.9415 41.8185 43.2551 43.0619 42.0118C44.3052 40.7684 45.9916 40.0699 47.75 40.0699H54.34V24.7599C54.34 23.0015 55.0385 21.3151 56.2819 20.0718C57.5252 18.8284 59.2116 18.1299 60.97 18.1299C62.7284 18.1299 64.4147 18.8284 65.6581 20.0718C66.9015 21.3151 67.6 23.0015 67.6 24.7599V44.8999C67.6013 46.0065 67.3845 47.1025 66.9619 48.1252C66.5394 49.1479 65.9194 50.0772 65.1374 50.8602C64.3554 51.6431 63.4267 52.2642 62.4045 52.688C61.3823 53.1118 60.2866 53.3299 59.18 53.3299V53.3299Z" fill="white"/>
<path d="M60.97 13.38C64.6648 13.38 67.66 10.3848 67.66 6.69C67.66 2.99522 64.6648 0 60.97 0C57.2752 0 54.28 2.99522 54.28 6.69C54.28 10.3848 57.2752 13.38 60.97 13.38Z" fill="white"/>
<path d="M6.69 13.38C10.3848 13.38 13.38 10.3848 13.38 6.69C13.38 2.99522 10.3848 0 6.69 0C2.99522 0 0 2.99522 0 6.69C0 10.3848 2.99522 13.38 6.69 13.38Z" fill="white"/>
<path d="M15.83 10.9799L25.08 27.4499C25.124 27.5274 25.1856 27.5936 25.2598 27.643C25.334 27.6924 25.4188 27.7236 25.5073 27.7343C25.5958 27.745 25.6856 27.7348 25.7694 27.7045C25.8532 27.6743 25.9288 27.6247 25.99 27.5599L51.14 0.979877C51.2351 0.876119 51.2884 0.740884 51.2897 0.600177C51.291 0.45947 51.2402 0.323243 51.1471 0.217731C51.054 0.112218 50.9252 0.0449229 50.7854 0.0287046C50.6457 0.0124864 50.5048 0.0485099 50.39 0.129901L27.16 16.6499C27.0661 16.7153 26.9544 16.7503 26.84 16.7503C26.7256 16.7503 26.6139 16.7153 26.52 16.6499L16.64 10.2099C16.5323 10.1343 16.4017 10.0983 16.2704 10.108C16.1391 10.1177 16.0152 10.1726 15.9198 10.2633C15.8244 10.354 15.7633 10.4749 15.7469 10.6055C15.7305 10.7362 15.7599 10.8684 15.83 10.9799V10.9799Z" fill="white"/>
<path d="M50.34 31.1299V36.0699H47.75C45.748 36.0677 43.786 36.6314 42.0905 37.6961C40.395 38.7608 39.035 40.2831 38.1674 42.0874C37.2997 43.8917 36.9598 45.9046 37.1867 47.8937C37.4137 49.8829 38.1982 51.7674 39.45 53.3299H28.15C29.4018 51.7674 30.1864 49.8829 30.4133 47.8937C30.6403 45.9046 30.3003 43.8917 29.4327 42.0874C28.565 40.2831 27.205 38.7608 25.5095 37.6961C23.814 36.6314 21.8521 36.0677 19.85 36.0699H17.26V31.1299H50.34Z" fill="white"/>
</svg>
