<svg width="533" height="194" viewBox="0 0 533 194" fill="none" xmlns="http://www.w3.org/2000/svg">
<path d="M84.5 184.099C83.3 183.598 90 183.197 101.5 183.197C114.1 183.097 120 183.498 119 184.099C117.2 185.3 87.3 185.3 84.5 184.099Z" fill="#00FFCE"/>
<path d="M69.3 180.093C68 179.592 67 178.891 67 178.591C67 178.29 82.9 178.09 102.3 178.19C133 178.29 137.1 178.391 134.5 179.592C132.2 180.694 124.8 180.994 101.5 180.994C85 180.994 70.5 180.594 69.3 180.093Z" fill="#00FFCE"/>
<path d="M57 174.084C56 173.484 71.4 173.083 101.5 173.083C131.6 173.083 147 173.484 146 174.084C144 175.386 59 175.386 57 174.084Z" fill="#00FFCE"/>
<path d="M49.5 169.077C49.1 168.376 66.7 168.076 101.5 168.076C136.3 168.076 153.9 168.376 153.5 169.077C153.1 169.678 134.7 170.079 101.5 170.079C68.3 170.079 49.9 169.678 49.5 169.077Z" fill="#00FFCE"/>
<path d="M43.7 164.371C43.3 164.07 43 163.369 43 162.868C43 162.468 69.6 162.067 102.1 162.067C154.6 162.067 161.1 162.268 160 163.569C158.9 164.871 151.2 165.072 101.5 165.072C70.1 165.072 44 164.771 43.7 164.371Z" fill="#00FFCE"/>
<path d="M38 158.562C36.9 157.26 44 157.06 101.4 157.06C138.6 157.06 166 157.461 166 157.961C166 158.462 165.3 159.163 164.4 159.464C163.5 159.764 135 160.064 101 160.064C47.3 160.064 39.1 159.864 38 158.562Z" fill="#00FFCE"/>
<path d="M33 153.054C33 152.353 56.7 152.053 102.1 152.053C147.8 152.053 170.9 152.353 170.5 153.054C169.6 154.456 33 154.456 33 153.054Z" fill="#00FFCE"/>
<path d="M29.5 148.047C29.1 147.346 53.5 147.046 102 147.046C150.5 147.046 174.9 147.346 174.5 148.047C174.1 148.748 148.8 149.049 102 149.049C55.2 149.049 29.9 148.748 29.5 148.047Z" fill="#00FFCE"/>
<path d="M26.7 143.341C26.3 143.04 26 142.339 26 141.838C26 141.438 60.2 141.037 102.1 141.037C162.5 141.037 178.1 141.338 177.8 142.339C177.4 143.24 161.3 143.641 102.3 143.841C61.1 143.941 27 143.741 26.7 143.341Z" fill="#00FFCE"/>
<path d="M23 137.031C23 135.83 47.9 135.83 52.5 137.031C54.3 137.532 48.9 137.833 39.3 137.933C29 138.033 23 137.632 23 137.031Z" fill="#00FFCE"/>
<path d="M67 137.031C67 136.431 79.2 136.03 101.5 136.03C123.8 136.03 136 136.431 136 137.031C136 137.632 123.8 138.033 101.5 138.033C79.2 138.033 67 137.632 67 137.031Z" fill="#00FFCE"/>
<path d="M151 137.031C154.8 135.83 181.2 135.83 180.5 137.031C180.1 137.632 173.7 138.033 164.2 137.933C154.8 137.833 149.5 137.532 151 137.031Z" fill="#00FFCE"/>
<path d="M20.5 132.024C20.1 131.423 23.3 131.023 29.4 131.023C34.6 131.023 39.2 131.423 39.5 132.024C39.9 132.625 36.7 133.026 30.6 133.026C25.4 133.026 20.8 132.625 20.5 132.024Z" fill="#00FFCE"/>
<path d="M67 132.024C67 131.423 79.2 131.023 101.5 131.023C123.8 131.023 136 131.423 136 132.024C136 132.625 123.8 133.026 101.5 133.026C79.2 133.026 67 132.625 67 132.024Z" fill="#00FFCE"/>
<path d="M164 132.024C166 130.722 183 130.722 183 132.024C183 132.625 178.9 133.026 172.8 133.026C165.8 133.026 163 132.725 164 132.024Z" fill="#00FFCE"/>
<path d="M18.5 127.017C18.1 126.416 20.8 126.016 25.9 126.016C30.3 126.016 34.2 126.516 34.5 127.017C34.9 127.618 32.2 128.019 27.1 128.019C22.7 128.019 18.8 127.618 18.5 127.017Z" fill="#00FFCE"/>
<path d="M67.2 126.817C67.6 125.815 75.6 125.415 101.8 125.215C131.8 125.014 136 125.215 136 126.516C136 127.818 131.6 128.019 101.4 128.019C74.1999 128.019 66.9 127.718 67.2 126.817Z" fill="#00FFCE"/>
<path d="M169.5 127.017C169.8 126.516 173.5 126.016 177.6 126.016C181.9 126.016 185 126.416 185 127.017C185 127.618 181.6 128.019 176.9 128.019C171.8 128.019 169.1 127.618 169.5 127.017Z" fill="#00FFCE"/>
<path d="M17.7 122.31C15.9 120.608 17.6 120.007 24 120.007C29.6 120.007 31 120.308 31 121.509C31 122.711 29.6 123.011 24.7 123.011C21.2 123.011 18 122.711 17.7 122.31Z" fill="#00FFCE"/>
<path d="M67.7 122.31C67.3 122.01 67 121.309 67 120.808C67 120.408 82.5 120.007 101.5 120.007C131.5 120.007 136 120.207 136 121.509C136 122.811 131.6 123.011 102.2 123.011C83.6 123.011 68 122.711 67.7 122.31Z" fill="#00FFCE"/>
<path d="M172.2 121.81C172.5 120.908 175.1 120.408 179.9 120.207C185.5 120.007 187.1 120.207 186.8 121.209C186.5 122.11 183.9 122.611 179.1 122.811C173.5 123.011 171.9 122.811 172.2 121.81Z" fill="#00FFCE"/>
<path d="M15.4999 116.001C15.0999 115.401 17.4999 115 21.8999 115C25.9999 115 28.9999 115.401 28.9999 116.001C28.9999 117.303 16.2999 117.303 15.4999 116.001Z" fill="#00FFCE"/>
<path d="M67 116.001C67 115.401 79.2 115 101.5 115C123.8 115 136 115.401 136 116.001C136 116.602 123.8 117.003 101.5 117.003C79.2 117.003 67 116.602 67 116.001Z" fill="#00FFCE"/>
<path d="M174.5 116.001C174.8 115.501 178 115 181.6 115C185.2 115 188 115.401 188 116.001C188 116.602 185 117.003 180.9 117.003C176.5 117.003 174.1 116.602 174.5 116.001Z" fill="#00FFCE"/>
<path d="M14.4999 110.994C14.0999 110.393 16.4999 109.993 20.8999 109.993C24.9999 109.993 27.9999 110.393 27.9999 110.994C27.9999 112.296 15.2999 112.296 14.4999 110.994Z" fill="#00FFCE"/>
<path d="M67 110.994C67 110.393 79.2 109.993 101.5 109.993C123.8 109.993 136 110.393 136 110.994C136 111.595 123.8 111.996 101.5 111.996C79.2 111.996 67 111.595 67 110.994Z" fill="#00FFCE"/>
<path d="M175 110.994C175 110.393 178 109.993 182 109.993C186 109.993 189 110.393 189 110.994C189 111.595 186 111.996 182 111.996C178 111.996 175 111.595 175 110.994Z" fill="#00FFCE"/>
<path d="M14 105.987C14 105.386 17.2 104.986 21.6 104.986C26.3 104.986 28.9 105.386 28.5 105.987C28.2 106.588 24.8 106.989 20.9 106.989C17 106.989 14 106.588 14 105.987Z" fill="#00FFCE"/>
<path d="M67.2 105.787C67.6 104.785 75.6 104.385 101.8 104.185C131.8 103.984 136 104.185 136 105.486C136 106.788 131.6 106.989 101.4 106.989C74.1999 106.989 66.9 106.688 67.2 105.787Z" fill="#00FFCE"/>
<path d="M175 105.987C175 105.386 178 104.986 182 104.986C186 104.986 189 105.386 189 105.987C189 106.588 186 106.989 182 106.989C178 106.989 175 106.588 175 105.987Z" fill="#00FFCE"/>
<path d="M14 100.479C14 99.278 15.5 98.977 22.1 98.977C28.1 98.977 30.1 99.278 29.8 100.279C29.5 101.08 26.7 101.581 21.7 101.781C15.3 101.981 14 101.781 14 100.479Z" fill="#00FFCE"/>
<path d="M67.7 101.28C67.3 100.98 67 100.279 67 99.778C67 99.378 82.5 98.977 101.5 98.977C131.5 98.977 136 99.177 136 100.479C136 101.781 131.6 101.981 102.2 101.981C83.6 101.981 68 101.681 67.7 101.28Z" fill="#00FFCE"/>
<path d="M173.7 101.28C171.9 99.578 173.7 98.977 181 98.977C187.4 98.977 189 99.278 189 100.479C189 101.681 187.5 101.981 181.7 101.981C177.6 101.981 174 101.681 173.7 101.28Z" fill="#00FFCE"/>
<path d="M14 94.971C14 94.371 17.9 93.97 23.6 93.97C29.7 93.97 32.9 94.371 32.5 94.971C32.2 95.572 27.9 95.973 22.9 95.973C17.6 95.973 14 95.572 14 94.971Z" fill="#00FFCE"/>
<path d="M67 94.971C67 94.371 79.2 93.97 101.5 93.97C123.8 93.97 136 94.371 136 94.971C136 95.572 123.8 95.973 101.5 95.973C79.2 95.973 67 95.572 67 94.971Z" fill="#00FFCE"/>
<path d="M170.5 94.971C170.1 94.371 173.3 93.97 179.4 93.97C185.1 93.97 189 94.371 189 94.971C189 95.572 185.4 95.973 180.1 95.973C175.1 95.973 170.8 95.572 170.5 94.971Z" fill="#00FFCE"/>
<path d="M14 89.964C14 89.363 18.7 88.963 26.3 88.963C34.5 88.963 38 89.263 37 89.964C35 91.266 14 91.266 14 89.964Z" fill="#00FFCE"/>
<path d="M67 89.964C67 89.363 79.2 88.963 101.5 88.963C123.8 88.963 136 89.363 136 89.964C136 90.565 123.8 90.966 101.5 90.966C79.2 90.966 67 90.565 67 89.964Z" fill="#00FFCE"/>
<path d="M166.5 89.964C166.1 89.363 170 88.963 177.4 88.963C184.5 88.963 189 89.363 189 89.964C189 90.565 184.7 90.966 178.1 90.966C171.8 90.966 166.9 90.565 166.5 89.964Z" fill="#00FFCE"/>
<path d="M15 84.957C15 84.356 20.7 83.956 30.3 83.956C40.5 83.956 45 84.356 44 84.957C42 86.259 15 86.259 15 84.957Z" fill="#00FFCE"/>
<path d="M67.2 84.757C67.6 83.755 75.6 83.355 101.8 83.154C131.8 82.954 136 83.154 136 84.456C136 85.758 131.6 85.959 101.4 85.959C74.1999 85.959 66.9 85.658 67.2 84.757Z" fill="#00FFCE"/>
<path d="M159 84.957C158 84.356 162.7 83.956 173.3 83.956C183.1 83.956 189 84.356 189 84.957C189 86.259 161 86.259 159 84.957Z" fill="#00FFCE"/>
<path d="M16 79.449C16 78.147 18.8 77.947 35 77.947C51.2 77.947 54 78.147 54 79.449C54 80.751 51.2 80.951 35 80.951C18.8 80.951 16 80.751 16 79.449Z" fill="#00FFCE"/>
<path d="M67.7 80.25C67.3 79.95 67 79.249 67 78.748C67 78.348 82.5 77.947 101.5 77.947C131.5 77.947 136 78.147 136 79.449C136 80.751 131.6 80.951 102.2 80.951C83.6 80.951 68 80.651 67.7 80.25Z" fill="#00FFCE"/>
<path d="M149.7 80.25C147.7 78.247 150.7 77.947 168.2 78.147C182.4 78.348 187.4 78.748 187.8 79.75C188.1 80.651 183.9 80.951 169.3 80.951C158.8 80.951 150 80.651 149.7 80.25Z" fill="#00FFCE"/>
<path d="M17 73.941C17 73.34 25 72.94 39 72.94C53 72.94 61 73.34 61 73.941C61 74.542 53 74.943 39 74.943C25 74.943 17 74.542 17 73.941Z" fill="#00FFCE"/>
<path d="M67 73.941C67 73.34 79.2 72.94 101.5 72.94C123.8 72.94 136 73.34 136 73.941C136 74.542 123.8 74.943 101.5 74.943C79.2 74.943 67 74.542 67 73.941Z" fill="#00FFCE"/>
<path d="M142 73.941C142 73.34 150 72.94 163.9 72.94C177.5 72.94 186.1 73.34 186.5 73.941C186.9 74.642 179.3 74.943 164.6 74.943C150.2 74.943 142 74.542 142 73.941Z" fill="#00FFCE"/>
<path d="M19 68.934C19 68.333 26.7 67.933 40 67.933C53.3 67.933 61 68.333 61 68.934C61 69.535 53.3 69.936 40 69.936C26.7 69.936 19 69.535 19 68.934Z" fill="#00FFCE"/>
<path d="M67 68.934C67 68.333 79.2 67.933 101.5 67.933C123.8 67.933 136 68.333 136 68.934C136 69.535 123.8 69.936 101.5 69.936C79.2 69.936 67 69.535 67 68.934Z" fill="#00FFCE"/>
<path d="M143 68.934C143 68.333 150.7 67.933 164 67.933C177.3 67.933 185 68.333 185 68.934C185 69.535 177.3 69.936 164 69.936C150.7 69.936 143 69.535 143 68.934Z" fill="#00FFCE"/>
<path d="M21 63.426C22 62.225 25.6 61.924 41.6 61.924C58.2 61.924 61 62.124 61 63.426C61 64.728 58 64.928 40.4 64.928C22.2 64.928 19.9 64.728 21 63.426Z" fill="#00FFCE"/>
<path d="M67.7 64.328C65.7 62.325 71.3 61.924 102.1 61.924C131.6 61.924 136 62.124 136 63.426C136 64.728 131.6 64.928 102.2 64.928C83.6 64.928 68 64.628 67.7 64.328Z" fill="#00FFCE"/>
<path d="M142.5 63.927C141.4 62.124 144.3 61.924 163.4 62.124C177.5 62.325 182.4 62.725 182.8 63.727C183.3 65.229 143.5 65.529 142.5 63.927Z" fill="#00FFCE"/>
<path d="M23 57.918C23 57.318 30.2 56.917 42.5 56.917C54.8 56.917 62 57.318 62 57.918C62 58.519 54.8 58.92 42.5 58.92C30.2 58.92 23 58.519 23 57.918Z" fill="#00FFCE"/>
<path d="M68.5 57.918C69.3 56.516 135 56.516 135 57.918C135 58.519 123.1 58.92 101.4 58.92C79.3 58.92 68.1 58.619 68.5 57.918Z" fill="#00FFCE"/>
<path d="M141.5 57.918C141.1 57.217 147.6 56.917 160.4 56.917C172.3 56.917 180.1 57.318 180.5 57.918C180.9 58.619 174.4 58.92 161.6 58.92C149.7 58.92 141.9 58.519 141.5 57.918Z" fill="#00FFCE"/>
<path d="M26 52.911C26 52.31 33 51.91 45 51.91C57 51.91 64 52.31 64 52.911C64 53.512 57 53.913 45 53.913C33 53.913 26 53.512 26 52.911Z" fill="#00FFCE"/>
<path d="M71 52.911C71 52.31 81.8 51.91 101.4 51.91C120.7 51.91 132.1 52.31 132.5 52.911C132.9 53.612 122.5 53.913 102.1 53.913C82 53.913 71 53.512 71 52.911Z" fill="#00FFCE"/>
<path d="M139.5 52.911C139.1 52.21 145.5 51.91 157.9 51.91C169.5 51.91 177.1 52.31 177.5 52.911C177.9 53.612 171.5 53.913 159.1 53.913C147.5 53.913 139.9 53.512 139.5 52.911Z" fill="#00FFCE"/>
<path d="M29 48.004C29 46.202 32.4 45.901 50.1 45.901C65.5 45.901 67.9 46.102 67.4 47.403C66.9 48.705 63.8 48.906 47.9 48.906C37.5 48.906 29 48.505 29 48.004Z" fill="#00FFCE"/>
<path d="M76.4 47.403C79.3 45.2 125.2 45.2 127 47.403C128.1 48.705 125.1 48.906 101.4 48.906C77.5 48.805 74.7 48.705 76.4 47.403Z" fill="#00FFCE"/>
<path d="M136.7 48.205C134.7 46.202 137.7 45.901 154.7 46.102C168.5 46.302 173.4 46.702 173.8 47.704C174.1 48.605 170 48.906 155.8 48.906C145.6 48.906 137 48.605 136.7 48.205Z" fill="#00FFCE"/>
<path d="M33.2 42.697C33.6 41.695 38.8 41.295 54.1 41.195C72.3 40.994 74.3 41.094 72.6 42.396C69.9 44.399 32.6 44.599 33.2 42.697Z" fill="#00FFCE"/>
<path d="M86.3 43.297C87.1 42.497 117.9 42.497 118.7 43.297C119.1 43.597 111.8 43.898 102.5 43.898C93.2 43.898 85.9 43.597 86.3 43.297Z" fill="#00FFCE"/>
<path d="M131 42.396C129.9 40.994 131.9 40.894 149.5 41.094C164.3 41.295 169.4 41.695 169.8 42.697C170.1 43.598 165.9 43.898 151.2 43.898C135.5 43.898 132 43.598 131 42.396Z" fill="#00FFCE"/>
<path d="M38.5 36.888C38.9 36.288 48.3 35.887 63.8 35.987C77.4 36.087 87.2 36.488 85.5 36.888C80.8 38.09 37.8 38.09 38.5 36.888Z" fill="#00FFCE"/>
<path d="M118 36.888C116.1 36.488 125.8 36.087 139.7 35.987C155.6 35.887 165.1 36.288 165.5 36.888C166.2 38.09 123.6 38.09 118 36.888Z" fill="#00FFCE"/>
<path d="M43.5 31.881C44.4 30.479 159.6 30.479 160.5 31.881C160.9 32.582 141.2 32.883 102 32.883C62.8 32.883 43.1 32.582 43.5 31.881Z" fill="#00FFCE"/>
<path d="M50.4 26.373C53.4 24.0701 151.1 24.1702 153 26.373C154.1 27.675 148.3 27.876 101.4 27.876C54.7 27.775 48.7 27.675 50.4 26.373Z" fill="#00FFCE"/>
<path d="M58.4 21.3662C60.1 20.0644 66.9 19.8641 101.6 19.8641C124.3 19.8641 143.5 20.1645 144.4 20.4649C149.6 22.4678 142 22.8684 101.3 22.8684C61.7 22.7682 56.7 22.6681 58.4 21.3662Z" fill="#00FFCE"/>
<path d="M69.5 15.8584C72.3 14.6566 132.1 14.6566 134 15.8584C135 16.4592 123.8 16.8598 101.5 16.7597C81.6 16.7597 68.3 16.3591 69.5 15.8584Z" fill="#00FFCE"/>
<path d="M88.5 10.7506C93.7 9.7498 110.3 9.7498 115.5 10.7506C118.2 11.3512 113.8 11.6514 102 11.6514C90.2 11.6514 85.8 11.3512 88.5 10.7506Z" fill="#00FFCE"/>
<path d="M88 43C88 42.4 93.2 42 101.5 42C109.8 42 115 42.4 115 43C115 43.6 109.8 44 101.5 44C93.2 44 88 43.6 88 43Z" fill="#00FFCE"/>
<path d="M253.609 43.6592H241V101.341H248.911V60.5517L255.669 101.341H264.24L270.503 59.9749V101.341H279.074V43.6592H266.465L260.284 84.6131L253.609 43.6592ZM303.386 79.8338V88.074C303.386 92.1941 301.573 93.6774 298.688 93.6774C295.804 93.6774 293.991 92.1941 293.991 88.074V56.926C293.991 52.8059 295.804 51.2402 298.688 51.2402C301.573 51.2402 303.386 52.8059 303.386 56.926V63.1062H311.956V57.5028C311.956 48.2738 307.341 43 298.441 43C289.541 43 284.926 48.2738 284.926 57.5028V87.4972C284.926 96.7263 289.541 102 298.441 102C307.341 102 311.956 96.7263 311.956 87.4972V79.8338H303.386ZM340.862 101.341H352.894L359.322 43.6592H351.41L346.713 89.4749L342.18 43.6592H333.445L329.077 89.1453L324.215 43.6592H315.397L321.825 101.341H334.269L337.565 70.6048L340.862 101.341ZM363.893 101.341H372.958V43.6592H363.893V101.341ZM376.95 51.8994H386.427V101.341H395.492V51.8994H404.969V43.6592H376.95V51.8994ZM406.324 51.8994H415.802V101.341H424.867V51.8994H434.344V43.6592H406.324V51.8994ZM438.336 101.341H447.401V43.6592H438.336V101.341ZM463.095 51.8994H478.753V43.6592H454.03V101.341H478.753V93.1006H463.095V76.2081H475.539V67.9679H463.095V51.8994ZM483.217 57.5028C483.217 73.9833 500.935 76.2081 500.935 88.074C500.935 92.1941 499.122 93.6774 496.237 93.6774C493.353 93.6774 491.54 92.1941 491.54 88.074V83.9539H482.969V87.4972C482.969 96.7263 487.584 102 496.485 102C505.385 102 510 96.7263 510 87.4972C510 71.0168 492.282 68.7919 492.282 56.926C492.282 52.8059 493.93 51.2402 496.814 51.2402C499.699 51.2402 501.347 52.8059 501.347 56.926V59.3157H509.918V57.5028C509.918 48.2738 505.385 43 496.567 43C487.749 43 483.217 48.2738 483.217 57.5028Z" fill="white"/>
<path d="M255 138.265V121.223H258.623V135.281H265.557V138.265H255ZM268.106 121.865C268.106 120.707 268.754 120.128 270.047 120.128C271.341 120.128 271.988 120.707 271.988 121.865C271.988 122.417 271.825 122.848 271.497 123.159C271.177 123.461 270.693 123.614 270.047 123.614C268.754 123.614 268.106 123.03 268.106 121.865ZM271.825 138.265H268.258V125.234H271.825V138.265ZM282.804 127.903H279.716V138.265H276.15V127.903H274.186V126.189L276.15 125.234V124.278C276.15 122.793 276.517 121.71 277.25 121.025C277.982 120.342 279.155 120 280.769 120C282 120 283.096 120.182 284.055 120.548L283.142 123.159C282.425 122.933 281.762 122.82 281.155 122.82C280.649 122.82 280.282 122.972 280.056 123.275C279.83 123.57 279.716 123.951 279.716 124.418V125.234H282.804V127.903ZM290.275 127.518C289.519 127.518 288.927 127.758 288.497 128.24C288.069 128.715 287.824 129.391 287.761 130.269H292.765C292.749 129.391 292.52 128.715 292.075 128.24C291.631 127.758 291.031 127.518 290.275 127.518ZM290.778 138.498C288.674 138.498 287.029 137.919 285.844 136.761C284.658 135.603 284.066 133.963 284.066 131.842C284.066 129.659 284.612 127.973 285.703 126.784C286.803 125.587 288.319 124.989 290.251 124.989C292.099 124.989 293.538 125.513 294.566 126.562C295.594 127.611 296.109 129.061 296.109 130.909V132.636H287.678C287.717 133.646 288.018 134.433 288.579 135C289.141 135.569 289.928 135.852 290.941 135.852C291.728 135.852 292.474 135.77 293.174 135.608C293.876 135.443 294.609 135.184 295.372 134.826V137.577C294.748 137.887 294.082 138.117 293.373 138.265C292.664 138.42 291.799 138.498 290.778 138.498ZM308.13 134.395C308.13 135.731 307.661 136.749 306.726 137.449C305.798 138.148 304.407 138.498 302.552 138.498C301.601 138.498 300.79 138.432 300.12 138.299C299.449 138.175 298.822 137.989 298.237 137.74V134.803C298.9 135.114 299.644 135.373 300.47 135.584C301.305 135.794 302.037 135.899 302.668 135.899C303.963 135.899 304.609 135.526 304.609 134.78C304.609 134.501 304.524 134.275 304.352 134.104C304.18 133.925 303.885 133.726 303.463 133.508C303.043 133.283 302.481 133.024 301.779 132.728C300.774 132.309 300.034 131.919 299.558 131.563C299.09 131.205 298.747 130.797 298.529 130.339C298.319 129.872 298.213 129.301 298.213 128.625C298.213 127.467 298.662 126.574 299.558 125.944C300.462 125.307 301.741 124.989 303.393 124.989C304.969 124.989 306.5 125.331 307.989 126.014L306.913 128.579C306.259 128.298 305.647 128.07 305.076 127.891C304.508 127.712 303.927 127.623 303.334 127.623C302.282 127.623 301.757 127.906 301.757 128.474C301.757 128.792 301.925 129.068 302.26 129.301C302.603 129.534 303.346 129.88 304.493 130.339C305.513 130.751 306.262 131.135 306.738 131.493C307.214 131.851 307.564 132.263 307.79 132.728C308.016 133.195 308.13 133.75 308.13 134.395ZM316.419 135.666C317.042 135.666 317.79 135.53 318.664 135.257V137.904C317.775 138.299 316.684 138.498 315.39 138.498C313.963 138.498 312.923 138.141 312.268 137.426C311.621 136.703 311.298 135.623 311.298 134.186V127.903H309.59V126.399L311.555 125.21L312.583 122.459H314.864V125.234H318.523V127.903H314.864V134.186C314.864 134.69 315.003 135.063 315.285 135.305C315.572 135.545 315.951 135.666 316.419 135.666ZM319.447 125.234H323.351L325.819 132.565C326.029 133.203 326.174 133.956 326.252 134.826H326.322C326.408 134.026 326.575 133.273 326.825 132.565L329.245 125.234H333.069L327.538 139.931C327.032 141.292 326.306 142.31 325.363 142.985C324.428 143.661 323.332 144 322.078 144C321.461 144 320.858 143.933 320.265 143.802V140.98C320.694 141.082 321.162 141.132 321.668 141.132C322.299 141.132 322.849 140.938 323.317 140.549C323.793 140.169 324.163 139.59 324.428 138.812L324.639 138.172L319.447 125.234ZM338.517 138.265H334.95V120.128H338.517V138.265ZM347.683 127.518C346.928 127.518 346.335 127.758 345.907 128.24C345.477 128.715 345.232 129.391 345.171 130.269H350.174C350.159 129.391 349.928 128.715 349.484 128.24C349.039 127.758 348.439 127.518 347.683 127.518ZM348.186 138.498C346.082 138.498 344.437 137.919 343.252 136.761C342.068 135.603 341.475 133.963 341.475 131.842C341.475 129.659 342.02 127.973 343.111 126.784C344.211 125.587 345.727 124.989 347.661 124.989C349.508 124.989 350.946 125.513 351.974 126.562C353.004 127.611 353.519 129.061 353.519 130.909V132.636H345.088C345.127 133.646 345.426 134.433 345.988 135C346.549 135.569 347.336 135.852 348.349 135.852C349.138 135.852 349.882 135.77 350.584 135.608C351.284 135.443 352.017 135.184 352.781 134.826V137.577C352.158 137.887 351.491 138.117 350.783 138.265C350.073 138.42 349.207 138.498 348.186 138.498ZM370.939 138.265L370.249 136.492H370.156C369.556 137.247 368.937 137.771 368.298 138.066C367.666 138.354 366.84 138.498 365.818 138.498C364.564 138.498 363.573 138.141 362.848 137.426C362.132 136.71 361.772 135.693 361.772 134.372C361.772 132.989 362.256 131.97 363.223 131.318C364.197 130.657 365.662 130.292 367.62 130.222L369.887 130.151V129.581C369.887 128.26 369.209 127.6 367.853 127.6C366.808 127.6 365.581 127.913 364.17 128.543L362.989 126.142C364.493 125.358 366.162 124.965 367.994 124.965C369.746 124.965 371.092 125.346 372.027 126.108C372.963 126.869 373.429 128.027 373.429 129.581V138.265H370.939ZM369.887 132.227L368.507 132.273C367.471 132.304 366.699 132.491 366.192 132.833C365.686 133.176 365.433 133.696 365.433 134.395C365.433 135.397 366.009 135.899 367.163 135.899C367.989 135.899 368.648 135.661 369.139 135.188C369.637 134.714 369.887 134.084 369.887 133.3V132.227ZM389.18 138.265H385.613V130.653C385.613 129.713 385.446 129.01 385.11 128.543C384.775 128.07 384.241 127.833 383.509 127.833C382.511 127.833 381.789 128.167 381.345 128.836C380.9 129.495 380.679 130.595 380.679 132.134V138.265H377.113V125.234H379.838L380.317 126.9H380.516C380.912 126.271 381.459 125.796 382.152 125.479C382.854 125.152 383.648 124.989 384.537 124.989C386.058 124.989 387.212 125.401 387.999 126.225C388.786 127.041 389.18 128.221 389.18 129.768V138.265ZM396.989 138.498C395.454 138.498 394.246 137.904 393.366 136.715C392.492 135.526 392.056 133.878 392.056 131.772C392.056 129.635 392.499 127.973 393.388 126.784C394.285 125.587 395.516 124.989 397.083 124.989C398.728 124.989 399.982 125.626 400.849 126.9H400.965C400.786 125.929 400.696 125.062 400.696 124.301V120.128H404.274V138.265H401.539L400.849 136.574H400.696C399.885 137.858 398.65 138.498 396.989 138.498ZM398.24 135.666C399.153 135.666 399.819 135.402 400.24 134.874C400.669 134.344 400.903 133.447 400.942 132.181V131.796C400.942 130.398 400.723 129.395 400.288 128.788C399.858 128.182 399.156 127.879 398.182 127.879C397.387 127.879 396.768 128.218 396.323 128.894C395.888 129.562 395.669 130.536 395.669 131.819C395.669 133.101 395.891 134.065 396.335 134.709C396.78 135.347 397.414 135.666 398.24 135.666ZM418.07 138.265H414.505V121.223H424.302V124.184H418.07V128.579H423.87V131.527H418.07V138.265ZM427.214 121.865C427.214 120.707 427.861 120.128 429.156 120.128C430.449 120.128 431.097 120.707 431.097 121.865C431.097 122.417 430.932 122.848 430.604 123.159C430.286 123.461 429.802 123.614 429.156 123.614C427.861 123.614 427.214 123.03 427.214 121.865ZM430.932 138.265H427.366V125.234H430.932V138.265ZM440.193 135.666C440.816 135.666 441.564 135.53 442.438 135.257V137.904C441.549 138.299 440.458 138.498 439.163 138.498C437.737 138.498 436.697 138.141 436.041 137.426C435.395 136.703 435.072 135.623 435.072 134.186V127.903H433.364V126.399L435.329 125.21L436.357 122.459H438.638V125.234H442.297V127.903H438.638V134.186C438.638 134.69 438.777 135.063 439.059 135.305C439.347 135.545 439.725 135.666 440.193 135.666ZM457.159 138.265H453.592V130.653C453.592 129.713 453.425 129.01 453.089 128.543C452.754 128.07 452.22 127.833 451.488 127.833C450.49 127.833 449.768 128.167 449.324 128.836C448.879 129.495 448.658 130.595 448.658 132.134V138.265H445.091V125.234H447.815L448.296 126.9H448.495C448.891 126.271 449.438 125.796 450.131 125.479C450.832 125.152 451.627 124.989 452.516 124.989C454.037 124.989 455.191 125.401 455.978 126.225C456.765 127.041 457.159 128.221 457.159 129.768V138.265ZM466.243 127.518C465.487 127.518 464.895 127.758 464.465 128.24C464.037 128.715 463.792 129.391 463.729 130.269H468.733C468.718 129.391 468.488 128.715 468.043 128.24C467.599 127.758 466.999 127.518 466.243 127.518ZM466.746 138.498C464.642 138.498 462.997 137.919 461.812 136.761C460.626 135.603 460.035 133.963 460.035 131.842C460.035 129.659 460.58 127.973 461.671 126.784C462.771 125.587 464.287 124.989 466.219 124.989C468.067 124.989 469.506 125.513 470.534 126.562C471.563 127.611 472.077 129.061 472.077 130.909V132.636H463.648C463.687 133.646 463.986 134.433 464.547 135C465.109 135.569 465.896 135.852 466.909 135.852C467.696 135.852 468.442 135.77 469.142 135.608C469.844 135.443 470.577 135.184 471.34 134.826V137.577C470.718 137.887 470.05 138.117 469.341 138.265C468.632 138.42 467.767 138.498 466.746 138.498ZM484.097 134.395C484.097 135.731 483.629 136.749 482.694 137.449C481.766 138.148 480.375 138.498 478.52 138.498C477.569 138.498 476.758 138.432 476.088 138.299C475.417 138.175 474.79 137.989 474.205 137.74V134.803C474.868 135.114 475.612 135.373 476.438 135.584C477.273 135.794 478.005 135.899 478.636 135.899C479.931 135.899 480.577 135.526 480.577 134.78C480.577 134.501 480.492 134.275 480.32 134.104C480.149 133.925 479.853 133.726 479.431 133.508C479.011 133.283 478.449 133.024 477.747 132.728C476.743 132.309 476.002 131.919 475.526 131.563C475.059 131.205 474.715 130.797 474.498 130.339C474.287 129.872 474.182 129.301 474.182 128.625C474.182 127.467 474.63 126.574 475.526 125.944C476.43 125.307 477.708 124.989 479.362 124.989C480.937 124.989 482.468 125.331 483.957 126.014L482.881 128.579C482.227 128.298 481.615 128.07 481.046 127.891C480.476 127.712 479.895 127.623 479.302 127.623C478.25 127.623 477.725 127.906 477.725 128.474C477.725 128.792 477.893 129.068 478.228 129.301C478.571 129.534 479.314 129.88 480.461 130.339C481.481 130.751 482.23 131.135 482.706 131.493C483.182 131.851 483.532 132.263 483.758 132.728C483.984 133.195 484.097 133.75 484.097 134.395ZM496 134.395C496 135.731 495.532 136.749 494.596 137.449C493.668 138.148 492.278 138.498 490.422 138.498C489.472 138.498 488.661 138.432 487.99 138.299C487.32 138.175 486.693 137.989 486.107 137.74V134.803C486.77 135.114 487.514 135.373 488.342 135.584C489.175 135.794 489.907 135.899 490.539 135.899C491.833 135.899 492.48 135.526 492.48 134.78C492.48 134.501 492.395 134.275 492.223 134.104C492.052 133.925 491.756 133.726 491.335 133.508C490.913 133.283 490.352 133.024 489.651 132.728C488.646 132.309 487.905 131.919 487.429 131.563C486.962 131.205 486.619 130.797 486.401 130.339C486.19 129.872 486.085 129.301 486.085 128.625C486.085 127.467 486.532 126.574 487.429 125.944C488.333 125.307 489.612 124.989 491.265 124.989C492.839 124.989 494.37 125.331 495.859 126.014L494.783 128.579C494.129 128.298 493.517 128.07 492.948 127.891C492.378 127.712 491.798 127.623 491.206 127.623C490.153 127.623 489.627 127.906 489.627 128.474C489.627 128.792 489.795 129.068 490.13 129.301C490.473 129.534 491.217 129.88 492.363 130.339C493.384 130.751 494.132 131.135 494.608 131.493C495.084 131.851 495.434 132.263 495.66 132.728C495.886 133.195 496 133.75 496 134.395Z" fill="white"/>
</svg>
