<svg width="206" height="48" viewBox="0 0 206 48" fill="none" xmlns="http://www.w3.org/2000/svg">
<path d="M23.008 7.544C19.808 5.432 16.64 5.544 13.504 7.88C10.976 9.8 9.136 12.568 7.984 16.184C6.736 20.216 6.864 23.688 8.368 26.6C9.104 28.072 10.192 29.24 11.632 30.104C14.864 32.056 18.032 31.832 21.136 29.432C23.664 27.48 25.472 24.68 26.56 21.032C27.744 17 27.52 13.544 25.888 10.664C25.184 9.384 24.224 8.344 23.008 7.544ZM30.496 9.896C31.712 11.08 32.624 12.488 33.232 14.12C33.84 15.72 34.128 17.368 34.096 19.064C34.096 20.728 33.824 22.424 33.28 24.152C32.768 25.88 32.048 27.496 31.12 29C30.224 30.472 29.136 31.8 27.856 32.984C26.576 34.136 25.2 35.016 23.728 35.624C22.256 36.232 20.656 36.488 18.928 36.392C17.2 36.296 15.504 35.768 13.84 34.808C13.584 34.648 13.12 34.392 12.448 34.04C11.808 33.688 11.344 33.448 11.056 33.32C10.8 33.16 10.4 32.92 9.856 32.6C9.312 32.248 8.848 31.944 8.464 31.688C8.112 31.4 7.664 31.064 7.12 30.68C6.608 30.264 6.08 29.816 5.536 29.336C4.992 28.856 4.416 28.312 3.808 27.704C2.624 26.584 1.744 25.24 1.168 23.672C0.624 22.104 0.368 20.488 0.4 18.824C0.464 17.16 0.752 15.48 1.264 13.784C1.776 12.056 2.48 10.44 3.376 8.936C4.304 7.4 5.392 6.04 6.64 4.856C7.888 3.64 9.2 2.696 10.576 2.024C11.984 1.32 13.488 0.967998 15.088 0.967998C16.688 0.967998 18.256 1.384 19.792 2.216C23.952 4.456 27.52 7.016 30.496 9.896ZM45.7953 13.4V15.368C48.6433 12.712 51.1393 11.448 53.2833 11.576C54.3073 11.64 56.0993 12.92 58.6593 15.416C61.2513 17.88 62.6273 19.56 62.7873 20.456C62.9153 21.288 62.9792 26.6 62.9792 36.392L57.0273 35.048C57.2193 24.072 57.1393 18.264 56.7873 17.624C56.2113 16.536 55.2513 16.216 53.9073 16.664C52.5953 17.08 51.2193 17.848 49.7793 18.968C48.3713 20.088 47.0433 21.4 45.7953 22.904V36.392L39.5553 35.048V12.056L45.7953 13.4ZM73.0919 25.448L83.9879 18.008C81.6839 16.536 79.7159 15.992 78.0839 16.376C76.4839 16.76 75.2519 17.768 74.3879 19.4C73.5239 21 73.0919 23.016 73.0919 25.448ZM74.1959 30.056C75.0919 31.144 76.0999 31.816 77.2199 32.072C78.3399 32.328 79.5079 32.184 80.7239 31.64C81.9719 31.064 83.0119 30.504 83.8439 29.96C84.6759 29.384 85.6519 28.632 86.7719 27.704L87.7319 28.664C88.3399 29.336 88.9479 30.008 89.5559 30.68L90.5159 31.64C87.7319 33.688 85.3799 35.048 83.4599 35.72C81.5399 36.424 79.6359 36.424 77.7479 35.72C74.9959 34.664 72.4039 32.808 69.9719 30.152C68.5319 28.552 67.6999 26.664 67.4759 24.488C67.2519 22.28 67.5239 20.232 68.2919 18.344C69.0919 16.456 70.3079 14.856 71.9399 13.544C73.6039 12.2 75.4119 11.528 77.3639 11.528C78.6439 11.528 80.5319 12.36 83.0279 14.024C85.5559 15.656 87.6519 17.256 89.3159 18.824C89.2839 18.92 88.0039 19.912 85.4759 21.8C82.9799 23.656 80.4679 25.496 77.9399 27.32L74.1959 30.056ZM101.783 34.952H101.735L95.0631 33.56V3.032L95.1111 3.08V3.032C96.4871 2.584 99.3191 2.328 103.607 2.264C107.895 2.2 110.679 2.504 111.959 3.176C115.319 5.512 119.719 9.8 125.159 16.04C125.479 16.424 125.735 17.16 125.927 18.248C126.119 19.336 126.119 20.648 125.927 22.184C125.735 23.72 125.351 25.272 124.775 26.84C124.199 28.408 123.191 29.928 121.751 31.4C120.311 32.872 118.551 34.008 116.471 34.808C114.551 35.48 112.231 35.8 109.511 35.768C106.791 35.768 104.215 35.496 101.783 34.952ZM116.279 10.712C115.159 9.784 113.975 9.064 112.727 8.552C111.511 8.04 110.183 7.752 108.743 7.688C107.335 7.592 106.183 7.576 105.287 7.64C104.391 7.704 103.191 7.832 101.687 8.024L101.783 32.072C103.991 32.36 106.103 32.2 108.119 31.592C110.135 30.952 111.863 30.008 113.303 28.76C114.743 27.512 115.959 26.072 116.951 24.44C117.943 22.776 118.583 21.112 118.871 19.448C119.191 17.784 119.143 16.168 118.727 14.6C118.311 13.032 117.495 11.736 116.279 10.712ZM137.525 13.4V16.952C139.861 13.272 141.845 11.432 143.477 11.432C144.277 11.432 145.621 11.848 147.509 12.68C149.397 13.48 150.981 14.312 152.261 15.176L148.949 19.976C146.965 18.504 145.237 17.704 143.765 17.576C142.325 17.416 141.173 17.704 140.309 18.44C139.445 19.144 138.517 20.296 137.525 21.896V36.392L131.525 35.048V12.056L137.525 13.4ZM170.413 16.904C168.301 15.464 166.109 15.688 163.837 17.576C161.949 19.176 160.685 21.304 160.045 23.96C159.341 27 159.885 29.288 161.677 30.824C161.901 31.016 162.141 31.192 162.397 31.352C163.677 32.056 164.989 32.216 166.333 31.832C167.709 31.448 168.893 30.6 169.885 29.288C170.909 27.976 171.709 26.584 172.285 25.112C172.861 23.608 173.005 22.088 172.717 20.552C172.429 18.984 171.661 17.768 170.413 16.904ZM175.213 17.288C176.141 18.12 176.861 19.128 177.373 20.312C177.885 21.464 178.173 22.648 178.237 23.864C178.333 25.08 178.221 26.312 177.901 27.56C177.613 28.808 177.165 29.976 176.557 31.064C175.949 32.152 175.181 33.128 174.253 33.992C173.357 34.824 172.365 35.448 171.277 35.864C170.189 36.312 168.973 36.488 167.629 36.392C166.317 36.296 164.973 35.88 163.597 35.144C161.805 34.184 160.045 32.968 158.317 31.496C156.941 30.312 155.917 28.984 155.245 27.512C154.573 26.008 154.253 24.552 154.285 23.144C154.349 21.736 154.621 20.328 155.101 18.92C155.613 17.512 156.333 16.296 157.261 15.272C158.221 14.248 159.261 13.384 160.381 12.68C161.501 11.944 162.701 11.56 163.981 11.528C165.293 11.496 166.557 11.768 167.773 12.344C170.877 13.976 173.357 15.624 175.213 17.288ZM197.43 29C198.262 27.88 198.918 26.696 199.398 25.448C199.91 24.168 200.182 22.968 200.214 21.848C200.278 20.728 200.182 19.672 199.926 18.68C199.702 17.656 199.254 16.84 198.582 16.232C197.91 15.592 197.126 15.16 196.23 14.936C195.366 14.712 194.294 14.808 193.014 15.224C191.734 15.64 190.374 16.376 188.934 17.432L188.838 31.016C189.414 31.4 190.15 31.656 191.046 31.784C191.942 31.912 192.998 31.768 194.214 31.352C195.462 30.936 196.534 30.152 197.43 29ZM194.214 36.2C193.477 36.008 192.55 35.608 191.43 35C190.31 34.392 189.478 33.896 188.934 33.512V47.192L182.934 45.848C182.838 24.568 182.838 13.704 182.934 13.256C184.95 12.68 186.55 12.28 187.734 12.056C188.95 11.8 190.326 11.64 191.862 11.576C193.398 11.48 194.854 11.672 196.23 12.152C197.638 12.6 199.078 13.304 200.55 14.264C202.47 15.544 203.878 17.064 204.774 18.824C205.67 20.552 206.054 22.264 205.926 23.96C205.83 25.624 205.398 27.288 204.63 28.952C203.894 30.584 202.95 31.992 201.798 33.176C200.646 34.328 199.382 35.192 198.006 35.768C196.662 36.344 195.398 36.488 194.214 36.2Z" fill="white"/>
</svg>
