<svg width="773" height="180" viewBox="0 0 773 180" fill="none" xmlns="http://www.w3.org/2000/svg">
<g clip-path="url(#clip0)">
<path fill-rule="evenodd" clip-rule="evenodd" d="M107.003 83.584C107.125 113.538 106.951 111.448 109.801 117.262C121.446 141 157.64 133.34 159.107 106.834C159.351 101.88 158.184 96.9592 155.742 92.6436C153.299 88.3281 149.682 84.7957 145.312 82.4579C140.941 80.1202 135.996 79.0732 131.054 79.439C126.112 79.8048 121.375 81.5682 117.395 84.524L115.411 86.01L115.325 71.504L115.237 57H106.895L107.003 83.584ZM66.1488 58.336C62.2797 59.1919 58.6533 60.9099 55.5393 63.3622C52.4253 65.8144 49.9039 68.9378 48.1627 72.5C45.4348 78.1 45.3069 79.7 45.3009 108.584V132.334H53.6265V117.834C53.6265 109.858 53.7084 103.334 53.8083 103.334C54.4809 103.71 55.1213 104.141 55.7228 104.622C59.2006 107.298 63.2957 109.054 67.6302 109.728C71.9648 110.403 76.3994 109.974 80.5248 108.482C84.6503 106.99 88.3338 104.482 91.2357 101.19C94.1376 97.8973 96.1643 93.9268 97.129 89.6441C98.0936 85.3615 97.9651 80.9048 96.7554 76.6849C95.5456 72.4651 93.2935 68.6181 90.2069 65.4987C87.1202 62.3794 83.2983 60.0881 79.0937 58.8363C74.8891 57.5845 70.4373 57.4124 66.1488 58.336V58.336ZM75.7773 66.508C79.022 67.2837 81.9836 68.9562 84.3244 71.3349C86.6652 73.7137 88.2909 76.7028 89.0162 79.9615C89.7415 83.2202 89.5372 86.6173 88.4265 89.7654C87.3158 92.9135 85.3435 95.6859 82.7345 97.7665C80.1255 99.847 76.9848 101.152 73.6706 101.532C70.3564 101.913 67.002 101.354 63.9899 99.9186C60.9779 98.4835 58.4295 96.2301 56.6353 93.4155C54.8411 90.601 53.8733 87.3384 53.8423 84C53.803 81.2894 54.3849 78.6057 55.5433 76.1552C56.7017 73.7046 58.4057 71.5522 60.5246 69.8633C62.6435 68.1744 65.1209 66.9938 67.7667 66.4121C70.4124 65.8305 73.1562 65.8633 75.7873 66.508H75.7773ZM137.679 88.2C140.942 89.0653 143.892 90.8403 146.186 93.3183C148.479 95.7963 150.022 98.8754 150.635 102.197C151.248 105.519 150.906 108.946 149.648 112.081C148.39 115.215 146.268 117.927 143.53 119.902C140.791 121.876 137.548 123.032 134.179 123.233C130.81 123.435 127.453 122.675 124.499 121.041C121.544 119.407 119.115 116.967 117.492 114.005C115.87 111.043 115.122 107.681 115.335 104.31C115.488 101.675 116.227 99.1067 117.498 96.7931C118.768 94.4795 120.537 92.4784 122.678 90.9353C124.818 89.3922 127.275 88.3461 129.87 87.8729C132.465 87.3997 135.133 87.5115 137.679 88.2Z" fill="#FBFBFB"/>
<path fill-rule="evenodd" clip-rule="evenodd" d="M207.839 85.184C207.839 122.014 207.751 120.306 209.696 121.346C211.599 122.028 213.688 121.982 215.559 121.216C217.068 120.216 217.158 119.348 217.158 106.95V95.334H228.231C245.482 95.334 248.106 94.434 251.527 87.43L252.63 85.174V61.174L251.545 58.956C250.208 56.4126 248.182 54.2983 245.698 52.856C242.442 51.33 242.598 51.342 224.776 51.342H207.839V85.184ZM468.304 86.69V122.048L483.376 121.924L498.448 121.8L501.07 120.89C509.56 117.944 513.261 112.198 513.261 102C513.261 95.63 512.164 91.986 509.118 88.244L507.687 86.486L509.086 84.936C515.333 78.032 514.598 62.308 507.735 56.032C503.049 51.744 500.862 51.334 482.754 51.334H468.286V86.69H468.304ZM610.871 58.4C608.823 59.484 608.529 60.546 608.529 66.874V72.658L606.281 72.676C601.944 72.712 599.702 74.296 599.702 77.326C599.702 80.47 601.301 81.646 605.615 81.654H608.529V96.354C608.529 114.236 608.563 114.438 612.216 118.028C613.685 119.537 615.51 120.653 617.522 121.272C622.767 122.031 628.091 122.063 633.344 121.368C642.359 118.852 646.276 105.666 638.006 105.666C636.797 105.67 635.633 106.124 634.74 106.94C633.847 107.756 633.289 108.875 633.176 110.08C633.176 112.244 628.739 113.418 622.784 112.83C617.42 112.304 617.53 112.664 617.53 95.488V81.666H626.273C636.881 81.666 638.18 81.18 638.18 77.232C638.18 73.484 636.036 72.708 625.608 72.684L617.522 72.666V67.416C617.522 61.616 617.262 60.162 616.029 59.002C615.276 58.5063 614.418 58.1938 613.522 58.0896C612.627 57.9855 611.72 58.0924 610.873 58.402L610.871 58.4ZM240.848 61.202C243.288 62.18 243.464 62.986 243.474 73.228C243.484 86.738 244.599 85.776 228.741 85.928L217.168 86.036V60.666H228.319C237.922 60.666 239.66 60.744 240.848 61.218V61.202ZM497.711 61.158C505.399 63.492 506.478 77.042 499.282 80.878C498.23 81.438 497.111 81.51 487.874 81.602L477.632 81.702V60.666H486.875C493.988 60.666 496.486 60.782 497.711 61.154V61.158ZM276.564 73.154C274.194 74.184 274.302 73.136 274.19 96.154C274.064 121.798 274.004 121.374 277.797 121.874C282.629 122.51 282.925 121.64 283.063 106.336L283.177 93.836L289.66 88.502C297.718 81.87 297.79 81.83 301.451 81.854C306.145 81.886 307.758 83.086 307.768 86.558C307.78 91.08 311.075 93.82 314.529 92.18C318.222 90.426 317.614 81.314 313.499 76.78C310.66 73.644 307.704 72.676 300.983 72.676C294.616 72.676 293.737 73.056 286.72 78.854L283.291 81.686L283.091 78.844C282.731 73.716 280.255 71.558 276.572 73.164L276.564 73.154ZM352.044 73.178C347.312 75.2458 343.25 78.5932 340.315 82.844C339.174 84.936 338.994 109.444 340.103 111.914C342.658 115.623 345.932 118.781 349.729 121.2C351.612 122.21 378.307 122.158 380.038 121.14C381.01 120.484 381.703 119.488 381.979 118.348C382.255 117.207 382.095 116.005 381.531 114.976C380.589 113.158 379.932 113.066 366.5 112.926C352.411 112.778 353.111 112.926 350.145 109.614C348.446 107.72 348.396 107.614 348.396 105.662V103.662H363.802C383.877 103.662 382.188 104.728 381.978 92.178C381.816 82.47 381.653 82.086 375.543 77.166C373.486 75.1424 370.919 73.7156 368.115 73.038C362.763 72.5521 357.377 72.5943 352.034 73.164L352.044 73.178ZM406.851 73.13C404.317 74.25 404.531 71.352 404.431 106.05C404.331 140.354 404.231 138.732 406.451 139.88C407.304 140.209 408.219 140.343 409.13 140.272C410.041 140.201 410.924 139.927 411.715 139.47C413.066 138.25 413.172 137.47 413.346 127.33L413.514 117.496L416.042 119.878C419.839 123.452 420.385 123.662 425.938 123.662C431.804 123.662 431.134 123.962 438.661 118.044C446.924 111.552 447.32 110.654 447.32 98.418C447.32 86.182 446.81 84.818 440.243 79.792C438.365 78.358 436.626 76.992 436.376 76.744C435.026 75.3796 433.406 74.312 431.62 73.6091C429.834 72.9063 427.922 72.5837 426.004 72.662C421.224 72.662 419.505 73.488 414.513 78.182L413.514 79.122L413.33 77.642C412.841 73.674 410.039 71.722 406.851 73.13V73.13ZM536.921 73.264C535.016 74.196 534.62 75.464 534.602 80.664C534.584 85.562 534.686 85.992 537.074 91.164C537.72 92.564 538.249 93.764 538.249 93.826C538.249 93.94 540.004 97.808 541.427 100.826C541.857 101.742 542.594 103.354 543.062 104.408C543.529 105.462 544.295 107.188 544.764 108.242C545.234 109.296 545.963 110.908 546.401 111.826C546.839 112.744 547.488 114.2 547.858 115.064C548.785 117.24 549.605 118.014 551.207 118.23C552.886 118.456 553.006 117.842 550.208 123.608C548.907 126.294 547.542 129.13 547.175 129.908L546.507 131.326H542.862C536.531 131.326 534.59 132.382 534.59 135.826C534.59 139.558 536.267 140.32 544.477 140.324C552.984 140.324 552.233 141.028 558.406 127.324C559.747 124.346 560.476 122.748 562.902 117.49L564.901 113.156C567.451 107.624 568.024 106.378 568.726 104.824C569.791 102.47 571.444 98.888 572.723 96.156C573.322 94.874 574.619 92.098 575.597 89.99L577.373 86.156V80.976C577.373 74.642 576.374 72.662 573.122 72.658C569.763 72.658 568.556 74.488 568.556 79.602C568.816 81.6373 568.469 83.7042 567.557 85.542C567.007 86.73 566.558 87.756 566.558 87.82C566.558 87.884 565.808 89.536 564.893 91.49C563.978 93.444 563.226 95.09 563.226 95.16C563.226 95.28 561.891 98.254 560.228 101.824C558.23 106.126 557.543 107.656 557.231 108.474C557.169 108.724 557.024 108.945 556.818 109.1C556.613 109.255 556.361 109.334 556.104 109.324C555.27 109.324 555.184 109.188 552.98 104.324C552.524 103.324 551.625 101.366 550.982 99.99C549.139 96.036 547.936 93.408 546.325 89.824C545.502 87.99 544.545 85.9 544.197 85.178C543.609 83.6159 543.398 81.9372 543.579 80.278C543.579 73.852 541.087 71.228 536.921 73.268V73.264ZM677.812 73.13C675.115 74.0622 672.674 75.6152 670.687 77.664C664.836 82.74 664.716 83.192 664.878 99.426C665.013 113.176 664.652 112.104 671.097 117.876C675.851 122.136 674.366 121.834 690.468 121.834C707.243 121.834 707.802 121.686 707.782 117.26C707.764 113.288 707.031 113.084 692.38 112.942C678.345 112.806 678.897 112.906 676.193 110.038C675.467 109.413 674.88 108.642 674.47 107.776C674.06 106.91 673.836 105.968 673.813 105.01V103.666H689.317C709.501 103.666 707.618 104.76 707.618 93.024V85.152L706.547 82.972C705.366 80.572 704.749 79.938 700.182 76.41C695.836 73.052 695.222 72.89 686.469 72.788C683.578 72.6088 680.677 72.7234 677.809 73.13H677.812ZM739.941 73.18C736.344 74.17 732.773 77.026 732.265 79.338C732.201 79.7709 732.02 80.1782 731.742 80.516C730.109 81.526 731.846 89.462 734.2 91.754C735.599 93.116 736.69 93.754 741.426 95.926C742.625 96.474 744.64 97.41 745.923 98.006C747.206 98.602 748.855 99.348 749.586 99.67C763.435 105.726 764.804 106.81 763.269 110.488C762.334 112.726 761.767 112.834 750.919 112.828C740.421 112.828 739.78 112.716 737.959 110.7C737.448 110.247 736.847 109.907 736.196 109.702C735.545 109.497 734.858 109.43 734.18 109.507C733.502 109.585 732.847 109.803 732.259 110.15C731.671 110.496 731.161 110.962 730.765 111.518C728.864 114.596 731.304 118.256 737.046 120.944L738.936 121.828H750.427C762.468 121.828 763.583 121.722 766.531 120.256C773.571 116.752 775.284 105.48 769.622 99.91C768.155 98.2832 766.307 97.0462 764.245 96.31L758.555 93.66C756.98 92.928 755.641 92.328 755.581 92.328C755.521 92.328 754.336 91.802 752.949 91.16L747.867 88.81C746.468 88.158 744.548 87.308 743.621 86.922C741.388 85.99 740.435 85.098 740.435 83.944C740.435 82.052 741.336 81.84 749.872 81.722C759.646 81.586 761.333 81.844 763.775 83.848C768.911 88.064 775.046 82.098 770.298 77.504C765.486 72.852 764.742 72.662 751.427 72.704C747.594 72.532 743.754 72.6919 739.949 73.182L739.941 73.18ZM367.408 82.4C369.199 83.0336 370.726 84.25 371.745 85.8548C372.765 87.4595 373.217 89.3598 373.029 91.252L373.045 94.668H348.396V90.634C348.396 86.034 348.33 86.172 352.123 83.558C354.895 81.646 364.092 80.948 367.408 82.398V82.4ZM427.817 82.138C428.456 82.4082 429.051 82.7729 429.582 83.22C430.293 83.904 431.06 84.546 433.493 86.5C438.289 90.36 438.437 90.728 438.271 99.15C438.127 106.438 438.271 106.05 434.348 109.282C433.534 109.952 432.335 110.964 431.684 111.532C426.252 116.272 425.255 116.116 418.176 109.416C413.22 104.724 413.38 105.092 413.362 98.384C413.344 92.04 413.494 91.536 416.124 89.128C417.069 88.262 418.968 86.476 420.341 85.16C424.002 81.65 425.349 81.106 427.817 82.138V82.138ZM693.13 82.398C694.323 83.0864 695.428 83.9186 696.419 84.876L698.541 86.85L698.713 90.758L698.885 94.666H673.719L673.889 90.842C674.088 86.464 674.31 85.934 676.72 84.292C677.345 83.8939 677.936 83.445 678.487 82.95C679.36 81.68 690.516 81.26 693.13 82.398V82.398ZM499.491 92.448C505.117 95.57 505.625 107.448 500.277 110.834C497.865 112.36 495.577 112.656 486.208 112.662H477.63V91.29L487.707 91.394L497.781 91.5L499.491 92.448" fill="#4C8CEC"/>
<path fill-rule="evenodd" clip-rule="evenodd" d="M106.741 80.9998C106.741 94.2918 106.783 99.7298 106.833 93.0838C106.883 86.4378 106.885 75.5618 106.833 68.9158C106.781 62.2698 106.741 67.7158 106.741 80.9998ZM70.6952 66.2378C71.3036 66.3158 71.9194 66.3158 72.5278 66.2378C73.0314 66.1618 72.6177 66.0998 71.6105 66.0998C70.6033 66.0998 70.1916 66.1618 70.6952 66.2378ZM89.3488 83.8378C89.3488 84.5698 89.4208 84.8378 89.5007 84.4158C89.5821 83.9755 89.5821 83.524 89.5007 83.0838C89.4168 82.7638 89.3528 83.1038 89.3568 83.8378H89.3488ZM106.669 106.338C106.669 106.978 106.737 107.242 106.821 106.92C106.905 106.536 106.905 106.138 106.821 105.754C106.737 105.434 106.669 105.696 106.669 106.338ZM71.033 110.24C71.5851 110.318 72.1455 110.318 72.6977 110.24C73.1074 110.162 72.6977 110.098 71.7784 110.102C70.8591 110.106 70.5274 110.168 71.033 110.246" fill="#89B3F0"/>
<path fill-rule="evenodd" clip-rule="evenodd" d="M53.7164 84C53.7164 84.824 53.7804 85.162 53.8603 84.75C53.9402 84.2532 53.9402 83.7468 53.8603 83.25C53.7804 82.838 53.7164 83.174 53.7164 84ZM53.7784 117.834C53.7784 125.9 53.8223 129.152 53.8743 125.06C53.9263 120.968 53.9283 114.37 53.8743 110.394C53.8204 106.418 53.7784 109.766 53.7784 117.834ZM113.578 123.104C113.905 123.498 114.267 123.861 114.661 124.188L115.744 125.166L114.765 124.084C113.854 123.074 113.578 122.846 113.578 123.104Z" fill="#B4CCF4"/>
<path d="M89.9304 180C139.598 180 179.861 139.706 179.861 90C179.861 40.2944 139.598 0 89.9304 0C40.2632 0 0 40.2944 0 90C0 139.706 40.2632 180 89.9304 180Z" fill="#4B8CE8"/>
<path d="M89.9305 179C139.046 179 178.862 139.153 178.862 90C178.862 40.8467 139.046 1 89.9305 1C40.8151 1 0.999268 40.8467 0.999268 90C0.999268 139.153 40.8151 179 89.9305 179Z" stroke="#4B8CE8"/>
<path d="M65.949 97C77.538 97 86.9327 87.598 86.9327 76C86.9327 64.402 77.538 55 65.949 55C54.36 55 44.9652 64.402 44.9652 76C44.9652 87.598 54.36 97 65.949 97Z" stroke="white" stroke-width="3"/>
<path d="M119.907 77C108.318 77 98.9235 86.402 98.9235 98C98.9235 109.598 108.318 119 119.907 119C131.496 119 140.891 109.598 140.891 98C140.891 86.402 131.496 77 119.907 77Z" stroke="white" stroke-width="3"/>
<path d="M41.9675 76H47.9629V120C47.9629 120.53 47.7523 121.039 47.3776 121.414C47.0028 121.789 46.4945 122 45.9644 122H43.966C43.436 122 42.9276 121.789 42.5529 121.414C42.1781 121.039 41.9675 120.53 41.9675 120V76Z" fill="white"/>
<path d="M101.921 98H95.9258V54C95.9258 53.4696 96.1363 52.9609 96.5111 52.5858C96.8859 52.2107 97.3942 52 97.9242 52H99.9227C100.453 52 100.961 52.2107 101.336 52.5858C101.711 52.9609 101.921 53.4696 101.921 54V98Z" fill="white"/>
</g>
<defs>
<clipPath id="clip0">
<rect width="773" height="180" fill="white"/>
</clipPath>
</defs>
</svg>
