<svg width="160" height="48" viewBox="0 0 160 48" fill="none" xmlns="http://www.w3.org/2000/svg">
<rect width="160" height="48" rx="8" fill="#2D664C"/>
<path d="M34.6291 14.0012H23.6065V19.4272H23.7134C24.6615 18.3626 25.8299 18.2361 27.1101 18.3155C29.0008 18.4129 30.8445 19.4138 30.9681 22.5998V28.8912V28.896C30.9664 28.9586 30.9367 29.0181 30.8853 29.0617C30.8339 29.1054 30.7649 29.1298 30.6931 29.1297H28.6667C28.5947 29.1301 28.5254 29.1058 28.4738 29.0621C28.4221 29.0184 28.3921 28.9587 28.3903 28.896V22.7898C28.3903 21.304 27.833 20.194 26.14 20.194C24.908 20.194 23.6055 20.9369 23.6055 22.5018V28.8909V28.8957C23.604 28.9583 23.5743 29.0179 23.5228 29.0616C23.4714 29.1053 23.4023 29.1297 23.3305 29.1294H21.3064C21.2345 29.1297 21.1655 29.1053 21.114 29.0616C21.0626 29.0179 21.0329 28.9583 21.0313 28.8957V28.8909V14.0012H17.5261C17.1386 13.9865 16.7602 14.1064 16.4741 14.3346C16.188 14.5628 16.0174 14.8807 16 15.2183V32.7143C16.0142 33.059 16.1811 33.3855 16.4656 33.6253C16.7502 33.865 17.1303 33.9993 17.5261 34H34.6288C34.8166 33.9969 35.0018 33.9609 35.1733 33.894C35.3448 33.8271 35.4991 33.7308 35.6269 33.6107C35.7547 33.4907 35.8534 33.3495 35.9171 33.1954C35.9809 33.0414 36.0083 32.8778 35.9978 32.7143V15.2183C36.0071 15.0585 35.9782 14.8986 35.913 14.7489C35.8479 14.5992 35.7479 14.4629 35.6193 14.3486C35.4907 14.2342 35.3363 14.1443 35.1659 14.0846C34.9955 14.0248 34.8127 13.9964 34.6291 14.0012ZM32.1949 31.448H19.8026V30.3846H32.1949V31.448Z" fill="white"/>
<path d="M55.0551 28V19.6H57.9471C58.6111 19.6 59.1551 19.712 59.5791 19.936C60.0111 20.16 60.3311 20.464 60.5391 20.848C60.7471 21.224 60.8511 21.644 60.8511 22.108C60.8511 22.628 60.7111 23.1 60.4311 23.524C60.1591 23.948 59.7311 24.252 59.1471 24.436L60.9351 28H59.4591L57.8271 24.616H56.3271V28H55.0551ZM56.3271 23.656H57.8751C58.4511 23.656 58.8711 23.516 59.1351 23.236C59.4071 22.956 59.5431 22.592 59.5431 22.144C59.5431 21.696 59.4111 21.34 59.1471 21.076C58.8831 20.804 58.4551 20.668 57.8631 20.668H56.3271V23.656ZM64.7286 28.144C64.1446 28.144 63.6246 28.016 63.1686 27.76C62.7206 27.496 62.3686 27.132 62.1126 26.668C61.8566 26.204 61.7286 25.664 61.7286 25.048C61.7286 24.424 61.8526 23.876 62.1006 23.404C62.3566 22.932 62.7086 22.564 63.1566 22.3C63.6126 22.036 64.1406 21.904 64.7406 21.904C65.3246 21.904 65.8326 22.036 66.2646 22.3C66.6966 22.556 67.0326 22.9 67.2726 23.332C67.5126 23.764 67.6326 24.24 67.6326 24.76C67.6326 24.84 67.6286 24.928 67.6206 25.024C67.6206 25.112 67.6166 25.212 67.6086 25.324H62.9766C63.0166 25.9 63.2046 26.34 63.5406 26.644C63.8846 26.94 64.2806 27.088 64.7286 27.088C65.0886 27.088 65.3886 27.008 65.6286 26.848C65.8766 26.68 66.0606 26.456 66.1806 26.176H67.4526C67.2926 26.736 66.9726 27.204 66.4926 27.58C66.0206 27.956 65.4326 28.144 64.7286 28.144ZM64.7286 22.948C64.3046 22.948 63.9286 23.076 63.6006 23.332C63.2726 23.58 63.0726 23.956 63.0006 24.46H66.3606C66.3366 23.996 66.1726 23.628 65.8686 23.356C65.5646 23.084 65.1846 22.948 64.7286 22.948ZM71.3064 26.176C70.9944 26.176 70.7064 26.14 70.4424 26.068L69.9264 26.572C70.0144 26.628 70.1224 26.676 70.2504 26.716C70.3784 26.756 70.5584 26.792 70.7904 26.824C71.0224 26.856 71.3384 26.888 71.7384 26.92C72.5304 26.992 73.1024 27.184 73.4544 27.496C73.8064 27.8 73.9824 28.208 73.9824 28.72C73.9824 29.072 73.8864 29.404 73.6944 29.716C73.5104 30.036 73.2184 30.292 72.8184 30.484C72.4264 30.684 71.9224 30.784 71.3064 30.784C70.4744 30.784 69.7984 30.624 69.2784 30.304C68.7664 29.992 68.5104 29.516 68.5104 28.876C68.5104 28.628 68.5744 28.38 68.7024 28.132C68.8384 27.892 69.0504 27.664 69.3384 27.448C69.1704 27.376 69.0224 27.3 68.8944 27.22C68.7744 27.132 68.6664 27.044 68.5704 26.956V26.668L69.6024 25.612C69.1384 25.212 68.9064 24.688 68.9064 24.04C68.9064 23.648 68.9984 23.292 69.1824 22.972C69.3744 22.644 69.6504 22.384 70.0104 22.192C70.3704 22 70.8024 21.904 71.3064 21.904C71.6424 21.904 71.9544 21.952 72.2424 22.048H74.4624V22.888L73.4064 22.948C73.5984 23.276 73.6944 23.64 73.6944 24.04C73.6944 24.44 73.5984 24.8 73.4064 25.12C73.2224 25.44 72.9504 25.696 72.5904 25.888C72.2384 26.08 71.8104 26.176 71.3064 26.176ZM71.3064 25.18C71.6744 25.18 71.9704 25.084 72.1944 24.892C72.4264 24.692 72.5424 24.412 72.5424 24.052C72.5424 23.684 72.4264 23.404 72.1944 23.212C71.9704 23.02 71.6744 22.924 71.3064 22.924C70.9304 22.924 70.6264 23.02 70.3944 23.212C70.1704 23.404 70.0584 23.684 70.0584 24.052C70.0584 24.412 70.1704 24.692 70.3944 24.892C70.6264 25.084 70.9304 25.18 71.3064 25.18ZM69.7104 28.756C69.7104 29.1 69.8624 29.356 70.1664 29.524C70.4704 29.7 70.8504 29.788 71.3064 29.788C71.7464 29.788 72.1024 29.692 72.3744 29.5C72.6464 29.316 72.7824 29.068 72.7824 28.756C72.7824 28.524 72.6904 28.324 72.5064 28.156C72.3224 27.996 71.9744 27.896 71.4624 27.856C71.0784 27.832 70.7384 27.796 70.4424 27.748C70.1624 27.9 69.9704 28.064 69.8664 28.24C69.7624 28.416 69.7104 28.588 69.7104 28.756ZM76.317 20.92C76.077 20.92 75.877 20.848 75.717 20.704C75.565 20.552 75.489 20.364 75.489 20.14C75.489 19.916 75.565 19.732 75.717 19.588C75.877 19.436 76.077 19.36 76.317 19.36C76.557 19.36 76.753 19.436 76.905 19.588C77.065 19.732 77.145 19.916 77.145 20.14C77.145 20.364 77.065 20.552 76.905 20.704C76.753 20.848 76.557 20.92 76.317 20.92ZM75.681 28V22.048H76.953V28H75.681ZM81.0081 28.144C80.2561 28.144 79.6361 27.96 79.1481 27.592C78.6601 27.224 78.3801 26.736 78.3081 26.128H79.5921C79.6561 26.4 79.8081 26.636 80.0481 26.836C80.2881 27.028 80.6041 27.124 80.9961 27.124C81.3801 27.124 81.6601 27.044 81.8361 26.884C82.0121 26.724 82.1001 26.54 82.1001 26.332C82.1001 26.028 81.9761 25.824 81.7281 25.72C81.4881 25.608 81.1521 25.508 80.7201 25.42C80.3841 25.348 80.0481 25.252 79.7121 25.132C79.3841 25.012 79.1081 24.844 78.8841 24.628C78.6681 24.404 78.5601 24.104 78.5601 23.728C78.5601 23.208 78.7601 22.776 79.1601 22.432C79.5601 22.08 80.1201 21.904 80.8401 21.904C81.5041 21.904 82.0401 22.064 82.4481 22.384C82.8641 22.704 83.1081 23.156 83.1801 23.74H81.9561C81.9161 23.484 81.7961 23.284 81.5961 23.14C81.4041 22.996 81.1441 22.924 80.8161 22.924C80.4961 22.924 80.2481 22.992 80.0721 23.128C79.8961 23.256 79.8081 23.424 79.8081 23.632C79.8081 23.84 79.9281 24.004 80.1681 24.124C80.4161 24.244 80.7401 24.352 81.1401 24.448C81.5401 24.536 81.9081 24.64 82.2441 24.76C82.5881 24.872 82.8641 25.04 83.0721 25.264C83.2801 25.488 83.3841 25.816 83.3841 26.248C83.3921 26.792 83.1801 27.244 82.7481 27.604C82.3241 27.964 81.7441 28.144 81.0081 28.144ZM87.0461 28C86.4621 28 85.9981 27.86 85.6541 27.58C85.3101 27.292 85.1381 26.784 85.1381 26.056V23.116H84.1181V22.048H85.1381L85.2941 20.536H86.4101V22.048H88.0901V23.116H86.4101V26.056C86.4101 26.384 86.4781 26.612 86.6141 26.74C86.7581 26.86 87.0021 26.92 87.3461 26.92H88.0301V28H87.0461ZM92.0333 28.144C91.4493 28.144 90.9293 28.016 90.4733 27.76C90.0253 27.496 89.6733 27.132 89.4173 26.668C89.1613 26.204 89.0333 25.664 89.0333 25.048C89.0333 24.424 89.1573 23.876 89.4053 23.404C89.6613 22.932 90.0133 22.564 90.4613 22.3C90.9173 22.036 91.4453 21.904 92.0453 21.904C92.6293 21.904 93.1373 22.036 93.5693 22.3C94.0013 22.556 94.3373 22.9 94.5773 23.332C94.8173 23.764 94.9373 24.24 94.9373 24.76C94.9373 24.84 94.9333 24.928 94.9253 25.024C94.9253 25.112 94.9213 25.212 94.9133 25.324H90.2813C90.3213 25.9 90.5093 26.34 90.8453 26.644C91.1893 26.94 91.5853 27.088 92.0333 27.088C92.3933 27.088 92.6933 27.008 92.9333 26.848C93.1813 26.68 93.3653 26.456 93.4853 26.176H94.7573C94.5973 26.736 94.2773 27.204 93.7973 27.58C93.3253 27.956 92.7373 28.144 92.0333 28.144ZM92.0333 22.948C91.6093 22.948 91.2333 23.076 90.9053 23.332C90.5773 23.58 90.3773 23.956 90.3053 24.46H93.6653C93.6413 23.996 93.4773 23.628 93.1733 23.356C92.8693 23.084 92.4893 22.948 92.0333 22.948ZM96.2571 28V22.048H97.3971L97.5051 23.176C97.7131 22.784 98.0011 22.476 98.3691 22.252C98.7451 22.02 99.1971 21.904 99.7251 21.904V23.236H99.3771C99.0251 23.236 98.7091 23.296 98.4291 23.416C98.1571 23.528 97.9371 23.724 97.7691 24.004C97.6091 24.276 97.5291 24.656 97.5291 25.144V28H96.2571ZM103.887 28V19.6H105.159L109.371 25.924V19.6H110.643V28H109.371L105.159 21.676V28H103.887ZM115.084 28.144C114.516 28.144 114.004 28.016 113.548 27.76C113.1 27.496 112.744 27.132 112.48 26.668C112.216 26.196 112.084 25.648 112.084 25.024C112.084 24.4 112.216 23.856 112.48 23.392C112.752 22.92 113.116 22.556 113.572 22.3C114.028 22.036 114.536 21.904 115.096 21.904C115.664 21.904 116.172 22.036 116.62 22.3C117.076 22.556 117.436 22.92 117.7 23.392C117.972 23.856 118.108 24.4 118.108 25.024C118.108 25.648 117.972 26.196 117.7 26.668C117.436 27.132 117.076 27.496 116.62 27.76C116.164 28.016 115.652 28.144 115.084 28.144ZM115.084 27.052C115.388 27.052 115.668 26.976 115.924 26.824C116.188 26.672 116.4 26.448 116.56 26.152C116.72 25.848 116.8 25.472 116.8 25.024C116.8 24.576 116.72 24.204 116.56 23.908C116.408 23.604 116.2 23.376 115.936 23.224C115.68 23.072 115.4 22.996 115.096 22.996C114.792 22.996 114.508 23.072 114.244 23.224C113.988 23.376 113.78 23.604 113.62 23.908C113.46 24.204 113.38 24.576 113.38 25.024C113.38 25.472 113.46 25.848 113.62 26.152C113.78 26.448 113.988 26.672 114.244 26.824C114.5 26.976 114.78 27.052 115.084 27.052ZM120.449 28L118.697 22.048H119.969L121.121 26.536L122.417 22.048H123.833L125.129 26.536L126.281 22.048H127.553L125.801 28H124.493L123.125 23.32L121.757 28H120.449Z" fill="white"/>
</svg>
