<svg width="122" height="40" viewBox="0 0 122 40" fill="none" xmlns="http://www.w3.org/2000/svg">
<path d="M0 8C0 3.58172 3.58172 0 8 0H114C118.418 0 122 3.58172 122 8V32C122 36.4183 118.418 40 114 40H8C3.58172 40 0 36.4183 0 32V8Z" fill="#48BA86" fill-opacity="0.25"/>
<path d="M16.852 24V15.6H19.744C20.408 15.6 20.952 15.712 21.376 15.936C21.808 16.16 22.128 16.464 22.336 16.848C22.544 17.224 22.648 17.644 22.648 18.108C22.648 18.628 22.508 19.1 22.228 19.524C21.956 19.948 21.528 20.252 20.944 20.436L22.732 24H21.256L19.624 20.616H18.124V24H16.852ZM18.124 19.656H19.672C20.248 19.656 20.668 19.516 20.932 19.236C21.204 18.956 21.34 18.592 21.34 18.144C21.34 17.696 21.208 17.34 20.944 17.076C20.68 16.804 20.252 16.668 19.66 16.668H18.124V19.656ZM26.5255 24.144C25.9415 24.144 25.4215 24.016 24.9655 23.76C24.5175 23.496 24.1655 23.132 23.9095 22.668C23.6535 22.204 23.5255 21.664 23.5255 21.048C23.5255 20.424 23.6495 19.876 23.8975 19.404C24.1535 18.932 24.5055 18.564 24.9535 18.3C25.4095 18.036 25.9375 17.904 26.5375 17.904C27.1215 17.904 27.6295 18.036 28.0615 18.3C28.4935 18.556 28.8295 18.9 29.0695 19.332C29.3095 19.764 29.4295 20.24 29.4295 20.76C29.4295 20.84 29.4255 20.928 29.4175 21.024C29.4175 21.112 29.4135 21.212 29.4055 21.324H24.7735C24.8135 21.9 25.0015 22.34 25.3375 22.644C25.6815 22.94 26.0775 23.088 26.5255 23.088C26.8855 23.088 27.1855 23.008 27.4255 22.848C27.6735 22.68 27.8575 22.456 27.9775 22.176H29.2495C29.0895 22.736 28.7695 23.204 28.2895 23.58C27.8175 23.956 27.2295 24.144 26.5255 24.144ZM26.5255 18.948C26.1015 18.948 25.7255 19.076 25.3975 19.332C25.0695 19.58 24.8695 19.956 24.7975 20.46H28.1575C28.1335 19.996 27.9695 19.628 27.6655 19.356C27.3615 19.084 26.9815 18.948 26.5255 18.948ZM33.1033 22.176C32.7913 22.176 32.5033 22.14 32.2393 22.068L31.7233 22.572C31.8113 22.628 31.9193 22.676 32.0473 22.716C32.1753 22.756 32.3553 22.792 32.5873 22.824C32.8193 22.856 33.1353 22.888 33.5353 22.92C34.3273 22.992 34.8993 23.184 35.2513 23.496C35.6033 23.8 35.7793 24.208 35.7793 24.72C35.7793 25.072 35.6833 25.404 35.4913 25.716C35.3073 26.036 35.0153 26.292 34.6153 26.484C34.2233 26.684 33.7193 26.784 33.1033 26.784C32.2713 26.784 31.5953 26.624 31.0753 26.304C30.5633 25.992 30.3073 25.516 30.3073 24.876C30.3073 24.628 30.3713 24.38 30.4993 24.132C30.6353 23.892 30.8473 23.664 31.1353 23.448C30.9673 23.376 30.8193 23.3 30.6913 23.22C30.5713 23.132 30.4633 23.044 30.3673 22.956V22.668L31.3993 21.612C30.9353 21.212 30.7033 20.688 30.7033 20.04C30.7033 19.648 30.7953 19.292 30.9793 18.972C31.1713 18.644 31.4473 18.384 31.8073 18.192C32.1673 18 32.5993 17.904 33.1033 17.904C33.4393 17.904 33.7513 17.952 34.0393 18.048H36.2593V18.888L35.2033 18.948C35.3953 19.276 35.4913 19.64 35.4913 20.04C35.4913 20.44 35.3953 20.8 35.2033 21.12C35.0193 21.44 34.7473 21.696 34.3873 21.888C34.0353 22.08 33.6073 22.176 33.1033 22.176ZM33.1033 21.18C33.4713 21.18 33.7673 21.084 33.9913 20.892C34.2233 20.692 34.3393 20.412 34.3393 20.052C34.3393 19.684 34.2233 19.404 33.9913 19.212C33.7673 19.02 33.4713 18.924 33.1033 18.924C32.7273 18.924 32.4233 19.02 32.1913 19.212C31.9673 19.404 31.8553 19.684 31.8553 20.052C31.8553 20.412 31.9673 20.692 32.1913 20.892C32.4233 21.084 32.7273 21.18 33.1033 21.18ZM31.5073 24.756C31.5073 25.1 31.6593 25.356 31.9633 25.524C32.2673 25.7 32.6473 25.788 33.1033 25.788C33.5433 25.788 33.8993 25.692 34.1713 25.5C34.4433 25.316 34.5793 25.068 34.5793 24.756C34.5793 24.524 34.4873 24.324 34.3033 24.156C34.1193 23.996 33.7713 23.896 33.2593 23.856C32.8753 23.832 32.5353 23.796 32.2393 23.748C31.9593 23.9 31.7673 24.064 31.6633 24.24C31.5593 24.416 31.5073 24.588 31.5073 24.756ZM38.1138 16.92C37.8738 16.92 37.6738 16.848 37.5138 16.704C37.3618 16.552 37.2858 16.364 37.2858 16.14C37.2858 15.916 37.3618 15.732 37.5138 15.588C37.6738 15.436 37.8738 15.36 38.1138 15.36C38.3538 15.36 38.5498 15.436 38.7018 15.588C38.8618 15.732 38.9418 15.916 38.9418 16.14C38.9418 16.364 38.8618 16.552 38.7018 16.704C38.5498 16.848 38.3538 16.92 38.1138 16.92ZM37.4778 24V18.048H38.7498V24H37.4778ZM42.805 24.144C42.053 24.144 41.433 23.96 40.945 23.592C40.457 23.224 40.177 22.736 40.105 22.128H41.389C41.453 22.4 41.605 22.636 41.845 22.836C42.085 23.028 42.401 23.124 42.793 23.124C43.177 23.124 43.457 23.044 43.633 22.884C43.809 22.724 43.897 22.54 43.897 22.332C43.897 22.028 43.773 21.824 43.525 21.72C43.285 21.608 42.949 21.508 42.517 21.42C42.181 21.348 41.845 21.252 41.509 21.132C41.181 21.012 40.905 20.844 40.681 20.628C40.465 20.404 40.357 20.104 40.357 19.728C40.357 19.208 40.557 18.776 40.957 18.432C41.357 18.08 41.917 17.904 42.637 17.904C43.301 17.904 43.837 18.064 44.245 18.384C44.661 18.704 44.905 19.156 44.977 19.74H43.753C43.713 19.484 43.593 19.284 43.393 19.14C43.201 18.996 42.941 18.924 42.613 18.924C42.293 18.924 42.045 18.992 41.869 19.128C41.693 19.256 41.605 19.424 41.605 19.632C41.605 19.84 41.725 20.004 41.965 20.124C42.213 20.244 42.537 20.352 42.937 20.448C43.337 20.536 43.705 20.64 44.041 20.76C44.385 20.872 44.661 21.04 44.869 21.264C45.077 21.488 45.181 21.816 45.181 22.248C45.189 22.792 44.977 23.244 44.545 23.604C44.121 23.964 43.541 24.144 42.805 24.144ZM48.843 24C48.259 24 47.795 23.86 47.451 23.58C47.107 23.292 46.935 22.784 46.935 22.056V19.116H45.915V18.048H46.935L47.091 16.536H48.207V18.048H49.887V19.116H48.207V22.056C48.207 22.384 48.275 22.612 48.411 22.74C48.555 22.86 48.799 22.92 49.143 22.92H49.827V24H48.843ZM53.8302 24.144C53.2462 24.144 52.7262 24.016 52.2702 23.76C51.8222 23.496 51.4702 23.132 51.2142 22.668C50.9582 22.204 50.8302 21.664 50.8302 21.048C50.8302 20.424 50.9542 19.876 51.2022 19.404C51.4582 18.932 51.8102 18.564 52.2582 18.3C52.7142 18.036 53.2422 17.904 53.8422 17.904C54.4262 17.904 54.9342 18.036 55.3662 18.3C55.7982 18.556 56.1342 18.9 56.3742 19.332C56.6142 19.764 56.7342 20.24 56.7342 20.76C56.7342 20.84 56.7302 20.928 56.7222 21.024C56.7222 21.112 56.7182 21.212 56.7102 21.324H52.0782C52.1182 21.9 52.3062 22.34 52.6422 22.644C52.9862 22.94 53.3822 23.088 53.8302 23.088C54.1902 23.088 54.4902 23.008 54.7302 22.848C54.9782 22.68 55.1622 22.456 55.2822 22.176H56.5542C56.3942 22.736 56.0742 23.204 55.5942 23.58C55.1222 23.956 54.5342 24.144 53.8302 24.144ZM53.8302 18.948C53.4062 18.948 53.0302 19.076 52.7022 19.332C52.3742 19.58 52.1742 19.956 52.1022 20.46H55.4622C55.4382 19.996 55.2742 19.628 54.9702 19.356C54.6662 19.084 54.2862 18.948 53.8302 18.948ZM58.054 24V18.048H59.194L59.302 19.176C59.51 18.784 59.798 18.476 60.166 18.252C60.542 18.02 60.994 17.904 61.522 17.904V19.236H61.174C60.822 19.236 60.506 19.296 60.226 19.416C59.954 19.528 59.734 19.724 59.566 20.004C59.406 20.276 59.326 20.656 59.326 21.144V24H58.054ZM65.684 24V15.6H66.956L71.168 21.924V15.6H72.44V24H71.168L66.956 17.676V24H65.684ZM76.881 24.144C76.313 24.144 75.801 24.016 75.345 23.76C74.897 23.496 74.541 23.132 74.277 22.668C74.013 22.196 73.881 21.648 73.881 21.024C73.881 20.4 74.013 19.856 74.277 19.392C74.549 18.92 74.913 18.556 75.369 18.3C75.825 18.036 76.333 17.904 76.893 17.904C77.461 17.904 77.969 18.036 78.417 18.3C78.873 18.556 79.233 18.92 79.497 19.392C79.769 19.856 79.905 20.4 79.905 21.024C79.905 21.648 79.769 22.196 79.497 22.668C79.233 23.132 78.873 23.496 78.417 23.76C77.961 24.016 77.449 24.144 76.881 24.144ZM76.881 23.052C77.185 23.052 77.465 22.976 77.721 22.824C77.985 22.672 78.197 22.448 78.357 22.152C78.517 21.848 78.597 21.472 78.597 21.024C78.597 20.576 78.517 20.204 78.357 19.908C78.205 19.604 77.997 19.376 77.733 19.224C77.477 19.072 77.197 18.996 76.893 18.996C76.589 18.996 76.305 19.072 76.041 19.224C75.785 19.376 75.577 19.604 75.417 19.908C75.257 20.204 75.177 20.576 75.177 21.024C75.177 21.472 75.257 21.848 75.417 22.152C75.577 22.448 75.785 22.672 76.041 22.824C76.297 22.976 76.577 23.052 76.881 23.052ZM82.2459 24L80.4939 18.048H81.7659L82.9179 22.536L84.2139 18.048H85.6299L86.9259 22.536L88.0779 18.048H89.3499L87.5979 24H86.2899L84.9219 19.32L83.5539 24H82.2459Z" fill="white"/>
<path d="M98.8 20L96.2872 17.264C96.1841 17.1599 96.1263 17.0193 96.1263 16.8728C96.1263 16.7263 96.1841 16.5857 96.2872 16.4816C96.3378 16.4302 96.3981 16.3894 96.4647 16.3615C96.5312 16.3337 96.6026 16.3193 96.6748 16.3193C96.7469 16.3193 96.8183 16.3337 96.8849 16.3615C96.9514 16.3894 97.0118 16.4302 97.0624 16.4816L100.126 19.608C100.229 19.7123 100.287 19.853 100.287 19.9996C100.287 20.1462 100.229 20.2869 100.126 20.3912L97.0624 23.5176C97.0118 23.569 96.9514 23.6098 96.8849 23.6377C96.8183 23.6655 96.7469 23.6799 96.6748 23.6799C96.6026 23.6799 96.5312 23.6655 96.4647 23.6377C96.3981 23.6098 96.3378 23.569 96.2872 23.5176C96.1841 23.4135 96.1263 23.2729 96.1263 23.1264C96.1263 22.9799 96.1841 22.8393 96.2872 22.7352L98.8 20Z" fill="white"/>
</svg>
