<svg width="62" height="24" viewBox="0 0 62 24" fill="none" xmlns="http://www.w3.org/2000/svg">
<path d="M0.472687 5.0625C0.472687 2.52544 2.52938 0.46875 5.06644 0.46875H57.2539C59.791 0.46875 61.8477 2.52544 61.8477 5.0625V18.6563C61.8477 21.1933 59.791 23.25 57.2539 23.25H5.06643C2.52938 23.25 0.472687 21.1933 0.472687 18.6563V5.0625Z" fill="#48BA86" fill-opacity="0.5"/>
<path d="M12.2993 14.4421C11.8215 14.4421 11.4081 14.3387 11.059 14.132C10.7145 13.9207 10.448 13.629 10.2597 13.2569C10.0713 12.8802 9.97716 12.4461 9.97716 11.9545C9.97716 11.4584 10.0713 11.0243 10.2597 10.6522C10.448 10.2755 10.7145 9.98153 11.059 9.77022C11.4081 9.55891 11.8215 9.45325 12.2993 9.45325C12.8643 9.45325 13.326 9.59106 13.6843 9.86669C14.0426 10.1423 14.27 10.5282 14.3665 11.0243H13.5534C13.4891 10.7441 13.3513 10.5213 13.14 10.3559C12.9286 10.1905 12.6461 10.1079 12.2924 10.1079C11.8101 10.1079 11.4288 10.2732 11.1486 10.604C10.8683 10.9301 10.7282 11.3803 10.7282 11.9545C10.7282 12.5242 10.8683 12.9721 11.1486 13.2982C11.4288 13.6244 11.8101 13.7875 12.2924 13.7875C12.6461 13.7875 12.9286 13.7094 13.14 13.5532C13.3513 13.397 13.4891 13.1834 13.5534 12.9123H14.3665C14.27 13.3901 14.0426 13.7645 13.6843 14.0355C13.326 14.3065 12.8643 14.4421 12.2993 14.4421ZM16.7404 14.4421C16.4143 14.4421 16.1203 14.3686 15.8584 14.2216C15.6012 14.07 15.3967 13.861 15.2451 13.5945C15.0936 13.3235 15.0178 13.0088 15.0178 12.6505C15.0178 12.2922 15.0936 11.9798 15.2451 11.7134C15.4013 11.4423 15.6103 11.2333 15.8722 11.0863C16.134 10.9347 16.4257 10.8589 16.7473 10.8589C17.0735 10.8589 17.3652 10.9347 17.6224 11.0863C17.8843 11.2333 18.091 11.4423 18.2426 11.7134C18.3988 11.9798 18.4769 12.2922 18.4769 12.6505C18.4769 13.0088 18.3988 13.3235 18.2426 13.5945C18.091 13.861 17.8843 14.07 17.6224 14.2216C17.3606 14.3686 17.0666 14.4421 16.7404 14.4421ZM16.7404 13.815C16.915 13.815 17.0758 13.7714 17.2228 13.6841C17.3744 13.5968 17.4961 13.4682 17.588 13.2982C17.6798 13.1237 17.7258 12.9077 17.7258 12.6505C17.7258 12.3932 17.6798 12.1796 17.588 12.0097C17.5007 11.8351 17.3812 11.7042 17.2296 11.6169C17.0826 11.5296 16.9219 11.486 16.7473 11.486C16.5727 11.486 16.4097 11.5296 16.2581 11.6169C16.1111 11.7042 15.9916 11.8351 15.8998 12.0097C15.8079 12.1796 15.7619 12.3932 15.7619 12.6505C15.7619 12.9077 15.8079 13.1237 15.8998 13.2982C15.9916 13.4682 16.1111 13.5968 16.2581 13.6841C16.4051 13.7714 16.5658 13.815 16.7404 13.815ZM19.2667 14.3594V10.9416H19.9145L19.9765 11.424C20.0867 11.2494 20.2314 11.1116 20.4106 11.0105C20.5943 10.9095 20.8056 10.8589 21.0445 10.8589C21.5866 10.8589 21.9633 11.0725 22.1746 11.4998C22.2986 11.3022 22.464 11.146 22.6707 11.0312C22.882 10.9164 23.1094 10.8589 23.3529 10.8589C23.7801 10.8589 24.1154 10.9876 24.3589 11.2448C24.6024 11.5021 24.7241 11.8856 24.7241 12.3955V14.3594H23.9937V12.4713C23.9937 11.8098 23.7411 11.4791 23.2357 11.4791C22.9785 11.4791 22.7672 11.5756 22.6018 11.7685C22.441 11.9614 22.3606 12.2371 22.3606 12.5954V14.3594H21.6302V12.4713C21.6302 11.8098 21.3753 11.4791 20.8654 11.4791C20.6127 11.4791 20.4037 11.5756 20.2383 11.7685C20.0775 11.9614 19.9971 12.2371 19.9971 12.5954V14.3594H19.2667ZM25.9921 10.2939C25.8543 10.2939 25.7394 10.2526 25.6476 10.1699C25.5603 10.0826 25.5166 9.97464 25.5166 9.84601C25.5166 9.71739 25.5603 9.61173 25.6476 9.52905C25.7394 9.44176 25.8543 9.39812 25.9921 9.39812C26.1299 9.39812 26.2425 9.44176 26.3297 9.52905C26.4216 9.61173 26.4676 9.71739 26.4676 9.84601C26.4676 9.97464 26.4216 10.0826 26.3297 10.1699C26.2425 10.2526 26.1299 10.2939 25.9921 10.2939ZM25.6269 14.3594V10.9416H26.3573V14.3594H25.6269ZM27.3215 14.3594V10.9416H27.9692L28.0244 11.5411C28.13 11.3298 28.2839 11.1644 28.486 11.045C28.6927 10.921 28.9293 10.8589 29.1958 10.8589C29.6092 10.8589 29.9331 10.9876 30.1673 11.2448C30.4062 11.5021 30.5256 11.8856 30.5256 12.3955V14.3594H29.8021V12.4713C29.8021 11.8098 29.5311 11.4791 28.989 11.4791C28.718 11.4791 28.4929 11.5756 28.3138 11.7685C28.1392 11.9614 28.0519 12.2371 28.0519 12.5954V14.3594H27.3215ZM32.7847 13.312C32.6055 13.312 32.4402 13.2913 32.2886 13.25L31.9923 13.5394C32.0428 13.5715 32.1048 13.5991 32.1783 13.6221C32.2518 13.645 32.3552 13.6657 32.4884 13.6841C32.6216 13.7025 32.8031 13.7208 33.0328 13.7392C33.4875 13.7806 33.816 13.8908 34.0181 14.07C34.2202 14.2445 34.3213 14.4788 34.3213 14.7728C34.3213 14.9749 34.2662 15.1656 34.1559 15.3447C34.0503 15.5285 33.8826 15.6755 33.6529 15.7857C33.4278 15.9006 33.1384 15.958 32.7847 15.958C32.3069 15.958 31.9188 15.8661 31.6202 15.6824C31.3262 15.5032 31.1792 15.2299 31.1792 14.8624C31.1792 14.72 31.2159 14.5776 31.2894 14.4352C31.3675 14.2974 31.4893 14.1664 31.6546 14.0424C31.5582 14.0011 31.4732 13.9574 31.3997 13.9115C31.3308 13.861 31.2688 13.8104 31.2136 13.7599V13.5945L31.8062 12.9881C31.5398 12.7585 31.4066 12.4576 31.4066 12.0855C31.4066 11.8604 31.4594 11.656 31.5651 11.4722C31.6753 11.2839 31.8338 11.1346 32.0405 11.0243C32.2472 10.9141 32.4953 10.8589 32.7847 10.8589C32.9776 10.8589 33.1568 10.8865 33.3222 10.9416H34.5969V11.424L33.9906 11.4584C34.1008 11.6468 34.1559 11.8558 34.1559 12.0855C34.1559 12.3152 34.1008 12.5219 33.9906 12.7056C33.8849 12.8894 33.7287 13.0364 33.522 13.1466C33.3199 13.2569 33.0741 13.312 32.7847 13.312ZM32.7847 12.7401C32.996 12.7401 33.166 12.685 33.2946 12.5747C33.4278 12.4599 33.4944 12.2991 33.4944 12.0924C33.4944 11.881 33.4278 11.7203 33.2946 11.61C33.166 11.4998 32.996 11.4446 32.7847 11.4446C32.5688 11.4446 32.3942 11.4998 32.261 11.61C32.1324 11.7203 32.0681 11.881 32.0681 12.0924C32.0681 12.2991 32.1324 12.4599 32.261 12.5747C32.3942 12.685 32.5688 12.7401 32.7847 12.7401ZM31.8682 14.7935C31.8682 14.991 31.9555 15.138 32.1301 15.2345C32.3046 15.3355 32.5229 15.3861 32.7847 15.3861C33.0374 15.3861 33.2418 15.331 33.398 15.2207C33.5541 15.115 33.6322 14.9726 33.6322 14.7935C33.6322 14.6603 33.5794 14.5454 33.4738 14.449C33.3681 14.3571 33.1683 14.2997 32.8743 14.2767C32.6538 14.2629 32.4585 14.2422 32.2886 14.2147C32.1278 14.302 32.0175 14.3961 31.9578 14.4972C31.8981 14.5983 31.8682 14.697 31.8682 14.7935ZM38.3489 14.4421C37.9171 14.4421 37.561 14.3364 37.2808 14.1251C37.0006 13.9138 36.8398 13.6336 36.7985 13.2844H37.5358C37.5725 13.4406 37.6598 13.5761 37.7976 13.691C37.9354 13.8012 38.1169 13.8564 38.342 13.8564C38.5625 13.8564 38.7233 13.8104 38.8243 13.7185C38.9254 13.6267 38.9759 13.521 38.9759 13.4016C38.9759 13.227 38.9047 13.1099 38.7623 13.0502C38.6245 12.9858 38.4316 12.9284 38.1835 12.8779C37.9906 12.8365 37.7976 12.7814 37.6047 12.7125C37.4163 12.6436 37.2579 12.5471 37.1292 12.4231C37.0052 12.2945 36.9432 12.1222 36.9432 11.9063C36.9432 11.6077 37.058 11.3597 37.2877 11.1621C37.5174 10.96 37.839 10.8589 38.2524 10.8589C38.6337 10.8589 38.9415 10.9508 39.1758 11.1346C39.4146 11.3183 39.5547 11.5779 39.5961 11.9132H38.8932C38.8703 11.7662 38.8014 11.6514 38.6865 11.5687C38.5763 11.486 38.427 11.4446 38.2386 11.4446C38.0549 11.4446 37.9125 11.4837 37.8114 11.5618C37.7103 11.6353 37.6598 11.7317 37.6598 11.8512C37.6598 11.9706 37.7287 12.0648 37.8665 12.1337C38.0089 12.2026 38.195 12.2646 38.4247 12.3197C38.6544 12.3703 38.8657 12.43 39.0586 12.4989C39.2561 12.5632 39.4146 12.6597 39.5341 12.7883C39.6535 12.9169 39.7132 13.1053 39.7132 13.3533C39.7178 13.6657 39.5961 13.9253 39.348 14.132C39.1045 14.3387 38.7715 14.4421 38.3489 14.4421ZM42.1092 14.4421C41.7831 14.4421 41.4891 14.3686 41.2272 14.2216C40.97 14.07 40.7655 13.861 40.614 13.5945C40.4624 13.3235 40.3866 13.0088 40.3866 12.6505C40.3866 12.2922 40.4624 11.9798 40.614 11.7134C40.7701 11.4423 40.9792 11.2333 41.241 11.0863C41.5028 10.9347 41.7945 10.8589 42.1161 10.8589C42.4423 10.8589 42.734 10.9347 42.9912 11.0863C43.2531 11.2333 43.4598 11.4423 43.6114 11.7134C43.7676 11.9798 43.8457 12.2922 43.8457 12.6505C43.8457 13.0088 43.7676 13.3235 43.6114 13.5945C43.4598 13.861 43.2531 14.07 42.9912 14.2216C42.7294 14.3686 42.4354 14.4421 42.1092 14.4421ZM42.1092 13.815C42.2838 13.815 42.4446 13.7714 42.5916 13.6841C42.7432 13.5968 42.8649 13.4682 42.9568 13.2982C43.0486 13.1237 43.0946 12.9077 43.0946 12.6505C43.0946 12.3932 43.0486 12.1796 42.9568 12.0097C42.8695 11.8351 42.75 11.7042 42.5985 11.6169C42.4515 11.5296 42.2907 11.486 42.1161 11.486C41.9415 11.486 41.7785 11.5296 41.6269 11.6169C41.4799 11.7042 41.3604 11.8351 41.2686 12.0097C41.1767 12.1796 41.1308 12.3932 41.1308 12.6505C41.1308 12.9077 41.1767 13.1237 41.2686 13.2982C41.3604 13.4682 41.4799 13.5968 41.6269 13.6841C41.7739 13.7714 41.9347 13.815 42.1092 13.815ZM46.2342 14.4421C45.908 14.4421 45.614 14.3686 45.3522 14.2216C45.0949 14.07 44.8905 13.861 44.7389 13.5945C44.5873 13.3235 44.5115 13.0088 44.5115 12.6505C44.5115 12.2922 44.5873 11.9798 44.7389 11.7134C44.8951 11.4423 45.1041 11.2333 45.366 11.0863C45.6278 10.9347 45.9195 10.8589 46.2411 10.8589C46.5672 10.8589 46.8589 10.9347 47.1162 11.0863C47.378 11.2333 47.5847 11.4423 47.7363 11.7134C47.8925 11.9798 47.9706 12.2922 47.9706 12.6505C47.9706 13.0088 47.8925 13.3235 47.7363 13.5945C47.5847 13.861 47.378 14.07 47.1162 14.2216C46.8543 14.3686 46.5603 14.4421 46.2342 14.4421ZM46.2342 13.815C46.4087 13.815 46.5695 13.7714 46.7165 13.6841C46.8681 13.5968 46.9898 13.4682 47.0817 13.2982C47.1736 13.1237 47.2195 12.9077 47.2195 12.6505C47.2195 12.3932 47.1736 12.1796 47.0817 12.0097C46.9944 11.8351 46.875 11.7042 46.7234 11.6169C46.5764 11.5296 46.4156 11.486 46.2411 11.486C46.0665 11.486 45.9034 11.5296 45.7518 11.6169C45.6048 11.7042 45.4854 11.8351 45.3935 12.0097C45.3016 12.1796 45.2557 12.3932 45.2557 12.6505C45.2557 12.9077 45.3016 13.1237 45.3935 13.2982C45.4854 13.4682 45.6048 13.5968 45.7518 13.6841C45.8988 13.7714 46.0596 13.815 46.2342 13.815ZM48.7605 14.3594V10.9416H49.4082L49.4633 11.5411C49.569 11.3298 49.7229 11.1644 49.925 11.045C50.1317 10.921 50.3683 10.8589 50.6348 10.8589C51.0482 10.8589 51.3721 10.9876 51.6063 11.2448C51.8452 11.5021 51.9646 11.8856 51.9646 12.3955V14.3594H51.2411V12.4713C51.2411 11.8098 50.9701 11.4791 50.428 11.4791C50.157 11.4791 49.9319 11.5756 49.7528 11.7685C49.5782 11.9614 49.4909 12.2371 49.4909 12.5954V14.3594H48.7605Z" fill="white"/>
</svg>
