<svg width="64" height="64" viewBox="0 0 64 64" fill="none" xmlns="http://www.w3.org/2000/svg">
<path d="M32 0C40.4869 0 48.6263 3.37142 54.6274 9.37258C60.6286 15.3737 64 23.5131 64 32C64 40.4869 60.6286 48.6263 54.6274 54.6274C48.6263 60.6286 40.4869 64 32 64C23.5131 64 15.3737 60.6286 9.37258 54.6274C3.37142 48.6263 0 40.4869 0 32C0 23.5131 3.37142 15.3737 9.37258 9.37258C15.3737 3.37142 23.5131 0 32 0V0ZM18 30C17.4696 30 16.9609 30.2107 16.5858 30.5858C16.2107 30.9609 16 31.4696 16 32C16 32.5304 16.2107 33.0391 16.5858 33.4142C16.9609 33.7893 17.4696 34 18 34H41.172L32.584 42.584C32.398 42.77 32.2505 42.9907 32.1499 43.2337C32.0493 43.4766 31.9975 43.737 31.9975 44C31.9975 44.263 32.0493 44.5234 32.1499 44.7663C32.2505 45.0093 32.398 45.23 32.584 45.416C32.77 45.602 32.9907 45.7495 33.2337 45.8501C33.4766 45.9507 33.737 46.0025 34 46.0025C34.263 46.0025 34.5234 45.9507 34.7663 45.8501C35.0093 45.7495 35.23 45.602 35.416 45.416L47.416 33.416C47.6023 33.2302 47.75 33.0095 47.8508 32.7665C47.9517 32.5236 48.0036 32.2631 48.0036 32C48.0036 31.7369 47.9517 31.4764 47.8508 31.2335C47.75 30.9905 47.6023 30.7698 47.416 30.584L35.416 18.584C35.23 18.398 35.0093 18.2505 34.7663 18.1499C34.5234 18.0493 34.263 17.9975 34 17.9975C33.737 17.9975 33.4766 18.0493 33.2337 18.1499C32.9907 18.2505 32.77 18.398 32.584 18.584C32.398 18.77 32.2505 18.9907 32.1499 19.2337C32.0493 19.4766 31.9975 19.737 31.9975 20C31.9975 20.263 32.0493 20.5234 32.1499 20.7663C32.2505 21.0093 32.398 21.23 32.584 21.416L41.172 30H18Z" fill="#F2C94C"/>
</svg>
