<svg width="135" height="36" viewBox="0 0 135 36" fill="none" xmlns="http://www.w3.org/2000/svg">
<path d="M12.3506 16.625C11.6748 16.5635 11.1957 16.2631 11.2243 15.5393C11.2529 14.8155 11.7821 14.6888 12.3471 14.6454C13.1909 14.5839 13.098 15.1955 13.0872 15.7311C13.0765 16.2667 13.0515 16.6901 12.3506 16.625Z" fill="white"/>
<path d="M17.5962 0.998395C14.1802 1.03347 10.851 2.09183 8.0287 4.03993C5.20639 5.98802 3.01743 8.73856 1.73805 11.9445C0.458671 15.1504 0.146195 18.668 0.840053 22.0535C1.53391 25.4389 3.20301 28.5405 5.63674 30.9669C8.07046 33.3933 11.1598 35.0357 14.5148 35.6869C17.8699 36.3381 21.3403 35.9689 24.4883 34.6259C27.6362 33.2829 30.3206 31.0263 32.2027 28.1409C34.0848 25.2554 35.0803 21.8703 35.0635 18.4128C35.0134 8.61631 27.34 0.965824 17.5962 0.998395ZM28.4771 26.7473C27.4258 26.8523 26.582 26.7944 26.7536 25.2997C26.8202 24.4545 26.789 23.6043 26.6606 22.7665C26.6467 22.4004 26.502 22.052 26.2534 21.7858C26.0049 21.5195 25.6693 21.3536 25.309 21.3189C24.3758 21.2031 23.8108 21.7857 23.5426 22.5385C23.375 23.185 23.3123 23.8548 23.3567 24.5217C23.3174 26.693 22.5307 27.2793 20.4568 26.7618C19.7417 26.5845 19.8883 26.1176 19.8704 25.6761C19.8382 24.775 19.9026 23.8666 19.7881 22.9727C19.6845 22.1766 19.3412 21.4311 18.3901 21.3478C17.4389 21.2646 16.8597 21.8726 16.5235 22.7122C16.2346 23.511 16.1678 24.3747 16.3305 25.2093C16.5378 26.7726 15.6797 26.7401 14.5426 26.7944C13.2625 26.8523 12.8799 26.4325 12.9908 25.1803C13.1016 23.9281 12.93 22.7628 13.0372 21.5613C13.1445 20.3598 12.5903 20.1789 11.5676 20.2151C9.03604 20.3417 7.69158 21.9305 7.65583 25.2237C7.65583 26.3673 7.42341 26.7871 6.18979 26.7944C4.89897 26.7944 4.40195 26.5447 4.50564 25.1188C4.72376 22.3575 4.86321 19.5854 5.57835 16.9001C6.82984 12.2172 9.57955 10.1218 14.3424 10.1182H19.3483C21.551 10.1182 23.7536 10.0639 25.9526 10.1182C28.5844 10.1978 30.408 12.0616 30.4437 14.7251C30.4973 18.2789 30.3793 21.8328 30.4902 25.383C30.5403 27.2286 29.371 26.6568 28.4771 26.7473ZM48.8156 18.63C51.2685 16.9435 51.9586 15.5104 51.3865 13.2486C50.7787 10.8528 48.9122 10.1978 46.8096 9.92276C45.0862 9.69838 43.3698 9.87933 41.6499 10.0458C40.7846 10.1327 40.6058 10.5126 40.613 11.3124C40.6452 16.0171 40.6702 20.7 40.613 25.3938C40.5915 26.7835 41.464 26.3746 42.1434 26.4071C42.8871 26.4361 43.706 26.646 43.6023 25.3214C43.4843 23.8268 43.6023 22.3141 43.5593 20.8122C43.5236 19.9364 43.824 19.6722 44.6714 19.6686C46.8168 19.6686 47.4282 20.3345 48.1934 23.3419C49.1374 27.0585 48.501 26.4361 52.1768 26.3348C50.9217 23.7001 51.4116 20.5118 48.8156 18.63V18.63ZM45.0325 17.4719C42.4902 17.6094 44.0063 15.6624 43.5486 14.8518C43.6523 13.5526 42.9765 11.9566 45.265 12.1267C47.4604 12.2787 48.5546 13.0351 48.5296 14.7903C48.5045 16.5455 47.321 17.3525 45.0325 17.4719ZM58.5773 14.3053C54.8228 14.2076 52.3949 16.5672 52.3377 20.3743C52.2805 24.1815 54.5761 26.6677 58.1303 26.7111C61.6845 26.7546 64.1446 24.2358 64.209 20.5806C64.2733 16.9254 62.06 14.3886 58.5773 14.3053ZM60.9479 21.9667C60.5904 23.3455 59.8466 24.4674 58.3341 24.4999C56.7322 24.5289 55.9348 23.4142 55.5665 21.9413C55.3155 20.9477 55.3241 19.9051 55.5915 18.9159C55.9491 17.519 56.725 16.5274 58.2805 16.5129C59.8359 16.4984 60.5725 17.5696 60.9372 18.9448C61.0415 19.4629 61.1096 19.9877 61.141 20.5155C61.1065 21.0028 61.042 21.4875 60.9479 21.9667V21.9667ZM71.7787 20.1101C71.0922 19.6578 70.2662 19.4261 69.5296 19.0462C68.8574 18.706 67.942 18.4201 68.2245 17.4068C68.5069 16.3935 69.4116 16.3681 70.2805 16.4767C70.6382 16.4843 70.9913 16.5604 71.321 16.7011C72.2364 17.2294 72.3401 16.6359 72.6118 15.9519C72.9694 15.0436 72.5868 14.7251 71.8359 14.5731C71.1994 14.4392 70.5487 14.3632 70.0481 14.2836C69.5904 14.3089 69.2936 14.3162 68.9968 14.3451C66.9873 14.5369 65.5785 15.7059 65.3031 17.4104C65.0457 18.9919 65.8752 20.2621 67.7525 21.1488C68.3425 21.4274 68.9503 21.6627 69.5403 21.9449C69.8267 22.045 70.0673 22.247 70.2173 22.5134C70.3673 22.7797 70.4164 23.0922 70.3556 23.3925C70.2447 24.1163 69.6869 24.3443 69.0898 24.4782C68.178 24.6881 67.3019 24.4022 66.4974 24.0403C65.7465 23.7038 65.3997 23.8449 65.2674 24.6483C65.1673 25.2454 64.6953 25.8788 65.7358 26.2008C67.6738 26.8088 69.594 26.9789 71.4569 26.0271C71.9965 25.7653 72.4567 25.3615 72.7893 24.858C73.122 24.3545 73.3148 23.7698 73.3477 23.165C73.3806 22.5602 73.2523 21.9576 72.9763 21.4202C72.7003 20.8828 72.2867 20.4303 71.7787 20.1101V20.1101ZM81.712 14.5116C80.4207 14.089 79.0215 14.1576 77.7767 14.7046C76.5318 15.2516 75.5269 16.2394 74.9503 17.4828C73.7632 19.9835 74.1279 23.1863 75.7942 24.9378C77.4605 26.6894 81.2114 27.254 83.6893 26.1864C84.2257 25.9548 84.3794 25.7195 84.3044 25.1224C84.1864 24.1453 83.9289 23.8919 82.8491 24.1308C79.9885 24.7569 78.2006 24.1308 77.4426 22.6C77.0564 21.8002 76.9599 21.232 78.1577 21.3152C79.1053 21.3804 80.0636 21.3152 81.0183 21.3152C82.0302 21.3152 83.0457 21.2899 84.0576 21.3152C84.6905 21.337 84.9802 21.1922 85.0588 20.4539C85.352 17.8012 83.9218 15.1847 81.712 14.5116ZM82.1589 18.706C81.9802 19.6686 81.0862 19.0281 80.5284 19.1837C80.2352 19.2219 79.9384 19.2219 79.6452 19.1837C79.4078 19.2136 79.1676 19.2136 78.9301 19.1837C78.3544 19.0317 77.4354 19.6216 77.2531 18.7928C77.1136 18.1595 77.6393 17.4393 78.2114 16.9833C78.6015 16.6072 79.1074 16.3782 79.6445 16.3347C80.1816 16.2912 80.7171 16.4359 81.1613 16.7445C81.5045 16.9306 81.7836 17.2178 81.9618 17.5681C82.1399 17.9184 82.2087 18.3152 82.1589 18.706V18.706ZM97.1769 25.2672C97.0624 23.3491 97.1482 21.4202 97.1447 19.4768C97.1447 17.4502 96.7585 15.543 94.7204 14.6564C92.6822 13.7697 90.8872 14.2945 89.3568 15.923C88.8419 14.5623 88.2841 14.2257 87.0469 14.508C85.8097 14.7903 86.4712 15.7855 86.4605 16.4188C86.4069 19.3646 86.5249 22.3141 86.4605 25.2599C86.4212 26.7075 87.3222 26.3456 88.0946 26.3963C88.8669 26.4469 89.6 26.4904 89.5249 25.2491C89.4247 23.4396 89.4855 21.6301 89.5034 19.8206C89.5249 17.8917 90.4903 16.683 91.9599 16.6938C93.3437 16.6938 94.1411 17.7795 94.1804 19.817C94.2162 21.6265 94.2734 23.436 94.1625 25.2454C94.0875 26.4723 94.7382 26.4469 95.5678 26.3963C96.3973 26.3456 97.277 26.7147 97.1912 25.2672H97.1769ZM105.201 8.90583C102.369 8.54393 100.431 10.0494 99.9659 13.0025C99.8836 13.52 100.291 14.4501 99.4152 14.4754C98.4176 14.5152 98.3175 14.9386 98.2531 15.7927C98.1637 16.9653 99.0398 16.7409 99.6155 16.987C100.288 18.3875 99.8014 19.8821 99.9123 21.3297C99.9945 22.4154 99.9123 23.5011 99.9301 24.5868C99.9301 26.3963 100.645 26.8957 102.383 26.4506C103.13 26.2588 102.887 25.7485 102.891 25.3359C102.916 22.9944 102.891 20.653 102.919 18.3115C102.919 17.8917 102.619 17.3452 103.195 17.034C103.414 16.9571 103.64 16.9037 103.871 16.8748C104.675 16.8494 105.505 17.1064 105.505 15.7022C105.505 14.2981 104.643 14.5116 103.86 14.5659C102.862 14.6346 102.812 14.0882 102.919 13.3354C103.105 12.0435 103.72 11.0555 105.108 11.3161C106.348 11.5513 106.059 10.7624 106.213 10.1471C106.441 9.19173 105.98 9.00716 105.201 8.90583ZM113.453 14.4935C112.132 14.0758 110.703 14.1713 109.447 14.7614C108.191 15.3515 107.197 16.394 106.66 17.6854C105.533 20.273 105.987 23.3962 107.732 25.0898C109.424 26.7256 113.132 27.1852 115.513 26.1755C116.385 25.8136 116.067 25.2889 115.999 24.7279C115.917 24.0548 115.681 23.8413 114.927 24.062C113.834 24.3786 112.685 24.4417 111.565 24.2466C111.035 24.1813 110.531 23.9757 110.104 23.6504C109.677 23.3251 109.343 22.8916 109.134 22.3937C108.805 21.6482 108.923 21.2791 109.824 21.308C110.832 21.3514 111.848 21.308 112.86 21.308C113.872 21.308 114.887 21.2754 115.896 21.308C116.575 21.3406 116.793 21.109 116.857 20.4069C117.097 17.7252 115.66 15.1449 113.453 14.4935ZM113.121 19.1982C111.769 19.1439 110.414 19.1982 108.973 19.1982C109.195 17.5443 109.931 16.4948 111.512 16.35C112.72 16.2415 113.525 16.9291 113.89 18.0908C114.093 18.7494 114.047 19.2416 113.121 19.209V19.1982ZM121.252 21.3189C121.206 17.338 121.513 13.3572 121.084 9.37629C118.581 8.5765 118.256 8.79002 118.252 11.1677C118.252 15.6841 118.252 20.2151 118.273 24.7171C118.273 25.2418 117.894 25.9005 118.567 26.3203C119.393 26.4996 120.249 26.486 121.07 26.2805C121.524 24.6447 121.27 22.9764 121.252 21.3297V21.3189ZM134.393 10.1001C134.393 8.76469 133.567 9.07954 132.844 9.05059C132.061 9.01801 131.3 8.89497 131.368 10.1688C131.464 11.877 131.393 13.5924 131.393 15.3946C128.353 13.6937 125.714 14.052 124.059 16.2632C122.182 18.7965 122.4 23.2152 124.506 25.3106C126.444 27.2286 128.825 27.1454 131.732 24.898C131.418 26.7075 132.576 26.3782 133.549 26.4144C134.264 26.4469 134.432 26.161 134.425 25.4698C134.386 20.3562 134.353 15.2354 134.393 10.1182V10.1001ZM131.303 22.0427C131.183 22.7342 130.799 23.3501 130.233 23.7566C129.668 24.1631 128.966 24.3275 128.282 24.214C126.698 23.9788 125.679 22.3032 125.822 20.168C125.965 18.0328 127.052 16.6649 128.664 16.6142C130.095 16.5708 131.203 17.6022 131.368 19.1656C131.389 19.5863 131.389 20.0079 131.368 20.4286H131.411C131.413 20.9697 131.377 21.5103 131.303 22.0463V22.0427Z" fill="white"/>
<path d="M12.3506 16.625C11.6748 16.5635 11.1957 16.2631 11.2243 15.5393C11.2529 14.8155 11.7821 14.6888 12.3471 14.6454C13.1909 14.5839 13.098 15.1955 13.0872 15.7311C13.0765 16.2667 13.0515 16.6901 12.3506 16.625Z" fill="white"/>
<path d="M17.5962 0.998395C14.1802 1.03347 10.851 2.09183 8.0287 4.03993C5.20639 5.98802 3.01743 8.73856 1.73805 11.9445C0.458671 15.1504 0.146195 18.668 0.840053 22.0535C1.53391 25.4389 3.20301 28.5405 5.63674 30.9669C8.07046 33.3933 11.1598 35.0357 14.5148 35.6869C17.8699 36.3381 21.3403 35.9689 24.4883 34.6259C27.6362 33.2829 30.3206 31.0263 32.2027 28.1409C34.0848 25.2554 35.0803 21.8703 35.0635 18.4128C35.0134 8.61631 27.34 0.965824 17.5962 0.998395ZM28.4771 26.7473C27.4258 26.8523 26.582 26.7944 26.7536 25.2997C26.8202 24.4545 26.789 23.6043 26.6606 22.7665C26.6467 22.4004 26.502 22.052 26.2534 21.7858C26.0049 21.5195 25.6693 21.3536 25.309 21.3189C24.3758 21.2031 23.8108 21.7857 23.5426 22.5385C23.375 23.185 23.3123 23.8548 23.3567 24.5217C23.3174 26.693 22.5307 27.2793 20.4568 26.7618C19.7417 26.5845 19.8883 26.1176 19.8704 25.6761C19.8382 24.775 19.9026 23.8666 19.7881 22.9727C19.6845 22.1766 19.3412 21.4311 18.3901 21.3478C17.4389 21.2646 16.8597 21.8726 16.5235 22.7122C16.2346 23.511 16.1678 24.3747 16.3305 25.2093C16.5378 26.7726 15.6797 26.7401 14.5426 26.7944C13.2625 26.8523 12.8799 26.4325 12.9908 25.1803C13.1016 23.9281 12.93 22.7628 13.0372 21.5613C13.1445 20.3598 12.5903 20.1789 11.5676 20.2151C9.03604 20.3417 7.69158 21.9305 7.65583 25.2237C7.65583 26.3673 7.42341 26.7871 6.18979 26.7944C4.89897 26.7944 4.40195 26.5447 4.50564 25.1188C4.72376 22.3575 4.86321 19.5854 5.57835 16.9001C6.82984 12.2172 9.57955 10.1218 14.3424 10.1182H19.3483C21.551 10.1182 23.7536 10.0639 25.9526 10.1182C28.5844 10.1978 30.408 12.0616 30.4437 14.7251C30.4973 18.2789 30.3793 21.8328 30.4902 25.383C30.5403 27.2286 29.371 26.6568 28.4771 26.7473Z" fill="white"/>
<path d="M48.8156 18.6299C51.2686 16.9435 51.9587 15.5104 51.3866 13.2485C50.7787 10.8528 48.9122 10.1977 46.8097 9.92269C45.0862 9.69831 43.3699 9.87926 41.6499 10.0457C40.7846 10.1326 40.6058 10.5126 40.613 11.3124C40.6452 16.017 40.6702 20.7 40.613 25.3938C40.5915 26.7834 41.464 26.3745 42.1434 26.4071C42.8871 26.436 43.706 26.6459 43.6023 25.3214C43.4843 23.8267 43.6023 22.314 43.5594 20.8121C43.5236 19.9364 43.824 19.6722 44.6714 19.6686C46.8168 19.6686 47.4283 20.3344 48.1935 23.3418C49.1375 27.0585 48.501 26.436 52.1768 26.3347C50.9217 23.7001 51.4116 20.5118 48.8156 18.6299ZM45.0326 17.4718C42.4902 17.6094 44.0063 15.6624 43.5486 14.8517C43.6523 13.5525 42.9765 11.9565 45.265 12.1266C47.4604 12.2786 48.5546 13.035 48.5296 14.7902C48.5045 16.5454 47.321 17.3524 45.0326 17.4718V17.4718Z" fill="white"/>
<path d="M134.393 10.1181C134.393 8.7827 133.567 9.09755 132.844 9.0686C132.061 9.03603 131.3 8.91299 131.368 10.1869C131.464 11.895 131.393 13.6104 131.393 15.4126C128.353 13.7117 125.714 14.07 124.059 16.2812C122.182 18.8145 122.4 23.2332 124.506 25.3286C126.444 27.2467 128.825 27.1634 131.732 24.916C131.418 26.7255 132.576 26.3962 133.549 26.4324C134.264 26.465 134.432 26.1791 134.425 25.4878C134.385 20.3561 134.353 15.2353 134.393 10.1181ZM131.303 22.0607C131.183 22.7523 130.799 23.3681 130.233 23.7746C129.668 24.1811 128.966 24.3455 128.282 24.2321C126.698 23.9968 125.679 22.3212 125.822 20.1861C125.965 18.0509 127.052 16.6829 128.664 16.6322C130.095 16.5888 131.203 17.6202 131.368 19.1836C131.389 19.6043 131.389 20.0259 131.368 20.4466H131.41C131.412 20.9817 131.376 21.5162 131.303 22.0462V22.0607Z" fill="white"/>
<path d="M58.5772 14.3052C54.8228 14.2075 52.3949 16.567 52.3377 20.3742C52.2804 24.1813 54.576 26.6675 58.1303 26.711C61.6845 26.7544 64.1446 24.2356 64.209 20.5804C64.2733 16.9253 62.06 14.3884 58.5772 14.3052ZM60.9479 21.9665C60.5904 23.3453 59.8466 24.4672 58.3341 24.4998C56.7322 24.5287 55.9348 23.4141 55.5665 21.9412C55.3155 20.9476 55.3241 19.905 55.5915 18.9157C55.9491 17.5188 56.725 16.5272 58.2805 16.5127C59.8359 16.4983 60.5725 17.5695 60.9372 18.9447C61.0415 19.4627 61.1096 19.9876 61.141 20.5153C61.1065 21.0026 61.042 21.4873 60.9479 21.9665V21.9665Z" fill="white"/>
<path d="M95.5892 26.418C94.7597 26.4687 94.1089 26.494 94.184 25.2672C94.2948 23.4577 94.2376 21.6482 94.2019 19.8388C94.1625 17.8085 93.3652 16.7301 91.9814 16.7156C90.5118 16.7156 89.5463 17.9135 89.5249 19.8424C89.5249 21.6519 89.4462 23.4613 89.5463 25.2708C89.6143 26.5121 88.9242 26.4651 88.116 26.418C87.3079 26.371 86.4426 26.7365 86.482 25.2817C86.5606 22.3358 86.4426 19.3864 86.482 16.4406C86.482 15.8072 85.8133 14.8193 87.0684 14.5297C88.3234 14.2402 88.8562 14.584 89.3783 15.9448C90.8944 14.3235 92.7287 13.806 94.7418 14.6781C96.7549 15.5503 97.1661 17.472 97.1661 19.4986C97.1661 21.4239 97.0839 23.3528 97.1983 25.2889C97.277 26.7148 96.3652 26.371 95.5892 26.418Z" fill="white"/>
<path d="M113.453 14.4936C112.132 14.0758 110.703 14.1714 109.447 14.7615C108.191 15.3516 107.197 16.394 106.66 17.6855C105.533 20.273 105.987 23.3962 107.732 25.0899C109.424 26.7256 113.132 27.1853 115.513 26.1756C116.385 25.8137 116.067 25.2889 115.999 24.728C115.917 24.0548 115.681 23.8413 114.927 24.0621C113.834 24.3786 112.685 24.4417 111.565 24.2467C111.035 24.1814 110.531 23.9757 110.104 23.6504C109.677 23.3251 109.342 22.8917 109.134 22.3937C108.805 21.6482 108.923 21.2791 109.824 21.3081C110.832 21.3515 111.848 21.3081 112.86 21.3081C113.872 21.3081 114.887 21.2755 115.896 21.3081C116.575 21.3406 116.793 21.109 116.857 20.4069C117.097 17.7253 115.66 15.145 113.453 14.4936ZM113.121 19.1982C111.769 19.1439 110.414 19.1982 108.973 19.1982C109.195 17.5443 109.931 16.4948 111.512 16.3501C112.72 16.2415 113.525 16.9291 113.89 18.0908C114.093 18.7495 114.047 19.2416 113.121 19.2091V19.1982Z" fill="white"/>
<path d="M81.712 14.5115C80.4208 14.0889 79.0215 14.1575 77.7767 14.7045C76.5319 15.2515 75.5269 16.2393 74.9504 17.4827C73.7632 19.9834 74.128 23.1862 75.7942 24.9378C77.4605 26.6893 81.2114 27.2539 83.6894 26.1863C84.2257 25.9547 84.3795 25.7195 84.3044 25.1223C84.1864 24.1452 83.9289 23.8919 82.8491 24.1307C79.9885 24.7568 78.2007 24.1307 77.4426 22.5999C77.0565 21.8001 76.9599 21.2319 78.1578 21.3152C79.1053 21.3803 80.0636 21.3152 81.0183 21.3152C82.0302 21.3152 83.0457 21.2898 84.0577 21.3152C84.6906 21.3369 84.9802 21.1921 85.0589 20.4539C85.3521 17.8012 83.9218 15.1847 81.712 14.5115ZM82.159 18.7059C81.9802 19.6685 81.0863 19.028 80.5285 19.1836C80.2353 19.2218 79.9384 19.2218 79.6453 19.1836C79.4078 19.2135 79.1676 19.2135 78.9301 19.1836C78.3544 19.0316 77.4355 19.6215 77.2531 18.7928C77.1137 18.1594 77.6393 17.4393 78.2114 16.9833C78.6015 16.6071 79.1075 16.3781 79.6445 16.3346C80.1816 16.2911 80.7171 16.4358 81.1614 16.7444C81.5045 16.9305 81.7836 17.2177 81.9618 17.568C82.14 17.9183 82.2087 18.3151 82.159 18.7059V18.7059Z" fill="white"/>
<path d="M106.213 10.1181C106.059 10.7333 106.348 11.5223 105.108 11.287C103.72 11.0265 103.105 12.0108 102.919 13.3064C102.812 14.0592 102.862 14.6056 103.86 14.5369C104.643 14.4826 105.505 14.251 105.505 15.6732C105.505 17.0955 104.675 16.8204 103.871 16.8458C103.64 16.8746 103.414 16.928 103.195 17.005C102.619 17.3162 102.927 17.8627 102.919 18.2825C102.884 20.6239 102.919 22.9654 102.891 25.3069C102.891 25.7194 103.13 26.2297 102.383 26.4215C100.649 26.8667 99.9301 26.36 99.9301 24.5578C99.9301 23.4721 99.9945 22.3864 99.9122 21.3007C99.8014 19.8531 100.288 18.373 99.6154 16.9579C99.0398 16.7119 98.1637 16.9362 98.2531 15.7637C98.3175 14.9096 98.4176 14.4862 99.4152 14.4464C100.291 14.4102 99.8836 13.491 99.9659 12.9735C100.431 10.0204 102.369 8.50043 105.201 8.8768C105.98 9.00708 106.441 9.19165 106.213 10.1181Z" fill="white"/>
<path d="M71.4605 26.0199C69.6047 26.9717 67.6845 26.8016 65.7393 26.1936C64.6988 25.8715 65.1708 25.2382 65.2709 24.6411C65.4032 23.8377 65.7501 23.6965 66.501 24.0331C67.3055 24.395 68.1815 24.6809 69.0933 24.471C69.6905 24.3335 70.2483 24.1091 70.3591 23.3853C70.42 23.085 70.3708 22.7725 70.2208 22.5061C70.0708 22.2398 69.8302 22.0378 69.5439 21.9377C68.9539 21.6554 68.346 21.4202 67.756 21.1415C65.8788 20.2549 65.0492 18.9702 65.3067 17.4032C65.582 15.6986 66.9908 14.5297 69.0004 14.3379C69.2972 14.3089 69.5939 14.3017 70.0516 14.2764C70.5415 14.356 71.1923 14.432 71.8395 14.5659C72.5904 14.7179 72.9765 15.0363 72.6154 15.9447C72.3436 16.6287 72.24 17.2222 71.3246 16.6938C70.9949 16.5532 70.6418 16.477 70.2841 16.4695C69.4152 16.3609 68.4962 16.3862 68.228 17.3995C67.9599 18.4128 68.8609 18.6987 69.5332 19.0389C70.2697 19.4189 71.0957 19.6505 71.7823 20.1029C72.2902 20.4231 72.7039 20.8756 72.9799 21.413C73.2559 21.9504 73.3842 22.553 73.3513 23.1578C73.3184 23.7625 73.1255 24.3473 72.7929 24.8508C72.4603 25.3543 72.0001 25.758 71.4605 26.0199V26.0199Z" fill="white"/>
<path d="M121.088 9.37329H121.084V9.36182L121.088 9.37329Z" fill="white"/>
<path d="M121.066 26.2768C120.245 26.4823 119.389 26.496 118.563 26.3166C118.17 23.8195 118.456 21.3007 118.402 18.7928C118.348 16.3934 118.402 13.9941 118.402 11.5947C118.402 8.9637 118.402 8.9637 121.091 9.37265C121.449 13.4512 121.188 17.537 121.23 21.6192C121.241 23.1681 121.449 24.7351 121.066 26.2768Z" fill="white"/>
<path d="M121.084 9.37253C118.581 9.40872 118.581 9.40872 118.581 11.8732C118.581 16.6985 118.581 21.5129 118.581 26.3165C117.909 25.8967 118.291 25.2308 118.288 24.7133C118.252 20.1968 118.266 15.6659 118.266 11.1639C118.256 8.78626 118.595 8.57274 121.084 9.37253Z" fill="white"/>
<path d="M121.066 26.277C121.066 20.6435 121.072 15.0087 121.084 9.3728C121.513 13.3537 121.205 17.3345 121.252 21.3154C121.27 22.9765 121.524 24.6448 121.066 26.277Z" fill="white"/>
<path d="M12.3506 16.625C11.6748 16.5635 11.1957 16.2631 11.2243 15.5393C11.2529 14.8155 11.7821 14.6888 12.3471 14.6454C13.1909 14.5839 13.098 15.1955 13.0872 15.7311C13.0765 16.2667 13.0515 16.6901 12.3506 16.625Z" fill="white"/>
<path d="M12.3506 16.625C11.6748 16.5635 11.1957 16.2631 11.2243 15.5393C11.2529 14.8155 11.7821 14.6888 12.3471 14.6454C13.1909 14.5839 13.098 15.1955 13.0872 15.7311C13.0765 16.2667 13.0515 16.6901 12.3506 16.625Z" fill="white"/>
</svg>
