<svg width="255" height="66" viewBox="0 0 255 66" fill="none" xmlns="http://www.w3.org/2000/svg">
<path d="M22.5919 29.4653C21.3058 29.3493 20.3939 28.783 20.4484 27.4182C20.5028 26.0534 21.5099 25.8146 22.5851 25.7327C24.191 25.6167 24.0141 26.7699 23.9937 27.7799C23.9733 28.7898 23.9257 29.5882 22.5919 29.4653Z" fill="white"/>
<path d="M32.5747 0.000195364C26.0737 0.0663311 19.7378 2.06195 14.3667 5.73523C8.99552 9.40851 4.82972 14.5949 2.39493 20.6398C-0.039857 26.6848 -0.63453 33.3175 0.68595 39.7011C2.00643 46.0846 5.18289 51.9329 9.81452 56.508C14.4461 61.0831 20.3254 64.18 26.7104 65.4079C33.0954 66.6358 39.7 65.9397 45.6909 63.4074C51.6818 60.8751 56.7904 56.6201 60.3723 51.1793C63.9541 45.7385 65.8485 39.3558 65.8166 32.8364C65.7213 14.3643 51.118 -0.061219 32.5747 0.000195364ZM53.282 48.5517C51.2813 48.7496 49.6754 48.6404 50.002 45.8221C50.1287 44.2284 50.0693 42.6254 49.8251 41.0455C49.7985 40.3553 49.5232 39.6983 49.0501 39.1963C48.5771 38.6943 47.9385 38.3815 47.2528 38.3159C45.4768 38.0976 44.4016 39.1962 43.8912 40.6156C43.5723 41.8347 43.4528 43.0976 43.5374 44.355C43.4625 48.4493 41.9654 49.5548 38.0186 48.579C36.6576 48.2446 36.9366 47.3643 36.9026 46.5318C36.8413 44.8327 36.9638 43.1199 36.7461 41.4344C36.5487 39.9332 35.8955 38.5275 34.0854 38.3705C32.2753 38.2136 31.1729 39.36 30.5332 40.9431C29.9832 42.4493 29.8561 44.0779 30.1657 45.6516C30.5604 48.5994 28.9272 48.538 26.7633 48.6404C24.3271 48.7496 23.599 47.958 23.81 45.597C24.0209 43.2359 23.6943 41.0386 23.8984 38.7731C24.1026 36.5076 23.0478 36.1664 21.1016 36.2347C16.2837 36.4735 13.7251 39.4692 13.6571 45.6788C13.6571 47.8352 13.2147 48.6267 10.867 48.6404C8.41047 48.6404 7.46459 48.1695 7.66193 45.481C8.07703 40.2744 8.34242 35.0473 9.7034 29.9841C12.0851 21.154 17.3181 17.203 26.3822 17.1962H35.9091C40.1009 17.1962 44.2927 17.0939 48.4777 17.1962C53.4861 17.3463 56.9566 20.8606 57.0247 25.8829C57.1268 32.5839 56.9022 39.2849 57.1131 45.9791C57.2084 49.4592 54.9832 48.3811 53.282 48.5517ZM91.9883 33.2458C96.6564 30.0659 97.9698 27.3637 96.881 23.0988C95.7241 18.5815 92.172 17.3463 88.1707 16.8277C84.8907 16.4047 81.6244 16.7458 78.3512 17.0597C76.7045 17.2235 76.3642 17.94 76.3778 19.4481C76.4391 28.319 76.4867 37.1491 76.3778 45.9996C76.337 48.6199 77.9974 47.8488 79.2903 47.9102C80.7057 47.9648 82.2641 48.3606 82.0667 45.8631C81.8422 43.0449 82.0667 40.1925 81.9851 37.3606C81.917 35.7092 82.4886 35.2111 84.1014 35.2043C88.1843 35.2043 89.348 36.4599 90.8042 42.1305C92.6007 49.1385 91.3894 47.9648 98.3849 47.7738C95.9963 42.806 96.9286 36.7942 91.9883 33.2458V33.2458ZM84.7887 31.0622C79.9504 31.3215 82.8357 27.6503 81.9646 26.1218C82.162 23.672 80.8759 20.6627 85.231 20.9834C89.4092 21.27 91.4915 22.6962 91.4439 26.0058C91.3962 29.3153 89.1438 30.837 84.7887 31.0622ZM110.566 25.0914C103.42 24.9071 98.8 29.3563 98.6911 36.5349C98.5822 43.7136 102.951 48.4016 109.715 48.4834C116.479 48.5653 121.161 43.8159 121.283 36.9239C121.406 30.0318 117.194 25.2483 110.566 25.0914ZM115.077 39.5374C114.397 42.1373 112.981 44.2527 110.103 44.3141C107.054 44.3687 105.537 42.2669 104.836 39.4896C104.358 37.6161 104.375 35.6502 104.884 33.7849C105.564 31.1509 107.041 29.2812 110.001 29.2539C112.961 29.2266 114.363 31.2465 115.057 33.8395C115.255 34.8163 115.385 35.806 115.445 36.8011C115.379 37.7199 115.256 38.6338 115.077 39.5374V39.5374ZM135.689 36.0368C134.383 35.1838 132.811 34.7471 131.409 34.0306C130.13 33.3891 128.388 32.8501 128.925 30.9394C129.463 29.0287 131.184 28.981 132.838 29.1857C133.519 29.2 134.191 29.3435 134.818 29.6087C136.56 30.605 136.758 29.4859 137.275 28.1962C137.955 26.4834 137.227 25.8829 135.798 25.5963C134.587 25.3439 133.348 25.2006 132.396 25.0504C131.525 25.0982 130.96 25.1119 130.395 25.1664C126.571 25.5281 123.89 27.7322 123.366 30.9462C122.876 33.9282 124.454 36.3234 128.027 37.9952C129.15 38.5207 130.307 38.9642 131.429 39.4965C131.974 39.6851 132.432 40.0661 132.718 40.5683C133.003 41.0705 133.097 41.6597 132.981 42.226C132.77 43.5908 131.708 44.0207 130.572 44.2731C128.837 44.6689 127.17 44.1298 125.638 43.4475C124.209 42.8128 123.549 43.079 123.298 44.5939C123.107 45.7198 122.209 46.914 124.189 47.5213C127.877 48.6677 131.532 48.9884 135.077 47.1937C136.104 46.7 136.98 45.9386 137.613 44.9892C138.246 44.0398 138.613 42.9373 138.675 41.797C138.738 40.6567 138.494 39.5204 137.968 38.5071C137.443 37.4938 136.656 36.6406 135.689 36.0368V36.0368ZM154.593 25.4803C152.136 24.6834 149.473 24.8128 147.104 25.8442C144.735 26.8756 142.823 28.7382 141.725 31.0827C139.466 35.798 140.16 41.837 143.331 45.1398C146.502 48.4425 153.641 49.507 158.356 47.494C159.377 47.0573 159.67 46.6137 159.527 45.4878C159.302 43.6454 158.812 43.1677 156.757 43.6181C151.313 44.7986 147.911 43.6181 146.468 40.7316C145.733 39.2235 145.55 38.1522 147.829 38.3091C149.633 38.4319 151.456 38.3091 153.273 38.3091C155.199 38.3091 157.132 38.2614 159.057 38.3091C160.262 38.3501 160.813 38.0771 160.963 36.685C161.521 31.6832 158.799 26.7496 154.593 25.4803ZM155.444 33.3891C155.104 35.2043 153.402 33.9965 152.341 34.2899C151.783 34.3619 151.218 34.3619 150.66 34.2899C150.208 34.3463 149.751 34.3463 149.299 34.2899C148.204 34.0033 146.455 35.1156 146.108 33.5529C145.842 32.3587 146.843 31.0008 147.931 30.141C148.674 29.4317 149.637 28.9999 150.659 28.9179C151.681 28.8359 152.7 29.1087 153.545 29.6906C154.198 30.0415 154.73 30.583 155.069 31.2436C155.408 31.9041 155.539 32.6523 155.444 33.3891V33.3891ZM184.025 45.7607C183.807 42.1441 183.97 38.507 183.963 34.8426C183.963 31.0213 183.228 27.4251 179.35 25.7533C175.471 24.0815 172.055 25.0709 169.142 28.1416C168.162 25.5759 167.101 24.9413 164.746 25.4735C162.392 26.0058 163.651 27.8823 163.63 29.0765C163.528 34.6311 163.753 40.1925 163.63 45.7471C163.555 48.4766 165.27 47.7942 166.74 47.8898C168.21 47.9853 169.605 48.0672 169.462 45.7266C169.272 42.3147 169.387 38.9028 169.421 35.4909C169.462 31.8538 171.299 29.5746 174.096 29.5951C176.73 29.5951 178.247 31.6422 178.322 35.4841C178.39 38.896 178.499 42.3079 178.288 45.7198C178.145 48.0331 179.384 47.9853 180.962 47.8898C182.541 47.7942 184.215 48.4903 184.052 45.7607H184.025ZM199.295 14.9102C193.905 14.2279 190.217 17.0666 189.332 22.6348C189.176 23.6106 189.952 25.3643 188.284 25.4121C186.386 25.4872 186.195 26.2856 186.073 27.896C185.903 30.1069 187.57 29.6838 188.665 30.1478C189.945 32.7886 189.019 35.6069 189.23 38.3364C189.387 40.3836 189.23 42.4307 189.264 44.4779C189.264 47.8898 190.625 48.8315 193.932 47.9921C195.355 47.6305 194.892 46.6683 194.899 45.8904C194.946 41.4754 194.899 37.0604 194.953 32.6453C194.953 31.8538 194.382 30.8234 195.477 30.2365C195.894 30.0914 196.325 29.9908 196.763 29.9363C198.294 29.8885 199.873 30.373 199.873 27.7254C199.873 25.0777 198.233 25.4803 196.743 25.5827C194.844 25.7123 194.749 24.682 194.953 23.2626C195.307 20.8265 196.477 18.9636 199.118 19.4549C201.479 19.8985 200.928 18.4109 201.221 17.2508C201.656 15.4493 200.778 15.1013 199.295 14.9102ZM215 25.4462C212.485 24.6586 209.767 24.8387 207.377 25.9514C204.986 27.0641 203.095 29.0297 202.071 31.4648C199.928 36.3439 200.792 42.2328 204.113 45.4264C207.331 48.5107 214.388 49.3774 218.92 47.4735C220.58 46.7911 219.975 45.8017 219.846 44.744C219.689 43.4748 219.24 43.0721 217.804 43.4884C215.725 44.0853 213.539 44.2042 211.407 43.8364C210.398 43.7134 209.439 43.3256 208.626 42.7122C207.814 42.0988 207.177 41.2815 206.78 40.3426C206.154 38.9369 206.379 38.2409 208.093 38.2955C210.012 38.3774 211.945 38.2955 213.871 38.2955C215.797 38.2955 217.729 38.2341 219.648 38.2955C220.941 38.3569 221.356 37.9202 221.479 36.5963C221.935 31.5399 219.199 26.6745 215 25.4462ZM214.368 34.3172C211.795 34.2148 209.216 34.3172 206.474 34.3172C206.896 31.1987 208.298 29.2198 211.305 28.9468C213.605 28.7421 215.137 30.0386 215.831 32.2291C216.219 33.471 216.13 34.3991 214.368 34.3377V34.3172ZM229.842 38.3159C229.753 30.8097 230.339 23.3035 229.522 15.7973C224.759 14.2893 224.139 14.6919 224.133 19.1751C224.133 27.6913 224.133 36.2347 224.173 44.7235C224.173 45.713 223.452 46.9549 224.731 47.7465C226.304 48.0846 227.933 48.0589 229.495 47.6714C230.359 44.587 229.876 41.4413 229.842 38.3364V38.3159ZM254.85 17.1621C254.85 14.6441 253.278 15.2378 251.903 15.1832C250.413 15.1218 248.964 14.8898 249.093 17.2918C249.277 20.5126 249.141 23.7471 249.141 27.1453C243.356 23.9382 238.334 24.6137 235.184 28.7831C231.611 33.5597 232.026 41.8916 236.034 45.8426C239.723 49.4592 244.255 49.3023 249.787 45.0647C249.188 48.4766 251.393 47.8556 253.244 47.9239C254.605 47.9853 254.925 47.4462 254.911 46.1429C254.836 36.5008 254.775 26.8451 254.85 17.1962V17.1621ZM248.971 39.6807C248.742 40.9847 248.011 42.146 246.934 42.9125C245.858 43.679 244.523 43.9889 243.22 43.775C240.206 43.3315 238.266 40.172 238.539 36.146C238.811 32.1199 240.879 29.5405 243.948 29.445C246.67 29.3631 248.78 31.3079 249.093 34.2558C249.134 35.0491 249.134 35.844 249.093 36.6373H249.175C249.179 37.6576 249.111 38.677 248.971 39.6875V39.6807Z" fill="white"/>
<path d="M22.5919 29.4653C21.3058 29.3493 20.3939 28.783 20.4484 27.4182C20.5028 26.0534 21.5099 25.8146 22.5851 25.7327C24.191 25.6167 24.0141 26.7699 23.9937 27.7799C23.9733 28.7898 23.9257 29.5882 22.5919 29.4653Z" fill="white"/>
<path d="M32.5747 0.000195364C26.0736 0.0663311 19.7378 2.06195 14.3667 5.73523C8.99552 9.40851 4.82972 14.5949 2.39493 20.6398C-0.039857 26.6848 -0.63453 33.3175 0.68595 39.7011C2.00643 46.0846 5.18289 51.9329 9.81452 56.508C14.4461 61.0831 20.3254 64.18 26.7104 65.4079C33.0954 66.6358 39.7 65.9397 45.6909 63.4074C51.6818 60.8751 56.7904 56.6201 60.3722 51.1793C63.9541 45.7385 65.8485 39.3558 65.8166 32.8364C65.7213 14.3643 51.118 -0.061219 32.5747 0.000195364ZM53.282 48.5517C51.2813 48.7496 49.6754 48.6404 50.002 45.8221C50.1287 44.2284 50.0693 42.6254 49.8251 41.0455C49.7985 40.3553 49.5232 39.6983 49.0501 39.1963C48.5771 38.6943 47.9385 38.3815 47.2528 38.3159C45.4768 38.0976 44.4016 39.1962 43.8912 40.6156C43.5723 41.8347 43.4528 43.0976 43.5374 44.355C43.4625 48.4493 41.9654 49.5548 38.0186 48.579C36.6576 48.2446 36.9366 47.3643 36.9026 46.5318C36.8413 44.8327 36.9638 43.1199 36.7461 41.4344C36.5487 39.9332 35.8955 38.5275 34.0854 38.3705C32.2753 38.2136 31.1729 39.36 30.5332 40.9431C29.9832 42.4493 29.8561 44.0779 30.1657 45.6516C30.5604 48.5994 28.9272 48.538 26.7633 48.6404C24.3271 48.7496 23.599 47.958 23.81 45.597C24.0209 43.2359 23.6943 41.0386 23.8984 38.7731C24.1026 36.5076 23.0478 36.1664 21.1016 36.2347C16.2837 36.4735 13.7251 39.4692 13.657 45.6788C13.657 47.8352 13.2147 48.6267 10.867 48.6404C8.41047 48.6404 7.46459 48.1695 7.66193 45.481C8.07703 40.2744 8.34242 35.0473 9.7034 29.9841C12.0851 21.154 17.3181 17.203 26.3822 17.1962H35.9091C40.1009 17.1962 44.2927 17.0939 48.4777 17.1962C53.4861 17.3463 56.9566 20.8606 57.0247 25.8829C57.1267 32.5839 56.9022 39.2849 57.1131 45.9791C57.2084 49.4592 54.9832 48.3811 53.282 48.5517Z" fill="white"/>
<path d="M91.9882 33.2459C96.6564 30.066 97.9698 27.3637 96.881 23.0989C95.7241 18.5815 92.172 17.3464 88.1707 16.8278C84.8907 16.4047 81.6244 16.7459 78.3512 17.0598C76.7044 17.2236 76.3642 17.9401 76.3778 19.4481C76.4391 28.3191 76.4867 37.1491 76.3778 45.9996C76.337 48.62 77.9974 47.8489 79.2903 47.9103C80.7057 47.9649 82.2641 48.3606 82.0667 45.8631C81.8421 43.0449 82.0667 40.1925 81.985 37.3606C81.917 35.7093 82.4886 35.2111 84.1014 35.2043C88.1843 35.2043 89.348 36.4599 90.8042 42.1305C92.6007 49.1386 91.3894 47.9649 98.3849 47.7738C95.9963 42.8061 96.9286 36.7943 91.9882 33.2459ZM84.7887 31.0623C79.9504 31.3216 82.8357 27.6503 81.9646 26.1218C82.162 23.6721 80.8758 20.6628 85.231 20.9835C89.4092 21.2701 91.4915 22.6963 91.4439 26.0058C91.3962 29.3154 89.1438 30.8371 84.7887 31.0623V31.0623Z" fill="white"/>
<path d="M254.85 17.1962C254.85 14.6782 253.278 15.2719 251.903 15.2173C250.413 15.1559 248.964 14.9239 249.093 17.3259C249.277 20.5467 249.141 23.7812 249.141 27.1795C243.356 23.9723 238.334 24.6478 235.184 28.8172C231.611 33.5939 232.026 41.9258 236.034 45.8768C239.723 49.4934 244.255 49.3364 249.787 45.0988C249.188 48.5107 251.393 47.8898 253.244 47.958C254.605 48.0194 254.925 47.4804 254.911 46.177C254.836 36.5008 254.775 26.8451 254.85 17.1962ZM248.97 39.7148C248.742 41.0189 248.011 42.1801 246.934 42.9466C245.858 43.7131 244.523 44.0231 243.22 43.8091C240.206 43.3656 238.266 40.2062 238.539 36.1801C238.811 32.1541 240.879 29.5746 243.948 29.4791C246.67 29.3972 248.78 31.342 249.093 34.2899C249.134 35.0832 249.134 35.8781 249.093 36.6714H249.175C249.178 37.6804 249.109 38.6883 248.97 39.6876V39.7148Z" fill="white"/>
<path d="M110.566 25.0914C103.42 24.9072 98.8 29.3563 98.6911 36.535C98.5822 43.7137 102.951 48.4016 109.715 48.4835C116.479 48.5654 121.161 43.816 121.283 36.924C121.406 30.0319 117.194 25.2484 110.566 25.0914ZM115.077 39.5375C114.397 42.1374 112.981 44.2527 110.103 44.3142C107.054 44.3687 105.537 42.267 104.836 39.4897C104.358 37.6162 104.375 35.6503 104.884 33.785C105.564 31.151 107.041 29.2813 110.001 29.254C112.961 29.2267 114.363 31.2465 115.057 33.8396C115.255 34.8164 115.385 35.806 115.445 36.8011C115.379 37.72 115.256 38.6339 115.077 39.5375V39.5375Z" fill="white"/>
<path d="M181.003 47.9308C179.424 48.0263 178.186 48.0741 178.329 45.7608C178.54 42.3489 178.431 38.937 178.363 35.5251C178.288 31.6969 176.77 29.6634 174.137 29.6361C171.34 29.6361 169.503 31.8948 169.462 35.5319C169.462 38.9438 169.312 42.3557 169.503 45.7676C169.632 48.1082 168.319 48.0195 166.781 47.9308C165.243 47.8421 163.596 48.5313 163.671 45.7881C163.821 40.2335 163.596 34.6721 163.671 29.1175C163.671 27.9233 162.399 26.0604 164.787 25.5145C167.176 24.9686 168.189 25.6169 169.183 28.1826C172.068 25.1256 175.559 24.1498 179.39 25.7943C183.221 27.4388 184.004 31.0623 184.004 34.8836C184.004 38.5139 183.848 42.151 184.065 45.8017C184.215 48.4903 182.48 47.8421 181.003 47.9308Z" fill="white"/>
<path d="M215 25.4463C212.485 24.6587 209.767 24.8388 207.377 25.9515C204.986 27.0642 203.095 29.0298 202.071 31.4649C199.928 36.3439 200.792 42.2329 204.113 45.4265C207.331 48.5108 214.388 49.3774 218.92 47.4736C220.58 46.7912 219.975 45.8018 219.846 44.7441C219.689 43.4748 219.24 43.0722 217.804 43.4885C215.725 44.0854 213.539 44.2043 211.407 43.8365C210.398 43.7134 209.439 43.3257 208.626 42.7123C207.814 42.0989 207.177 41.2816 206.78 40.3427C206.154 38.937 206.379 38.241 208.093 38.2956C210.012 38.3774 211.945 38.2956 213.871 38.2956C215.797 38.2956 217.729 38.2341 219.648 38.2956C220.941 38.357 221.356 37.9203 221.479 36.5964C221.935 31.54 219.199 26.6746 215 25.4463ZM214.368 34.3173C211.795 34.2149 209.216 34.3173 206.474 34.3173C206.896 31.1988 208.298 29.2199 211.305 28.9469C213.605 28.7422 215.137 30.0387 215.831 32.2292C216.218 33.4711 216.13 34.3992 214.368 34.3377V34.3173Z" fill="white"/>
<path d="M154.593 25.4802C152.136 24.6834 149.473 24.8127 147.104 25.8441C144.735 26.8755 142.823 28.7381 141.725 31.0826C139.466 35.7979 140.16 41.837 143.331 45.1397C146.502 48.4424 153.641 49.5069 158.356 47.4939C159.377 47.0572 159.67 46.6136 159.527 45.4877C159.302 43.6453 158.812 43.1676 156.757 43.618C151.313 44.7985 147.911 43.618 146.468 40.7315C145.733 39.2234 145.55 38.1521 147.829 38.309C149.633 38.4319 151.456 38.309 153.273 38.309C155.199 38.309 157.132 38.2613 159.057 38.309C160.262 38.35 160.813 38.077 160.963 36.685C161.521 31.6831 158.799 26.7495 154.593 25.4802ZM155.444 33.3891C155.104 35.2042 153.402 33.9964 152.341 34.2898C151.783 34.3618 151.218 34.3618 150.66 34.2898C150.208 34.3463 149.751 34.3463 149.299 34.2898C148.204 34.0032 146.455 35.1155 146.108 33.5528C145.842 32.3587 146.843 31.0007 147.931 30.1409C148.674 29.4317 149.637 28.9998 150.659 28.9179C151.681 28.8359 152.7 29.1087 153.545 29.6905C154.198 30.0414 154.73 30.583 155.069 31.2435C155.408 31.904 155.539 32.6523 155.444 33.3891V33.3891Z" fill="white"/>
<path d="M201.22 17.1961C200.928 18.3562 201.479 19.8437 199.118 19.4002C196.477 18.9089 195.307 20.765 194.953 23.2079C194.749 24.6272 194.844 25.6576 196.743 25.528C198.233 25.4256 199.873 24.9889 199.873 27.6707C199.873 30.3524 198.294 29.8338 196.763 29.8816C196.325 29.9361 195.894 30.0367 195.477 30.1818C194.382 30.7687 194.967 31.7991 194.953 32.5906C194.885 37.0057 194.953 41.4207 194.899 45.8357C194.899 46.6136 195.355 47.5758 193.932 47.9374C190.632 48.7767 189.264 47.8214 189.264 44.4231C189.264 42.376 189.387 40.3289 189.23 38.2817C189.019 35.5522 189.945 32.7612 188.665 30.0931C187.57 29.6291 185.903 30.0522 186.073 27.8413C186.195 26.2308 186.386 25.4325 188.284 25.3574C189.952 25.2892 189.176 23.5559 189.332 22.5801C190.217 17.0119 193.905 14.1459 199.295 14.8555C200.778 15.1012 201.656 15.4492 201.22 17.1961Z" fill="white"/>
<path d="M135.084 47.1802C131.552 48.9748 127.898 48.6541 124.196 47.5077C122.216 46.9004 123.114 45.7062 123.304 44.5803C123.556 43.0654 124.216 42.7993 125.645 43.4339C127.176 44.1163 128.844 44.6554 130.579 44.2596C131.715 44.0003 132.777 43.5772 132.988 42.2124C133.104 41.6461 133.01 41.0569 132.725 40.5547C132.439 40.0525 131.981 39.6715 131.436 39.4829C130.313 38.9506 129.157 38.5071 128.034 37.9817C124.461 36.3098 122.882 33.8874 123.372 30.9327C123.896 27.7186 126.578 25.5145 130.402 25.1529C130.967 25.0983 131.531 25.0846 132.403 25.0369C133.335 25.187 134.573 25.3303 135.805 25.5828C137.234 25.8694 137.969 26.4699 137.282 28.1826C136.764 29.4724 136.567 30.5915 134.825 29.5952C134.198 29.33 133.526 29.1864 132.845 29.1721C131.191 28.9674 129.442 29.0152 128.932 30.9258C128.422 32.8365 130.136 33.3756 131.416 34.017C132.818 34.7335 134.39 35.1702 135.696 36.0232C136.663 36.627 137.45 37.4802 137.975 38.4935C138.501 39.5068 138.745 40.6431 138.682 41.7834C138.619 42.9238 138.252 44.0263 137.619 44.9757C136.986 45.925 136.111 46.6864 135.084 47.1802V47.1802Z" fill="white"/>
<path d="M229.529 15.7905H229.522V15.77L229.529 15.7905Z" fill="white"/>
<path d="M229.488 47.6645C227.927 48.0521 226.297 48.0777 224.725 47.7396C223.976 43.0311 224.52 38.2818 224.418 33.5529C224.316 29.0287 224.418 24.5045 224.418 19.9803C224.418 15.0194 224.418 15.0193 229.536 15.7904C230.216 23.4809 229.719 31.185 229.801 38.8823C229.821 41.8029 230.216 44.7576 229.488 47.6645Z" fill="white"/>
<path d="M229.522 15.7906C224.759 15.8588 224.759 15.8588 224.759 20.5058C224.759 29.6043 224.759 38.6822 224.759 47.7397C223.479 46.9481 224.207 45.6926 224.201 44.7167C224.133 36.2006 224.16 27.6572 224.16 19.1684C224.139 14.6851 224.786 14.2825 229.522 15.7906Z" fill="white"/>
<path d="M229.488 47.6646C229.488 37.0422 229.499 26.4175 229.522 15.7905C230.339 23.2967 229.753 30.8029 229.842 38.3091C229.876 41.4413 230.359 44.587 229.488 47.6646Z" fill="white"/>
<path d="M22.5919 29.4653C21.3058 29.3493 20.3939 28.783 20.4484 27.4182C20.5028 26.0534 21.5099 25.8146 22.5851 25.7327C24.191 25.6167 24.0141 26.7699 23.9937 27.7799C23.9733 28.7898 23.9257 29.5882 22.5919 29.4653Z" fill="white"/>
<path d="M22.5919 29.4653C21.3058 29.3493 20.3939 28.783 20.4484 27.4182C20.5028 26.0534 21.5099 25.8146 22.5851 25.7327C24.191 25.6167 24.0141 26.7699 23.9937 27.7799C23.9733 28.7898 23.9257 29.5882 22.5919 29.4653Z" fill="white"/>
</svg>
