<svg width="160" height="44" viewBox="0 0 160 44" fill="none" xmlns="http://www.w3.org/2000/svg">
<path fill-rule="evenodd" clip-rule="evenodd" d="M21.1609 2.09521C22.1184 2.09521 22.9396 2.68657 23.3 3.53185C23.3361 3.61621 23.4161 3.66246 23.4964 3.66246C23.5537 3.66246 23.6113 3.63861 23.6528 3.58799C24.0918 3.05045 24.747 2.72874 25.4426 2.72874C25.6424 2.72874 25.8455 2.7555 26.0476 2.81077C26.9741 3.06529 27.6186 3.85647 27.752 4.7707C27.7679 4.88007 27.863 4.95104 27.9614 4.95104C28.0014 4.95104 28.0423 4.93911 28.0786 4.91323C28.4734 4.62962 28.9444 4.47807 29.4238 4.47807C29.8191 4.47807 30.2198 4.58134 30.5873 4.79862C31.4179 5.2902 31.8407 6.22537 31.7386 7.14367C31.7241 7.2734 31.8297 7.38073 31.9483 7.38073C31.9713 7.38073 31.9948 7.37666 32.0181 7.36793C32.2769 7.27136 32.549 7.22278 32.8209 7.22278C33.418 7.22278 34.0145 7.45578 34.47 7.92292C35.1482 8.61812 35.3205 9.63357 34.9901 10.4934C34.9365 10.6327 35.0426 10.7851 35.1851 10.7851C35.1913 10.7851 35.1973 10.7849 35.2033 10.7843C35.2716 10.7782 35.3398 10.775 35.4081 10.775C36.2149 10.775 36.9993 11.2028 37.4318 11.9708C37.9114 12.8222 37.8211 13.8487 37.2848 14.5916C37.1946 14.7169 37.2678 14.9022 37.4176 14.9293C38.2843 15.0855 39.0275 15.7376 39.2704 16.6664C39.5187 17.6161 39.1725 18.5838 38.4667 19.1592C38.3478 19.2561 38.3717 19.4544 38.5096 19.5205C39.3073 19.9012 39.8607 20.7285 39.8607 21.6898C39.8607 22.6715 39.284 23.513 38.4594 23.8824C38.318 23.9459 38.2863 24.1425 38.4043 24.244C39.0794 24.8234 39.4055 25.7697 39.1626 26.6987C38.9143 27.6484 38.1424 28.309 37.2505 28.4457C37.1001 28.4687 37.0243 28.6528 37.1114 28.7805C37.6165 29.519 37.6923 30.5191 37.2232 31.3519C36.7907 32.1195 36.0066 32.5474 35.1998 32.5474C35.1119 32.5474 35.0233 32.5421 34.9354 32.5319C34.9277 32.5311 34.9198 32.5305 34.9124 32.5305C34.7725 32.5305 34.6672 32.6794 34.7166 32.8185C35.0179 33.6658 34.8386 34.6519 34.1751 35.3316C33.7196 35.7988 33.1231 36.0318 32.5263 36.0318C32.2346 36.0318 31.9429 35.9759 31.6673 35.8648C31.6429 35.8549 31.618 35.8503 31.5935 35.8503C31.4772 35.8503 31.3725 35.955 31.3836 36.0835C31.4607 36.9818 31.0385 37.8867 30.226 38.3675C29.8588 38.5848 29.4581 38.6881 29.0628 38.6881C28.5639 38.6881 28.0735 38.5237 27.6691 38.2171C27.6322 38.1892 27.5902 38.1764 27.5488 38.1764C27.4523 38.1764 27.3581 38.2456 27.3397 38.353C27.1873 39.2413 26.551 40.0034 25.6449 40.2521C25.4426 40.3077 25.2397 40.3341 25.0399 40.3341C24.3245 40.3341 23.6519 39.9938 23.2129 39.4283C23.1718 39.3754 23.1119 39.3501 23.052 39.3501C22.9742 39.3501 22.8968 39.3926 22.8607 39.4723C22.489 40.2899 21.6819 40.8571 20.744 40.8571C19.7862 40.8571 18.9653 40.2661 18.6049 39.4208C18.5688 39.3364 18.4888 39.2902 18.4085 39.2902C18.3511 39.2902 18.2935 39.3137 18.2521 39.3643C17.8131 39.9019 17.1578 40.2236 16.4623 40.2236C16.2625 40.2236 16.0593 40.1971 15.8573 40.1416C14.9307 39.887 14.2863 39.0959 14.1529 38.1819C14.137 38.0723 14.0419 38.0013 13.9434 38.0013C13.9034 38.0013 13.8626 38.0132 13.8262 38.0394C13.4315 38.323 12.9604 38.4746 12.4811 38.4746C12.0858 38.4746 11.6851 38.3713 11.3176 38.1537C10.487 37.6621 10.0644 36.727 10.1663 35.8087C10.1808 35.6789 10.0752 35.5719 9.9566 35.5719C9.93361 35.5719 9.91006 35.5757 9.88679 35.5844C9.62798 35.6813 9.35583 35.7295 9.08397 35.7295C8.48689 35.7295 7.89038 35.4966 7.43491 35.0297C6.75667 34.3342 6.58442 33.3188 6.91474 32.4589C6.96837 32.3199 6.86224 32.1672 6.71978 32.1672C6.71354 32.1672 6.70758 32.1675 6.70162 32.1681C6.63323 32.1742 6.56512 32.1774 6.49673 32.1774C5.68994 32.1774 4.90556 31.7495 4.47308 30.9816C3.99349 30.1302 4.08373 29.1037 4.62008 28.3608C4.71032 28.2354 4.6371 28.0501 4.48727 28.0231C3.6206 27.8669 2.87737 27.2147 2.63446 26.286C2.38615 25.3362 2.73236 24.3685 3.43813 23.7934C3.55703 23.6963 3.53319 23.4979 3.39528 23.4322C2.59756 23.0514 2.04419 22.2242 2.04419 21.2625C2.04419 20.2811 2.62083 19.4393 3.44579 19.0699C3.58683 19.0065 3.61861 18.8098 3.50056 18.7086C2.82544 18.1292 2.49938 17.1827 2.74229 16.2536C2.9906 15.3039 3.76249 14.6433 4.65442 14.5066C4.80482 14.4836 4.88059 14.2995 4.79347 14.1718C4.28834 13.4333 4.21257 12.4333 4.68166 11.6008C5.11414 10.8329 5.89823 10.4053 6.70502 10.4053C6.793 10.4053 6.88125 10.4102 6.96951 10.4207C6.97717 10.4216 6.98512 10.4218 6.99278 10.4218C7.1324 10.4218 7.23768 10.2729 7.1883 10.1342C6.88693 9.28655 7.06628 8.30048 7.72948 7.6207C8.18523 7.15356 8.78174 6.92086 9.37853 6.92086C9.67026 6.92086 9.96199 6.97641 10.2375 7.08782C10.2619 7.09771 10.2869 7.10207 10.3113 7.10207C10.4277 7.10207 10.5324 6.99736 10.5213 6.86908C10.4441 5.97056 10.8664 5.06565 11.6789 4.58483C12.0461 4.36754 12.4468 4.26428 12.8421 4.26428C13.341 4.26428 13.8316 4.42863 14.2357 4.7355C14.2726 4.76313 14.3146 4.77593 14.3561 4.77593C14.4526 4.77593 14.5468 4.70699 14.5652 4.59937C14.7176 3.71103 15.3538 2.94923 16.26 2.70024C16.4623 2.64468 16.6652 2.61821 16.865 2.61821C17.5804 2.61821 18.253 2.95854 18.692 3.524C18.7331 3.57723 18.793 3.60254 18.8529 3.60254C18.9306 3.60254 19.0081 3.55978 19.0444 3.48008C19.4159 2.66242 20.223 2.09521 21.1609 2.09521Z" fill="white"/>
<path fill-rule="evenodd" clip-rule="evenodd" d="M29.9015 31.1424C27.7692 31.1424 27.9365 28.0571 29.9015 28.0571C31.8665 28.0571 32.0338 31.1424 29.9015 31.1424ZM12.2816 31.1424C10.1493 31.1424 10.3166 28.0571 12.2816 28.0571C14.2466 28.0571 14.414 31.1424 12.2816 31.1424ZM36.3437 19.7432H35.6213C34.3258 19.7432 33.2132 18.9495 32.7152 17.8121C32.2172 18.9495 31.1046 19.7432 29.8094 19.7432C28.5139 19.7432 27.4015 18.9495 26.9035 17.8121C26.4056 18.9495 25.2929 19.7432 23.9974 19.7432C22.7022 19.7432 21.5895 18.9495 21.0916 17.8121C20.5936 18.9495 19.4809 19.7432 18.1857 19.7432C16.8902 19.7432 15.7778 18.9495 15.2796 17.8121C14.7816 18.9495 13.6693 19.7432 12.3738 19.7432C11.0783 19.7432 9.96588 18.9495 9.46792 17.8121C8.96995 18.9495 7.8573 19.7432 6.56179 19.7432H5.84763C4.76408 20.938 5.4514 21.9474 8.1272 21.9474V28.0831C8.1272 33.8495 14.6058 36.7327 21.0845 36.7327C27.5632 36.7327 34.0418 33.8495 34.0418 28.0831V21.9474C36.7199 21.9474 37.4188 20.938 36.3437 19.7432Z" fill="#2F2F2F"/>
<path fill-rule="evenodd" clip-rule="evenodd" d="M21.299 0.00402832C20.3502 0.00402832 19.4422 0.308742 18.6882 0.844599C18.1645 0.63547 17.6009 0.524823 17.0207 0.524823C16.6208 0.524823 16.2212 0.578988 15.8329 0.68558C14.9153 0.937577 14.114 1.47401 13.5206 2.19322C13.3527 2.17381 13.1837 2.16396 13.0144 2.16396C12.2132 2.16396 11.4216 2.38178 10.7255 2.79367C9.90309 3.28028 9.26495 4.0105 8.87324 4.86207C7.91179 5.01038 7.02466 5.46716 6.32434 6.18492C5.65172 6.874 5.21961 7.74991 5.05682 8.67766C4.17676 9.07478 3.42359 9.75082 2.92958 10.6282C2.45451 11.4714 2.25809 12.431 2.33468 13.3694C1.58744 13.9826 1.03069 14.8328 0.772385 15.8202C0.526511 16.761 0.579077 17.74 0.889953 18.6263C0.323311 19.4168 0 20.386 0 21.4079C0 22.3817 0.297876 23.3132 0.822125 24.0869C0.474227 25.0007 0.406682 26.0223 0.664709 27.01C0.910866 27.9505 1.43399 28.7711 2.13543 29.3794C2.0303 30.3544 2.22304 31.3592 2.72186 32.2446C3.19552 33.0858 3.90743 33.7421 4.74086 34.1445C4.88584 35.1136 5.32559 36.033 6.03071 36.7557C6.70248 37.4439 7.5458 37.8923 8.46232 38.0588C8.84724 38.955 9.50347 39.7243 10.3657 40.2347C11.0621 40.6469 11.8537 40.8647 12.6549 40.8647C12.7852 40.8647 12.9146 40.8589 13.0432 40.8479C13.6412 41.612 14.4699 42.1814 15.4319 42.4456C15.8202 42.5522 16.2198 42.6064 16.6197 42.6064C17.1567 42.6064 17.6818 42.5105 18.1744 42.3286C18.9448 42.907 19.8887 43.2372 20.8838 43.2372C21.8325 43.2372 22.7406 42.9325 23.4946 42.3967C24.0183 42.6061 24.5821 42.7164 25.162 42.7164C25.5619 42.7164 25.9615 42.6626 26.3498 42.5557C27.2675 42.3037 28.0687 41.7672 28.6619 41.048C28.8301 41.0674 28.9991 41.0773 29.1683 41.0773C29.9696 41.0773 30.7612 40.8595 31.4572 40.4476C32.2799 39.961 32.9178 39.2308 33.3095 38.3792C34.2712 38.2309 35.1581 37.7741 35.8584 37.0563C36.5307 36.3673 36.9629 35.4913 37.1259 34.5636C38.006 34.1668 38.7591 33.4907 39.2532 32.6134C39.7282 31.7702 39.9247 30.8106 39.8481 29.8721C40.5953 29.2589 41.152 28.4088 41.4104 27.4211C41.6562 26.4803 41.6037 25.5012 41.2928 24.6152C41.8594 23.8244 42.1827 22.8556 42.1827 21.8334C42.1827 20.8599 41.8846 19.928 41.3606 19.1547C41.7085 18.2408 41.7761 17.2189 41.5177 16.2312C41.2719 15.2907 40.7488 14.4701 40.0473 13.8619C40.1524 12.8869 39.9597 11.8821 39.4609 10.9966C38.9869 10.1555 38.2753 9.49941 37.4419 9.09679C37.2969 8.12761 36.8572 7.20855 36.152 6.48586C35.4803 5.79736 34.6369 5.34898 33.7204 5.18272C33.3358 4.28654 32.6795 3.51693 31.817 3.00656C31.1209 2.59468 30.3293 2.37686 29.5281 2.37686C29.3978 2.37686 29.2681 2.38236 29.1395 2.39337C28.5415 1.62956 27.7129 1.05981 26.7509 0.795648C26.3626 0.689056 25.9629 0.634891 25.5633 0.634891C25.0261 0.634891 24.501 0.730766 24.0084 0.912957C23.238 0.334232 22.294 0.00402832 21.299 0.00402832ZM21.299 2.32125C22.2525 2.32125 23.0704 2.91011 23.4293 3.75184C23.4652 3.83584 23.5449 3.88189 23.6249 3.88189C23.682 3.88189 23.7393 3.85814 23.7806 3.80774C24.2178 3.27246 24.8703 2.95211 25.563 2.95211C25.762 2.95211 25.9643 2.97876 26.1656 3.03379C27.0883 3.28724 27.7301 4.07509 27.863 4.98547C27.8788 5.09438 27.9735 5.16505 28.0715 5.16505C28.1114 5.16505 28.1521 5.15318 28.1882 5.1274C28.5814 4.84499 29.0505 4.69408 29.5278 4.69408C29.9215 4.69408 30.3206 4.7969 30.6866 5.01327C31.5138 5.50279 31.9349 6.43402 31.8331 7.34845C31.8187 7.47763 31.9238 7.58452 32.042 7.58452C32.0649 7.58452 32.0883 7.58046 32.1115 7.57177C32.3692 7.47561 32.6403 7.42723 32.911 7.42723C33.5056 7.42723 34.0997 7.65925 34.5533 8.12443C35.2287 8.8167 35.4003 9.82787 35.0713 10.6841C35.0179 10.8228 35.1236 10.9746 35.2655 10.9746C35.2717 10.9746 35.2776 10.9743 35.2836 10.9737C35.3517 10.9677 35.4195 10.9645 35.4876 10.9645C36.2911 10.9645 37.0722 11.3905 37.5029 12.1552C37.9805 13.003 37.8907 14.0252 37.3565 14.765C37.2667 14.8898 37.3396 15.0743 37.4888 15.1013C38.3519 15.2568 39.0921 15.9062 39.334 16.8311C39.5813 17.7768 39.2365 18.7405 38.5336 19.3134C38.4152 19.4099 38.4389 19.6074 38.5763 19.6731C39.3707 20.0523 39.9218 20.8761 39.9218 21.8334C39.9218 22.811 39.3476 23.6489 38.5263 24.0168C38.3855 24.0799 38.3539 24.2757 38.4714 24.3768C39.1438 24.9538 39.4685 25.896 39.2266 26.8212C38.9793 27.7669 38.2106 28.4247 37.3223 28.5608C37.1726 28.5837 37.0971 28.7671 37.1839 28.8942C37.6869 29.6297 37.7624 30.6255 37.2952 31.4548C36.8645 32.2191 36.0836 32.6452 35.2802 32.6452C35.1926 32.6452 35.1044 32.64 35.0168 32.6299C35.0091 32.629 35.0012 32.6284 34.9939 32.6284C34.8545 32.6284 34.7497 32.7767 34.7989 32.9152C35.099 33.7589 34.9204 34.7409 34.2596 35.4178C33.806 35.883 33.212 36.115 32.6177 36.115C32.3271 36.115 32.0366 36.0594 31.7622 35.9487C31.7379 35.9389 31.713 35.9342 31.6887 35.9342C31.5728 35.9342 31.4685 36.0385 31.4796 36.1665C31.5564 37.061 31.1359 37.9621 30.3268 38.4409C29.9611 38.6572 29.562 38.7601 29.1683 38.7601C28.6715 38.7601 28.1832 38.5964 27.7804 38.2911C27.7437 38.2633 27.7019 38.2506 27.6606 38.2506C27.5645 38.2506 27.4707 38.3195 27.4523 38.4264C27.3005 39.311 26.6669 40.0699 25.7645 40.3175C25.563 40.3729 25.361 40.3992 25.162 40.3992C24.4495 40.3992 23.7797 40.0603 23.3425 39.4972C23.3016 39.4445 23.2419 39.4193 23.1823 39.4193C23.1049 39.4193 23.0277 39.4616 22.9918 39.541C22.6216 40.3552 21.8178 40.92 20.8838 40.92C19.93 40.92 19.1124 40.3314 18.7534 39.4897C18.7175 39.4057 18.6379 39.3596 18.5579 39.3596C18.5008 39.3596 18.4434 39.3831 18.4022 39.4335C17.9649 39.9688 17.3124 40.2891 16.6197 40.2891C16.4207 40.2891 16.2184 40.2628 16.0172 40.2075C15.0944 39.954 14.4526 39.1662 14.3198 38.2561C14.304 38.1469 14.2093 38.0762 14.1112 38.0762C14.0714 38.0762 14.0307 38.0881 13.9945 38.1141C13.6014 38.3966 13.1322 38.5475 12.6549 38.5475C12.2612 38.5475 11.8622 38.4446 11.4962 38.228C10.669 37.7385 10.2482 36.8072 10.3496 35.8928C10.364 35.7636 10.2589 35.657 10.1408 35.657C10.1179 35.657 10.0944 35.6608 10.0712 35.6695C9.8135 35.7659 9.54247 35.814 9.27173 35.814C8.67711 35.814 8.08305 35.582 7.62946 35.1171C6.95401 34.4246 6.78246 33.4134 7.11143 32.5572C7.16484 32.4187 7.05914 32.2666 6.91727 32.2666C6.91105 32.2666 6.90512 32.2669 6.89918 32.2675C6.83107 32.2736 6.76324 32.2768 6.69513 32.2768C5.89166 32.2768 5.11052 31.8507 4.67981 31.086C4.20219 30.2382 4.29206 29.216 4.82621 28.4763C4.91608 28.3514 4.84316 28.1669 4.69394 28.14C3.83084 27.9844 3.09067 27.335 2.84875 26.4102C2.60147 25.4645 2.94625 24.5008 3.64912 23.9281C3.76753 23.8314 3.74379 23.6339 3.60644 23.5684C2.81201 23.1892 2.26091 22.3655 2.26091 21.4079C2.26091 20.4306 2.83519 19.5923 3.65675 19.2245C3.79721 19.1613 3.82886 18.9655 3.71129 18.8647C3.03895 18.2877 2.71423 17.3452 2.95615 16.4201C3.20343 15.4744 3.97215 14.8166 4.8604 14.6804C5.01019 14.6575 5.08565 14.4742 4.99888 14.347C4.49583 13.6116 4.42037 12.6158 4.88753 11.7868C5.31824 11.0221 6.0991 10.5963 6.90257 10.5963C6.99018 10.5963 7.07808 10.6012 7.16597 10.6117C7.1736 10.6125 7.18151 10.6128 7.18914 10.6128C7.32819 10.6128 7.43304 10.4645 7.38387 10.3264C7.08373 9.48232 7.26234 8.5004 7.92281 7.82348C8.37669 7.3583 8.97075 7.12658 9.56508 7.12658C9.85561 7.12658 10.1461 7.1819 10.4206 7.29284C10.4449 7.30268 10.4697 7.30703 10.494 7.30703C10.6099 7.30703 10.7142 7.20275 10.7032 7.07502C10.6263 6.18028 11.0468 5.27917 11.856 4.80038C12.2217 4.58401 12.6207 4.48118 13.0144 4.48118C13.5112 4.48118 13.9999 4.64484 14.4023 4.95042C14.4391 4.97794 14.4809 4.99068 14.5221 4.99068C14.6182 4.99068 14.7121 4.92203 14.7304 4.81486C14.8822 3.93026 15.5158 3.17166 16.4182 2.92372C16.6197 2.8684 16.8218 2.84204 17.0207 2.84204C17.7332 2.84204 18.403 3.18093 18.8402 3.74402C18.8812 3.79702 18.9408 3.82222 19.0004 3.82222C19.0779 3.82222 19.155 3.77964 19.1912 3.70028C19.5612 2.88607 20.3649 2.32125 21.299 2.32125Z" fill="#2F2F2F"/>
<path fill-rule="evenodd" clip-rule="evenodd" d="M58.601 29.2C58.9289 29.2 59.2066 29.3307 59.4342 29.592C59.6619 29.8534 59.7757 30.1894 59.7757 30.6C59.7757 31.0107 59.6254 31.3467 59.3249 31.608C59.0245 31.8694 58.6375 32 58.164 32H57.6723C56.7799 32 55.965 31.762 55.2274 31.286C54.4898 30.81 53.9116 30.1614 53.4928 29.34C53.0739 28.5187 52.8645 27.5947 52.8645 26.568V19.652H51.6079C51.2254 19.652 50.9158 19.54 50.6791 19.316C50.4423 19.092 50.324 18.812 50.324 18.476C50.324 18.1027 50.4423 17.804 50.6791 17.58C50.9158 17.356 51.2254 17.244 51.6079 17.244H52.8645V13.212C52.8645 12.8014 52.9919 12.4654 53.2469 12.204C53.5019 11.9427 53.8297 11.812 54.2303 11.812C54.631 11.812 54.9588 11.9427 55.2137 12.204C55.4687 12.4654 55.5962 12.8014 55.5962 13.212V17.244H57.9181C58.3006 17.244 58.6102 17.356 58.8469 17.58C59.0837 17.804 59.202 18.1027 59.202 18.476C59.202 18.812 59.0837 19.092 58.8469 19.316C58.6102 19.54 58.3006 19.652 57.9181 19.652H55.5962V26.568C55.5962 27.3147 55.7965 27.94 56.1971 28.444C56.5978 28.948 57.0895 29.2 57.6723 29.2H58.601ZM69.0089 16.572C70.4111 16.572 71.6814 16.9127 72.8196 17.594C73.9578 18.2754 74.8593 19.2087 75.524 20.394C76.1887 21.5794 76.521 22.9 76.521 24.356V30.6C76.521 31.0107 76.389 31.3514 76.125 31.622C75.8609 31.8927 75.5285 32.028 75.1279 32.028C74.7272 32.028 74.3949 31.8927 74.1308 31.622C73.8667 31.3514 73.7347 31.0107 73.7347 30.6V29.564C73.0973 30.3667 72.3233 30.992 71.4128 31.44C70.5022 31.888 69.5188 32.112 68.4625 32.112C67.1513 32.112 65.963 31.776 64.8976 31.104C63.8323 30.432 62.9945 29.5034 62.3845 28.318C61.7744 27.1327 61.4693 25.812 61.4693 24.356C61.4693 22.9 61.7971 21.5794 62.4528 20.394C63.1084 19.2087 64.0144 18.2754 65.1708 17.594C66.3272 16.9127 67.6066 16.572 69.0089 16.572ZM69.0089 29.592C69.9194 29.592 70.7435 29.3634 71.481 28.906C72.2186 28.4487 72.7968 27.8234 73.2157 27.03C73.6345 26.2367 73.844 25.3454 73.844 24.356C73.844 23.3667 73.6345 22.4707 73.2157 21.668C72.7968 20.8653 72.2186 20.2354 71.481 19.778C70.7435 19.3207 69.9194 19.092 69.0089 19.092C68.0983 19.092 67.2742 19.3207 66.5367 19.778C65.7991 20.2354 65.2163 20.8653 64.7884 21.668C64.3604 22.4707 64.1464 23.3667 64.1464 24.356C64.1464 25.3454 64.3604 26.2367 64.7884 27.03C65.2163 27.8234 65.7991 28.4487 66.5367 28.906C67.2742 29.3634 68.0983 29.592 69.0089 29.592ZM85.1532 32.112C83.9149 32.112 82.7493 31.916 81.6567 31.524C80.564 31.132 79.708 30.6187 79.0889 29.984C78.8521 29.7414 78.7337 29.452 78.7337 29.116C78.7337 28.668 78.9158 28.304 79.2801 28.024C79.6261 27.7627 79.9448 27.632 80.2362 27.632C80.6004 27.632 80.9464 27.8 81.2742 28.136C81.6202 28.528 82.1393 28.8687 82.8313 29.158C83.5233 29.4474 84.2609 29.592 85.044 29.592C86.082 29.592 86.8879 29.4147 87.4615 29.06C88.0352 28.7054 88.322 28.2294 88.322 27.632C88.322 27.0533 88.0398 26.5727 87.4752 26.19C86.9106 25.8074 85.9546 25.4854 84.6069 25.224C81.1103 24.5333 79.362 23.0587 79.362 20.8C79.362 19.8853 79.6261 19.1107 80.1542 18.476C80.6823 17.8413 81.3744 17.3654 82.2303 17.048C83.0863 16.7307 83.9968 16.572 84.962 16.572C86.1458 16.572 87.2066 16.768 88.1445 17.16C89.0824 17.552 89.8245 18.0933 90.3708 18.784C90.6076 19.0827 90.7259 19.3814 90.7259 19.68C90.7259 19.9974 90.5711 20.2867 90.2615 20.548C90.0612 20.6974 89.8063 20.772 89.4967 20.772C89.0232 20.772 88.5952 20.5947 88.2128 20.24C87.7575 19.8107 87.2749 19.5074 86.7649 19.33C86.255 19.1527 85.6358 19.064 84.9074 19.064C84.0697 19.064 83.3822 19.2087 82.845 19.498C82.3077 19.7874 82.0391 20.1933 82.0391 20.716C82.0391 21.0894 82.1302 21.402 82.3123 21.654C82.4944 21.906 82.8404 22.1394 83.3503 22.354C83.8602 22.5687 84.5978 22.7787 85.563 22.984C87.5481 23.3947 88.9549 23.964 89.7835 24.692C90.6121 25.42 91.0264 26.3627 91.0264 27.52C91.0264 28.3787 90.7988 29.158 90.3435 29.858C89.8882 30.558 89.2189 31.1087 88.3357 31.51C87.4524 31.9114 86.3916 32.112 85.1532 32.112ZM104.876 29.984C105.076 30.208 105.177 30.488 105.177 30.824C105.177 31.2347 105.013 31.58 104.685 31.86C104.412 32.084 104.12 32.196 103.811 32.196C103.41 32.196 103.082 32.028 102.827 31.692L97.6371 25.112L96.2713 26.344V30.628C96.2713 31.0387 96.1484 31.37 95.9025 31.622C95.6567 31.874 95.3334 32 94.9328 32C94.5321 32 94.2089 31.874 93.963 31.622C93.7171 31.37 93.5942 31.0387 93.5942 30.628V11.504C93.5942 11.0934 93.7171 10.762 93.963 10.51C94.2089 10.258 94.5321 10.132 94.9328 10.132C95.3334 10.132 95.6567 10.258 95.9025 10.51C96.1484 10.762 96.2713 11.0934 96.2713 11.504V22.9L102.909 16.824C103.146 16.5814 103.428 16.46 103.756 16.46C104.139 16.46 104.448 16.6094 104.685 16.908C104.922 17.1507 105.04 17.44 105.04 17.776C105.04 18.168 104.894 18.4854 104.603 18.728L99.5767 23.32L104.876 29.984ZM113.59 16.572C114.993 16.572 116.263 16.9127 117.401 17.594C118.539 18.2754 119.441 19.2087 120.105 20.394C120.77 21.5794 121.103 22.9 121.103 24.356V30.6C121.103 31.0107 120.97 31.3514 120.706 31.622C120.442 31.8927 120.11 32.028 119.709 32.028C119.309 32.028 118.976 31.8927 118.712 31.622C118.448 31.3514 118.316 31.0107 118.316 30.6V29.564C117.679 30.3667 116.905 30.992 115.994 31.44C115.084 31.888 114.1 32.112 113.044 32.112C111.733 32.112 110.544 31.776 109.479 31.104C108.414 30.432 107.576 29.5034 106.966 28.318C106.356 27.1327 106.051 25.812 106.051 24.356C106.051 22.9 106.379 21.5794 107.034 20.394C107.69 19.2087 108.596 18.2754 109.752 17.594C110.909 16.9127 112.188 16.572 113.59 16.572ZM113.59 29.592C114.501 29.592 115.325 29.3634 116.063 28.906C116.8 28.4487 117.378 27.8234 117.797 27.03C118.216 26.2367 118.425 25.3454 118.425 24.356C118.425 23.3667 118.216 22.4707 117.797 21.668C117.378 20.8653 116.8 20.2354 116.063 19.778C115.325 19.3207 114.501 19.092 113.59 19.092C112.68 19.092 111.856 19.3207 111.118 19.778C110.381 20.2354 109.798 20.8653 109.37 21.668C108.942 22.4707 108.728 23.3667 108.728 24.356C108.728 25.3454 108.942 26.2367 109.37 27.03C109.798 27.8234 110.381 28.4487 111.118 28.906C111.856 29.3634 112.68 29.592 113.59 29.592ZM137.192 10.132C137.611 10.132 137.948 10.2627 138.203 10.524C138.458 10.7854 138.585 11.1307 138.585 11.56V24.328C138.585 25.784 138.253 27.1047 137.588 28.29C136.924 29.4754 136.022 30.4087 134.884 31.09C133.746 31.7714 132.476 32.112 131.073 32.112C129.671 32.112 128.392 31.7714 127.235 31.09C126.079 30.4087 125.173 29.4754 124.517 28.29C123.862 27.1047 123.534 25.784 123.534 24.328C123.534 22.872 123.839 21.5514 124.449 20.366C125.059 19.1807 125.897 18.252 126.962 17.58C128.027 16.908 129.216 16.572 130.527 16.572C131.583 16.572 132.567 16.796 133.477 17.244C134.388 17.692 135.162 18.3173 135.799 19.12V11.56C135.799 11.1307 135.931 10.7854 136.195 10.524C136.459 10.2627 136.792 10.132 137.192 10.132ZM131.073 29.592C131.984 29.592 132.808 29.3634 133.545 28.906C134.283 28.4487 134.861 27.8187 135.28 27.016C135.699 26.2133 135.908 25.3174 135.908 24.328C135.908 23.3387 135.699 22.4474 135.28 21.654C134.861 20.8607 134.283 20.2354 133.545 19.778C132.808 19.3207 131.984 19.092 131.073 19.092C130.163 19.092 129.339 19.3207 128.601 19.778C127.863 20.2354 127.281 20.8607 126.853 21.654C126.425 22.4474 126.211 23.3387 126.211 24.328C126.211 25.3174 126.425 26.2133 126.853 27.016C127.281 27.8187 127.863 28.4487 128.601 28.906C129.339 29.3634 130.163 29.592 131.073 29.592ZM155.959 24.104C155.959 24.4587 155.841 24.7527 155.604 24.986C155.367 25.2194 155.067 25.336 154.703 25.336H144.322C144.522 26.6427 145.101 27.6973 146.057 28.5C147.013 29.3027 148.183 29.704 149.567 29.704C150.113 29.704 150.682 29.6014 151.274 29.396C151.866 29.1907 152.353 28.9387 152.736 28.64C152.991 28.4347 153.291 28.332 153.637 28.332C153.983 28.332 154.256 28.4254 154.457 28.612C154.784 28.892 154.948 29.2093 154.948 29.564C154.948 29.9 154.803 30.18 154.511 30.404C153.892 30.908 153.123 31.3187 152.203 31.636C151.283 31.9534 150.405 32.112 149.567 32.112C148.074 32.112 146.735 31.7807 145.551 31.118C144.368 30.4553 143.443 29.536 142.779 28.36C142.114 27.184 141.782 25.8494 141.782 24.356C141.782 22.8627 142.096 21.5234 142.724 20.338C143.352 19.1527 144.226 18.2287 145.346 17.566C146.466 16.9033 147.737 16.572 149.157 16.572C150.559 16.572 151.77 16.8893 152.79 17.524C153.81 18.1587 154.593 19.0453 155.14 20.184C155.686 21.3227 155.959 22.6293 155.959 24.104ZM149.157 18.98C147.828 18.98 146.749 19.3533 145.92 20.1C145.091 20.8467 144.568 21.8453 144.349 23.096H153.446C153.282 21.8453 152.827 20.8467 152.08 20.1C151.333 19.3533 150.359 18.98 149.157 18.98Z" fill="white"/>
</svg>
