<svg width="575" height="191" viewBox="0 0 575 191" fill="none" xmlns="http://www.w3.org/2000/svg">
<path d="M113.16 156.08H46.6798C43.7998 156.08 42.5998 154.4 42.5998 152.24C42.5998 150.32 44.0398 148.88 46.1998 147.68L83.8798 128C104.28 117.44 112.44 105.2 112.44 93.2001C112.44 78.5601 104.52 63.2001 77.3998 63.2001H3.95984V95.1201H66.5998C69.4798 95.1201 70.6798 96.8 70.6798 98.9601C70.6798 100.88 69.2399 102.56 67.0798 103.52L25.3198 124.88C6.83984 134.24 0.839844 145.04 0.839844 156.32C0.839844 171.44 8.75984 188 35.8798 188H113.16V156.08ZM240.33 131.84V63.2001H204.33V131.84C204.33 147.2 194.49 155.36 181.29 155.36C168.09 155.36 158.25 147.2 158.25 131.84V63.2001H122.25V131.84C122.25 169.04 147.21 190.4 181.29 190.4C215.37 190.4 240.33 169.04 240.33 131.84ZM310.003 60.8001C276.163 60.8001 249.523 88.16 249.523 125.6C249.523 163.04 277.603 190.4 315.523 190.4C353.443 190.4 381.523 163.04 381.523 125.84V0.800049H345.523V75.2001C337.603 65.36 324.883 60.8001 310.003 60.8001ZM345.043 125.6C345.043 142.64 332.803 155.36 315.763 155.36C298.723 155.36 286.003 142.64 286.003 125.6C286.003 108.56 298.723 95.84 315.763 95.84C332.803 95.84 345.043 108.56 345.043 125.6ZM450.056 60.8001C416.216 60.8001 389.576 88.16 389.576 125.6C389.576 163.04 417.656 190.4 455.576 190.4C493.496 190.4 521.576 163.04 521.576 125.84V0.800049H485.576V75.2001C477.656 65.36 464.936 60.8001 450.056 60.8001ZM485.096 125.6C485.096 142.64 472.856 155.36 455.816 155.36C438.776 155.36 426.056 142.64 426.056 125.6C426.056 108.56 438.776 95.84 455.816 95.84C472.856 95.84 485.096 108.56 485.096 125.6ZM538.749 0.800049V188H574.749V0.800049H538.749Z" fill="#FAFBFB"/>
<path d="M113.16 156.08H46.6798C43.7998 156.08 42.5998 154.4 42.5998 152.24C42.5998 150.32 44.0398 148.88 46.1998 147.68L83.8798 128C104.28 117.44 112.44 105.2 112.44 93.2001C112.44 78.5601 104.52 63.2001 77.3998 63.2001H3.95984V95.1201H66.5998C69.4798 95.1201 70.6798 96.8 70.6798 98.9601C70.6798 100.88 69.2399 102.56 67.0798 103.52L25.3198 124.88C6.83984 134.24 0.839844 145.04 0.839844 156.32C0.839844 171.44 8.75984 188 35.8798 188H113.16V156.08ZM240.33 131.84V63.2001H204.33V131.84C204.33 147.2 194.49 155.36 181.29 155.36C168.09 155.36 158.25 147.2 158.25 131.84V63.2001H122.25V131.84C122.25 169.04 147.21 190.4 181.29 190.4C215.37 190.4 240.33 169.04 240.33 131.84ZM310.003 60.8001C276.163 60.8001 249.523 88.16 249.523 125.6C249.523 163.04 277.603 190.4 315.523 190.4C353.443 190.4 381.523 163.04 381.523 125.84V0.800049H345.523V75.2001C337.603 65.36 324.883 60.8001 310.003 60.8001ZM345.043 125.6C345.043 142.64 332.803 155.36 315.763 155.36C298.723 155.36 286.003 142.64 286.003 125.6C286.003 108.56 298.723 95.84 315.763 95.84C332.803 95.84 345.043 108.56 345.043 125.6ZM450.056 60.8001C416.216 60.8001 389.576 88.16 389.576 125.6C389.576 163.04 417.656 190.4 455.576 190.4C493.496 190.4 521.576 163.04 521.576 125.84V0.800049H485.576V75.2001C477.656 65.36 464.936 60.8001 450.056 60.8001ZM485.096 125.6C485.096 142.64 472.856 155.36 455.816 155.36C438.776 155.36 426.056 142.64 426.056 125.6C426.056 108.56 438.776 95.84 455.816 95.84C472.856 95.84 485.096 108.56 485.096 125.6ZM538.749 0.800049V188H574.749V0.800049H538.749Z" fill="url(#paint0_linear)"/>
<defs>
<linearGradient id="paint0_linear" x1="292" y1="-118" x2="292" y2="302" gradientUnits="userSpaceOnUse">
<stop stop-color="white" stop-opacity="0.3"/>
<stop offset="1" stop-color="white" stop-opacity="0"/>
</linearGradient>
</defs>
</svg>
