<svg width="81" height="32" viewBox="0 0 81 32" fill="none" xmlns="http://www.w3.org/2000/svg">
<g opacity="0.5" clip-path="url(#clip0)">
<path d="M15.54 31.0773L15.391 30.9283L0 15.54L0.148995 15.391L15.54 0L15.689 0.148995L31.0773 15.5373L30.9283 15.6863L15.54 31.0773ZM0.598595 15.54L15.54 30.4813L30.4813 15.54L15.54 0.598595L0.598595 15.54Z" fill="white"/>
<path d="M15.5399 24.7436C10.4636 24.7436 6.33621 20.6136 6.33621 15.5399C6.33621 10.4636 10.4663 6.33618 15.5399 6.33618C20.6136 6.33618 24.7437 10.4662 24.7437 15.5399C24.7437 20.6136 20.6136 24.7436 15.5399 24.7436ZM15.5399 6.78578C10.7146 6.78578 6.78843 10.7119 6.78843 15.5373C6.78843 20.3627 10.7146 24.2888 15.5399 24.2888C20.3653 24.2888 24.2915 20.3627 24.2915 15.5373C24.2915 10.7119 20.3653 6.78578 15.5399 6.78578Z" fill="white"/>
<path d="M10.6414 17.1764C10.5552 17.2495 10.4767 17.3123 10.4088 17.3698C10.3408 17.4273 10.2493 17.4874 10.1343 17.5423C10.0219 17.5972 9.91212 17.639 9.80495 17.6652C9.69778 17.6913 9.54878 17.707 9.35796 17.707C8.99985 17.707 8.70447 17.5868 8.46922 17.3463C8.23396 17.1058 8.11633 16.8026 8.11633 16.4392C8.11633 16.1386 8.17645 15.8955 8.2967 15.7099C8.41694 15.5243 8.58946 15.378 8.81426 15.2708C9.04167 15.161 9.31352 15.0852 9.62981 15.0408C9.9461 14.9989 10.2859 14.965 10.6519 14.9388V14.9179C10.6519 14.6957 10.5682 14.5415 10.4062 14.4552C10.2415 14.369 9.99577 14.3271 9.66641 14.3271C9.51741 14.3271 9.34489 14.3533 9.14623 14.4082C8.94757 14.4631 8.75414 14.531 8.56332 14.6173H8.45615V13.6371C8.58162 13.6005 8.78289 13.5586 9.06258 13.509C9.34228 13.4593 9.62197 13.4358 9.90689 13.4358C10.6048 13.4358 11.1119 13.5534 11.4308 13.7834C11.7497 14.0161 11.9092 14.369 11.9092 14.8447V17.6024H10.6466V17.1764H10.6414ZM10.6414 16.5464V15.7073C10.4297 15.7282 10.2572 15.7465 10.1265 15.7622C9.99577 15.7779 9.86507 15.8093 9.7396 15.8537C9.62981 15.8929 9.54355 15.9504 9.48343 16.0288C9.42331 16.1046 9.39194 16.2092 9.39194 16.3373C9.39194 16.5255 9.44422 16.6562 9.54355 16.7268C9.6455 16.7973 9.79449 16.8313 9.99315 16.8313C10.1029 16.8313 10.2127 16.8078 10.3277 16.7581C10.4454 16.7085 10.5499 16.6353 10.6414 16.5464Z" fill="white"/>
<path d="M14.6773 17.7096C14.3428 17.7096 14.0369 17.6678 13.7572 17.5841C13.4802 17.5005 13.2371 17.3698 13.0332 17.1946C12.8319 17.0195 12.6724 16.7999 12.56 16.5359C12.4476 16.2693 12.3901 15.9582 12.3901 15.5975C12.3901 15.2107 12.4503 14.8813 12.5757 14.6094C12.6986 14.3376 12.8633 14.1154 13.075 13.9403C13.2763 13.773 13.5141 13.6475 13.7886 13.5691C14.0631 13.4881 14.348 13.4489 14.6434 13.4489C14.8682 13.4489 15.0904 13.475 15.3152 13.5273C15.54 13.5769 15.7648 13.6606 15.9896 13.773V14.8578H15.8275C15.7778 14.8107 15.7151 14.7558 15.6419 14.6983C15.5687 14.6408 15.4877 14.5859 15.4014 14.5389C15.3099 14.4892 15.2054 14.4448 15.0904 14.4108C14.9753 14.3768 14.8446 14.3585 14.7035 14.3585C14.3794 14.3585 14.131 14.4709 13.9533 14.6957C13.7755 14.9205 13.6867 15.2211 13.6867 15.6001C13.6867 16.0053 13.7808 16.3085 13.969 16.5072C14.1572 16.7058 14.4081 16.8052 14.7218 16.8052C14.8812 16.8052 15.0198 16.7869 15.14 16.7503C15.2603 16.7163 15.3648 16.6719 15.4511 16.6222C15.5347 16.5725 15.6079 16.5202 15.668 16.4654C15.7282 16.4131 15.7804 16.3634 15.8223 16.3216H15.9843V17.4012C15.9111 17.4325 15.8275 17.4691 15.7334 17.5083C15.6393 17.5475 15.5426 17.5815 15.4432 17.6077C15.3204 17.6416 15.2054 17.6678 15.0982 17.6835C14.9962 17.6991 14.8525 17.7096 14.6773 17.7096Z" fill="white"/>
<path d="M21.4971 17.605V15.5792C21.4971 15.3805 21.4919 15.2106 21.4867 15.0747C21.4789 14.9388 21.4579 14.8264 21.4213 14.7401C21.3847 14.6539 21.3299 14.5911 21.2514 14.5519C21.1756 14.5127 21.0685 14.4918 20.9299 14.4918C20.8332 14.4918 20.7391 14.5127 20.645 14.5545C20.5509 14.5964 20.4463 14.6565 20.3366 14.7349V17.6076H19.074V15.5792C19.074 15.3832 19.0688 15.2159 19.0609 15.0747C19.0531 14.9362 19.0296 14.8238 18.993 14.7375C18.9564 14.6513 18.9015 14.5885 18.8231 14.5493C18.7473 14.5101 18.6401 14.4892 18.5068 14.4892C18.4022 14.4892 18.3029 14.5127 18.2036 14.5624C18.1042 14.612 18.0075 14.6669 17.9134 14.7323V17.605H16.6509V13.556H17.9134V14.003C18.1199 13.8279 18.3134 13.6893 18.4963 13.5926C18.6793 13.4933 18.8832 13.4436 19.1132 13.4436C19.3616 13.4436 19.5785 13.5037 19.7667 13.6214C19.9549 13.739 20.0987 13.9141 20.1954 14.1468C20.4385 13.922 20.6685 13.7468 20.8829 13.6266C21.0972 13.5063 21.3168 13.4436 21.5364 13.4436C21.7246 13.4436 21.8919 13.475 22.0409 13.5351C22.1898 13.5952 22.3153 13.6841 22.4199 13.8043C22.5323 13.935 22.6185 14.0893 22.6734 14.267C22.7309 14.4447 22.7597 14.68 22.7597 14.9675V17.6024H21.4971V17.605Z" fill="white"/>
<path d="M35.5053 9.81281L35.2178 10.7564H34.5905L35.6569 7.42627H36.4333L37.5155 10.7564H36.862L36.5614 9.81281H35.5053ZM36.4594 9.35275L36.198 8.53197C36.1327 8.3307 36.0804 8.10328 36.0307 7.90985H36.0203C35.9706 8.10328 35.921 8.33593 35.8634 8.53197L35.6073 9.35275H36.4594Z" fill="white"/>
<path d="M37.837 10.1917C37.9703 10.2754 38.2317 10.3695 38.4486 10.3695C38.7153 10.3695 38.8355 10.2571 38.8355 10.0976C38.8355 9.93558 38.7362 9.85455 38.4408 9.74738C37.9703 9.59054 37.7795 9.33176 37.7795 9.04684C37.7795 8.62076 38.1297 8.29663 38.6891 8.29663C38.9558 8.29663 39.1884 8.36198 39.3322 8.4404L39.2093 8.86647C39.11 8.80635 38.9139 8.72793 38.6996 8.72793C38.4826 8.72793 38.3624 8.83772 38.3624 8.9841C38.3624 9.13832 38.4748 9.20629 38.7832 9.3213C39.2224 9.47552 39.421 9.69771 39.4263 10.0532C39.4263 10.4924 39.0864 10.8086 38.4486 10.8086C38.1559 10.8086 37.8945 10.7407 37.7167 10.6413L37.837 10.1917Z" fill="white"/>
<path d="M39.8236 10.1917C39.9569 10.2754 40.2183 10.3695 40.4353 10.3695C40.7019 10.3695 40.8221 10.2571 40.8221 10.0976C40.8221 9.93558 40.7228 9.85455 40.4274 9.74738C39.9569 9.59054 39.7661 9.33176 39.7661 9.04684C39.7661 8.62076 40.1164 8.29663 40.6757 8.29663C40.9424 8.29663 41.175 8.36198 41.3188 8.4404L41.1959 8.86647C41.0966 8.80635 40.9005 8.72793 40.6862 8.72793C40.4692 8.72793 40.349 8.83772 40.349 8.9841C40.349 9.13832 40.4614 9.20629 40.7698 9.3213C41.209 9.47552 41.4077 9.69771 41.4129 10.0532C41.4129 10.4924 41.0731 10.8086 40.4353 10.8086C40.1425 10.8086 39.8811 10.7407 39.7034 10.6413L39.8236 10.1917Z" fill="white"/>
<path d="M42.8871 10.8113C42.2101 10.8113 41.6821 10.346 41.6821 9.57224C41.6821 8.78283 42.1997 8.29663 42.9264 8.29663C43.6426 8.29663 44.1235 8.80112 44.1235 9.53303C44.1235 10.4165 43.5014 10.8139 42.8924 10.8139H42.8871V10.8113ZM42.9054 10.3695C43.2505 10.3695 43.4936 10.0323 43.4936 9.54349C43.4936 9.16708 43.3263 8.73316 42.9107 8.73316C42.482 8.73316 42.3068 9.15401 42.3068 9.55394C42.3068 10.0192 42.5395 10.3695 42.9002 10.3695H42.9054Z" fill="white"/>
<path d="M46.3167 10.6807C46.1886 10.7408 45.9376 10.8035 45.6344 10.8035C44.8842 10.8035 44.3954 10.3199 44.3954 9.57234C44.3954 8.85089 44.8894 8.2915 45.7337 8.2915C45.9559 8.2915 46.1833 8.34117 46.3219 8.40129L46.2121 8.86135C46.1128 8.81168 45.969 8.76724 45.752 8.76724C45.2868 8.76724 45.0123 9.10706 45.0149 9.54882C45.0149 10.0429 45.3364 10.3252 45.752 10.3252C45.9585 10.3252 46.1128 10.2807 46.2304 10.2311L46.3167 10.6807Z" fill="white"/>
<path d="M46.9937 8.00393C46.7898 8.00393 46.6565 7.85494 46.6565 7.67719C46.6565 7.48898 46.795 7.34521 46.9963 7.34521C47.2028 7.34521 47.3335 7.48898 47.3361 7.67719C47.3361 7.85494 47.2028 8.00393 46.9963 8.00393H46.9937ZM46.6904 10.7564V8.34897H47.2995V10.7564H46.6904Z" fill="white"/>
<path d="M49.7488 10.1787C49.7488 10.3956 49.7592 10.6074 49.788 10.7564H49.2391L49.1946 10.4897H49.1789C49.0352 10.6779 48.7842 10.8113 48.4679 10.8113C47.9844 10.8113 47.7125 10.461 47.7125 10.095C47.7125 9.49121 48.251 9.18015 49.1397 9.18538V9.14617C49.1397 8.98933 49.077 8.72532 48.6509 8.72532C48.413 8.72532 48.1673 8.79851 48.0027 8.90307L47.885 8.50836C48.0628 8.39857 48.3738 8.29663 48.7555 8.29663C49.5266 8.29663 49.7488 8.78544 49.7488 9.31346V10.1787ZM49.158 9.58008C48.7293 9.57485 48.3189 9.66373 48.3189 10.0297C48.3189 10.2676 48.4732 10.3747 48.664 10.3747C48.9097 10.3747 49.0848 10.2153 49.1423 10.0428C49.158 9.99831 49.158 9.95388 49.158 9.90944V9.58008Z" fill="white"/>
<path d="M50.9852 7.73206V8.34895H51.5629V8.80378H50.9852V9.86243C50.9852 10.1578 51.0636 10.3068 51.2962 10.3068C51.406 10.3068 51.4635 10.3016 51.5341 10.2833L51.5446 10.7433C51.4557 10.7773 51.2936 10.8087 51.1054 10.8087C50.878 10.8087 50.695 10.7355 50.5826 10.61C50.4493 10.4715 50.3892 10.2493 50.3892 9.93301V8.80639H50.0494V8.35156H50.3892V7.90196L50.9852 7.73206Z" fill="white"/>
<path d="M52.2503 8.00393C52.0464 8.00393 51.9131 7.85494 51.9131 7.67719C51.9131 7.48898 52.0517 7.34521 52.2529 7.34521C52.4594 7.34521 52.5901 7.48898 52.5928 7.67719C52.5928 7.85494 52.4594 8.00393 52.2529 8.00393H52.2503ZM51.9471 10.7564V8.34897H52.5562V10.7564H51.9471Z" fill="white"/>
<path d="M54.1925 10.8113C53.5155 10.8113 52.9875 10.346 52.9875 9.57224C52.9875 8.78283 53.505 8.29663 54.2317 8.29663C54.9479 8.29663 55.4289 8.80112 55.4289 9.53303C55.4289 10.4165 54.8068 10.8139 54.1977 10.8139H54.1925V10.8113ZM54.2108 10.3695C54.5558 10.3695 54.7989 10.0323 54.7989 9.54349C54.7989 9.16708 54.6316 8.73316 54.216 8.73316C53.7873 8.73316 53.6122 9.15401 53.6122 9.55394C53.6122 10.0192 53.8448 10.3695 54.2056 10.3695H54.2108Z" fill="white"/>
<path d="M55.8524 9.06518C55.8524 8.7881 55.8419 8.55546 55.8315 8.34896H56.3595L56.3882 8.70969H56.4039C56.5137 8.52148 56.7751 8.29407 57.175 8.29407C57.5959 8.29407 58.0298 8.56592 58.0298 9.32658V10.7538H57.4207V9.39454C57.4207 9.0495 57.2927 8.78549 56.9607 8.78549C56.7176 8.78549 56.5503 8.95801 56.4876 9.14099C56.4666 9.19065 56.4588 9.26384 56.4588 9.33442V10.7512H55.8498V9.06518H55.8524Z" fill="white"/>
<path d="M59.6217 10.7565V8.80385H59.2949V8.34902H59.6217V8.24446C59.6217 7.9334 59.7053 7.62234 59.9144 7.42368C60.0922 7.25639 60.3353 7.19104 60.5418 7.19104C60.7039 7.19104 60.8346 7.21979 60.926 7.25116L60.8868 7.72167C60.8163 7.69815 60.7378 7.67724 60.6254 7.67724C60.3248 7.67724 60.2255 7.92817 60.2255 8.22617V8.34902H60.7535V8.80385H60.2307V10.7565H59.6217Z" fill="white"/>
<path d="M62.0527 10.8113C61.3756 10.8113 60.8476 10.346 60.8476 9.57224C60.8476 8.78283 61.3652 8.29663 62.0919 8.29663C62.8081 8.29663 63.2891 8.80112 63.2891 9.53303C63.2891 10.4165 62.6669 10.8139 62.0579 10.8139H62.0527V10.8113ZM62.071 10.3695C62.416 10.3695 62.6591 10.0323 62.6591 9.54349C62.6591 9.16708 62.4918 8.73316 62.0762 8.73316C61.6475 8.73316 61.4724 9.15401 61.4724 9.55394C61.4724 10.0192 61.705 10.3695 62.0657 10.3695H62.071Z" fill="white"/>
<path d="M63.7125 9.1253C63.7125 8.79856 63.7073 8.5633 63.6916 8.34896H64.2144L64.2405 8.80379H64.2562C64.3738 8.46659 64.6562 8.29407 64.9175 8.29407C64.9777 8.29407 65.0116 8.2993 65.0613 8.30975V8.87698C65.0064 8.86652 64.9515 8.8613 64.8783 8.8613C64.5908 8.8613 64.3895 9.04427 64.3346 9.32135C64.3242 9.37624 64.319 9.43898 64.319 9.50433V10.7538H63.7099V9.1253H63.7125Z" fill="white"/>
<path d="M37.2253 16.1464C37.0815 16.2143 36.7653 16.2954 36.3601 16.2954C35.3041 16.2954 34.661 15.634 34.661 14.6198C34.661 13.5219 35.4269 12.8658 36.4437 12.8658C36.8437 12.8658 37.126 12.9443 37.2488 13.0096L37.1208 13.4932C36.9613 13.4226 36.7391 13.3651 36.4673 13.3651C35.7903 13.3651 35.3014 13.7886 35.3014 14.5911C35.3014 15.323 35.7275 15.7856 36.462 15.7856C36.7051 15.7856 36.9613 15.736 37.1234 15.668L37.2253 16.1464Z" fill="white"/>
<path d="M38.6186 16.3006C37.9415 16.3006 37.4135 15.8354 37.4135 15.0616C37.4135 14.2722 37.9311 13.786 38.6578 13.786C39.374 13.786 39.855 14.2905 39.855 15.0224C39.855 15.9059 39.2328 16.3032 38.6238 16.3032H38.6186V16.3006ZM38.6395 15.8615C38.9845 15.8615 39.2276 15.5243 39.2276 15.0355C39.2276 14.6591 39.0603 14.2252 38.6447 14.2252C38.216 14.2252 38.0409 14.646 38.0409 15.0459C38.0409 15.5112 38.2735 15.8615 38.6342 15.8615H38.6395Z" fill="white"/>
<path d="M40.2784 14.5571C40.2784 14.28 40.268 14.0474 40.2575 13.8409H40.7777L40.8064 14.1964H40.8221C40.9345 14.0082 41.1541 13.786 41.5645 13.786C41.8808 13.786 42.1265 13.9638 42.231 14.2304H42.2415C42.3251 14.0971 42.4245 13.9977 42.5343 13.9298C42.6728 13.8357 42.827 13.786 43.0283 13.786C43.423 13.786 43.8282 14.0579 43.8282 14.829V16.2457H43.2348V14.9152C43.2348 14.5153 43.0963 14.2774 42.8061 14.2774C42.5996 14.2774 42.4454 14.4264 42.3827 14.5989C42.3617 14.6538 42.3539 14.7323 42.3539 14.8002V16.2431H41.7605V14.8499C41.7605 14.5127 41.6272 14.2774 41.3449 14.2774C41.1175 14.2774 40.9633 14.4552 40.9058 14.6172C40.8849 14.6826 40.877 14.7506 40.877 14.8211V16.2431H40.2836V14.5571H40.2784Z" fill="white"/>
<path d="M44.3928 14.6408C44.3928 14.3245 44.3823 14.0683 44.3719 13.8409H44.9051L44.9339 14.2121H44.9443C45.1221 13.9402 45.4044 13.786 45.7703 13.786C46.3245 13.786 46.7846 14.2591 46.7846 15.012C46.7846 15.8824 46.2356 16.3006 45.6867 16.3006C45.3861 16.3006 45.1325 16.1726 45.0097 15.9791H44.9992V17.2234H44.3902V14.6408H44.3928ZM45.0018 15.2368C45.0018 15.2969 45.0071 15.3492 45.0175 15.404C45.0829 15.6498 45.2946 15.8301 45.556 15.8301C45.9402 15.8301 46.1677 15.5086 46.1677 15.0355C46.1677 14.6094 45.9612 14.2644 45.5691 14.2644C45.3181 14.2644 45.0855 14.4473 45.0201 14.714C45.0097 14.7636 44.9992 14.8185 44.9992 14.8682V15.2368H45.0018Z" fill="white"/>
<path d="M49.3645 15.5243C49.3645 15.8118 49.375 16.0471 49.3854 16.2458H48.8574L48.8287 15.885H48.813C48.7084 16.0523 48.4732 16.3007 48.0366 16.3007C47.6027 16.3007 47.2028 16.0393 47.2028 15.2525V13.8383H47.8092V15.1479C47.8092 15.5478 47.9373 15.804 48.2588 15.804C48.5045 15.804 48.664 15.6367 48.7241 15.4773C48.7476 15.4276 48.7581 15.3596 48.7581 15.2891V13.8357H49.3671V15.5243H49.3645Z" fill="white"/>
<path d="M50.6454 13.2213V13.8382H51.223V14.293H50.6454V15.3491C50.6454 15.6444 50.7238 15.7934 50.9564 15.7934C51.0662 15.7934 51.1237 15.7882 51.1943 15.7699L51.2047 16.23C51.1159 16.264 50.9538 16.2927 50.7656 16.2927C50.5382 16.2927 50.3552 16.2195 50.2428 16.094C50.1095 15.9555 50.0494 15.7333 50.0494 15.417V14.2904H49.7096V13.8356H50.0494V13.386L50.6454 13.2213Z" fill="white"/>
<path d="M51.9105 13.4932C51.7066 13.4932 51.5733 13.3442 51.5733 13.1664C51.5733 12.9782 51.7119 12.8345 51.9131 12.8345C52.1196 12.8345 52.2503 12.9782 52.2529 13.1664C52.2529 13.3442 52.1196 13.4932 51.9131 13.4932H51.9105ZM51.6073 16.2457V13.8408H52.2163V16.2457H51.6073Z" fill="white"/>
<path d="M52.7993 14.5571C52.7993 14.28 52.7888 14.0474 52.7784 13.8409H53.3064L53.3351 14.2016H53.3508C53.4606 14.0134 53.722 13.786 54.1219 13.786C54.5428 13.786 54.9767 14.0579 54.9767 14.8185V16.2457H54.3702V14.8865C54.3702 14.5414 54.2422 14.28 53.9102 14.28C53.6671 14.28 53.4998 14.4526 53.4371 14.6355C53.4162 14.6852 53.4083 14.7584 53.4083 14.829V16.2457H52.7993V14.5571Z" fill="white"/>
<path d="M57.7292 15.8954C57.7292 16.3999 57.6246 16.7606 57.3737 16.988C57.128 17.2102 56.7751 17.2782 56.4457 17.2782C56.1399 17.2782 55.8131 17.2102 55.6066 17.0847L55.74 16.6247C55.8942 16.7136 56.1504 16.8077 56.4405 16.8077C56.8352 16.8077 57.1332 16.6012 57.1332 16.081V15.8745H57.1227C56.9842 16.0862 56.7437 16.23 56.4222 16.23C55.8236 16.23 55.4001 15.7359 55.4001 15.0537C55.4001 14.2643 55.9151 13.7833 56.4928 13.7833C56.864 13.7833 57.0757 13.9611 57.1881 14.1597H57.1985L57.2221 13.8382H57.7501C57.7396 14.0003 57.7292 14.1989 57.7292 14.5309V15.8954ZM57.1201 14.8028C57.1201 14.7426 57.1149 14.6904 57.0992 14.6407C57.0339 14.4185 56.8613 14.2512 56.6052 14.2512C56.2654 14.2512 56.0118 14.5466 56.0118 15.038C56.0118 15.4484 56.2183 15.7804 56.6 15.7804C56.8274 15.7804 57.026 15.6314 57.094 15.4092C57.1149 15.3491 57.1175 15.2654 57.1175 15.1975V14.8028H57.1201Z" fill="white"/>
<path d="M62.0919 14.8865C62.0709 14.4578 62.0474 13.9429 62.0527 13.4881H62.037C61.9272 13.8932 61.7913 14.3428 61.6423 14.7637L61.1535 16.2066H60.6882L60.2438 14.7846C60.1157 14.3585 59.9981 13.9063 59.9066 13.4907H59.8961C59.8805 13.9246 59.8622 14.4552 59.836 14.91L59.7628 16.2484H59.1956L59.4178 12.9182H60.2177L60.6516 14.2566C60.7692 14.646 60.8738 15.0434 60.9574 15.4119H60.9731C61.062 15.0512 61.177 14.6408 61.3051 14.2513L61.7651 12.9182H62.5545L62.748 16.2484H62.1546L62.0919 14.8865Z" fill="white"/>
<path d="M65.1554 15.6681C65.1554 15.885 65.1659 16.0967 65.1946 16.2457H64.6457L64.6013 15.9791H64.5856C64.4418 16.1673 64.1909 16.3006 63.8746 16.3006C63.391 16.3006 63.1192 15.9504 63.1192 15.5844C63.1192 14.9806 63.6576 14.6695 64.5464 14.6748V14.6355C64.5464 14.4787 64.4836 14.2147 64.0576 14.2147C63.8197 14.2147 63.574 14.2879 63.4093 14.3924L63.2917 13.9977C63.4694 13.888 63.7805 13.786 64.1621 13.786C64.9332 13.786 65.1554 14.2748 65.1554 14.8028V15.6681ZM64.5621 15.0695C64.1334 15.0642 63.723 15.1531 63.723 15.5191C63.723 15.7569 63.8772 15.8641 64.068 15.8641C64.3137 15.8641 64.4889 15.7047 64.5464 15.5321C64.5621 15.4877 64.5621 15.4433 64.5621 15.3988V15.0695Z" fill="white"/>
<path d="M67.4923 16.1725C67.3642 16.2326 67.1133 16.2953 66.8101 16.2953C66.0599 16.2953 65.571 15.8118 65.571 15.0642C65.571 14.3427 66.0651 13.7833 66.9094 13.7833C67.1316 13.7833 67.359 13.833 67.4975 13.8931L67.3877 14.3532C67.2884 14.3035 67.1446 14.2591 66.9277 14.2591C66.4624 14.2591 66.1879 14.5989 66.1906 15.0406C66.1906 15.5347 66.5121 15.817 66.9277 15.817C67.1342 15.817 67.2884 15.7725 67.406 15.7229L67.4923 16.1725Z" fill="white"/>
<path d="M67.8687 12.7325H68.4778V14.165H68.4856C68.5588 14.0526 68.6633 13.9585 68.7862 13.8931C68.9091 13.8226 69.0528 13.7834 69.207 13.7834C69.6174 13.7834 70.0461 14.0552 70.0461 14.8263V16.2431H69.4371V14.8891C69.4371 14.544 69.309 14.2774 68.9718 14.2774C68.7339 14.2774 68.5666 14.4342 68.4987 14.6172C68.4777 14.6721 68.4751 14.7348 68.4751 14.8002V16.2431H67.8661V12.7325H67.8687Z" fill="white"/>
<path d="M70.9218 13.4932C70.7179 13.4932 70.5846 13.3442 70.5846 13.1664C70.5846 12.9782 70.7231 12.8345 70.9244 12.8345C71.1309 12.8345 71.2616 12.9782 71.2642 13.1664C71.2642 13.3442 71.1309 13.4932 70.9244 13.4932H70.9218ZM70.6186 16.2457V13.8408H71.2276V16.2457H70.6186Z" fill="white"/>
<path d="M71.8106 14.5571C71.8106 14.28 71.8001 14.0474 71.7896 13.8409H72.3177L72.3464 14.2016H72.3621C72.4719 14.0134 72.7333 13.786 73.1332 13.786C73.5541 13.786 73.988 14.0579 73.988 14.8185V16.2457H73.3789V14.8865C73.3789 14.5414 73.2508 14.28 72.9189 14.28C72.6758 14.28 72.5085 14.4526 72.4457 14.6355C72.4248 14.6852 72.417 14.7584 72.417 14.829V16.2457H71.8079V14.5571H71.8106Z" fill="white"/>
<path d="M74.9917 15.2132C75.0074 15.6471 75.3472 15.8354 75.7341 15.8354C76.0164 15.8354 76.2124 15.7909 76.4007 15.7256L76.4895 16.1412C76.283 16.2301 75.9955 16.2954 75.6504 16.2954C74.8689 16.2954 74.4114 15.8171 74.4114 15.0799C74.4114 14.4134 74.8166 13.786 75.5877 13.786C76.3693 13.786 76.6255 14.429 76.6255 14.9571C76.6255 15.0695 76.615 15.161 76.6045 15.2132H74.9917ZM76.0504 14.7872C76.0556 14.565 75.9563 14.199 75.5511 14.199C75.1747 14.199 75.0179 14.5388 74.9917 14.7872H76.0504Z" fill="white"/>
<path d="M77.0385 14.6146C77.0385 14.2878 77.0332 14.0526 77.0175 13.8382H77.5403L77.5665 14.293H77.5822C77.6998 13.9558 77.9821 13.7833 78.2435 13.7833C78.3036 13.7833 78.3376 13.7886 78.3873 13.799V14.3662C78.3324 14.3558 78.2775 14.3506 78.2043 14.3506C77.9167 14.3506 77.7155 14.5335 77.6606 14.8106C77.6501 14.8655 77.6449 14.9282 77.6449 14.9936V16.2431H77.0358V14.6146H77.0385Z" fill="white"/>
<path d="M79.2159 13.8408L79.6446 15.1295C79.6942 15.2785 79.7491 15.4615 79.7831 15.5948H79.7988C79.8328 15.4615 79.8772 15.2785 79.9269 15.1243L80.3033 13.8408H80.9515L80.3477 15.4798C80.0158 16.379 79.7936 16.7789 79.5139 17.0272C79.2708 17.2337 79.0251 17.3148 78.8761 17.3331L78.7375 16.8233C78.8421 16.7998 78.9649 16.7449 79.0878 16.656C79.2002 16.5829 79.3387 16.4391 79.425 16.277C79.4459 16.2326 79.459 16.1986 79.459 16.1672C79.459 16.1437 79.4538 16.1071 79.4302 16.0496L78.5467 13.8408H79.2159Z" fill="white"/>
<path d="M35.359 23.0473L34.4284 20.1954H34.8257L35.2701 21.6017C35.3929 21.986 35.5001 22.3336 35.5759 22.6682H35.5838C35.6648 22.3389 35.7824 21.9782 35.9105 21.607L36.3941 20.198H36.7888L35.7693 23.0499H35.359V23.0473Z" fill="white"/>
<path d="M37.4632 20.1927V23.0446H37.0946V20.1927H37.4632Z" fill="white"/>
<path d="M38.6499 20.5064H37.7821V20.1927H39.8942V20.5064H39.0211V23.0472H38.6473V20.5064H38.6499Z" fill="white"/>
<path d="M41.9592 22.5977C42.1239 22.6997 42.3643 22.7833 42.6205 22.7833C42.9969 22.7833 43.2165 22.5846 43.2165 22.2971C43.2165 22.0305 43.0649 21.8789 42.678 21.7299C42.2127 21.5652 41.9252 21.3247 41.9252 20.9222C41.9252 20.4778 42.2938 20.1484 42.8479 20.1484C43.1407 20.1484 43.3524 20.2164 43.4779 20.287L43.3759 20.5876C43.2818 20.5353 43.0936 20.4517 42.8349 20.4517C42.4454 20.4517 42.2964 20.6843 42.2964 20.8777C42.2964 21.1444 42.4689 21.2751 42.8636 21.4293C43.3472 21.6149 43.5903 21.8475 43.5903 22.2684C43.5903 22.7101 43.2635 23.0891 42.5918 23.0891C42.3173 23.0891 42.0167 23.0081 41.8651 22.9062L41.9592 22.5977Z" fill="white"/>
<path d="M44.5209 20.4098V20.9979H45.0541V21.2828H44.5209V22.3886C44.5209 22.6421 44.5914 22.7859 44.8005 22.7859C44.8973 22.7859 44.9705 22.7728 45.0175 22.7597L45.0358 23.0394C44.9626 23.0682 44.8502 23.0891 44.7064 23.0891C44.5339 23.0891 44.3928 23.0342 44.3039 22.9323C44.1993 22.8225 44.1601 22.6395 44.1601 22.399V21.2828H43.8438V20.9979H44.1601V20.5065L44.5209 20.4098Z" fill="white"/>
<path d="M47.1871 22.4879C47.1871 22.6996 47.1923 22.8852 47.2054 23.0473H46.876L46.8551 22.7127H46.8473C46.7506 22.8774 46.5336 23.0943 46.1703 23.0943C45.8488 23.0943 45.4645 22.9166 45.4645 22.1977V21.0005H45.8357V22.135C45.8357 22.5245 45.9533 22.7859 46.2931 22.7859C46.5441 22.7859 46.7166 22.6133 46.7846 22.4461C46.8055 22.3912 46.8185 22.3232 46.8185 22.2552V20.9979H47.1897V22.4879H47.1871Z" fill="white"/>
<path d="M49.5762 20.0411V22.5166C49.5762 22.6995 49.5815 22.906 49.5919 23.0446H49.2573L49.2417 22.6891H49.2338C49.1188 22.9165 48.8705 23.0916 48.5359 23.0916C48.0419 23.0916 47.6602 22.6734 47.6602 22.0513C47.655 21.369 48.0785 20.9508 48.5777 20.9508C48.8914 20.9508 49.1031 21.0998 49.1972 21.2645H49.2051V20.0411H49.5762ZM49.2025 21.8317C49.2025 21.7846 49.1972 21.7219 49.1868 21.6749C49.1319 21.437 48.928 21.2436 48.6483 21.2436C48.264 21.2436 48.034 21.5834 48.034 22.0356C48.034 22.4512 48.2379 22.7936 48.6405 22.7936C48.8914 22.7936 49.1188 22.629 49.1868 22.3493C49.1998 22.297 49.2025 22.2473 49.2025 22.1872V21.8317Z" fill="white"/>
<path d="M50.4023 22.0906C50.4101 22.5951 50.7316 22.8016 51.1054 22.8016C51.372 22.8016 51.5315 22.7545 51.6726 22.697L51.7354 22.9636C51.6047 23.0237 51.3799 23.0917 51.0531 23.0917C50.4232 23.0917 50.0468 22.6761 50.0468 22.0592C50.0468 21.4423 50.4101 20.9535 51.0087 20.9535C51.6779 20.9535 51.8556 21.5416 51.8556 21.918C51.8556 21.9938 51.8478 22.054 51.8426 22.0906H50.4023ZM51.4949 21.8239C51.5001 21.5861 51.3982 21.2175 50.9773 21.2175C50.6009 21.2175 50.4362 21.5652 50.4049 21.8239H51.4949Z" fill="white"/>
<path d="M52.3157 21.5521C52.3157 21.3404 52.3104 21.1678 52.2974 20.9979H52.6267L52.6476 21.3377H52.6555C52.7574 21.1443 52.9953 20.9535 53.3325 20.9535C53.6148 20.9535 54.0566 21.1234 54.0566 21.8266V23.0499H53.6828V21.8684C53.6828 21.539 53.5599 21.2619 53.2096 21.2619C52.9639 21.2619 52.7731 21.4345 52.7104 21.6436C52.6947 21.6906 52.6842 21.7534 52.6842 21.8161V23.0473H52.3131V21.5521H52.3157Z" fill="white"/>
<path d="M55.0995 20.4098V20.9979H55.6328V21.2828H55.0995V22.3886C55.0995 22.6421 55.1727 22.7859 55.3792 22.7859C55.4759 22.7859 55.5491 22.7728 55.5962 22.7597L55.6119 23.0394C55.5413 23.0682 55.4263 23.0891 55.2825 23.0891C55.11 23.0891 54.9688 23.0342 54.88 22.9323C54.7728 22.8225 54.7362 22.6395 54.7362 22.399V21.2828H54.4199V20.9979H54.7362V20.5065L55.0995 20.4098Z" fill="white"/>
<path d="M58.9551 22.9532C58.8192 23.0212 58.55 23.0891 58.2023 23.0891C57.3972 23.0891 56.7934 22.582 56.7934 21.6462C56.7934 20.7523 57.3998 20.1484 58.2833 20.1484C58.6388 20.1484 58.8636 20.2242 58.9603 20.2765L58.8715 20.5771C58.7329 20.5092 58.5343 20.4595 58.2964 20.4595C57.6272 20.4595 57.1829 20.8882 57.1829 21.6358C57.1829 22.3337 57.5854 22.7833 58.2781 22.7833C58.5029 22.7833 58.7303 22.7363 58.8793 22.6657L58.9551 22.9532Z" fill="white"/>
<path d="M59.4047 20.0411H59.7759V21.3194H59.7838C59.8439 21.2148 59.9354 21.1207 60.0504 21.058C60.1602 20.9952 60.2909 20.9534 60.432 20.9534C60.7065 20.9534 61.1482 21.1233 61.1482 21.8291V23.0472H60.7744V21.8709C60.7744 21.5415 60.6516 21.2619 60.3013 21.2619C60.0608 21.2619 59.87 21.4318 59.802 21.633C59.7811 21.6853 59.7759 21.7376 59.7759 21.8108V23.0472H59.4047V20.0411Z" fill="white"/>
<path d="M62.8917 23.0473L62.863 22.7885H62.8499C62.7349 22.9506 62.5153 23.0943 62.2226 23.0943C61.8069 23.0943 61.5952 22.8016 61.5952 22.5062C61.5952 22.0121 62.0344 21.7403 62.8264 21.7455V21.7037C62.8264 21.5338 62.7793 21.2306 62.3611 21.2306C62.1703 21.2306 61.9716 21.2907 61.8279 21.3822L61.7442 21.1365C61.9141 21.0267 62.1598 20.9535 62.4186 20.9535C63.046 20.9535 63.1976 21.3796 63.1976 21.7926V22.5585C63.1976 22.7362 63.2054 22.9087 63.2315 23.0499H62.8917V23.0473ZM62.8368 22.0017C62.4317 21.9938 61.969 22.0644 61.969 22.4617C61.969 22.7022 62.1285 22.8172 62.3193 22.8172C62.5859 22.8172 62.7558 22.6473 62.8133 22.4748C62.8264 22.4356 62.8342 22.3938 62.8342 22.3572V22.0017H62.8368Z" fill="white"/>
<path d="M63.7962 21.667C63.7962 21.4056 63.7883 21.1939 63.7805 20.9979H64.1151L64.1308 21.3481H64.1386C64.2902 21.0998 64.5333 20.9508 64.8653 20.9508C65.3593 20.9508 65.7331 21.369 65.7331 21.9912C65.7331 22.7283 65.2835 23.0916 64.8025 23.0916C64.5307 23.0916 64.2954 22.974 64.1726 22.7701H64.1647V23.8837H63.7962V21.667ZM64.1647 22.2133C64.1647 22.2682 64.1726 22.3179 64.1804 22.365C64.2484 22.6237 64.4732 22.8015 64.7398 22.8015C65.1345 22.8015 65.3619 22.48 65.3619 22.0095C65.3619 21.5991 65.145 21.2488 64.7529 21.2488C64.4993 21.2488 64.2615 21.4318 64.1909 21.7089C64.1778 21.7559 64.1647 21.8108 64.1647 21.8605V22.2133Z" fill="white"/>
<path d="M66.6558 20.4098V20.9979H67.1891V21.2828H66.6558V22.3886C66.6558 22.6421 66.7264 22.7859 66.9355 22.7859C67.0322 22.7859 67.1054 22.7728 67.1525 22.7597L67.1682 23.0394C67.095 23.0682 66.9826 23.0891 66.8388 23.0891C66.6663 23.0891 66.5251 23.0342 66.4363 22.9323C66.3317 22.8225 66.2925 22.6395 66.2925 22.399V21.2828H65.9736V20.9979H66.2925V20.5065L66.6558 20.4098Z" fill="white"/>
<path d="M67.7903 22.0906C67.7981 22.5951 68.1196 22.8016 68.4934 22.8016C68.7601 22.8016 68.9221 22.7545 69.0607 22.697L69.1234 22.9636C68.9927 23.0237 68.7679 23.0917 68.4411 23.0917C67.8112 23.0917 67.4348 22.6761 67.4348 22.0592C67.4348 21.4423 67.7981 20.9535 68.3967 20.9535C69.0659 20.9535 69.2436 21.5416 69.2436 21.918C69.2436 21.9938 69.2358 22.054 69.2306 22.0906H67.7903ZM68.8829 21.8239C68.8881 21.5861 68.7862 21.2175 68.3654 21.2175C67.9889 21.2175 67.8243 21.5652 67.7929 21.8239H68.8829Z" fill="white"/>
<path d="M69.7063 21.6383C69.7063 21.3978 69.7011 21.1887 69.6906 20.9979H70.0174L70.0304 21.4004H70.0461C70.1402 21.1259 70.365 20.9508 70.6134 20.9508C70.6552 20.9508 70.6866 20.956 70.7179 20.9639V21.3141C70.6787 21.3063 70.6421 21.3011 70.5898 21.3011C70.3284 21.3011 70.1402 21.4997 70.0906 21.7794C70.0827 21.8317 70.0723 21.8892 70.0723 21.952V23.0446H69.7037V21.6383H69.7063Z" fill="white"/>
</g>
<defs>
<clipPath id="clip0">
<rect width="80.9516" height="31.0773" fill="white"/>
</clipPath>
</defs>
</svg>
